<?xml version="1.0" encoding="UTF-8" standalone="no"?>
<svg
   width="32"
   height="32"
   viewBox="0 0 32 32"
   fill="none"
   version="1.1"
   id="svg4"
   xml:space="preserve"
   sodipodi:docname="discord.svg"
   inkscape:version="1.4.2 (ebf0e940d0, 2025-05-08)"
   xmlns:inkscape="http://www.inkscape.org/namespaces/inkscape"
   xmlns:sodipodi="http://sodipodi.sourceforge.net/DTD/sodipodi-0.dtd"
   xmlns:xlink="http://www.w3.org/1999/xlink"
   xmlns="http://www.w3.org/2000/svg"
   xmlns:svg="http://www.w3.org/2000/svg"><sodipodi:namedview
     id="namedview1"
     pagecolor="#ffffff"
     bordercolor="#000000"
     borderopacity="0.25"
     inkscape:showpageshadow="2"
     inkscape:pageopacity="0.0"
     inkscape:pagecheckerboard="0"
     inkscape:deskcolor="#d1d1d1"
     inkscape:current-layer="svg4" /><defs
     id="defs4"><style
       id="style1">.g{fill:#000;}.g,.h,.i{stroke-width:0px;}.h{fill:url(#e);}.i{fill:#fff;}</style><style
       id="style1-7">.g{fill:#000;}.g,.h,.i{stroke-width:0px;}.h{fill:url(#e);}.i{fill:#fff;}</style><style
       id="style1-5">.g{fill:#000;}.g,.h,.i{stroke-width:0px;}.h{fill:url(#e);}.i{fill:#fff;}</style><linearGradient
       id="linearGradient2-5"><stop
         style="stop-color:#5865f2;stop-opacity:1;"
         offset="0"
         id="stop3-3" /><stop
         style="stop-color:#1f30f4;stop-opacity:1;"
         offset="1"
         id="stop4-5" /></linearGradient><style
       id="style1-3">.g{fill:#000;}.g,.h,.i{stroke-width:0px;}.h{fill:url(#e);}.i{fill:#fff;}</style><style
       id="style1-6">.cls-1{fill:#fff;}</style><style
       id="style1-62">.g{fill:#000;}.g,.h,.i{stroke-width:0px;}.h{fill:url(#e);}.i{fill:#fff;}</style><style
       id="style1-6-9">.cls-1{fill:#fff;}</style><style
       id="style1-67">.cls-1{fill:#fff;}</style><style
       id="style1-56">.g{fill:#000;}.g,.h,.i{stroke-width:0px;}.h{fill:url(#e);}.i{fill:#fff;}</style><style
       id="style1-7-1">.g{fill:#000;}.g,.h,.i{stroke-width:0px;}.h{fill:url(#e);}.i{fill:#fff;}</style><style
       id="style1-5-2">.g{fill:#000;}.g,.h,.i{stroke-width:0px;}.h{fill:url(#e);}.i{fill:#fff;}</style><style
       id="style1-3-7">.g{fill:#000;}.g,.h,.i{stroke-width:0px;}.h{fill:url(#e);}.i{fill:#fff;}</style><style
       id="style1-6-1">.cls-1{fill:#fff;}</style><style
       id="style1-2">.g{fill:#000;}.g,.h,.i{stroke-width:0px;}.h{fill:url(#e);}.i{fill:#fff;}</style><style
       id="style1-6-8">.cls-1{fill:#fff;}</style><style
       id="style1-79">.g{fill:#000;}.g,.h,.i{stroke-width:0px;}.h{fill:url(#e);}.i{fill:#fff;}</style><style
       id="style1-7-2">.g{fill:#000;}.g,.h,.i{stroke-width:0px;}.h{fill:url(#e);}.i{fill:#fff;}</style><style
       id="style1-5-0">.g{fill:#000;}.g,.h,.i{stroke-width:0px;}.h{fill:url(#e);}.i{fill:#fff;}</style><style
       id="style1-53">.g{fill:#000;}.g,.h,.i{stroke-width:0px;}.h{fill:url(#e);}.i{fill:#fff;}</style><style
       id="style1-6-2">.cls-1{fill:#fff;}</style><style
       id="style1-67-3">.cls-1{fill:#fff;}</style><style
       id="style1-675">.g{fill:#000;}.g,.h,.i{stroke-width:0px;}.h{fill:url(#e);}.i{fill:#fff;}</style><style
       id="style1-7-3">.g{fill:#000;}.g,.h,.i{stroke-width:0px;}.h{fill:url(#e);}.i{fill:#fff;}</style><style
       id="style1-5-5">.g{fill:#000;}.g,.h,.i{stroke-width:0px;}.h{fill:url(#e);}.i{fill:#fff;}</style><style
       id="style1-3-9">.g{fill:#000;}.g,.h,.i{stroke-width:0px;}.h{fill:url(#e);}.i{fill:#fff;}</style><style
       id="style1-6-6">.cls-1{fill:#fff;}</style><style
       id="style1-70">.g{fill:#000;}.g,.h,.i{stroke-width:0px;}.h{fill:url(#e);}.i{fill:#fff;}</style><style
       id="style1-6-3">.cls-1{fill:#fff;}</style><linearGradient
       id="linearGradient4"><stop
         id="stop1"
         style="stop-color:#ffffff;stop-opacity:1"
         offset="0" /><stop
         id="stop2"
         style="stop-color:#ffffff;stop-opacity:0.23529412"
         offset="0.06818181" /><stop
         id="stop3"
         style="stop-color:#ffffff;stop-opacity:0.15686275"
         offset="0.93181819" /><stop
         id="stop4"
         style="stop-color:#ffffff;stop-opacity:0.39215687"
         offset="1" /></linearGradient><linearGradient
       xlink:href="#linearGradient2-5"
       id="linearGradient930-9-2-8"
       x1="16.999996"
       y1="2.5"
       x2="16.999996"
       y2="29"
       gradientUnits="userSpaceOnUse"
       gradientTransform="translate(4e-6)" /><linearGradient
       x1="23.99999"
       y1="6.2399855"
       x2="23.999994"
       y2="38.799984"
       id="linearGradient4161-0-2"
       xlink:href="#linearGradient4"
       gradientUnits="userSpaceOnUse"
       gradientTransform="matrix(0.67567568,0,0,0.67567568,-0.216213,-0.21620614)" /></defs><path
     id="rect5505-21-1-2-1"
     style="color:#000000;font-variation-settings:normal;display:inline;overflow:visible;visibility:visible;opacity:1;vector-effect:none;fill:url(#linearGradient930-9-2-8);fill-opacity:1;fill-rule:nonzero;stroke:#0a0f9f;stroke-width:1;stroke-linecap:butt;stroke-linejoin:round;stroke-miterlimit:4;stroke-dasharray:none;stroke-dashoffset:0;stroke-opacity:0.501961;marker:none;enable-background:accumulate;stop-color:#000000;stop-opacity:1"
     d="m 5.5,2.5 c -1.662,0 -3,1.338 -3,3 v 19 c 0,1.662 1.338,3 3,3 h 15 v 4 l 4,-4 h 2 c 1.662,0 3,-1.338 3,-3 v -19 c 0,-1.662 -1.338,-3 -3,-3 z" /><path
     id="rect6741-7-4-3-8"
     style="opacity:0.3;fill:none;stroke:url(#linearGradient4161-0-2);stroke-width:1;stroke-linecap:round;stroke-linejoin:round;stroke-miterlimit:4;stroke-dasharray:none;stroke-dashoffset:0;stroke-opacity:1"
     d="m 5.5,3.5 c -1.108,0 -2,0.892 -2,2 v 19 c 0,1.108 0.892,2 2,2 h 16 V 29 L 24,26.5 h 2.5 c 1.108,0 2,-0.892 2,-2 v -19 c 0,-1.108 -0.892,-2 -2,-2 z" /><path
     class="cls-1"
     d="m 22.594807,10.005912 a 15.713747,15.713747 0 0 0 -3.919845,-1.2059908 10.768736,10.768736 0 0 0 -0.50212,1.0206828 14.597421,14.597421 0 0 0 -4.350235,0 10.815063,10.815063 0 0 0 -0.502122,-1.0206828 15.824334,15.824334 0 0 0 -3.92283,1.2089798 C 6.91693,13.679178 6.244442,17.258295 6.580682,20.786603 v 0 a 15.800423,15.800423 0 0 0 4.807525,2.413476 11.611585,11.611585 0 0 0 1.029653,-1.660292 10.22477,10.22477 0 0 1 -1.621438,-0.774105 c 0.13599,-0.09863 0.268995,-0.200252 0.397513,-0.298883 a 11.293275,11.293275 0 0 0 9.612062,0 c 0.130015,0.106103 0.263015,0.207723 0.39751,0.298883 a 10.263624,10.263624 0 0 1 -1.624425,0.7756 11.506976,11.506976 0 0 0 1.029653,1.658797 15.728691,15.728691 0 0 0 4.810515,-2.411981 v 0 c 0.394522,-4.091702 -0.673978,-7.637942 -2.824443,-10.782186 z m -9.75104,8.610804 c -0.936997,0 -1.711102,-0.85032 -1.711102,-1.896409 0,-1.046088 0.747207,-1.903882 1.708112,-1.903882 0.960908,0 1.729038,0.857794 1.712598,1.903882 -0.01645,1.046089 -0.75468,1.896409 -1.709608,1.896409 z m 6.312395,0 c -0.938487,0 -1.709605,-0.85032 -1.709605,-1.896409 0,-1.046088 0.747205,-1.903882 1.709605,-1.903882 0.962403,0 1.724555,0.857794 1.708115,1.903882 -0.01645,1.046089 -0.753182,1.896409 -1.708115,1.896409 z"
     id="path32"
     style="opacity:0.149715;fill:#000000;fill-opacity:1;stroke:#000000;stroke-width:2;stroke-dasharray:none;stroke-opacity:1" /><path
     class="cls-1"
     d="m 22.594807,10.005912 a 15.713747,15.713747 0 0 0 -3.919845,-1.2059908 10.768736,10.768736 0 0 0 -0.50212,1.0206828 14.597421,14.597421 0 0 0 -4.350235,0 10.815063,10.815063 0 0 0 -0.502122,-1.0206828 15.824334,15.824334 0 0 0 -3.92283,1.2089798 C 6.91693,13.679178 6.244442,17.258295 6.580682,20.786603 v 0 a 15.800423,15.800423 0 0 0 4.807525,2.413476 11.611585,11.611585 0 0 0 1.029653,-1.660292 10.22477,10.22477 0 0 1 -1.621438,-0.774105 c 0.13599,-0.09863 0.268995,-0.200252 0.397513,-0.298883 a 11.293275,11.293275 0 0 0 9.612062,0 c 0.130015,0.106103 0.263015,0.207723 0.39751,0.298883 a 10.263624,10.263624 0 0 1 -1.624425,0.7756 11.506976,11.506976 0 0 0 1.029653,1.658797 15.728691,15.728691 0 0 0 4.810515,-2.411981 v 0 c 0.394522,-4.091702 -0.673978,-7.637942 -2.824443,-10.782186 z m -9.75104,8.610804 c -0.936997,0 -1.711102,-0.85032 -1.711102,-1.896409 0,-1.046088 0.747207,-1.903882 1.708112,-1.903882 0.960908,0 1.729038,0.857794 1.712598,1.903882 -0.01645,1.046089 -0.75468,1.896409 -1.709608,1.896409 z m 6.312395,0 c -0.938487,0 -1.709605,-0.85032 -1.709605,-1.896409 0,-1.046088 0.747205,-1.903882 1.709605,-1.903882 0.962403,0 1.724555,0.857794 1.708115,1.903882 -0.01645,1.046089 -0.753182,1.896409 -1.708115,1.896409 z"
     id="path31"
     style="opacity:0.15;fill:#000000;fill-opacity:1;stroke-width:0.149441" /><path
     class="cls-1"
     d="m 22.594807,9.005912 a 15.713747,15.713747 0 0 0 -3.919845,-1.2059908 10.768736,10.768736 0 0 0 -0.50212,1.020683 14.597421,14.597421 0 0 0 -4.350235,0 10.815063,10.815063 0 0 0 -0.502122,-1.020683 15.824334,15.824334 0 0 0 -3.92283,1.2089798 C 6.91693,12.679178 6.244442,16.258295 6.580682,19.786603 v 0 a 15.800423,15.800423 0 0 0 4.807525,2.413476 11.611585,11.611585 0 0 0 1.029653,-1.660292 10.22477,10.22477 0 0 1 -1.621438,-0.774105 c 0.13599,-0.09863 0.268995,-0.200252 0.397513,-0.298883 a 11.293275,11.293275 0 0 0 9.612062,0 c 0.130015,0.106103 0.263015,0.207723 0.39751,0.298883 a 10.263624,10.263624 0 0 1 -1.624425,0.7756 11.506976,11.506976 0 0 0 1.029653,1.658797 15.728691,15.728691 0 0 0 4.810515,-2.411981 v 0 C 25.813772,15.696396 24.745272,12.150156 22.594807,9.005912 Z m -9.75104,8.610804 c -0.936997,0 -1.711102,-0.85032 -1.711102,-1.896409 0,-1.046088 0.747207,-1.903882 1.708112,-1.903882 0.960908,0 1.729038,0.857794 1.712598,1.903882 -0.01645,1.046089 -0.75468,1.896409 -1.709608,1.896409 z m 6.312395,0 c -0.938487,0 -1.709605,-0.85032 -1.709605,-1.896409 0,-1.046088 0.747205,-1.903882 1.709605,-1.903882 0.962403,0 1.724555,0.857794 1.708115,1.903882 -0.01645,1.046089 -0.753182,1.896409 -1.708115,1.896409 z"
     id="path1-7"
     style="fill:#abacae;stroke-width:0.149441" /><path
     id="path7"
     style="fill:#d4d4d4;stroke-width:0.149441"
     class="cls-1"
     d="M 13.320312,7.8007812 C 11.966084,8.031828 10.647707,8.4382399 9.398437,9.009766 c -1.976491,2.924254 -2.803531,5.790213 -2.888671,8.61914 0.01162,0.386532 0.0336,0.772936 0.07031,1.158203 1.453196,1.073 3.079629,1.88886 4.808594,2.41211 0.203921,-0.275883 0.395515,-0.560668 0.574219,-0.853516 -0.400604,-0.168385 -0.790066,-0.362137 -1.166016,-0.580078 l 0.396484,-1.298828 c 3.044454,1.431956 6.568827,1.431956 9.613281,0 l 0.396485,1.298828 c -0.377215,0.218663 -0.767981,0.413067 -1.169922,0.582031 0.179273,0.292297 0.371523,0.576435 0.576172,0.851563 1.730046,-0.521118 3.357366,-1.33643 4.810546,-2.410157 0.03953,-0.409966 0.05978,-0.813731 0.07031,-1.21289 C 25.381902,14.40041 24.349014,11.569417 22.5957,9.005859 21.347311,8.4346554 20.02945,8.0295134 18.675778,7.8007812 c -0.185809,0.330731 -0.354012,0.6710492 -0.503906,1.0195313 -1.441734,-0.2172218 -2.907875,-0.2172218 -4.349609,0 C 13.672931,8.471907 13.505381,8.1315935 13.320312,7.8007812 Z m -0.480468,5.0156248 c 0.960908,0 1.72933,0.858209 1.71289,1.904297 -0.0026,0.163784 -0.02452,0.320982 -0.06055,0.472656 0.04188,0.167726 0.06342,0.344548 0.06055,0.527344 -0.01645,1.046089 -0.754056,1.896484 -1.708984,1.896485 -0.936997,0 -1.710938,-0.850396 -1.710938,-1.896485 0,-0.175686 0.02092,-0.34592 0.06055,-0.507812 -0.03859,-0.157478 -0.06055,-0.321431 -0.06055,-0.492188 0,-1.046088 0.746127,-1.904297 1.707032,-1.904297 z m 6.316406,0 c 0.962403,0 1.725424,0.858209 1.708984,1.904297 -0.0026,0.16445 -0.02431,0.322379 -0.06055,0.474609 0.04123,0.167082 0.06341,0.343383 0.06055,0.525391 -0.01645,1.046089 -0.754051,1.896484 -1.708984,1.896485 -0.938487,0 -1.708984,-0.850396 -1.708984,-1.896485 0,-0.175017 0.02121,-0.344519 0.06055,-0.505859 -0.0388,-0.15811 -0.06055,-0.322619 -0.06055,-0.494141 0,-1.046088 0.746584,-1.904297 1.708984,-1.904297 z" /><path
     id="path9"
     style="fill:#fafafa;stroke-width:0.149441"
     class="cls-1"
     d="M 13.320312,7.8007812 C 11.966084,8.031828 10.647707,8.4382399 9.398437,9.009766 7.539244,11.760476 6.693734,14.45971 6.529297,17.125 c 7.6e-5,0.0013 -7.6e-5,0.0026 0,0.0039 -4e-5,6.46e-4 3.9e-5,0.0013 0,0.002 0.0129,0.218979 0.02995,0.437671 0.05078,0.65625 1.453196,1.073 3.07963,1.88886 4.808594,2.41211 0.01966,-0.02921 0.0392,-0.05851 0.05859,-0.08789 -0.220879,-0.107386 -0.437816,-0.222695 -0.650391,-0.345703 v -2 c 0.13599,-0.09863 0.267966,-0.200197 0.396484,-0.298828 3.044454,1.431956 6.568828,1.431956 9.613282,0 0.130015,0.106103 0.261989,0.207668 0.396484,0.298828 v 2 c -0.213203,0.123681 -0.430792,0.239641 -0.652344,0.347656 0.0194,0.02873 0.03893,0.05738 0.05859,0.08594 1.730046,-0.521118 3.357367,-1.33643 4.810547,-2.410157 0.02055,-0.213101 0.03421,-0.424603 0.04687,-0.634765 C 25.284647,14.149802 24.270652,11.454903 22.59569,9.005903 21.347301,8.4346994 20.02944,8.0295574 18.675768,7.8008252 c -0.185809,0.330731 -0.354012,0.6710492 -0.503906,1.0195313 -1.441734,-0.2172218 -2.907875,-0.2172218 -4.349609,0 C 13.672931,8.471907 13.505381,8.1315935 13.320312,7.8007812 Z m -0.480468,4.0156248 c 0.960908,0 1.72933,0.858209 1.71289,1.904297 -0.0057,0.361373 -0.09873,0.696711 -0.255859,0.984375 0.16659,0.294639 0.261717,0.642887 0.255859,1.015625 -0.01645,1.046089 -0.754056,1.896484 -1.708984,1.896485 -0.936997,0 -1.710938,-0.850396 -1.710938,-1.896485 0,-0.369417 0.09494,-0.714844 0.257813,-1.007812 -0.162146,-0.289294 -0.257813,-0.627648 -0.257813,-0.992188 0,-1.046088 0.746127,-1.904297 1.707032,-1.904297 z m 6.316406,0 c 0.962403,0 1.725424,0.858209 1.708984,1.904297 -0.0057,0.360398 -0.09974,0.695263 -0.255859,0.982422 0.166205,0.294952 0.261727,0.644213 0.255859,1.017578 -0.01645,1.046089 -0.754051,1.896484 -1.708984,1.896485 -0.938487,0 -1.708984,-0.850396 -1.708984,-1.896485 0,-0.369193 0.09311,-0.714958 0.255859,-1.007812 -0.161616,-0.289218 -0.255859,-0.627795 -0.255859,-0.992188 0,-1.046088 0.746584,-1.904297 1.708984,-1.904297 z" /></svg>
