<svg height="32" viewBox="0 0 32 32" width="32" xmlns="http://www.w3.org/2000/svg" xmlns:xlink="http://www.w3.org/1999/xlink"><linearGradient id="a" x1="48.9045%" x2="48.9045%" y1=".395456%" y2="99.929117%"><stop offset="0" stop-color="#321d59"/><stop offset="1" stop-color="#1d1134"/></linearGradient><linearGradient id="b" x1="49.999971%" x2="49.999971%" y1="2.000002%" y2="98.000007%"><stop offset="0" stop-color="#fff"/><stop offset=".06249999" stop-color="#fff" stop-opacity=".235294"/><stop offset=".93749994" stop-color="#fff" stop-opacity=".156863"/><stop offset="1" stop-color="#fff" stop-opacity=".392157"/></linearGradient><linearGradient id="c" x1="87.235789%" x2="9.416496%" y1="15.491765%" y2="93.085653%"><stop offset="0" stop-color="#fff44f"/><stop offset=".05" stop-color="#fff44f"/><stop offset=".11" stop-color="#ffe847"/><stop offset=".22" stop-color="#ffc830"/><stop offset=".37" stop-color="#ff980e"/><stop offset=".4" stop-color="#ff8b16"/><stop offset=".46" stop-color="#ff672a"/><stop offset=".53" stop-color="#ff3647"/><stop offset=".7" stop-color="#e31587"/><stop offset="1" stop-color="#e31587"/></linearGradient><radialGradient id="d" cx="85.925388%" cy="-12.928915%" gradientTransform="matrix(.813607 0 0 1 .160159 0)" r="128.293045%"><stop offset="0" stop-color="#ffbd4f"/><stop offset=".13" stop-color="#ffbd4f"/><stop offset=".19" stop-color="#ffac31"/><stop offset=".25" stop-color="#ff9d17"/><stop offset=".28" stop-color="#ff980e"/><stop offset=".4" stop-color="#ff563b"/><stop offset=".47" stop-color="#ff3750"/><stop offset=".71" stop-color="#f5156c"/><stop offset=".78" stop-color="#eb0878"/><stop offset=".86" stop-color="#e50080"/><stop offset="1" stop-color="#e50080"/></radialGradient><radialGradient id="e" cx="47.784708%" cy="39.519103%" gradientTransform="matrix(.813607 0 0 1 .089067 0)" r="128.293045%"><stop offset="0" stop-color="#960e18"/><stop offset=".3" stop-color="#960e18"/><stop offset=".35" stop-color="#b11927" stop-opacity=".74"/><stop offset=".43" stop-color="#db293d" stop-opacity=".34"/><stop offset=".5" stop-color="#f5334b" stop-opacity=".09"/><stop offset=".53" stop-color="#ff3750" stop-opacity="0"/><stop offset="1" stop-color="#ff3750" stop-opacity="0"/></radialGradient><radialGradient id="f" cx="50%" cy="-29.999489%" gradientTransform="matrix(1 0 0 .588951 0 -.123313)" r="314.960083%"><stop offset="0" stop-color="#fff44f"/><stop offset=".13" stop-color="#fff44f"/><stop offset=".25" stop-color="#ffdc3e"/><stop offset=".51" stop-color="#ff9d12"/><stop offset="1" stop-color="#ff980e"/></radialGradient><radialGradient id="g" cx="19.463056%" cy="110.099796%" gradientTransform="matrix(1 0 0 .912036 0 .096848)" r="111.769667%"><stop offset="0" stop-color="#3a8ee6"/><stop offset=".35" stop-color="#3a8ee6"/><stop offset=".47" stop-color="#5c79f0"/><stop offset=".67" stop-color="#9059ff"/><stop offset="1" stop-color="#c139e6"/></radialGradient><radialGradient id="h" cx="48.795952%" cy="28.731752%" gradientTransform="matrix(.97072832 -.21905299 .2401802 .88533917 -.054725 .139833)" r="59.216185%"><stop offset="0" stop-color="#9059ff" stop-opacity="0"/><stop offset=".21" stop-color="#9059ff" stop-opacity="0"/><stop offset=".28" stop-color="#8c4ff3" stop-opacity=".06"/><stop offset=".75" stop-color="#7716a8" stop-opacity=".45"/><stop offset=".97" stop-color="#6e008b" stop-opacity=".6"/><stop offset="1" stop-color="#6e008b" stop-opacity=".6"/></radialGradient><radialGradient id="i" cx="208.04853%" cy="-103.932584%" gradientTransform="matrix(1 0 0 .996255 0 -.003892)" r="293.267259%"><stop offset="0" stop-color="#ffe226"/><stop offset=".12" stop-color="#ffdb27"/><stop offset=".3" stop-color="#ffc82a"/><stop offset=".5" stop-color="#ffa930"/><stop offset=".73" stop-color="#ff7e37"/><stop offset=".79" stop-color="#ff7139"/><stop offset="1" stop-color="#ff7139"/></radialGradient><radialGradient id="j" cx="79.284489%" cy="-40.870048%" gradientTransform="matrix(.839405 0 0 1 .127327 0)" r="193.77375%"><stop offset="0" stop-color="#fff44f"/><stop offset=".11" stop-color="#fff44f"/><stop offset=".46" stop-color="#ff980e"/><stop offset=".62" stop-color="#ff5634"/><stop offset=".72" stop-color="#ff3647"/><stop offset=".9" stop-color="#e31587"/><stop offset="1" stop-color="#e31587"/></radialGradient><radialGradient id="k" cx=".43199%" cy="1.756615%" gradientTransform="matrix(.10049871 .47105998 -.99493719 .04758182 .021363 .014695)" r="346.848896%"><stop offset="0" stop-color="#fff44f"/><stop offset=".06" stop-color="#ffe847"/><stop offset=".17" stop-color="#ffc830"/><stop offset=".3" stop-color="#ff980e"/><stop offset=".36" stop-color="#ff8b16"/><stop offset=".45" stop-color="#ff672a"/><stop offset=".57" stop-color="#ff3647"/><stop offset=".74" stop-color="#e31587"/><stop offset="1" stop-color="#e31587"/></radialGradient><radialGradient id="l" cx="15.34403%" cy="-42.477256%" gradientTransform="matrix(.982826 0 0 1 .002635 0)" r="238.364264%"><stop offset="0" stop-color="#fff44f"/><stop offset=".14" stop-color="#fff44f"/><stop offset=".48" stop-color="#ff980e"/><stop offset=".59" stop-color="#ff5634"/><stop offset=".66" stop-color="#ff3647"/><stop offset=".9" stop-color="#e31587"/><stop offset="1" stop-color="#e31587"/></radialGradient><radialGradient id="m" cx="155.387205%" cy="-44.717154%" gradientTransform="matrix(.894782 0 0 1 .163495 0)" r="313.088672%"><stop offset="0" stop-color="#fff44f"/><stop offset=".09" stop-color="#fff44f"/><stop offset=".23" stop-color="#ffe141"/><stop offset=".51" stop-color="#ffaf1e"/><stop offset=".63" stop-color="#ff980e"/><stop offset="1" stop-color="#ff980e"/></radialGradient><linearGradient id="n" x1="86.299524%" x2="20.086026%" y1="15.076501%" y2="83.508376%"><stop offset="0" stop-color="#fff44f" stop-opacity=".8"/><stop offset=".17" stop-color="#fff44f" stop-opacity=".8"/><stop offset=".27" stop-color="#fff44f" stop-opacity=".63"/><stop offset=".49" stop-color="#fff44f" stop-opacity=".22"/><stop offset=".6" stop-color="#fff44f" stop-opacity="0"/><stop offset="1" stop-color="#fff44f" stop-opacity="0"/></linearGradient><g fill="none" fill-rule="evenodd"><g transform="translate(2.499996 2.499996)"><rect fill="url(#a)" fill-rule="nonzero" height="27.000008" rx="3" stroke="#1d1134" stroke-opacity=".5" width="27.000008"/><rect height="25" opacity=".35" rx="2" stroke="url(#b)" stroke-linecap="round" stroke-linejoin="round" width="25" x="1.000004" y="1.000004"/></g><g fill-rule="nonzero" transform="translate(6.0325 6.445308)"><path d="m19.216809 7.21476293c-.4335837-1.01670953-1.3123796-2.11433507-2.0022095-2.46106013.5614991 1.07254158.8862715 2.14831979 1.0104492 2.95100651 0 0 0 .00566412.0020765.0161832-1.1283972-2.74062491-3.0421457-3.84593747-4.6049572-6.25197472-.0793242-.121374-.1582331-.242748-.2354808-.37261818-.0436076-.07322898-.0789089-.1395801-.1096418-.20229-.0647469-.1216572-.1147917-.25023273-.1490963-.38313726.0005399-.01302747-.0091784-.02443663-.0224268-.0262977-.006105-.00161832-.0125839-.00161832-.0186889 0-.0016613.00072825-.0031979.00169924-.0045684.00283206-.0024919 0-.0049838.00283206-.0074756.00364122l.0041531-.00525954c-2.5072265 1.43059488-3.35778136 4.07695265-3.43585964 5.40114299-1.00176924.06671524-1.95997247.42622503-2.74893688 1.03127441-.08248056-.06792898-.16869892-.13140758-.25832282-.19015259-.22738222-.77541803-.23697588-1.59622993-.02782577-2.37650292-1.02540039.4551525-1.82279558 1.173282-2.40256834 1.80887718h-.00456841c-.39579043-.48832806-.36796466-2.09896104-.34553792-2.43516702-.00456841-.02103816-.2948701.14686254-.332248.17235108-.34923418.24270755-.67570937.51511126-.97556319.81401496-.34121869.33701514-.65295038.7011776-.93195563 1.08872478-.64190314.88615157-1.09712443 1.88756798-1.33937475 2.94615155-.00456841.02103816-.00872151.04288548-.01328992.06432822-.01868895.08536638-.08638448.5138166-.09842847.60687v.02144274c-.08825338.44269143-.14319889.89108743-.16446276 1.34158723v.0497634c0 5.3695857 4.46873559 9.7228665 9.98072989 9.7228665 4.93678991 0 9.03548431-3.4915254 9.83827861-8.0778442.0166124-.1242061.0303176-.2496259.0452687-.3750457.1985182-1.6676788-.0220114-3.42031931-.6474682-4.88570807z" fill="#000" opacity=".15"/><path d="m18.2730206 7.23153932c-.3908794-.94088136-1.1831218-1.95664385-1.8050095-2.27750948.5061964.99254934.7989816 1.98809393.9109289 2.73091471 0 0 0 .00524168.001872.01497623-1.0172601-2.53622378-2.7425213-3.55909998-4.1514097-5.78569029-.0715115-.11232169-.1426485-.22464338-.212288-.34482759-.0393126-.06776742-.0711371-.12916995-.0988431-.18720282-.0583698-.11258378-.1034857-.23156989-.1344116-.35456214.0004867-.01205586-.0082744-.0226141-.0202179-.02433637-.0055038-.00149762-.0113445-.00149762-.0168482 0-.0014977.00067394-.002883.00157251-.0041185.00262084-.0022464 0-.0044929.00262084-.0067393.00336966l.003744-.00486728c-2.2602868 1.32389833-3.02706952 3.77288559-3.09745778 4.99831524-.90310383.06173949-1.76693252.39443634-2.4781909.95435996-.07435696-.0628627-.15208357-.12160695-.23288031-.17597064-.20498708-.71758585-.21363585-1.47718-.02508518-2.19925871-.92440751.42120634-1.64326633 1.08577634-2.1659366 1.6739676h-.00411846c-.35680857-.4519076-.33172339-1.94241644-.31150549-2.25354752-.00411846-.0194691-.265828.13590924-.29952451.1594968-.3148377.22460594-.60915797.47669325-.87947884.75330414-.30761167.31187989-.58864054.6488824-.84016624 1.00752556-.57868135.82006067-.98906737 1.7467895-1.20745818 2.72642184-.00411846.01946909-.00786252.039687-.01198098.0595305-.01684825.07899959-.07787637.47549516-.08873413.56160845v.0198435c-.0795612.40967465-.12909507.82462839-.14826464 1.24152909v.0460519c0 4.9691116 4.02860464 8.9977162 8.99771624 8.9977162 4.4505598 0 8.145569-3.2311206 8.8692951-7.4753829.0149762-.1149425.0273316-.2310083.0408102-.347074.1789659-1.5433-.0198435-3.16522526-.5836984-4.52132248z" fill="#000" opacity=".15"/><g transform="translate(.948897)"><path d="m17.323643 6.22918829c-.3908687-.94085528-1.1830891-1.95658961-1.8049596-2.27744635.5061824.99252183.7989595 1.98803882.9109037 2.73083901 0 0 0 .00524153.001872.01497581-1.017232-2.53615347-2.7424453-3.55900132-4.1512947-5.78552991-.0715094-.11231858-.1426445-.22463716-.2122821-.34481803-.0393115-.06776555-.0711351-.12916637-.0988403-.18719763-.0583682-.11258066-.1034829-.23156347-.1344079-.35455231.0004867-.01205553-.0082741-.02261348-.0202174-.02433569-.0055036-.00149759-.0113441-.00149759-.0168477 0-.0014976.00067391-.0028829.00157246-.0041184.00262076-.0022464 0-.0044927.00262077-.0067391.00336956l.0037439-.00486714c-2.26022412 1.32386163-3.02698561 3.77278101-3.09737192 4.99817669-.9030788.06173778-1.76688354.3944254-2.47812221.95433351-.07435489-.06286096-.15207935-.12160358-.23287385-.17596577-.2049814-.71756595-.21362993-1.47713905-.02508448-2.19919774-.92438189.42119466-1.64322078 1.08574624-2.16587656 1.67392119h-.00411835c-.35679868-.45189507-.3317142-1.94236259-.31149685-2.25348505-.00411835-.01946856-.26582064.13590548-.29951621.15949238-.31482897.22459971-.60914108.47668004-.87945446.75328326-.30760314.31187125-.58862422.64886442-.84014296 1.00749763-.57866531.82003794-.98903995 1.74674108-1.2074247 2.72634627-.00411835.01946855-.0078623.0396859-.01198065.05952884-.01684779.0789974-.07787422.47548198-.08873168.56159289v.01984295c-.07955899.40966329-.12909148.82460555-.14826052 1.24149467v.04605062c0 4.96897389 4.02849297 8.99746679 8.99746683 8.99746679 4.45043647 0 8.14534317-3.231031 8.86904927-7.4751757.0149758-.1149393.0273308-.2310018.0408091-.3470644.1789609-1.54325723-.019843-3.16513748-.5836822-4.52119711zm-10.37074867 7.04312361c.04193227.0304597.08161816.0643678.12467362.0942529l.00599032.0057471c-.04305545-.0321839-.0868597-.0655173-.13028955-.1zm9.51059377-6.53010051v-.026z" fill="url(#c)"/><path d="m17.323643 6.22918829c-.3908687-.94085528-1.1830891-1.95658961-1.8049596-2.27744635.5061824.99252183.7989595 1.98803882.9109037 2.73083901v.01834537c.8491284 2.30178204.3863759 4.64250118-.2800477 6.07269108-1.0310845 2.212676-3.5271777 4.4807624-7.43474099 4.3703158-4.21831137-.1198064-7.93717946-3.2538691-8.63168266-7.35536919-.1265456-.6473294 0-.97567404.06364719-1.50095059-.07749982.40472127-.10707704.52190699-.14563975 1.24149467v.04605062c0 4.96897389 4.02849297 8.99746679 8.99746682 8.99746679 4.45043639 0 8.14534319-3.231031 8.86904929-7.4751757.0149758-.1149393.0273308-.2310018.0408091-.3470644.1778377-1.54325723-.0209662-3.16513748-.5848054-4.52119711z" fill="url(#d)"/><path d="m17.323643 6.22918829c-.3908687-.94085528-1.1830891-1.95658961-1.8049596-2.27744635.5061824.99252183.7989595 1.98803882.9109037 2.73083901v.01834537c.8491284 2.30178204.3863759 4.64250118-.2800477 6.07269108-1.0310845 2.212676-3.5271777 4.4807624-7.43474099 4.3703158-4.21831137-.1198064-7.93717946-3.2538691-8.63168266-7.35536919-.1265456-.6473294 0-.97567404.06364719-1.50095059-.07749982.40472127-.10707704.52190699-.14563975 1.24149467v.04605062c0 4.96897389 4.02849297 8.99746679 8.99746682 8.99746679 4.45043639 0 8.14534319-3.231031 8.86904929-7.4751757.0149758-.1149393.0273308-.2310018.0408091-.3470644.1778377-1.54325723-.0209662-3.16513748-.5848054-4.52119711z" fill="url(#e)"/><path d="m12.9510807 7.2864805c.019843.01385263.0374396.02770525.0561593.04155787-.2257977-.40093988-.5071558-.76799699-.8356502-1.09023899-2.79673255-2.79673257-.7330659-6.06445438-.3852527-6.23068587l.003744-.00486714c-2.26022422 1.32386163-3.0269857 3.77278101-3.09737201 4.99817669.10483067-.00711351.20928695-.016099.3159896-.016099 1.68665061 0 3.15577761.92775145 3.94238201 2.30215644z" fill="url(#f)"/><path d="m9.01431461 7.84507822c-.01460141.22463716-.80532419.99589139-1.08200229.99589139-2.55861719 0-2.97382153 1.54774999-2.97382153 1.54774999.11231858 1.3036443 1.02060147 2.3770355 2.11945155 2.9449931.05016897.0258333.10071233.0490458.14975811.0722583.08798288.0374395.17634016.074879.26432305.1082002.37682882.1329103.77147886.2086505 1.17073397.2246372 4.48450643.2104101 5.35385213-5.36208891 2.11720513-6.98022521.8285368-.14414218 1.6888971.189444 2.1692462.52677413-.7862301-1.374405-2.2557315-2.30215644-3.94238209-2.30215644-.10670265 0-.21115893.00898548-.3159896.01609899-.90240489.06252401-1.76538596.39554859-2.47587584.9554567.13740306.11643693.2924027.27143656.61850097.59266769.61176185.60352516 2.17748282 1.22464689 2.18085237 1.29765396z" fill="url(#g)"/><path d="m9.01431461 7.84507822c-.01460141.22463716-.80532419.99589139-1.08200229.99589139-2.55861719 0-2.97382153 1.54774999-2.97382153 1.54774999.11231858 1.3036443 1.02060147 2.3770355 2.11945155 2.9449931.05016897.0258333.10071233.0490458.14975811.0722583.08798288.0374395.17634016.074879.26432305.1082002.37682882.1329103.77147886.2086505 1.17073397.2246372 4.48450643.2104101 5.35385213-5.36208891 2.11720513-6.98022521.8285368-.14414218 1.6888971.189444 2.1692462.52677413-.7862301-1.374405-2.2557315-2.30215644-3.94238209-2.30215644-.10670265 0-.21115893.00898548-.3159896.01609899-.90240489.06252401-1.76538596.39554859-2.47587584.9554567.13740306.11643693.2924027.27143656.61850097.59266769.61176185.60352516 2.17748282 1.22464689 2.18085237 1.29765396z" fill="url(#h)"/><path d="m5.79676177 5.65561476c.07300708.0471738.13291032.0868597.18719763.12317604-.2049814-.71756595-.21362993-1.47713905-.02508448-2.19919774-.92438189.42119466-1.64322079 1.08574624-2.16587657 1.67392119.04230667-.00112318 1.34744854-.02471008 2.00376342.40210051z" fill="url(#i)"/><path d="m.08311575 9.78856401c.6945032 4.10150009 4.41337129 7.23556279 8.63467782 7.35536919 3.90756333.1104466 6.40215893-2.1576398 7.43474103-4.3703158.6664236-1.4305643 1.1291761-3.77090904.2800476-6.07269108v-.01722218c0 .00224637 0 .00524153.001872.01497581.3189848 2.08425839-.7409282 4.10337205-2.3980016 5.46879155-.0017222.0038188-.0033321.0077125-.0048671.0116062-3.2291591 2.6293779-6.3190432 1.5863127-6.94465767 1.1606253-.04342985-.0209661-.0872341-.042681-.13066395-.0651448-1.88283375-.8985486-2.6604527-2.6151508-2.49384681-4.08614979-1.58930786 0-2.1314322-1.34108381-2.1314322-1.34108381s1.42719472-1.01760631 3.3081565-.13253592c1.74206113.81992561 3.37816841.13291031 3.37816841.13253592-.00336956-.07300708-1.56909053-.69600079-2.17972919-1.29765397-.32609827-.32123113-.48109791-.47623076-.61850097-.59266769-.0743549-.06286096-.15207935-.12160358-.23287385-.17596577-.05353852-.03743953-.11231858-.07487905-.18719763-.12317604-.65631488-.42681059-1.96145675-.40322369-2.00451221-.40210051h-.00411834c-.35679868-.45189507-.3317142-1.94236259-.31149686-2.25348505-.00411835-.01946855-.26582063.13590548-.2995162.15949238-.31482898.22459971-.60914109.47668004-.87945446.75328326-.30760315.31187125-.58862423.64886442-.84014296 1.00749764-.57866531.82003793-.98903995 1.74674107-1.20742471 2.72634626-.00711351.01722218-.32722145 1.41483968-.16922665 2.1396689z" fill="url(#j)"/><path d="m12.1715898 6.23779938c.3284944.322242.6098525.68929911.8356502 1.09023899.0467994.03515572.0917643.07263268.1347823.11231858 2.0397054 1.87796661.9726789 4.53654735.8914351 4.72748895 1.6570734-1.3654195 2.7169864-3.38453316 2.3980017-5.46879156-1.017232-2.53765105-2.7424453-3.5604989-4.1512947-5.78702749-.0715094-.11231858-.1426445-.22463716-.2122821-.34481803-.0393115-.06776555-.0711351-.12916637-.0988403-.18719763-.0583682-.11258066-.1034829-.23156347-.1344079-.35455231.0004867-.01205553-.0082741-.02261348-.0202174-.02433569-.0055036-.00149759-.0113441-.00149759-.0168477 0-.0014976.00067391-.0028829.00157246-.0041184.00262076-.0022464 0-.0044927.00262077-.0067391.00336956-.3481876.16623149-2.41185425 3.4339533.3848783 6.23068587z" fill="url(#k)"/><path d="m13.1412735 7.43848498c-.043018-.0396859-.0879828-.07716287-.1347823-.11231858-.0183453-.01385263-.0374395-.02770525-.0561592-.04155788-.4803492-.33695573-1.3407095-.6709163-2.1692462-.52677412 3.2362726 1.6181363 2.3673012 7.1906353-2.11720515 6.9802252-.3992551-.0159867-.79390514-.0917269-1.17073397-.2246372-.08798288-.0329468-.17634016-.0692631-.26432305-.1082002-.05091775-.0232125-.10146111-.046425-.1497581-.0722583l.00599032.003744c.62561448.4268106 3.71549855 1.4698757 6.94465765-1.1606253 0 0 .001872-.0048672.0048671-.0116063.0801206-.187572 1.1471471-2.84615274-.8933071-4.72599132z" fill="url(#l)"/><path d="m4.95849079 10.3887196s.41520434-1.54774999 2.97382153-1.54774999c.2766781 0 1.06740088-.77200302 1.08200229-.99589139.01460142-.22388836-1.63610727.6873897-3.3781684-.13253592-1.88096178-.88507038-3.3081565.13253592-3.3081565.13253592s.54212433 1.34108382 2.1314322 1.34108382c-.16660589 1.47099896.61101306 3.18610366 2.49384681 4.08614986.04193227.0198429.08161817.0419322.12467362.0614008-1.09885008-.5668344-2.00600979-1.6413488-2.11945155-2.9449931z" fill="url(#m)"/><path d="m17.323643 6.22918829c-.3908687-.94085528-1.1830891-1.95658961-1.8049596-2.27744635.5061824.99252183.7989595 1.98803882.9109037 2.73083901 0 0 0 .00524153.001872.01497581-1.017232-2.53615347-2.7424453-3.55900132-4.1512947-5.78552991-.0715094-.11231858-.1426445-.22463716-.2122821-.34481803-.0393115-.06776555-.0711351-.12916637-.0988403-.18719763-.0583682-.11258066-.1034829-.23156347-.1344079-.35455231.0004867-.01205553-.0082741-.02261348-.0202174-.02433569-.0055036-.00149759-.0113441-.00149759-.0168477 0-.0014976.00067391-.0028829.00157246-.0041184.00262076-.0022464 0-.0044927.00262077-.0067391.00336956l.0037439-.00486714c-2.26022412 1.32386163-3.02698561 3.77278101-3.09737192 4.99817669.10483068-.00711351.20928695-.016099.3159896-.016099 1.68665062 0 3.15577762.92775145 3.94238202 2.30215644-.4803491-.33695573-1.3407094-.6709163-2.1692461-.52677413 3.2362726 1.61813631 2.3673012 7.19063533-2.11720516 6.98022523-.3992551-.0159867-.79390514-.0917269-1.17073397-.2246372-.08798289-.0329468-.17634017-.0692631-.26432305-.1082002-.05091776-.0232125-.10146112-.046425-.14975811-.0722583l.00599033.0037439c-.04342985-.0209661-.0872341-.042681-.13066395-.0651447.04193227.0198429.08161817.0419322.12467362.0614008-1.10109645-.5679576-2.00825616-1.642472-2.12169792-2.9461163 0 0 .41520434-1.54774999 2.97382153-1.54774999.2766781 0 1.06740088-.77200302 1.08200229-.99589139-.00336955-.07300707-1.56909052-.69600078-2.17972918-1.29765396-.32609827-.32123113-.48109791-.47623076-.61850097-.59266769-.0743549-.06286096-.15207935-.12160358-.23287385-.17596577-.2049814-.71756595-.21362993-1.47713905-.02508448-2.19919774-.92438189.42119466-1.64322079 1.08574624-2.16587657 1.67392119h-.00411834c-.35679869-.45189507-.3317142-1.94236259-.31149686-2.25348505-.00411835-.01946856-.26582063.13590548-.29951621.15949238-.31482897.22459971-.60914108.47668004-.87945445.75328326-.30760315.31187125-.58862423.64886442-.84014296 1.00749763-.57866531.82003794-.98903995 1.74674108-1.20742471 2.72634627-.00411835.01946855-.0078623.0396859-.01198065.05952884-.01684778.0789974-.09322441.48109791-.10370748.56720882-.07008679.41546642-.11497679.83482654-.1344079 1.25572169v.04605062c0 4.96897389 4.02849297 8.99746679 8.99746683 8.99746679 4.45043647 0 8.14534317-3.231031 8.86904927-7.4751757.0149758-.1149393.0273308-.2310018.0408091-.3470644.1789609-1.54325723-.019843-3.16513748-.5836822-4.52119711zm-.8612781.48515113v.026z" fill="url(#n)"/></g></g></g></svg>