<?xml version="1.0" encoding="UTF-8" standalone="no"?>
<svg
   version="1.1"
   width="32"
   height="32"
   id="svg6860"
   xml:space="preserve"
   sodipodi:docname="ghostty.svg"
   inkscape:version="1.4 (e7c3feb100, 2024-10-09)"
   xmlns:inkscape="http://www.inkscape.org/namespaces/inkscape"
   xmlns:sodipodi="http://sodipodi.sourceforge.net/DTD/sodipodi-0.dtd"
   xmlns:xlink="http://www.w3.org/1999/xlink"
   xmlns="http://www.w3.org/2000/svg"
   xmlns:svg="http://www.w3.org/2000/svg"
   xmlns:rdf="http://www.w3.org/1999/02/22-rdf-syntax-ns#"
   xmlns:cc="http://creativecommons.org/ns#"
   xmlns:dc="http://purl.org/dc/elements/1.1/"><sodipodi:namedview
     id="namedview1"
     pagecolor="#ffffff"
     bordercolor="#000000"
     borderopacity="0.25"
     inkscape:showpageshadow="2"
     inkscape:pageopacity="0.0"
     inkscape:pagecheckerboard="0"
     inkscape:deskcolor="#d1d1d1"
     showgrid="false"
     inkscape:zoom="18.665825"
     inkscape:cx="26.6262"
     inkscape:cy="17.813303"
     inkscape:current-layer="svg6860"><inkscape:page
       x="0"
       y="0"
       width="32"
       height="32"
       id="page1"
       margin="0"
       bleed="0"
       inkscape:export-filename="alacritty.svg"
       inkscape:export-xdpi="96"
       inkscape:export-ydpi="96" /><inkscape:grid
       id="grid17"
       units="px"
       originx="0"
       originy="0"
       spacingx="0.5"
       spacingy="0.5"
       empcolor="#0099e5"
       empopacity="0.30196078"
       color="#0099e5"
       opacity="0.078431373"
       empspacing="2"
       enabled="true"
       visible="false" /></sodipodi:namedview><defs
     id="defs6862"><linearGradient
       id="linearGradient22"
       inkscape:collect="always"><stop
         style="stop-color:#ffffff;stop-opacity:1;"
         offset="0"
         id="stop22" /><stop
         style="stop-color:#ffffff;stop-opacity:0;"
         offset="1"
         id="stop23" /></linearGradient><inkscape:path-effect
       effect="offset"
       id="path-effect21"
       is_visible="true"
       lpeversion="1.3"
       linejoin_type="miter"
       unit="px"
       offset="-0.5"
       miter_limit="4"
       attempt_force_join="false"
       update_on_knot_move="true" /><linearGradient
       id="linearGradient21"><stop
         id="stop17"
         style="stop-color:#ffffff;stop-opacity:1"
         offset="0" /><stop
         id="stop18"
         style="stop-color:#ffffff;stop-opacity:0.23529412"
         offset="0.04166667" /><stop
         id="stop19"
         style="stop-color:#ffffff;stop-opacity:0.15686275"
         offset="0.95833331" /><stop
         id="stop20"
         style="stop-color:#ffffff;stop-opacity:0.39215687"
         offset="1" /></linearGradient><linearGradient
       id="linearGradient31"><stop
         style="stop-color:#ffffff;stop-opacity:1;"
         offset="0"
         id="stop31" /><stop
         style="stop-color:#ffffff;stop-opacity:0;"
         offset="1"
         id="stop34" /></linearGradient><linearGradient
       id="linearGradient3924-0"><stop
         id="stop3926-6"
         style="stop-color:#ffffff;stop-opacity:1"
         offset="0" /><stop
         id="stop3928-3"
         style="stop-color:#ffffff;stop-opacity:0.23529412"
         offset="0.06249999" /><stop
         id="stop3930-2"
         style="stop-color:#ffffff;stop-opacity:0.15686275"
         offset="0.93749994" /><stop
         id="stop3932-62"
         style="stop-color:#ffffff;stop-opacity:0.39215687"
         offset="1" /></linearGradient><linearGradient
       xlink:href="#linearGradient2"
       id="linearGradient930-9-2"
       x1="16.767664"
       y1="2.7676599"
       x2="16.767664"
       y2="29.896721"
       gradientUnits="userSpaceOnUse"
       gradientTransform="translate(4.1936035e-6)" /><linearGradient
       x1="23.99999"
       y1="6.2399855"
       x2="23.99999"
       y2="41.759987"
       id="linearGradient4161-0-2"
       xlink:href="#linearGradient3924-0"
       gradientUnits="userSpaceOnUse"
       gradientTransform="matrix(0.67567568,0,0,0.67567568,-0.21621281,-0.21620614)" /><linearGradient
       id="linearGradient3688-166-749"><stop
         offset="0"
         style="stop-color:#181818;stop-opacity:1"
         id="stop2883" /><stop
         offset="1"
         style="stop-color:#181818;stop-opacity:0"
         id="stop2885" /></linearGradient><linearGradient
       id="linearGradient3702-501-757"><stop
         offset="0"
         style="stop-color:#181818;stop-opacity:0"
         id="stop2895" /><stop
         offset="0.5"
         style="stop-color:#181818;stop-opacity:1"
         id="stop2897" /><stop
         offset="1"
         style="stop-color:#181818;stop-opacity:0"
         id="stop2899" /></linearGradient><linearGradient
       id="linearGradient2"><stop
         style="stop-color:#fafafa;stop-opacity:1;"
         offset="0"
         id="stop7" /><stop
         style="stop-color:#7e8087;stop-opacity:1;"
         offset="1"
         id="stop8-5" /></linearGradient><linearGradient
       id="linearGradient1"><stop
         style="stop-color:#c6262e;stop-opacity:1;"
         offset="0"
         id="stop4" /><stop
         style="stop-color:#f37329;stop-opacity:1;"
         offset="0.5"
         id="stop6" /><stop
         style="stop-color:#f9c440;stop-opacity:1;"
         offset="1"
         id="stop5" /></linearGradient><linearGradient
       id="linearGradient870"><stop
         id="stop868"
         offset="0"
         style="stop-color:#182027;stop-opacity:1;" /><stop
         id="stop866"
         offset="1"
         style="stop-color:#3a465a;stop-opacity:1;" /></linearGradient><linearGradient
       xlink:href="#linearGradient1"
       id="linearGradient118"
       gradientUnits="userSpaceOnUse"
       x1="25"
       y1="15"
       x2="25"
       y2="35"
       gradientTransform="matrix(0.66666,0,0,0.66666,-0.6664978,-1.9999)" /><linearGradient
       xlink:href="#linearGradient6"
       id="linearGradient11"
       x1="16"
       y1="4.5"
       x2="16"
       y2="27.5"
       gradientUnits="userSpaceOnUse" /><filter
       style="color-interpolation-filters:sRGB"
       id="filter11"
       x="-0.352"
       y="-0.132"
       width="1.704"
       height="1.2640001"><feGaussianBlur
         stdDeviation="0.22"
         id="feGaussianBlur11" /></filter><filter
       style="color-interpolation-filters:sRGB"
       id="filter15"
       x="-0.11185714"
       y="-0.1044"
       width="1.2237144"
       height="1.2088"><feGaussianBlur
         stdDeviation="0.6525"
         id="feGaussianBlur15" /></filter><linearGradient
       xlink:href="#linearGradient1"
       id="linearGradient18"
       gradientUnits="userSpaceOnUse"
       gradientTransform="matrix(0.66666,0,0,0.66666,-0.6664978,-1.9999)"
       x1="25"
       y1="15"
       x2="25"
       y2="35" /><linearGradient
       xlink:href="#linearGradient31"
       id="linearGradient34"
       x1="16"
       y1="5"
       x2="16"
       y2="23"
       gradientUnits="userSpaceOnUse" /><radialGradient
       xlink:href="#linearGradient3688-166-749"
       id="radialGradient36"
       gradientUnits="userSpaceOnUse"
       gradientTransform="matrix(2.003784,0,0,1.4,27.98813,-17.4)"
       cx="4.9929786"
       cy="43.5"
       fx="4.9929786"
       fy="43.5"
       r="2.5" /><radialGradient
       xlink:href="#linearGradient3688-166-749"
       id="radialGradient37"
       gradientUnits="userSpaceOnUse"
       gradientTransform="matrix(2.003784,0,0,1.4,-20.01187,-104.4)"
       cx="4.9929786"
       cy="43.5"
       fx="4.9929786"
       fy="43.5"
       r="2.5" /><linearGradient
       xlink:href="#linearGradient3702-501-757"
       id="linearGradient38"
       gradientUnits="userSpaceOnUse"
       x1="25.058096"
       y1="47.027729"
       x2="25.058096"
       y2="39.999443" /><inkscape:path-effect
       effect="offset"
       id="path-effect12"
       is_visible="true"
       lpeversion="1.3"
       linejoin_type="miter"
       unit="px"
       offset="-0.5"
       miter_limit="4"
       attempt_force_join="false"
       update_on_knot_move="true" /><linearGradient
       id="linearGradient12"><stop
         id="stop9"
         style="stop-color:#ffffff;stop-opacity:1"
         offset="0" /><stop
         id="stop10"
         style="stop-color:#ffffff;stop-opacity:0.23529412"
         offset="0.05405406" /><stop
         id="stop11"
         style="stop-color:#ffffff;stop-opacity:0.15686275"
         offset="0.91891891" /><stop
         id="stop12"
         style="stop-color:#ffffff;stop-opacity:0.39215687"
         offset="1" /></linearGradient><linearGradient
       id="linearGradient2-6"><stop
         style="stop-color:#d4d4d4;stop-opacity:1;"
         offset="0"
         id="stop7-7" /><stop
         style="stop-color:#7e8087;stop-opacity:1;"
         offset="1"
         id="stop8" /></linearGradient><linearGradient
       id="linearGradient1201"><stop
         id="stop1193"
         style="stop-color:#ffffff;stop-opacity:1"
         offset="0" /><stop
         id="stop1195"
         style="stop-color:#ffffff;stop-opacity:0.23529412"
         offset="0.06781636" /><stop
         id="stop1197"
         style="stop-color:#ffffff;stop-opacity:0.15686275"
         offset="0.94694352" /><stop
         id="stop1199"
         style="stop-color:#ffffff;stop-opacity:0.39215687"
         offset="1" /></linearGradient><linearGradient
       id="linearGradient870-7"><stop
         id="stop868-0"
         offset="0"
         style="stop-color:#182027;stop-opacity:1;" /><stop
         id="stop866-9"
         offset="1"
         style="stop-color:#3a465a;stop-opacity:1;" /></linearGradient><linearGradient
       xlink:href="#linearGradient870-7"
       id="linearGradient15"
       gradientUnits="userSpaceOnUse"
       x1="24"
       y1="8"
       x2="24"
       y2="42.5"
       gradientTransform="translate(42)" /><linearGradient
       xlink:href="#linearGradient1"
       id="linearGradient16"
       gradientUnits="userSpaceOnUse"
       gradientTransform="translate(-1,-1)"
       x1="25"
       y1="15"
       x2="25"
       y2="35" /><radialGradient
       cx="4.9929786"
       cy="43.5"
       r="2.5"
       fx="4.9929786"
       fy="43.5"
       id="radialGradient3013-6-1-7"
       xlink:href="#linearGradient3688-166-749"
       gradientUnits="userSpaceOnUse"
       gradientTransform="matrix(2.003784,0,0,0.89999994,29.98813,4.8500025)" /><radialGradient
       cx="4.9929786"
       cy="43.5"
       r="2.5"
       fx="4.9929786"
       fy="43.5"
       id="radialGradient3015-1-8-9"
       xlink:href="#linearGradient3688-166-749"
       gradientUnits="userSpaceOnUse"
       gradientTransform="matrix(2.003784,0,0,0.89999994,-18.01187,-83.149997)" /><filter
       style="color-interpolation-filters:sRGB"
       id="filter1-0"
       x="-0.384"
       y="-0.12800001"
       width="1.768"
       height="1.256"><feGaussianBlur
         stdDeviation="0.32"
         id="feGaussianBlur1-2" /></filter><linearGradient
       inkscape:collect="always"
       xlink:href="#linearGradient22"
       id="linearGradient23"
       x1="16"
       y1="5"
       x2="16"
       y2="21"
       gradientUnits="userSpaceOnUse" /><linearGradient
       id="linearGradient1036"
       inkscape:collect="always"><stop
         style="stop-color:#ccf0fe;stop-opacity:1;"
         offset="0"
         id="stop1036" /><stop
         style="stop-color:#a1d6f7;stop-opacity:1;"
         offset="1"
         id="stop1037" /></linearGradient><linearGradient
       id="linearGradient6"
       inkscape:collect="always"><stop
         style="stop-color:#002e99;stop-opacity:1;"
         offset="0"
         id="stop11-5" /><stop
         style="stop-color:#0d52bf;stop-opacity:1;"
         offset="1"
         id="stop10-3" /></linearGradient><linearGradient
       xlink:href="#linearGradient3702-501-757"
       id="linearGradient1191"
       gradientUnits="userSpaceOnUse"
       x1="25.058096"
       y1="47.027729"
       x2="25.058096"
       y2="39.999443"
       gradientTransform="matrix(1.1428571,0,0,0.6428571,-3.428569,16.035716)" /><radialGradient
       cx="4.9929786"
       cy="43.5"
       r="2.5"
       fx="4.9929786"
       fy="43.5"
       id="radialGradient3013-6-1-2"
       xlink:href="#linearGradient3688-166-749"
       gradientUnits="userSpaceOnUse"
       gradientTransform="matrix(2.003784,0,0,0.89999994,29.98813,4.8500025)" /><radialGradient
       cx="4.9929786"
       cy="43.5"
       r="2.5"
       fx="4.9929786"
       fy="43.5"
       id="radialGradient3015-1-8-5"
       xlink:href="#linearGradient3688-166-749"
       gradientUnits="userSpaceOnUse"
       gradientTransform="matrix(2.003784,0,0,0.89999994,-18.01187,-83.149997)" /><linearGradient
       inkscape:collect="always"
       xlink:href="#linearGradient1036"
       id="linearGradient25"
       x1="16"
       y1="7"
       x2="16"
       y2="25"
       gradientUnits="userSpaceOnUse" /><filter
       inkscape:collect="always"
       style="color-interpolation-filters:sRGB"
       id="filter25"
       x="-0.12342858"
       y="-0.096000004"
       width="1.2468572"
       height="1.192"><feGaussianBlur
         inkscape:collect="always"
         stdDeviation="0.72"
         id="feGaussianBlur25" /></filter><linearGradient
       inkscape:collect="always"
       xlink:href="#linearGradient1036"
       id="linearGradient40"
       gradientUnits="userSpaceOnUse"
       x1="16"
       y1="7"
       x2="16"
       y2="25" /></defs><metadata
     id="metadata6865"><rdf:RDF><cc:Work
         rdf:about=""><dc:format>image/svg+xml</dc:format><dc:type
           rdf:resource="http://purl.org/dc/dcmitype/StillImage" /></cc:Work></rdf:RDF></metadata><g
     style="opacity:0.4"
     id="g36"
     transform="matrix(0.73684208,0,0,0.57142853,-1.6842099,4.1428584)"><rect
       style="fill:url(#radialGradient36);fill-opacity:1;stroke:none"
       id="rect34"
       y="40"
       x="38"
       height="7"
       width="5" /><rect
       style="fill:url(#radialGradient37);fill-opacity:1;stroke:none"
       id="rect35"
       transform="scale(-1)"
       y="-47"
       x="-10"
       height="7"
       width="5" /><rect
       style="fill:url(#linearGradient38);fill-opacity:1;stroke:none"
       id="rect36"
       y="40"
       x="10"
       height="7.0000005"
       width="28" /></g><rect
     style="color:#000000;font-variation-settings:normal;display:inline;overflow:visible;visibility:visible;opacity:1;vector-effect:none;fill:url(#linearGradient930-9-2);fill-opacity:1;fill-rule:nonzero;stroke:#7e8087;stroke-width:1;stroke-linecap:butt;stroke-linejoin:miter;stroke-miterlimit:4;stroke-dasharray:none;stroke-dashoffset:0;stroke-opacity:0.501961;marker:none;enable-background:accumulate;stop-color:#000000;stop-opacity:1"
     id="rect5505-21-1-2-1"
     y="2.4999962"
     x="2.5"
     ry="3"
     rx="3"
     height="27.000008"
     width="27.000008" /><rect
     style="opacity:0.35;fill:none;stroke:url(#linearGradient4161-0-2);stroke-width:1;stroke-linecap:round;stroke-linejoin:round;stroke-miterlimit:4;stroke-dasharray:none;stroke-dashoffset:0;stroke-opacity:1"
     id="rect6741-7-4-3-8"
     y="3.4999998"
     x="3.5000038"
     ry="2"
     rx="2"
     height="25"
     width="25" /><g
     id="layer4-0"
     transform="matrix(0.9047486,0,0,0.9047486,-594.51497,-685.56047)" /><g
     id="layer4-0-7"
     transform="matrix(0.9047486,0,0,0.9047486,-594.51497,-678.32248)" /><g
     id="layer1-3"
     transform="matrix(0.9047486,0,0,0.9047486,-97.80799,-9.5033369)" /><rect
     style="opacity:1;fill:url(#linearGradient11);stroke:#091825;stroke-linejoin:round;stroke-opacity:0.498039"
     id="rect2"
     width="23"
     height="23"
     x="4.5"
     y="4.5"
     rx="1"
     ry="1" /><g
     id="g22"><path
       id="path27"
       style="opacity:0.15;fill:#000000;fill-opacity:1;stroke:#000000;stroke-width:2;stroke-linecap:round;stroke-dasharray:none;stroke-opacity:1"
       d="m 16,8 a 7,7 0 0 0 -7,7 v 8 a 3,3 0 0 0 3,3 3,3 0 0 0 2,-0.767578 A 3,3 0 0 0 16,26 3,3 0 0 0 18,25.232422 3,3 0 0 0 20,26 3,3 0 0 0 23,23 V 15 A 7,7 0 0 0 16,8 Z m -3.945312,3.001953 a 1,1 0 0 1 0.544921,0.197266 l 2,1.5 a 1.0001,1.0001 0 0 1 0,1.601562 l -2,1.5 a 1,1 0 0 1 -1.40039,-0.201172 1,1 0 0 1 0.201172,-1.40039 L 12.332031,13.5 11.400391,12.800781 a 1,1 0 0 1 -0.201172,-1.40039 1,1 0 0 1 0.660156,-0.390625 1,1 0 0 1 0.195313,-0.0078 z M 18,12.5 h 2 a 1,1 0 0 1 1,1 1,1 0 0 1 -1,1 h -2 a 1,1 0 0 1 -1,-1 1,1 0 0 1 1,-1 z" /><path
       id="path26"
       style="opacity:0.15;fill:#000000;fill-opacity:1;stroke:none;stroke-width:2;stroke-linecap:round;stroke-dasharray:none;stroke-opacity:1"
       d="m 16,8 a 7,7 0 0 0 -7,7 v 8 a 3,3 0 0 0 3,3 3,3 0 0 0 2,-0.767578 A 3,3 0 0 0 16,26 3,3 0 0 0 18,25.232422 3,3 0 0 0 20,26 3,3 0 0 0 23,23 V 15 A 7,7 0 0 0 16,8 Z m -3.945312,3.001953 a 1,1 0 0 1 0.544921,0.197266 l 2,1.5 a 1.0001,1.0001 0 0 1 0,1.601562 l -2,1.5 a 1,1 0 0 1 -1.40039,-0.201172 1,1 0 0 1 0.201172,-1.40039 L 12.332031,13.5 11.400391,12.800781 a 1,1 0 0 1 -0.201172,-1.40039 1,1 0 0 1 0.660156,-0.390625 1,1 0 0 1 0.195313,-0.0078 z M 18,12.5 h 2 a 1,1 0 0 1 1,1 1,1 0 0 1 -1,1 h -2 a 1,1 0 0 1 -1,-1 1,1 0 0 1 1,-1 z" /><path
       id="path25"
       style="opacity:1;fill:url(#linearGradient40);fill-opacity:1;stroke:none;stroke-width:2;stroke-linecap:round;stroke-dasharray:none;stroke-opacity:1;filter:url(#filter25)"
       d="m 16,7 a 7,7 0 0 0 -7,7 v 8 a 3,3 0 0 0 3,3 3,3 0 0 0 2,-0.767578 A 3,3 0 0 0 16,25 3,3 0 0 0 18,24.232422 3,3 0 0 0 20,25 3,3 0 0 0 23,22 V 14 A 7,7 0 0 0 16,7 Z m -3.945312,4.001953 a 1,1 0 0 1 0.544921,0.197266 l 2,1.5 a 1.0001,1.0001 0 0 1 0,1.601562 l -2,1.5 a 1,1 0 0 1 -1.40039,-0.201172 1,1 0 0 1 0.201172,-1.40039 L 12.332031,13.5 11.400391,12.800781 a 1,1 0 0 1 -0.201172,-1.40039 1,1 0 0 1 0.660156,-0.390625 1,1 0 0 1 0.195313,-0.0078 z M 18,12.5 h 2 a 1,1 0 0 1 1,1 1,1 0 0 1 -1,1 h -2 a 1,1 0 0 1 -1,-1 1,1 0 0 1 1,-1 z" /><path
       id="path19"
       style="opacity:1;fill:url(#linearGradient25);fill-opacity:1;stroke:none;stroke-width:2;stroke-linecap:round;stroke-dasharray:none;stroke-opacity:1"
       d="m 16,7 a 7,7 0 0 0 -7,7 v 8 a 3,3 0 0 0 3,3 3,3 0 0 0 2,-0.767578 A 3,3 0 0 0 16,25 3,3 0 0 0 18,24.232422 3,3 0 0 0 20,25 3,3 0 0 0 23,22 V 14 A 7,7 0 0 0 16,7 Z m -3.945312,4.001953 a 1,1 0 0 1 0.544921,0.197266 l 2,1.5 a 1.0001,1.0001 0 0 1 0,1.601562 l -2,1.5 a 1,1 0 0 1 -1.40039,-0.201172 1,1 0 0 1 0.201172,-1.40039 L 12.332031,13.5 11.400391,12.800781 a 1,1 0 0 1 -0.201172,-1.40039 1,1 0 0 1 0.660156,-0.390625 1,1 0 0 1 0.195313,-0.0078 z M 18,12.5 h 2 a 1,1 0 0 1 1,1 1,1 0 0 1 -1,1 h -2 a 1,1 0 0 1 -1,-1 1,1 0 0 1 1,-1 z" /><path
       id="path24"
       style="opacity:1;fill:#fafafa;fill-opacity:1;stroke:none;stroke-width:2;stroke-linecap:round;stroke-dasharray:none;stroke-opacity:1"
       d="M 16,7 A 7,7 0 0 0 9.2480469,12.224609 C 10.059121,9.4865667 12.774156,8 16,8 c 3.624368,0 6.604421,1.8749928 6.962891,5.294922 A 7,7 0 0 0 16,7 Z m -6.890625,5.808594 a 7,7 0 0 0 -0.027344,0.136718 c 0.00753,-0.04635 0.018818,-0.09098 0.027344,-0.136718 z M 9.066406,22.580078 A 3,3 0 0 0 12,25 3,3 0 0 0 14,24.232422 3,3 0 0 0 16,25 3,3 0 0 0 18,24.232422 3,3 0 0 0 20,25 3,3 0 0 0 22.933594,22.580078 C 22.64555,23.739877 21.442061,24 20,24 19.261587,23.998998 18.549483,23.7257 18,23.232422 17.450517,23.7257 16.738413,23.999 16,24 15.261587,23.998998 14.549483,23.7257 14,23.232422 13.450517,23.7257 12.738413,23.999 12,24 10.557939,24 9.3544503,23.739877 9.066406,22.580078 Z" /><path
       id="path39"
       style="fill:#fafafa;stroke-linecap:round;stroke-linejoin:round"
       d="M 11.978516,10 A 1.0001,1.0001 0 0 0 11.552734,10.105469 1.0001,1.0001 0 0 0 11,11 v 2 A 1.0001,1.0001 0 0 0 11.308594,13.5 1.0001,1.0001 0 0 0 11,14 v 2 a 1.0001,1.0001 0 0 0 1.599609,0.800781 l 2,-1.5 A 1.0001,1.0001 0 0 0 15,14.5 v -2 a 1.0001,1.0001 0 0 0 -0.400391,-0.800781 l -2,-1.5 A 1.0001,1.0001 0 0 0 11.978516,10 Z m 0.07617,1.001953 a 1,1 0 0 1 0.544921,0.197266 l 2,1.5 a 1.0001,1.0001 0 0 1 0,1.601562 l -2,1.5 a 1,1 0 0 1 -1.40039,-0.201172 1,1 0 0 1 0.201172,-1.40039 L 12.332031,13.5 11.400391,12.800781 a 1,1 0 0 1 -0.201172,-1.40039 1,1 0 0 1 0.660156,-0.390625 1,1 0 0 1 0.195313,-0.0078 z M 18,11.5 a 1.0001,1.0001 0 0 0 -1,1 v 1 a 1,1 0 0 1 1,-1 h 2 a 1,1 0 0 1 1,1 v -1 a 1.0001,1.0001 0 0 0 -1,-1 z m 3,2 a 1,1 0 0 1 -1,1 h -2 a 1,1 0 0 1 -1,-1 v 1 a 1.0001,1.0001 0 0 0 1,1 h 2 a 1.0001,1.0001 0 0 0 1,-1 z" /></g><path
     id="path28"
     style="opacity:0.25;mix-blend-mode:overlay;fill:none;stroke:#ffffff;stroke-width:2;stroke-linejoin:round;stroke-dasharray:none;stroke-opacity:1"
     d="m 5,27 h 22 m 0,-4 H 5 m 0,-4 h 22 m 0,-4 H 5 M 5,11 H 27 M 27,7 H 5"
     sodipodi:nodetypes="cccccccccccc" /><path
     id="path29"
     style="opacity:0.25;mix-blend-mode:overlay;fill:none;stroke:#ffffff;stroke-width:2;stroke-linejoin:round;stroke-dasharray:none;stroke-opacity:1"
     d="m 5,26 h 22 m 0,-4 H 5 m 0,-4 h 22 m 0,-4 H 5 M 5,10 H 27 M 27,6 H 5"
     sodipodi:nodetypes="cccccccccccc" /><g
     id="layer4-0-4"
     transform="matrix(0.9047486,0,0,0.9047486,-594.51497,-685.56047)" /><g
     id="layer4-0-7-9"
     transform="matrix(0.9047486,0,0,0.9047486,-594.51497,-678.32248)" /><g
     id="layer1-3-2"
     transform="matrix(0.9047486,0,0,0.9047486,-97.80799,-9.5033369)" /><path
     id="rect21"
     style="opacity:0.3;fill:url(#linearGradient23);stroke-width:2;stroke-linecap:round"
     d="m 5.5,5 h 21 C 26.777,5 27,5.223 27,5.5 v 6 c 0,0.277 -0.227892,0.44817 -0.5,0.5 l -21,4 C 5.2278921,16.05183 5,15.777 5,15.5 V 5.5 C 5,5.223 5.223,5 5.5,5 Z"
     sodipodi:nodetypes="sssssssss" /></svg>
