<?xml version="1.0" encoding="UTF-8" standalone="no"?>
<svg
   version="1.1"
   width="32"
   height="32"
   id="svg6860"
   xml:space="preserve"
   sodipodi:docname="slack.svg"
   inkscape:version="1.4.2 (ebf0e940d0, 2025-05-08)"
   xmlns:inkscape="http://www.inkscape.org/namespaces/inkscape"
   xmlns:sodipodi="http://sodipodi.sourceforge.net/DTD/sodipodi-0.dtd"
   xmlns:xlink="http://www.w3.org/1999/xlink"
   xmlns="http://www.w3.org/2000/svg"
   xmlns:svg="http://www.w3.org/2000/svg"
   xmlns:rdf="http://www.w3.org/1999/02/22-rdf-syntax-ns#"
   xmlns:cc="http://creativecommons.org/ns#"
   xmlns:dc="http://purl.org/dc/elements/1.1/"><sodipodi:namedview
     id="namedview1"
     pagecolor="#ffffff"
     bordercolor="#000000"
     borderopacity="0.25"
     inkscape:showpageshadow="2"
     inkscape:pageopacity="0.0"
     inkscape:pagecheckerboard="0"
     inkscape:deskcolor="#d1d1d1"
     showgrid="false"
     inkscape:zoom="29.163511"
     inkscape:cx="19.442103"
     inkscape:cy="12.155601"
     inkscape:current-layer="svg6860"><inkscape:page
       x="0"
       y="0"
       width="32"
       height="32"
       id="page4"
       margin="0"
       bleed="0" /><inkscape:grid
       id="grid4"
       units="px"
       originx="-42"
       originy="0"
       spacingx="0.5"
       spacingy="0.5"
       empcolor="#0099e5"
       empopacity="0.30196078"
       color="#0099e5"
       opacity="0.0784314"
       empspacing="2"
       enabled="true"
       visible="false" /></sodipodi:namedview><defs
     id="defs6862"><inkscape:path-effect
       effect="offset"
       id="path-effect4"
       is_visible="true"
       lpeversion="1.3"
       linejoin_type="miter"
       unit="px"
       offset="-0.5"
       miter_limit="4"
       attempt_force_join="false"
       update_on_knot_move="true" /><linearGradient
       id="linearGradient4"><stop
         id="stop1"
         style="stop-color:#ffffff;stop-opacity:1"
         offset="0" /><stop
         id="stop2"
         style="stop-color:#ffffff;stop-opacity:0.23529412"
         offset="0.06250001" /><stop
         id="stop3"
         style="stop-color:#ffffff;stop-opacity:0.15686275"
         offset="0.93750006" /><stop
         id="stop4"
         style="stop-color:#ffffff;stop-opacity:0.39215687"
         offset="1" /></linearGradient><linearGradient
       id="linearGradient3688-166-749-6"><stop
         id="stop2883-8"
         style="stop-color:#181818;stop-opacity:1"
         offset="0" /><stop
         id="stop2885-3"
         style="stop-color:#181818;stop-opacity:0"
         offset="1" /></linearGradient><linearGradient
       id="linearGradient3702-501-757-3"><stop
         id="stop2895-3"
         style="stop-color:#181818;stop-opacity:0"
         offset="0" /><stop
         id="stop2897-28"
         style="stop-color:#181818;stop-opacity:1"
         offset="0.5" /><stop
         id="stop2899-8"
         style="stop-color:#181818;stop-opacity:0"
         offset="1" /></linearGradient><radialGradient
       cx="4.9929786"
       cy="43.5"
       r="2.5"
       fx="4.9929786"
       fy="43.5"
       id="radialGradient2976-3-3"
       xlink:href="#linearGradient3688-166-749-6"
       gradientUnits="userSpaceOnUse"
       gradientTransform="matrix(2.003784,0,0,1.4,27.98813,-17.4)" /><radialGradient
       cx="4.9929786"
       cy="43.5"
       r="2.5"
       fx="4.9929786"
       fy="43.5"
       id="radialGradient2978-2-5"
       xlink:href="#linearGradient3688-166-749-6"
       gradientUnits="userSpaceOnUse"
       gradientTransform="matrix(2.003784,0,0,1.4,-20.01187,-104.4)" /><linearGradient
       xlink:href="#linearGradient4-6"
       id="linearGradient930-9-2"
       x1="15.999996"
       y1="3"
       x2="15.999996"
       y2="29"
       gradientUnits="userSpaceOnUse"
       gradientTransform="translate(4.1936035e-6)" /><linearGradient
       x1="23.99999"
       y1="6.239985"
       x2="23.99999"
       y2="41.759983"
       id="linearGradient4161-0-2"
       xlink:href="#linearGradient4"
       gradientUnits="userSpaceOnUse"
       gradientTransform="matrix(0.67567568,0,0,0.67567568,-0.21621281,-0.21620614)" /><linearGradient
       xlink:href="#linearGradient3702-501-757-3"
       id="linearGradient963"
       gradientUnits="userSpaceOnUse"
       x1="25.058096"
       y1="47.027729"
       x2="25.058096"
       y2="39.999443" /><style
       id="style1">.g{fill:#000;}.g,.h,.i{stroke-width:0px;}.h{fill:url(#e);}.i{fill:#fff;}</style><style
       id="style1-7">.g{fill:#000;}.g,.h,.i{stroke-width:0px;}.h{fill:url(#e);}.i{fill:#fff;}</style><style
       id="style1-5">.g{fill:#000;}.g,.h,.i{stroke-width:0px;}.h{fill:url(#e);}.i{fill:#fff;}</style><linearGradient
       id="linearGradient4-6"><stop
         style="stop-color:#fafafa;stop-opacity:1;"
         offset="0"
         id="stop4-7" /><stop
         style="stop-color:#d4d4d4;stop-opacity:1;"
         offset="1"
         id="stop5" /></linearGradient><style
       id="style1-53">.g{fill:#000;}.g,.h,.i{stroke-width:0px;}.h{fill:url(#e);}.i{fill:#fff;}</style><style
       id="style1-6">.cls-1{fill:#fff;}</style><style
       id="style1-67">.cls-1{fill:#fff;}</style><linearGradient
       id="linearGradient30"><stop
         style="stop-color:#ffffff;stop-opacity:1;"
         offset="0"
         id="stop30" /><stop
         style="stop-color:#fafafa;stop-opacity:0;"
         offset="1"
         id="stop31" /></linearGradient><linearGradient
       id="linearGradient22"><stop
         id="stop13"
         style="stop-color:#ffffff;stop-opacity:1"
         offset="0" /><stop
         id="stop20"
         style="stop-color:#ffffff;stop-opacity:0.23529412"
         offset="0.13461539" /><stop
         id="stop21"
         style="stop-color:#ffffff;stop-opacity:0.15686275"
         offset="0.86538464" /><stop
         id="stop22"
         style="stop-color:#ffffff;stop-opacity:0.39215687"
         offset="1" /></linearGradient><style
       id="style1-0">.g{fill:#000;}.g,.h,.i{stroke-width:0px;}.h{fill:url(#e);}.i{fill:#fff;}</style><style
       id="style1-7-36">.g{fill:#000;}.g,.h,.i{stroke-width:0px;}.h{fill:url(#e);}.i{fill:#fff;}</style><style
       id="style1-5-1">.g{fill:#000;}.g,.h,.i{stroke-width:0px;}.h{fill:url(#e);}.i{fill:#fff;}</style><style
       id="style1-53-0">.g{fill:#000;}.g,.h,.i{stroke-width:0px;}.h{fill:url(#e);}.i{fill:#fff;}</style><style
       id="style1-6-63">.cls-1{fill:#fff;}</style><style
       id="style1-67-2">.cls-1{fill:#fff;}</style><style
       id="style1-675">.g{fill:#000;}.g,.h,.i{stroke-width:0px;}.h{fill:url(#e);}.i{fill:#fff;}</style><style
       id="style1-7-3">.g{fill:#000;}.g,.h,.i{stroke-width:0px;}.h{fill:url(#e);}.i{fill:#fff;}</style><style
       id="style1-5-5">.g{fill:#000;}.g,.h,.i{stroke-width:0px;}.h{fill:url(#e);}.i{fill:#fff;}</style><linearGradient
       id="linearGradient2-5"><stop
         style="stop-color:#5865f2;stop-opacity:1;"
         offset="0"
         id="stop3-3" /><stop
         style="stop-color:#1f30f4;stop-opacity:1;"
         offset="1"
         id="stop4-5" /></linearGradient><style
       id="style1-3">.g{fill:#000;}.g,.h,.i{stroke-width:0px;}.h{fill:url(#e);}.i{fill:#fff;}</style><style
       id="style1-6-6">.cls-1{fill:#fff;}</style><style
       id="style1-70">.g{fill:#000;}.g,.h,.i{stroke-width:0px;}.h{fill:url(#e);}.i{fill:#fff;}</style><style
       id="style1-6-3">.cls-1{fill:#fff;}</style><linearGradient
       id="linearGradient3820-7-2-2"><stop
         offset="0"
         style="stop-color:#3d3d3d;stop-opacity:1"
         id="stop3822-2-6-36" /><stop
         offset="0.5"
         style="stop-color:#686868;stop-opacity:0.49803922"
         id="stop3864-8-7-6" /><stop
         offset="1"
         style="stop-color:#686868;stop-opacity:0"
         id="stop3824-1-2-4" /></linearGradient><radialGradient
       cx="99.157013"
       cy="186.17059"
       r="62.769119"
       fx="99.157013"
       fy="186.17059"
       id="radialGradient3108-6"
       xlink:href="#linearGradient3820-7-2-2"
       gradientUnits="userSpaceOnUse"
       gradientTransform="matrix(0.21473139,0,0,0.06794726,-5.313625,15.116856)" /><linearGradient
       xlink:href="#linearGradient22"
       id="linearGradient13"
       x1="16"
       y1="3"
       x2="16"
       y2="29"
       gradientUnits="userSpaceOnUse"
       gradientTransform="translate(0,-34)" /><linearGradient
       xlink:href="#linearGradient4-6"
       id="linearGradient29"
       x1="16"
       y1="3"
       x2="16"
       y2="30"
       gradientUnits="userSpaceOnUse"
       gradientTransform="translate(0,-34)" /><linearGradient
       xlink:href="#linearGradient30"
       id="linearGradient31"
       x1="25.002583"
       y1="30.93301"
       x2="23.779295"
       y2="27.459316"
       gradientUnits="userSpaceOnUse"
       gradientTransform="translate(0,-34)" /><style
       id="style1-37">.g{fill:#000;}.g,.h,.i{stroke-width:0px;}.h{fill:url(#e);}.i{fill:#fff;}</style><style
       id="style1-7-5">.g{fill:#000;}.g,.h,.i{stroke-width:0px;}.h{fill:url(#e);}.i{fill:#fff;}</style><style
       id="style1-5-9">.g{fill:#000;}.g,.h,.i{stroke-width:0px;}.h{fill:url(#e);}.i{fill:#fff;}</style><style
       id="style1-53-2">.g{fill:#000;}.g,.h,.i{stroke-width:0px;}.h{fill:url(#e);}.i{fill:#fff;}</style><style
       id="style1-6-2">.cls-1{fill:#fff;}</style><style
       id="style1-67-8">.cls-1{fill:#fff;}</style><style
       id="style1-675-9">.g{fill:#000;}.g,.h,.i{stroke-width:0px;}.h{fill:url(#e);}.i{fill:#fff;}</style><style
       id="style1-7-3-7">.g{fill:#000;}.g,.h,.i{stroke-width:0px;}.h{fill:url(#e);}.i{fill:#fff;}</style><style
       id="style1-5-5-3">.g{fill:#000;}.g,.h,.i{stroke-width:0px;}.h{fill:url(#e);}.i{fill:#fff;}</style><style
       id="style1-3-2">.g{fill:#000;}.g,.h,.i{stroke-width:0px;}.h{fill:url(#e);}.i{fill:#fff;}</style><style
       id="style1-6-6-9">.cls-1{fill:#fff;}</style><style
       id="style1-70-3">.g{fill:#000;}.g,.h,.i{stroke-width:0px;}.h{fill:url(#e);}.i{fill:#fff;}</style><style
       id="style1-6-3-1">.cls-1{fill:#fff;}</style><radialGradient
       cx="99.157013"
       cy="186.17059"
       r="62.769119"
       fx="99.157013"
       fy="186.17059"
       id="radialGradient3108-6-8"
       xlink:href="#linearGradient3820-7-2-2"
       gradientUnits="userSpaceOnUse"
       gradientTransform="matrix(0.21473139,0,0,0.06794726,-5.3136245,15.116856)" /><linearGradient
       xlink:href="#linearGradient22"
       id="linearGradient13-4"
       x1="16"
       y1="3"
       x2="16"
       y2="29"
       gradientUnits="userSpaceOnUse"
       gradientTransform="translate(0,-33)" /><linearGradient
       xlink:href="#linearGradient2-5"
       id="linearGradient29-5"
       x1="16"
       y1="3"
       x2="16"
       y2="30"
       gradientUnits="userSpaceOnUse"
       gradientTransform="translate(0,-33)" /><linearGradient
       id="linearGradient4-0"><stop
         id="stop1-3"
         style="stop-color:#ffffff;stop-opacity:1"
         offset="0" /><stop
         id="stop2-6"
         style="stop-color:#ffffff;stop-opacity:0.23529412"
         offset="0.07142856" /><stop
         id="stop3-1"
         style="stop-color:#ffffff;stop-opacity:0.15686275"
         offset="0.92857146" /><stop
         id="stop4-0"
         style="stop-color:#ffffff;stop-opacity:0.39215687"
         offset="1" /></linearGradient><linearGradient
       id="linearGradient870"><stop
         id="stop866"
         offset="0"
         style="stop-color:#cd9ef7;stop-opacity:1" /><stop
         id="stop868"
         offset="1"
         style="stop-color:#a56de2;stop-opacity:1" /></linearGradient><linearGradient
       xlink:href="#linearGradient2-5"
       id="linearGradient930-9-2-6"
       x1="16.999996"
       y1="2.5"
       x2="16.999996"
       y2="29"
       gradientUnits="userSpaceOnUse"
       gradientTransform="translate(42.000004)" /><linearGradient
       x1="23.99999"
       y1="6.2399855"
       x2="23.99999"
       y2="37.319984"
       id="linearGradient4161-0-2-3"
       xlink:href="#linearGradient4-0"
       gradientUnits="userSpaceOnUse"
       gradientTransform="matrix(0.67567568,0,0,0.67567568,41.783787,-0.21620614)" /><linearGradient
       inkscape:collect="always"
       xlink:href="#linearGradient4-0"
       id="linearGradient2"
       gradientUnits="userSpaceOnUse"
       gradientTransform="matrix(0.67567568,0,0,0.67567568,-0.216213,-0.21620614)"
       x1="23.99999"
       y1="6.2399855"
       x2="23.99999"
       y2="37.319984" /><linearGradient
       inkscape:collect="always"
       xlink:href="#linearGradient4-6"
       id="linearGradient3"
       gradientUnits="userSpaceOnUse"
       gradientTransform="translate(4e-6)"
       x1="16.999996"
       y1="2.5"
       x2="16.999996"
       y2="29" /></defs><metadata
     id="metadata6865"><rdf:RDF><cc:Work
         rdf:about=""><dc:format>image/svg+xml</dc:format><dc:type
           rdf:resource="http://purl.org/dc/dcmitype/StillImage" /></cc:Work></rdf:RDF></metadata><path
     id="path3"
     style="color:#000000;font-variation-settings:normal;display:inline;overflow:visible;visibility:visible;opacity:1;vector-effect:none;fill:url(#linearGradient3);fill-rule:nonzero;stroke:none;stroke-width:1;stroke-linecap:butt;stroke-linejoin:round;stroke-miterlimit:4;stroke-dasharray:none;stroke-dashoffset:0;stroke-opacity:0.501961;marker:none;enable-background:accumulate;stop-color:#000000;stop-opacity:1"
     d="M 5.5,3 C 4.1203965,3 3,4.1065046 3,5.5 3.020308,11.445865 2.928925,17.556678 3,23.5 3,25.419063 4.5818217,26 5.5,26 H 20 c 0.927648,0 1,0.07041 1,1 v 2.306358 L 24.305022,26 H 26.5 C 27.902418,26 29,24.888595 29,23.5 V 5.5 C 29,4.1200454 27.895585,3 26.5,3 Z"
     sodipodi:nodetypes="ccccccccccccc" /><path
     id="path1"
     style="color:#000000;font-variation-settings:normal;display:inline;overflow:visible;visibility:visible;opacity:1;vector-effect:none;fill:none;fill-opacity:1;fill-rule:nonzero;stroke:#7e8087;stroke-width:1;stroke-linecap:butt;stroke-linejoin:round;stroke-miterlimit:4;stroke-dasharray:none;stroke-dashoffset:0;stroke-opacity:0.501961;marker:none;enable-background:accumulate;stop-color:#000000;stop-opacity:1"
     d="m 5.5,2.5 c -1.662,0 -3,1.338 -3,3 v 18 c 0,1.662 1.338,3 3,3 h 15 v 4 l 4,-4 h 2 c 1.662,0 3,-1.338 3,-3 v -18 c 0,-1.662 -1.338,-3 -3,-3 z" /><path
     id="path2"
     style="opacity:1;fill:none;stroke:url(#linearGradient2);stroke-width:1;stroke-linecap:round;stroke-linejoin:round;stroke-miterlimit:4;stroke-dasharray:none;stroke-dashoffset:0;stroke-opacity:1"
     d="m 5.5,3.5 c -1.108,0 -2,0.892 -2,2 v 18 c 0,1.108 0.892,2 2,2 h 16 V 28 L 24,25.5 h 2.5 c 1.108,0 2,-0.892 2,-2 v -18 c 0,-1.108 -0.892,-2 -2,-2 z"
     sodipodi:nodetypes="sssscccsssss" /><path
     id="path30-4"
     style="opacity:0.15;fill:#000000;fill-opacity:1;stroke:#000000;stroke-width:2;stroke-linejoin:round;stroke-opacity:1"
     d="M 13.5,6 A 1.5,1.5 0 0 0 12,7.5 1.5,1.5 0 0 0 13.5,9 H 15 V 7.5 A 1.5,1.5 0 0 0 13.5,6 Z m 5,0 A 1.5,1.5 0 0 0 17,7.5 v 5 A 1.5,1.5 0 0 0 18.5,14 1.5,1.5 0 0 0 20,12.5 v -5 A 1.5,1.5 0 0 0 18.5,6 Z m -10,5 A 1.5,1.5 0 0 0 7,12.5 1.5,1.5 0 0 0 8.5,14 h 5 A 1.5,1.5 0 0 0 15,12.5 1.5,1.5 0 0 0 13.5,11 Z m 15,0 A 1.5,1.5 0 0 0 22,12.5 V 14 h 1.5 A 1.5,1.5 0 0 0 25,12.5 1.5,1.5 0 0 0 23.5,11 Z m -15,5 A 1.5,1.5 0 0 0 7,17.5 1.5,1.5 0 0 0 8.5,19 1.5,1.5 0 0 0 10,17.5 V 16 Z m 5,0 A 1.5,1.5 0 0 0 12,17.5 v 5 A 1.5,1.5 0 0 0 13.5,24 1.5,1.5 0 0 0 15,22.5 v -5 A 1.5,1.5 0 0 0 13.5,16 Z m 5,0 A 1.5,1.5 0 0 0 17,17.5 1.5,1.5 0 0 0 18.5,19 h 5 A 1.5,1.5 0 0 0 25,17.5 1.5,1.5 0 0 0 23.5,16 Z M 17,21 v 1.5 A 1.5,1.5 0 0 0 18.5,24 1.5,1.5 0 0 0 20,22.5 1.5,1.5 0 0 0 18.5,21 Z" /><path
     id="path40-7"
     style="opacity:0.15;fill:#000000;fill-opacity:1;stroke:none;stroke-width:2;stroke-linejoin:round;stroke-opacity:1"
     d="M 13.5,6 A 1.5,1.5 0 0 0 12,7.5 1.5,1.5 0 0 0 13.5,9 H 15 V 7.5 A 1.5,1.5 0 0 0 13.5,6 Z m 5,0 A 1.5,1.5 0 0 0 17,7.5 v 5 A 1.5,1.5 0 0 0 18.5,14 1.5,1.5 0 0 0 20,12.5 v -5 A 1.5,1.5 0 0 0 18.5,6 Z m -10,5 A 1.5,1.5 0 0 0 7,12.5 1.5,1.5 0 0 0 8.5,14 h 5 A 1.5,1.5 0 0 0 15,12.5 1.5,1.5 0 0 0 13.5,11 Z m 15,0 A 1.5,1.5 0 0 0 22,12.5 V 14 h 1.5 A 1.5,1.5 0 0 0 25,12.5 1.5,1.5 0 0 0 23.5,11 Z m -15,5 A 1.5,1.5 0 0 0 7,17.5 1.5,1.5 0 0 0 8.5,19 1.5,1.5 0 0 0 10,17.5 V 16 Z m 5,0 A 1.5,1.5 0 0 0 12,17.5 v 5 A 1.5,1.5 0 0 0 13.5,24 1.5,1.5 0 0 0 15,22.5 v -5 A 1.5,1.5 0 0 0 13.5,16 Z m 5,0 A 1.5,1.5 0 0 0 17,17.5 1.5,1.5 0 0 0 18.5,19 h 5 A 1.5,1.5 0 0 0 25,17.5 1.5,1.5 0 0 0 23.5,16 Z M 17,21 v 1.5 A 1.5,1.5 0 0 0 18.5,24 1.5,1.5 0 0 0 20,22.5 1.5,1.5 0 0 0 18.5,21 Z" /><path
     id="path9-6"
     style="fill:#fcc003;fill-opacity:1;stroke:none;stroke-width:2;stroke-linejoin:round"
     d="M 18.5,15 A 1.5,1.5 0 0 0 17,16.5 1.5,1.5 0 0 0 18.5,18 h 5 A 1.5,1.5 0 0 0 25,16.5 1.5,1.5 0 0 0 23.5,15 Z M 17,20 v 1.5 A 1.5,1.5 0 0 0 18.5,23 1.5,1.5 0 0 0 20,21.5 1.5,1.5 0 0 0 18.5,20 Z" /><path
     id="path12-7"
     style="fill:#e3066a;fill-opacity:1;stroke:none;stroke-width:2;stroke-linejoin:round"
     d="M 8.5,15 A 1.5,1.5 0 0 0 7,16.5 1.5,1.5 0 0 0 8.5,18 1.5,1.5 0 0 0 10,16.5 V 15 Z m 5,0 A 1.5,1.5 0 0 0 12,16.5 v 5 A 1.5,1.5 0 0 0 13.5,23 1.5,1.5 0 0 0 15,21.5 v -5 A 1.5,1.5 0 0 0 13.5,15 Z" /><path
     id="path15-2"
     style="fill:#1ab9ff;fill-opacity:1;stroke:none;stroke-width:2;stroke-linejoin:round"
     d="M 13.5,5 A 1.5,1.5 0 0 0 12,6.5 1.5,1.5 0 0 0 13.5,8 H 15 V 6.5 A 1.5,1.5 0 0 0 13.5,5 Z m -5,5 A 1.5,1.5 0 0 0 7,11.5 1.5,1.5 0 0 0 8.5,13 h 5 A 1.5,1.5 0 0 0 15,11.5 1.5,1.5 0 0 0 13.5,10 Z" /><path
     id="path5-7"
     style="fill:#41b658;fill-opacity:1;stroke:none;stroke-width:2;stroke-linejoin:round"
     d="M 18.5,5 A 1.5,1.5 0 0 0 17,6.5 v 5 A 1.5,1.5 0 0 0 18.5,13 1.5,1.5 0 0 0 20,11.5 v -5 A 1.5,1.5 0 0 0 18.5,5 Z m 5,5 A 1.5,1.5 0 0 0 22,11.5 V 13 h 1.5 A 1.5,1.5 0 0 0 25,11.5 1.5,1.5 0 0 0 23.5,10 Z" /><path
     id="path4"
     style="fill:#000000;fill-opacity:1;stroke:none;stroke-width:2;stroke-linejoin:round;opacity:0.15"
     d="M 13.484375 5 A 1.5 1.5 0 0 0 13.28125 5.0175781 A 1.5 1.5 0 0 1 13.484375 5 z M 13.28125 5.0175781 A 1.5 1.5 0 0 0 13.083984 5.0605469 A 1.5 1.5 0 0 1 13.28125 5.0175781 z M 13.083984 5.0605469 A 1.5 1.5 0 0 0 12 6.5 A 1.5 1.5 0 0 0 13.5 8 L 15 8 L 15 7 L 13.5 7 A 1.5 1.5 0 0 1 12.095703 6 A 1.5 1.5 0 0 1 13.083984 5.0605469 z M 8.4667969 10 A 1.5 1.5 0 0 0 8.0722656 10.064453 A 1.5 1.5 0 0 1 8.4667969 10 z M 8.0722656 10.064453 A 1.5 1.5 0 0 0 7 11.5 A 1.5 1.5 0 0 0 8.5 13 L 13.5 13 A 1.5 1.5 0 0 0 15 11.5 A 1.5 1.5 0 0 0 14.908203 10.988281 A 1.5 1.5 0 0 1 13.5 12 L 8.5 12 A 1.5 1.5 0 0 1 7.0957031 11 A 1.5 1.5 0 0 1 8.0722656 10.064453 z M 13.9375 10.066406 A 1.5 1.5 0 0 1 14.09375 10.123047 A 1.5 1.5 0 0 0 13.9375 10.066406 z M 14.09375 10.123047 A 1.5 1.5 0 0 1 14.267578 10.212891 A 1.5 1.5 0 0 0 14.09375 10.123047 z M 23.9375 10.066406 A 1.5 1.5 0 0 1 24.09375 10.123047 A 1.5 1.5 0 0 0 23.9375 10.066406 z M 24.09375 10.123047 A 1.5 1.5 0 0 1 24.267578 10.212891 A 1.5 1.5 0 0 0 24.09375 10.123047 z M 14.308594 10.240234 A 1.5 1.5 0 0 1 14.4375 10.332031 A 1.5 1.5 0 0 0 14.308594 10.240234 z M 24.308594 10.240234 A 1.5 1.5 0 0 1 24.4375 10.332031 A 1.5 1.5 0 0 0 24.308594 10.240234 z M 14.453125 10.345703 A 1.5 1.5 0 0 1 14.589844 10.472656 A 1.5 1.5 0 0 0 14.453125 10.345703 z M 24.453125 10.345703 A 1.5 1.5 0 0 1 24.589844 10.472656 A 1.5 1.5 0 0 0 24.453125 10.345703 z M 14.591797 10.474609 A 1.5 1.5 0 0 1 14.714844 10.625 A 1.5 1.5 0 0 0 14.591797 10.474609 z M 24.591797 10.474609 A 1.5 1.5 0 0 1 24.714844 10.625 A 1.5 1.5 0 0 0 24.591797 10.474609 z M 17 10.5 L 17 11.5 A 1.5 1.5 0 0 0 18.5 13 A 1.5 1.5 0 0 0 20 11.5 L 20 10.5 A 1.5 1.5 0 0 1 18.5 12 A 1.5 1.5 0 0 1 17 10.5 z M 14.726562 10.642578 A 1.5 1.5 0 0 1 14.820312 10.794922 A 1.5 1.5 0 0 0 14.726562 10.642578 z M 24.726562 10.642578 A 1.5 1.5 0 0 1 24.820312 10.794922 A 1.5 1.5 0 0 0 24.726562 10.642578 z M 14.833984 10.820312 A 1.5 1.5 0 0 1 14.90625 10.984375 A 1.5 1.5 0 0 0 14.833984 10.820312 z M 24.833984 10.820312 A 1.5 1.5 0 0 1 24.90625 10.984375 A 1.5 1.5 0 0 0 24.833984 10.820312 z M 24.908203 10.988281 A 1.5 1.5 0 0 1 23.5 12 L 22 12 L 22 13 L 23.5 13 A 1.5 1.5 0 0 0 25 11.5 A 1.5 1.5 0 0 0 24.908203 10.988281 z M 8.4511719 15 A 1.5 1.5 0 0 0 7 16.5 A 1.5 1.5 0 0 0 8.5 18 A 1.5 1.5 0 0 0 10 16.5 L 10 15.5 A 1.5 1.5 0 0 1 8.5 17 A 1.5 1.5 0 0 1 7.0957031 16 A 1.5 1.5 0 0 1 8.5 15 A 1.5 1.5 0 0 0 8.4511719 15 z M 18.451172 15 A 1.5 1.5 0 0 0 17 16.5 A 1.5 1.5 0 0 0 18.5 18 L 23.5 18 A 1.5 1.5 0 0 0 25 16.5 A 1.5 1.5 0 0 0 24.908203 15.988281 A 1.5 1.5 0 0 1 23.5 17 L 18.5 17 A 1.5 1.5 0 0 1 17.095703 16 A 1.5 1.5 0 0 1 18.5 15 A 1.5 1.5 0 0 0 18.451172 15 z M 23.9375 15.066406 A 1.5 1.5 0 0 1 24.09375 15.123047 A 1.5 1.5 0 0 0 23.9375 15.066406 z M 24.09375 15.123047 A 1.5 1.5 0 0 1 24.267578 15.212891 A 1.5 1.5 0 0 0 24.09375 15.123047 z M 24.308594 15.240234 A 1.5 1.5 0 0 1 24.4375 15.332031 A 1.5 1.5 0 0 0 24.308594 15.240234 z M 24.453125 15.345703 A 1.5 1.5 0 0 1 24.589844 15.472656 A 1.5 1.5 0 0 0 24.453125 15.345703 z M 24.591797 15.474609 A 1.5 1.5 0 0 1 24.714844 15.625 A 1.5 1.5 0 0 0 24.591797 15.474609 z M 24.726562 15.642578 A 1.5 1.5 0 0 1 24.820312 15.794922 A 1.5 1.5 0 0 0 24.726562 15.642578 z M 24.833984 15.820312 A 1.5 1.5 0 0 1 24.90625 15.984375 A 1.5 1.5 0 0 0 24.833984 15.820312 z M 18.9375 20.066406 A 1.5 1.5 0 0 1 19.09375 20.123047 A 1.5 1.5 0 0 0 18.9375 20.066406 z M 19.09375 20.123047 A 1.5 1.5 0 0 1 19.267578 20.212891 A 1.5 1.5 0 0 0 19.09375 20.123047 z M 19.308594 20.240234 A 1.5 1.5 0 0 1 19.4375 20.332031 A 1.5 1.5 0 0 0 19.308594 20.240234 z M 19.453125 20.345703 A 1.5 1.5 0 0 1 19.589844 20.472656 A 1.5 1.5 0 0 0 19.453125 20.345703 z M 19.591797 20.474609 A 1.5 1.5 0 0 1 19.714844 20.625 A 1.5 1.5 0 0 0 19.591797 20.474609 z M 12 20.5 L 12 21.5 A 1.5 1.5 0 0 0 13.5 23 A 1.5 1.5 0 0 0 15 21.5 L 15 20.5 A 1.5 1.5 0 0 1 13.5 22 A 1.5 1.5 0 0 1 12 20.5 z M 17 20.5 L 17 21.5 A 1.5 1.5 0 0 0 18.5 23 A 1.5 1.5 0 0 0 20 21.5 A 1.5 1.5 0 0 0 19.908203 20.988281 A 1.5 1.5 0 0 1 18.5 22 A 1.5 1.5 0 0 1 17 20.5 z M 19.726562 20.642578 A 1.5 1.5 0 0 1 19.820312 20.794922 A 1.5 1.5 0 0 0 19.726562 20.642578 z M 19.833984 20.820312 A 1.5 1.5 0 0 1 19.90625 20.984375 A 1.5 1.5 0 0 0 19.833984 20.820312 z " /><path
     id="path8"
     style="fill:#ffffff;fill-opacity:1;stroke:none;stroke-width:2;stroke-linejoin:round;opacity:0.25"
     d="M 13.5 5 A 1.5 1.5 0 0 0 12 6.5 A 1.5 1.5 0 0 0 12.087891 7 A 1.5 1.5 0 0 1 13.5 6 A 1.5 1.5 0 0 1 15 7.5 L 15 6.5 A 1.5 1.5 0 0 0 13.5 5 z M 18.5 5 A 1.5 1.5 0 0 0 17 6.5 L 17 7.5 A 1.5 1.5 0 0 1 18.5 6 A 1.5 1.5 0 0 1 20 7.5 L 20 6.5 A 1.5 1.5 0 0 0 18.5 5 z M 8.5 10 A 1.5 1.5 0 0 0 7 11.5 A 1.5 1.5 0 0 0 7.0878906 12 A 1.5 1.5 0 0 1 8.5 11 L 13.5 11 A 1.5 1.5 0 0 1 14.912109 12 A 1.5 1.5 0 0 0 15 11.5 A 1.5 1.5 0 0 0 13.5 10 L 8.5 10 z M 23.5 10 A 1.5 1.5 0 0 0 22 11.5 L 22 12.5 A 1.5 1.5 0 0 1 23.5 11 A 1.5 1.5 0 0 1 24.912109 12 A 1.5 1.5 0 0 0 25 11.5 A 1.5 1.5 0 0 0 23.5 10 z M 8.5 15 A 1.5 1.5 0 0 0 7 16.5 A 1.5 1.5 0 0 0 7.0878906 17 A 1.5 1.5 0 0 1 8.5 16 L 10 16 L 10 15 L 8.5 15 z M 13.5 15 A 1.5 1.5 0 0 0 12 16.5 L 12 17.5 A 1.5 1.5 0 0 1 13.5 16 A 1.5 1.5 0 0 1 15 17.5 L 15 16.5 A 1.5 1.5 0 0 0 13.5 15 z M 18.5 15 A 1.5 1.5 0 0 0 17 16.5 A 1.5 1.5 0 0 0 17.087891 17 A 1.5 1.5 0 0 1 18.5 16 L 23.5 16 A 1.5 1.5 0 0 1 24.912109 17 A 1.5 1.5 0 0 0 25 16.5 A 1.5 1.5 0 0 0 23.5 15 L 18.5 15 z M 17 20 L 17 21 L 18.5 21 A 1.5 1.5 0 0 1 19.912109 22 A 1.5 1.5 0 0 0 20 21.5 A 1.5 1.5 0 0 0 18.5 20 L 17 20 z " /></svg>
