<?xml version="1.0" encoding="UTF-8" standalone="no"?>
<svg
   version="1.1"
   width="32"
   height="32"
   id="svg4505"
   sodipodi:docname="zen-browser.svg"
   inkscape:version="1.4.2 (ebf0e940d0, 2025-05-08)"
   xml:space="preserve"
   xmlns:inkscape="http://www.inkscape.org/namespaces/inkscape"
   xmlns:sodipodi="http://sodipodi.sourceforge.net/DTD/sodipodi-0.dtd"
   xmlns:xlink="http://www.w3.org/1999/xlink"
   xmlns="http://www.w3.org/2000/svg"
   xmlns:svg="http://www.w3.org/2000/svg"
   xmlns:rdf="http://www.w3.org/1999/02/22-rdf-syntax-ns#"
   xmlns:cc="http://creativecommons.org/ns#"
   xmlns:dc="http://purl.org/dc/elements/1.1/"
   xmlns:osb="http://www.openswatchbook.org/uri/2009/osb"><sodipodi:namedview
     id="namedview1"
     pagecolor="#ffffff"
     bordercolor="#000000"
     borderopacity="0.25"
     inkscape:showpageshadow="2"
     inkscape:pageopacity="0.0"
     inkscape:pagecheckerboard="0"
     inkscape:deskcolor="#d1d1d1"
     showgrid="false"
     inkscape:current-layer="svg4505"><inkscape:grid
       id="grid1"
       units="px"
       originx="0"
       originy="0"
       spacingx="0.5"
       spacingy="0.5"
       empcolor="#0099e5"
       empopacity="0.30196078"
       color="#0099e5"
       opacity="0.078431373"
       empspacing="2"
       enabled="true"
       visible="false" /><inkscape:page
       x="0"
       y="0"
       width="32"
       height="32"
       id="page1"
       margin="0"
       bleed="0" /></sodipodi:namedview><defs
     id="defs4507"><linearGradient
       id="linearGradient3"
       inkscape:collect="always"><stop
         style="stop-color:#ffffff;stop-opacity:1;"
         offset="0"
         id="stop5" /><stop
         style="stop-color:#d4d4d4;stop-opacity:1;"
         offset="1"
         id="stop7" /></linearGradient><linearGradient
       id="linearGradient1"
       inkscape:collect="always"><stop
         style="stop-color:#ffffff;stop-opacity:1;"
         offset="0"
         id="stop1" /><stop
         style="stop-color:#ffffff;stop-opacity:0.25;"
         offset="0.5"
         id="stop3" /><stop
         style="stop-color:#ffffff;stop-opacity:0.25;"
         offset="0.75"
         id="stop4" /><stop
         style="stop-color:#ffffff;stop-opacity:0.5;"
         offset="1"
         id="stop2" /></linearGradient><linearGradient
       id="linearGradient3820-7-2-2"><stop
         id="stop3822-2-6-36"
         style="stop-color:#3d3d3d;stop-opacity:1"
         offset="0" /><stop
         id="stop3864-8-7-6"
         style="stop-color:#686868;stop-opacity:0.49803922"
         offset="0.5" /><stop
         id="stop3824-1-2-4"
         style="stop-color:#686868;stop-opacity:0"
         offset="1" /></linearGradient><radialGradient
       cx="99.157013"
       cy="186.17059"
       r="62.769119"
       fx="99.157013"
       fy="186.17059"
       id="radialGradient3043"
       xlink:href="#linearGradient3820-7-2-2"
       gradientUnits="userSpaceOnUse"
       gradientTransform="matrix(0.17524541,0,0,0.05575992,-1.37681,18.119145)" /><linearGradient
       id="linearGradient2867-449-88-871-390-598-476-591-434-148-57-177-3-8"><stop
         id="stop3750-8-9"
         style="stop-color:#8cd5ff;stop-opacity:1"
         offset="0" /><stop
         id="stop3752-3-2"
         style="stop-color:#64baff;stop-opacity:1"
         offset="0.26238" /><stop
         id="stop3754-7-2"
         style="stop-color:#3689e6;stop-opacity:1"
         offset="0.704952" /><stop
         id="stop3756-9-3"
         style="stop-color:#0d52bf;stop-opacity:1"
         offset="1" /></linearGradient><radialGradient
       xlink:href="#linearGradient2867-449-88-871-390-598-476-591-434-148-57-177-3-8"
       id="radialGradient3146"
       gradientUnits="userSpaceOnUse"
       gradientTransform="matrix(0,1.7674684,-1.8697707,-4.8107771e-8,31.79921,-9.5910627)"
       cx="3.9722471"
       cy="8.4497671"
       fx="3.9722471"
       fy="8.4497671"
       r="19.99999" /><linearGradient
       id="linearGradient4806-9"><stop
         offset="0"
         style="stop-color:#ffffff;stop-opacity:1"
         id="stop4808-49" /><stop
         offset="0.42447853"
         style="stop-color:#ffffff;stop-opacity:0.23529412"
         id="stop4810-05" /><stop
         offset="0.82089913"
         style="stop-color:#ffffff;stop-opacity:0.15686275"
         id="stop4812-6" /><stop
         offset="1"
         style="stop-color:#ffffff;stop-opacity:0.39215687"
         id="stop4814-7" /></linearGradient><linearGradient
       gradientTransform="matrix(1.1194481,0,0,1.1219958,-64.797413,-15.266546)"
       gradientUnits="userSpaceOnUse"
       xlink:href="#linearGradient4806-9"
       id="linearGradient4338-5-6"
       y2="40.495617"
       x2="71.204407"
       y1="15.369057"
       x1="71.204407" /><radialGradient
       gradientTransform="matrix(0,2.7757648,-2.1876957,-3.1515899e-8,34.375085,-2.0762385)"
       gradientUnits="userSpaceOnUse"
       xlink:href="#linearGradient4223"
       id="radialGradient3126-7-25-24"
       fy="8.449769"
       fx="0.66680855"
       r="19.99999"
       cy="8.449769"
       cx="-1.2645766" /><linearGradient
       id="linearGradient4526"
       osb:paint="solid"><stop
         style="stop-color:#ffffff;stop-opacity:1;"
         offset="0"
         id="stop4528" /></linearGradient><linearGradient
       id="linearGradient4223"><stop
         offset="0"
         style="stop-color:#d1ff82;stop-opacity:1"
         id="stop4225" /><stop
         offset="0.26238"
         style="stop-color:#9bdb4d;stop-opacity:1"
         id="stop4227" /><stop
         offset="0.66093999"
         style="stop-color:#68b723;stop-opacity:1"
         id="stop4229" /><stop
         offset="1"
         style="stop-color:#3a9104;stop-opacity:1"
         id="stop4231" /></linearGradient><linearGradient
       inkscape:collect="always"
       xlink:href="#linearGradient1"
       id="linearGradient2"
       x1="16"
       y1="3"
       x2="16"
       y2="29"
       gradientUnits="userSpaceOnUse" /><linearGradient
       inkscape:collect="always"
       xlink:href="#linearGradient6"
       id="linearGradient8"
       x1="16"
       y1="2"
       x2="16"
       y2="30"
       gradientUnits="userSpaceOnUse" /><linearGradient
       id="linearGradient6"
       inkscape:collect="always"><stop
         style="stop-color:#333333;stop-opacity:1;"
         offset="0"
         id="stop6" /><stop
         style="stop-color:#1a1a1a;stop-opacity:1;"
         offset="1"
         id="stop7-9" /></linearGradient><linearGradient
       id="linearGradient3820-7-2"><stop
         offset="0"
         style="stop-color:#000000;stop-opacity:1"
         id="stop3822-2-6" /><stop
         offset="1"
         style="stop-color:#000000;stop-opacity:0"
         id="stop3824-1-2" /></linearGradient><radialGradient
       r="62.769119"
       fy="185.29727"
       fx="99.189415"
       cy="185.29727"
       cx="99.189415"
       gradientTransform="matrix(0.3823536,7.5555777e-8,-1.8372241e-8,0.1115198,-5.9254271,36.335849)"
       gradientUnits="userSpaceOnUse"
       id="radialGradient3300"
       xlink:href="#linearGradient3820-7-2" /><radialGradient
       r="62.769119"
       fy="185.29727"
       fx="99.189415"
       cy="185.29727"
       cx="99.189415"
       gradientTransform="matrix(0.2549024,5.3967361e-8,-1.2248161e-8,0.07965545,6.7163816,44.240666)"
       gradientUnits="userSpaceOnUse"
       id="radialGradient4192"
       xlink:href="#linearGradient3820-7-2" /><radialGradient
       cx="3.9722471"
       cy="8.4497671"
       r="19.99999"
       fx="3.9722471"
       fy="8.4497671"
       id="radialGradient3015"
       xlink:href="#linearGradient2867-449-88-871-390-598-476-591-434-148-57-177-3-8"
       gradientUnits="userSpaceOnUse"
       gradientTransform="matrix(0,2.4988347,-2.6434689,-6.8014435e-8,120.33681,-12.180468)" /><linearGradient
       x1="71.204407"
       y1="15.369057"
       x2="71.204407"
       y2="40.495617"
       id="linearGradient4338-5-6-7"
       xlink:href="#linearGradient4806-9"
       gradientUnits="userSpaceOnUse"
       gradientTransform="matrix(1.6169806,0,0,1.6169806,-18.70737,-21.060237)" /><radialGradient
       cx="-1.2645766"
       cy="8.449769"
       r="19.99999"
       fx="0.66680855"
       fy="8.449769"
       id="radialGradient3126-7-25-24-5"
       xlink:href="#linearGradient4223"
       gradientUnits="userSpaceOnUse"
       gradientTransform="matrix(0,3.9153034,-3.0928272,-4.4454166e-8,123.97754,-1.450216)" /><radialGradient
       xlink:href="#linearGradient3820-7-2"
       id="radialGradient3300-8"
       gradientUnits="userSpaceOnUse"
       gradientTransform="matrix(0.3823536,7.5555777e-8,-1.8372241e-8,0.1115198,-5.9254271,36.335849)"
       cx="99.189415"
       cy="185.29727"
       fx="99.189415"
       fy="185.29727"
       r="62.769119" /><radialGradient
       xlink:href="#linearGradient3820-7-2"
       id="radialGradient4192-6"
       gradientUnits="userSpaceOnUse"
       gradientTransform="matrix(0.2549024,5.3967361e-8,-1.2248161e-8,0.07965545,6.7163816,44.240666)"
       cx="99.189415"
       cy="185.29727"
       fx="99.189415"
       fy="185.29727"
       r="62.769119" /><linearGradient
       inkscape:collect="always"
       xlink:href="#linearGradient3"
       id="linearGradient7"
       x1="16"
       y1="4"
       x2="16"
       y2="28"
       gradientUnits="userSpaceOnUse" /></defs><metadata
     id="metadata4510"><rdf:RDF><cc:Work
         rdf:about=""><dc:format>image/svg+xml</dc:format><dc:type
           rdf:resource="http://purl.org/dc/dcmitype/StillImage" /></cc:Work></rdf:RDF></metadata><path
     d="m 27.000001,28.499999 a 11,3.4999999 0 1 1 -21.9999996,0 11,3.4999999 0 1 1 21.9999996,0 z"
     id="path3818-0-2"
     style="fill:url(#radialGradient3043);fill-opacity:1;stroke:none" /><circle
     style="opacity:1;fill:url(#linearGradient8);stroke:#000000;stroke-width:1;stroke-linejoin:round;stroke-dasharray:none;stroke-opacity:0.501022"
     id="path1"
     cx="16"
     cy="16"
     r="14.5" /><circle
     style="opacity:0.5;fill:none;fill-opacity:1;stroke:url(#linearGradient2);stroke-width:1;stroke-linejoin:round;stroke-dasharray:none;stroke-opacity:1"
     id="circle1"
     cx="16"
     cy="16"
     r="13.5" /><path
     id="path12"
     style="baseline-shift:baseline;display:inline;overflow:visible;opacity:0.15;fill:#000000;fill-opacity:1;stroke:#000000;stroke-width:2;stroke-linejoin:round;stroke-dasharray:none;stroke-opacity:1;enable-background:accumulate;stop-color:#000000;stop-opacity:1"
     d="M 16,5 C 9.39035,5 4,10.39035 4,17 4,23.60965 9.39035,29 16,29 22.60965,29 28,23.60965 28,17 28,10.39035 22.60965,5 16,5 Z m 0,3 c 4.98833,0 9,4.01167 9,9 0,4.98833 -4.01167,9 -9,9 -4.98833,0 -9,-4.01167 -9,-9 0,-4.98833 4.01167,-9 9,-9 z m 0,1 c -4.406433,0 -8,3.593567 -8,8 0,4.406433 3.593567,8 8,8 4.406433,0 8,-3.593567 8,-8 0,-4.406433 -3.593567,-8 -8,-8 z m 0,2 c 3.325553,0 6,2.674447 6,6 0,3.325553 -2.674447,6 -6,6 -3.325553,0 -6,-2.674447 -6,-6 0,-3.325553 2.674447,-6 6,-6 z m 0,2 c -2.203217,0 -4,1.796783 -4,4 0,2.203217 1.796783,4 4,4 2.203217,0 4,-1.796783 4,-4 0,-2.203217 -1.796783,-4 -4,-4 z m 0,1 c 1.662777,0 3,1.337223 3,3 0,1.662777 -1.337223,3 -3,3 -1.662777,0 -3,-1.337223 -3,-3 0,-1.662777 1.337223,-3 3,-3 z" /><path
     id="path11"
     style="baseline-shift:baseline;display:inline;overflow:visible;opacity:0.15;vector-effect:none;fill:#000000;fill-opacity:1;stroke-linejoin:round;enable-background:accumulate;stop-color:#000000;stop-opacity:1"
     d="M 16,5 C 9.39035,5 4,10.39035 4,17 4,23.60965 9.39035,29 16,29 22.60965,29 28,23.60965 28,17 28,10.39035 22.60965,5 16,5 Z m 0,3 c 4.98833,0 9,4.01167 9,9 0,4.98833 -4.01167,9 -9,9 -4.98833,0 -9,-4.01167 -9,-9 0,-4.98833 4.01167,-9 9,-9 z m 0,1 c -4.406433,0 -8,3.593567 -8,8 0,4.406433 3.593567,8 8,8 4.406433,0 8,-3.593567 8,-8 0,-4.406433 -3.593567,-8 -8,-8 z m 0,2 c 3.325553,0 6,2.674447 6,6 0,3.325553 -2.674447,6 -6,6 -3.325553,0 -6,-2.674447 -6,-6 0,-3.325553 2.674447,-6 6,-6 z m 0,2 c -2.203217,0 -4,1.796783 -4,4 0,2.203217 1.796783,4 4,4 2.203217,0 4,-1.796783 4,-4 0,-2.203217 -1.796783,-4 -4,-4 z m 0,1 c 1.662777,0 3,1.337223 3,3 0,1.662777 -1.337223,3 -3,3 -1.662777,0 -3,-1.337223 -3,-3 0,-1.662777 1.337223,-3 3,-3 z" /><path
     id="path10"
     style="baseline-shift:baseline;display:inline;overflow:visible;opacity:1;vector-effect:none;fill:url(#linearGradient7);stroke-linejoin:round;enable-background:accumulate;stop-color:#000000;stop-opacity:1"
     d="M 16,4 C 9.39035,4 4,9.39035 4,16 4,22.60965 9.39035,28 16,28 22.60965,28 28,22.60965 28,16 28,9.39035 22.60965,4 16,4 Z m 0,3 c 4.98833,0 9,4.01167 9,9 0,4.98833 -4.01167,9 -9,9 -4.98833,0 -9,-4.01167 -9,-9 0,-4.98833 4.01167,-9 9,-9 z m 0,1 c -4.406433,0 -8,3.593567 -8,8 0,4.406433 3.593567,8 8,8 4.406433,0 8,-3.593567 8,-8 0,-4.406433 -3.593567,-8 -8,-8 z m 0,2 c 3.325553,0 6,2.674447 6,6 0,3.325553 -2.674447,6 -6,6 -3.325553,0 -6,-2.674447 -6,-6 0,-3.325553 2.674447,-6 6,-6 z m 0,2 c -2.203217,0 -4,1.796783 -4,4 0,2.203217 1.796783,4 4,4 2.203217,0 4,-1.796783 4,-4 0,-2.203217 -1.796783,-4 -4,-4 z m 0,1 c 1.662777,0 3,1.337223 3,3 0,1.662777 -1.337223,3 -3,3 -1.662777,0 -3,-1.337223 -3,-3 0,-1.662777 1.337223,-3 3,-3 z" /></svg>
