<?xml version="1.0" encoding="UTF-8" standalone="no"?>
<svg
   id="svg3946"
   height="32"
   width="32"
   version="1.1"
   sodipodi:docname="zen-browser.svg"
   xml:space="preserve"
   inkscape:version="1.4.2 (ebf0e940d0, 2025-05-08)"
   xmlns:inkscape="http://www.inkscape.org/namespaces/inkscape"
   xmlns:sodipodi="http://sodipodi.sourceforge.net/DTD/sodipodi-0.dtd"
   xmlns:xlink="http://www.w3.org/1999/xlink"
   xmlns="http://www.w3.org/2000/svg"
   xmlns:svg="http://www.w3.org/2000/svg"
   xmlns:rdf="http://www.w3.org/1999/02/22-rdf-syntax-ns#"
   xmlns:cc="http://creativecommons.org/ns#"
   xmlns:dc="http://purl.org/dc/elements/1.1/"><sodipodi:namedview
     id="namedview1"
     pagecolor="#ffffff"
     bordercolor="#000000"
     borderopacity="0.25"
     inkscape:showpageshadow="2"
     inkscape:pageopacity="0.0"
     inkscape:pagecheckerboard="0"
     inkscape:deskcolor="#d1d1d1"
     showgrid="false"
     inkscape:current-layer="svg3946"><inkscape:grid
       id="grid1"
       units="px"
       originx="-34"
       originy="0"
       spacingx="0.5"
       spacingy="0.5"
       empcolor="#0099e5"
       empopacity="0.30196078"
       color="#0099e5"
       opacity="0.078431373"
       empspacing="2"
       enabled="true"
       visible="false" /><inkscape:page
       x="0"
       y="0"
       width="32"
       height="32"
       id="page2"
       margin="0"
       bleed="0" /></sodipodi:namedview><defs
     id="defs3948"><linearGradient
       id="linearGradient1"
       inkscape:collect="always"><stop
         style="stop-color:#ffffff;stop-opacity:1;"
         offset="0"
         id="stop1" /><stop
         style="stop-color:#ffffff;stop-opacity:0.25;"
         offset="0.5"
         id="stop3" /><stop
         style="stop-color:#ffffff;stop-opacity:0.25;"
         offset="0.75"
         id="stop4" /><stop
         style="stop-color:#ffffff;stop-opacity:0.5;"
         offset="1"
         id="stop2" /></linearGradient><linearGradient
       id="linearGradient3820-7-2-2"><stop
         id="stop3822-2-6-36"
         style="stop-color:#3d3d3d;stop-opacity:1"
         offset="0" /><stop
         id="stop3864-8-7-6"
         style="stop-color:#686868;stop-opacity:0.49803922"
         offset="0.5" /><stop
         id="stop3824-1-2-4"
         style="stop-color:#686868;stop-opacity:0"
         offset="1" /></linearGradient><radialGradient
       cx="99.157013"
       cy="186.17059"
       r="62.769119"
       fx="99.157013"
       fy="186.17059"
       id="radialGradient3043"
       xlink:href="#linearGradient3820-7-2-2"
       gradientUnits="userSpaceOnUse"
       gradientTransform="matrix(0.17524541,0,0,0.05575992,-1.37681,18.119145)" /><linearGradient
       inkscape:collect="always"
       xlink:href="#linearGradient1"
       id="linearGradient2"
       x1="16"
       y1="3"
       x2="16"
       y2="29"
       gradientUnits="userSpaceOnUse" /><linearGradient
       inkscape:collect="always"
       xlink:href="#linearGradient6"
       id="linearGradient8"
       x1="16"
       y1="2"
       x2="16"
       y2="30"
       gradientUnits="userSpaceOnUse" /><linearGradient
       id="linearGradient6"
       inkscape:collect="always"><stop
         style="stop-color:#333333;stop-opacity:1;"
         offset="0"
         id="stop6" /><stop
         style="stop-color:#1a1a1a;stop-opacity:1;"
         offset="1"
         id="stop7-9" /></linearGradient><linearGradient
       inkscape:collect="always"
       xlink:href="#linearGradient3"
       id="linearGradient10"
       x1="50"
       y1="4"
       x2="50"
       y2="28"
       gradientUnits="userSpaceOnUse" /><linearGradient
       id="linearGradient3"
       inkscape:collect="always"><stop
         style="stop-color:#ffffff;stop-opacity:1;"
         offset="0"
         id="stop5" /><stop
         style="stop-color:#d4d4d4;stop-opacity:1;"
         offset="1"
         id="stop7" /></linearGradient><linearGradient
       inkscape:collect="always"
       xlink:href="#linearGradient3"
       id="linearGradient4"
       gradientUnits="userSpaceOnUse"
       x1="50"
       y1="4"
       x2="50"
       y2="28" /><linearGradient
       inkscape:collect="always"
       xlink:href="#linearGradient3"
       id="linearGradient5"
       gradientUnits="userSpaceOnUse"
       x1="50"
       y1="4"
       x2="50"
       y2="28" /></defs><metadata
     id="metadata3951"><rdf:RDF><cc:Work
         rdf:about=""><dc:format>image/svg+xml</dc:format><dc:type
           rdf:resource="http://purl.org/dc/dcmitype/StillImage" /></cc:Work></rdf:RDF></metadata><path
     d="m 27.000001,28.499999 a 11,3.4999999 0 1 1 -22,0 11,3.4999999 0 1 1 22,0 z"
     id="path3818-0-2"
     style="fill:url(#radialGradient3043);fill-opacity:1;stroke:none" /><circle
     style="opacity:1;fill:url(#linearGradient8);stroke:#000000;stroke-width:1;stroke-linejoin:round;stroke-dasharray:none;stroke-opacity:0.501022"
     id="path1"
     cx="16"
     cy="16"
     r="14.5" /><circle
     style="opacity:0.5;fill:none;fill-opacity:1;stroke:url(#linearGradient2);stroke-width:1;stroke-linejoin:round;stroke-dasharray:none;stroke-opacity:1"
     id="circle1"
     cx="16"
     cy="16"
     r="13.5" /><path
     id="path17"
     style="baseline-shift:baseline;display:inline;overflow:visible;opacity:0.15;fill:#130d0f;fill-opacity:1;stroke:#000000;stroke-width:2;stroke-linecap:round;stroke-linejoin:round;stroke-dasharray:none;stroke-opacity:1;enable-background:accumulate;stop-color:#000000"
     d="M 16,5 C 9.384428,5 4,10.384428 4,17 4,23.615572 9.384428,29 16,29 22.615572,29 28,23.615572 28,17 28,10.384428 22.615572,5 16,5 Z m 0,2 c 5.534692,0 10,4.465308 10,10 0,5.534692 -4.465308,10 -10,10 C 10.465308,27 6,22.534692 6,17 6,11.465308 10.465308,7 16,7 Z m 0,2 c -4.412356,0 -8,3.587644 -8,8 0,4.412356 3.587644,8 8,8 4.412356,0 8,-3.587644 8,-8 0,-4.412356 -3.587644,-8 -8,-8 z m 0,1 c 3.871916,0 7,3.128084 7,7 0,3.871916 -3.128084,7 -7,7 -3.871916,0 -7,-3.128084 -7,-7 0,-3.871916 3.128084,-7 7,-7 z m 0,2 c -2.755501,0 -5,2.244499 -5,5 0,2.755501 2.244499,5 5,5 2.755501,0 5,-2.244499 5,-5 0,-2.755501 -2.244499,-5 -5,-5 z m 0,1 c 2.215061,0 4,1.784939 4,4 0,2.215061 -1.784939,4 -4,4 -2.215061,0 -4,-1.784939 -4,-4 0,-2.215061 1.784939,-4 4,-4 z"
     inkscape:label="path13" /><path
     id="path13"
     style="baseline-shift:baseline;display:inline;overflow:visible;opacity:0.15;vector-effect:none;fill:#130d0f;fill-opacity:1;stroke-linecap:round;stroke-linejoin:round;enable-background:accumulate;stop-color:#000000"
     d="M 16,5 C 9.384428,5 4,10.384428 4,17 4,23.615572 9.384428,29 16,29 22.615572,29 28,23.615572 28,17 28,10.384428 22.615572,5 16,5 Z m 0,2 c 5.534692,0 10,4.465308 10,10 0,5.534692 -4.465308,10 -10,10 C 10.465308,27 6,22.534692 6,17 6,11.465308 10.465308,7 16,7 Z m 0,2 c -4.412356,0 -8,3.587644 -8,8 0,4.412356 3.587644,8 8,8 4.412356,0 8,-3.587644 8,-8 0,-4.412356 -3.587644,-8 -8,-8 z m 0,1 c 3.871916,0 7,3.128084 7,7 0,3.871916 -3.128084,7 -7,7 -3.871916,0 -7,-3.128084 -7,-7 0,-3.871916 3.128084,-7 7,-7 z m 0,2 c -2.755501,0 -5,2.244499 -5,5 0,2.755501 2.244499,5 5,5 2.755501,0 5,-2.244499 5,-5 0,-2.755501 -2.244499,-5 -5,-5 z m 0,1 c 2.215061,0 4,1.784939 4,4 0,2.215061 -1.784939,4 -4,4 -2.215061,0 -4,-1.784939 -4,-4 0,-2.215061 1.784939,-4 4,-4 z"
     inkscape:label="path13" /><g
     id="g9"
     style="fill:url(#linearGradient10);fill-opacity:1"
     transform="translate(-34)"><path
       id="path4"
       style="baseline-shift:baseline;display:inline;overflow:visible;opacity:1;vector-effect:none;fill:url(#linearGradient4);fill-opacity:1;stroke-linecap:round;stroke-linejoin:round;enable-background:accumulate;stop-color:#000000;stop-opacity:1"
       d="M 50,4 C 43.384428,4 38,9.3844276 38,16 38,22.615572 43.384428,28 50,28 56.615572,28 62,22.615572 62,16 62,9.3844276 56.615572,4 50,4 Z m 0,2 c 5.534692,0 10,4.465308 10,10 0,5.534692 -4.465308,10 -10,10 C 44.465308,26 40,21.534692 40,16 40,10.465308 44.465308,6 50,6 Z m 0,2 c -4.412356,0 -8,3.587644 -8,8 0,4.412356 3.587644,8 8,8 4.412356,0 8,-3.587644 8,-8 0,-4.412356 -3.587644,-8 -8,-8 z m 0,1 c 3.871916,0 7,3.128084 7,7 0,3.871916 -3.128084,7 -7,7 -3.871916,0 -7,-3.128084 -7,-7 0,-3.871916 3.128084,-7 7,-7 z" /><path
       style="baseline-shift:baseline;display:inline;overflow:visible;opacity:0.75;vector-effect:none;fill:url(#linearGradient5);fill-opacity:1;stroke-linecap:round;stroke-linejoin:round;enable-background:accumulate;stop-color:#000000;stop-opacity:1"
       d="m 50,11 c -2.755501,0 -5,2.244499 -5,5 0,2.755501 2.244499,5 5,5 2.755501,0 5,-2.244499 5,-5 0,-2.755501 -2.244499,-5 -5,-5 z m 0,1 c 2.215061,0 4,1.784939 4,4 0,2.215061 -1.784939,4 -4,4 -2.215061,0 -4,-1.784939 -4,-4 0,-2.215061 1.784939,-4 4,-4 z"
       id="circle5" /></g></svg>
