<?xml version="1.0" encoding="UTF-8" standalone="no"?>
<svg
   width="48"
   height="48"
   viewBox="0 0 48 48"
   fill="none"
   version="1.1"
   id="svg4"
   xml:space="preserve"
   sodipodi:docname="discord.svg"
   inkscape:version="1.4.2 (ebf0e940d0, 2025-05-08)"
   xmlns:inkscape="http://www.inkscape.org/namespaces/inkscape"
   xmlns:sodipodi="http://sodipodi.sourceforge.net/DTD/sodipodi-0.dtd"
   xmlns:xlink="http://www.w3.org/1999/xlink"
   xmlns="http://www.w3.org/2000/svg"
   xmlns:svg="http://www.w3.org/2000/svg"><sodipodi:namedview
     id="namedview1"
     pagecolor="#ffffff"
     bordercolor="#000000"
     borderopacity="0.25"
     inkscape:showpageshadow="2"
     inkscape:pageopacity="0.0"
     inkscape:pagecheckerboard="0"
     inkscape:deskcolor="#d1d1d1"
     showgrid="false"
     inkscape:current-layer="svg4"><inkscape:page
       x="0"
       y="0"
       width="48"
       height="48"
       id="page1"
       margin="0"
       bleed="0"
       inkscape:export-filename="../32/discord.svg"
       inkscape:export-xdpi="96"
       inkscape:export-ydpi="96" /><inkscape:grid
       id="grid2"
       units="px"
       originx="0"
       originy="0"
       spacingx="0.5"
       spacingy="0.5"
       empcolor="#0099e5"
       empopacity="0.30196078"
       color="#0099e5"
       opacity="0.0784314"
       empspacing="2"
       enabled="true"
       visible="false" /></sodipodi:namedview><defs
     id="defs4"><linearGradient
       id="linearGradient18"><stop
         style="stop-color:#ffffff;stop-opacity:1;"
         offset="0"
         id="stop18" /><stop
         style="stop-color:#ffffff;stop-opacity:0;"
         offset="1"
         id="stop19" /></linearGradient><linearGradient
       id="linearGradient17"><stop
         offset="0"
         style="stop-color:#ffffff;stop-opacity:1"
         id="stop14" /><stop
         offset="0.14473684"
         style="stop-color:#ffffff;stop-opacity:0.23529412"
         id="stop15" /><stop
         offset="0.85526317"
         style="stop-color:#ffffff;stop-opacity:0.15686275"
         id="stop16" /><stop
         offset="1"
         style="stop-color:#ffffff;stop-opacity:0.39215687"
         id="stop17" /></linearGradient><style
       id="style1">.g{fill:#000;}.g,.h,.i{stroke-width:0px;}.h{fill:url(#e);}.i{fill:#fff;}</style><style
       id="style1-7">.g{fill:#000;}.g,.h,.i{stroke-width:0px;}.h{fill:url(#e);}.i{fill:#fff;}</style><style
       id="style1-5">.g{fill:#000;}.g,.h,.i{stroke-width:0px;}.h{fill:url(#e);}.i{fill:#fff;}</style><linearGradient
       id="linearGradient2-5"><stop
         style="stop-color:#5865f2;stop-opacity:1;"
         offset="0"
         id="stop3-3" /><stop
         style="stop-color:#1f30f4;stop-opacity:1;"
         offset="1"
         id="stop4-5" /></linearGradient><style
       id="style1-3">.g{fill:#000;}.g,.h,.i{stroke-width:0px;}.h{fill:url(#e);}.i{fill:#fff;}</style><style
       id="style1-6">.cls-1{fill:#fff;}</style><linearGradient
       xlink:href="#linearGradient17"
       id="linearGradient12"
       x1="24"
       y1="6"
       x2="24"
       y2="44"
       gradientUnits="userSpaceOnUse"
       gradientTransform="translate(0,-51)" /><linearGradient
       xlink:href="#linearGradient18"
       id="linearGradient19"
       x1="38.264111"
       y1="46.5"
       x2="36.881195"
       y2="41"
       gradientUnits="userSpaceOnUse"
       gradientTransform="translate(0,-51)" /><linearGradient
       id="linearGradient3820-7-2"><stop
         id="stop3822-2-6"
         style="stop-color:#000000;stop-opacity:1"
         offset="0" /><stop
         id="stop3824-1-2"
         style="stop-color:#000000;stop-opacity:0"
         offset="1" /></linearGradient><radialGradient
       xlink:href="#linearGradient3820-7-2"
       id="radialGradient3"
       gradientUnits="userSpaceOnUse"
       gradientTransform="matrix(0.3823536,7.5555777e-8,-1.8372241e-8,0.1115198,-5.9254271,36.335849)"
       cx="99.189415"
       cy="185.29727"
       fx="99.189415"
       fy="185.29727"
       r="62.769119" /><radialGradient
       xlink:href="#linearGradient3820-7-2"
       id="radialGradient4"
       gradientUnits="userSpaceOnUse"
       gradientTransform="matrix(0.2549024,5.3967361e-8,-1.2248161e-8,0.07965545,6.7163816,44.240666)"
       cx="99.189415"
       cy="185.29727"
       fx="99.189415"
       fy="185.29727"
       r="62.769119" /><style
       id="style1-62">.g{fill:#000;}.g,.h,.i{stroke-width:0px;}.h{fill:url(#e);}.i{fill:#fff;}</style><style
       id="style1-6-9">.cls-1{fill:#fff;}</style><style
       id="style1-67">.cls-1{fill:#fff;}</style><style
       id="style1-56">.g{fill:#000;}.g,.h,.i{stroke-width:0px;}.h{fill:url(#e);}.i{fill:#fff;}</style><style
       id="style1-7-1">.g{fill:#000;}.g,.h,.i{stroke-width:0px;}.h{fill:url(#e);}.i{fill:#fff;}</style><style
       id="style1-5-2">.g{fill:#000;}.g,.h,.i{stroke-width:0px;}.h{fill:url(#e);}.i{fill:#fff;}</style><style
       id="style1-3-7">.g{fill:#000;}.g,.h,.i{stroke-width:0px;}.h{fill:url(#e);}.i{fill:#fff;}</style><style
       id="style1-6-1">.cls-1{fill:#fff;}</style><style
       id="style1-2">.g{fill:#000;}.g,.h,.i{stroke-width:0px;}.h{fill:url(#e);}.i{fill:#fff;}</style><style
       id="style1-6-8">.cls-1{fill:#fff;}</style><linearGradient
       xlink:href="#linearGradient2-5"
       id="linearGradient9"
       x1="24"
       y1="5"
       x2="24"
       y2="45"
       gradientUnits="userSpaceOnUse"
       gradientTransform="translate(0,-51)" /><linearGradient
       id="linearGradient1201"><stop
         id="stop1193"
         style="stop-color:#ffffff;stop-opacity:1"
         offset="0" /><stop
         id="stop1195"
         style="stop-color:#ffffff;stop-opacity:0.23529412"
         offset="0.07352958" /><stop
         id="stop1197"
         style="stop-color:#ffffff;stop-opacity:0.15686275"
         offset="0.92647058" /><stop
         id="stop1199"
         style="stop-color:#ffffff;stop-opacity:0.39215687"
         offset="1" /></linearGradient><linearGradient
       x1="38.999996"
       y1="5.9999938"
       x2="38.999996"
       y2="40"
       id="linearGradient3058-5"
       xlink:href="#linearGradient1201"
       gradientUnits="userSpaceOnUse"
       gradientTransform="translate(4e-6)" /><linearGradient
       xlink:href="#linearGradient2-5"
       id="linearGradient930-9-2"
       x1="16.692297"
       y1="2.4999993"
       x2="16.692297"
       y2="27.769238"
       gradientUnits="userSpaceOnUse"
       gradientTransform="matrix(1.444444,0,0,1.444444,0.888913,0.888891)" /><linearGradient
       id="linearGradient870"><stop
         id="stop866"
         offset="0"
         style="stop-color:#cd9ef7;stop-opacity:1" /><stop
         id="stop868"
         offset="1"
         style="stop-color:#a56de2;stop-opacity:1" /></linearGradient><linearGradient
       id="linearGradient30"><stop
         style="stop-color:#ffffff;stop-opacity:1;"
         offset="0"
         id="stop30" /><stop
         style="stop-color:#fafafa;stop-opacity:0;"
         offset="1"
         id="stop31" /></linearGradient><linearGradient
       id="linearGradient22"><stop
         id="stop13"
         style="stop-color:#ffffff;stop-opacity:1"
         offset="0" /><stop
         id="stop20"
         style="stop-color:#ffffff;stop-opacity:0.23529412"
         offset="0.13461539" /><stop
         id="stop21"
         style="stop-color:#ffffff;stop-opacity:0.15686275"
         offset="0.86538464" /><stop
         id="stop22"
         style="stop-color:#ffffff;stop-opacity:0.39215687"
         offset="1" /></linearGradient><style
       id="style1-79">.g{fill:#000;}.g,.h,.i{stroke-width:0px;}.h{fill:url(#e);}.i{fill:#fff;}</style><style
       id="style1-7-2">.g{fill:#000;}.g,.h,.i{stroke-width:0px;}.h{fill:url(#e);}.i{fill:#fff;}</style><style
       id="style1-5-0">.g{fill:#000;}.g,.h,.i{stroke-width:0px;}.h{fill:url(#e);}.i{fill:#fff;}</style><style
       id="style1-53">.g{fill:#000;}.g,.h,.i{stroke-width:0px;}.h{fill:url(#e);}.i{fill:#fff;}</style><style
       id="style1-6-2">.cls-1{fill:#fff;}</style><style
       id="style1-67-3">.cls-1{fill:#fff;}</style><style
       id="style1-675">.g{fill:#000;}.g,.h,.i{stroke-width:0px;}.h{fill:url(#e);}.i{fill:#fff;}</style><style
       id="style1-7-3">.g{fill:#000;}.g,.h,.i{stroke-width:0px;}.h{fill:url(#e);}.i{fill:#fff;}</style><style
       id="style1-5-5">.g{fill:#000;}.g,.h,.i{stroke-width:0px;}.h{fill:url(#e);}.i{fill:#fff;}</style><style
       id="style1-3-9">.g{fill:#000;}.g,.h,.i{stroke-width:0px;}.h{fill:url(#e);}.i{fill:#fff;}</style><style
       id="style1-6-6">.cls-1{fill:#fff;}</style><style
       id="style1-70">.g{fill:#000;}.g,.h,.i{stroke-width:0px;}.h{fill:url(#e);}.i{fill:#fff;}</style><style
       id="style1-6-3">.cls-1{fill:#fff;}</style><linearGradient
       id="linearGradient3820-7-2-2"><stop
         offset="0"
         style="stop-color:#3d3d3d;stop-opacity:1"
         id="stop3822-2-6-36" /><stop
         offset="0.5"
         style="stop-color:#686868;stop-opacity:0.49803922"
         id="stop3864-8-7-6" /><stop
         offset="1"
         style="stop-color:#686868;stop-opacity:0"
         id="stop3824-1-2-4" /></linearGradient><radialGradient
       cx="99.157013"
       cy="186.17059"
       r="62.769119"
       fx="99.157013"
       fy="186.17059"
       id="radialGradient3108-6"
       xlink:href="#linearGradient3820-7-2-2"
       gradientUnits="userSpaceOnUse"
       gradientTransform="matrix(0.21473139,0,0,0.06794726,-5.3136245,15.116856)" /><linearGradient
       xlink:href="#linearGradient22"
       id="linearGradient13"
       x1="16"
       y1="3"
       x2="16"
       y2="29"
       gradientUnits="userSpaceOnUse"
       gradientTransform="translate(0,-33)" /><linearGradient
       xlink:href="#linearGradient2-5"
       id="linearGradient29"
       x1="16"
       y1="3"
       x2="16"
       y2="30"
       gradientUnits="userSpaceOnUse"
       gradientTransform="translate(0,-33)" /><linearGradient
       xlink:href="#linearGradient30"
       id="linearGradient31"
       x1="25.002583"
       y1="30.93301"
       x2="23.779295"
       y2="27.459316"
       gradientUnits="userSpaceOnUse" /><linearGradient
       id="linearGradient4"><stop
         id="stop1"
         style="stop-color:#ffffff;stop-opacity:1"
         offset="0" /><stop
         id="stop2"
         style="stop-color:#ffffff;stop-opacity:0.23529412"
         offset="0.06818181" /><stop
         id="stop3"
         style="stop-color:#ffffff;stop-opacity:0.15686275"
         offset="0.93181819" /><stop
         id="stop4"
         style="stop-color:#ffffff;stop-opacity:0.39215687"
         offset="1" /></linearGradient><linearGradient
       xlink:href="#linearGradient2-5"
       id="linearGradient930-9-2-8"
       x1="16.999996"
       y1="2.5"
       x2="16.999996"
       y2="29"
       gradientUnits="userSpaceOnUse"
       gradientTransform="translate(58.000004)" /><linearGradient
       x1="23.99999"
       y1="6.2399855"
       x2="23.999994"
       y2="38.799984"
       id="linearGradient4161-0-2"
       xlink:href="#linearGradient4"
       gradientUnits="userSpaceOnUse"
       gradientTransform="matrix(0.67567568,0,0,0.67567568,57.783787,-0.21620614)" /></defs><path
     id="rect5505-21-1"
     style="color:#000000;font-variation-settings:normal;display:inline;overflow:visible;visibility:visible;opacity:1;vector-effect:none;fill:url(#linearGradient930-9-2);fill-opacity:1;fill-rule:nonzero;stroke:#0a0f9f;stroke-width:1;stroke-linecap:butt;stroke-linejoin:round;stroke-miterlimit:4;stroke-dasharray:none;stroke-dashoffset:0;stroke-opacity:0.501961;marker:none;enable-background:accumulate;stop-color:#000000;stop-opacity:1"
     d="m 8.5,4.5 c -2.216,0 -4,1.784 -4,4 v 29 c 0,2.216 1.784,4 4,4 h 22 v 6 l 6,-6 h 3 c 2.216,0 4,-1.784 4,-4 v -29 c 0,-2.216 -1.784,-4 -4,-4 z" /><path
     id="rect6741-2"
     style="opacity:0.5;fill:none;stroke:url(#linearGradient3058-5);stroke-width:1;stroke-linecap:round;stroke-linejoin:round;stroke-miterlimit:4;stroke-dasharray:none;stroke-dashoffset:0;stroke-opacity:1"
     d="m 8.5,5.5 c -1.662,0 -3,1.338 -3,3 v 29 c 0,1.662 1.338,3 3,3 h 23 V 45 L 36,40.5 h 3.5 c 1.662,0 3,-1.338 3,-3 v -29 c 0,-1.662 -1.338,-3 -3,-3 z" /><path
     class="cls-1"
     d="M 33.110355,15.755278 A 21.647154,21.647154 0 0 0 27.710402,14.093913 14.83494,14.83494 0 0 0 27.018684,15.5 a 20.109311,20.109311 0 0 0 -5.992855,0 14.89876,14.89876 0 0 0 -0.69172,-1.406087 21.799498,21.799498 0 0 0 -5.404065,1.665483 C 11.512613,20.815545 10.5862,25.746114 11.0494,30.606688 v 0 a 21.766559,21.766559 0 0 0 6.622815,3.324789 15.996044,15.996044 0 0 0 1.418443,-2.287208 14.085576,14.085576 0 0 1 -2.233682,-1.066402 c 0.187339,-0.135875 0.370566,-0.275865 0.547612,-0.411739 a 15.557542,15.557542 0 0 0 13.241513,0 c 0.179108,0.146167 0.362328,0.286158 0.547608,0.411739 a 14.139102,14.139102 0 0 1 -2.237798,1.068461 15.851934,15.851934 0 0 0 1.418443,2.285149 21.667742,21.667742 0 0 0 6.626934,-3.32273 v 0 C 37.54478,24.972045 36.07282,20.086768 33.110355,15.755278 Z M 19.677386,27.617466 c -1.290802,0 -2.357204,-1.171396 -2.357204,-2.612481 0,-1.441085 1.029348,-2.622775 2.353084,-2.622775 1.32374,0 2.381911,1.18169 2.359263,2.622775 -0.02266,1.441085 -1.039642,2.612481 -2.355143,2.612481 z m 8.695913,0 c -1.292853,0 -2.35514,-1.171396 -2.35514,-2.612481 0,-1.441085 1.029345,-2.622775 2.35514,-2.622775 1.3258,0 2.375737,1.18169 2.353089,2.622775 -0.02266,1.441085 -1.03758,2.612481 -2.353089,2.612481 z"
     id="path20"
     style="opacity:0.15;fill:#000000;fill-opacity:1;stroke:#000000;stroke-width:2;stroke-dasharray:none;stroke-opacity:1" /><path
     class="cls-1"
     d="M 33.110355,15.755278 A 21.647154,21.647154 0 0 0 27.710402,14.093913 14.83494,14.83494 0 0 0 27.018684,15.5 a 20.109311,20.109311 0 0 0 -5.992855,0 14.89876,14.89876 0 0 0 -0.69172,-1.406087 21.799498,21.799498 0 0 0 -5.404065,1.665483 C 11.512613,20.815545 10.5862,25.746114 11.0494,30.606688 v 0 a 21.766559,21.766559 0 0 0 6.622815,3.324789 15.996044,15.996044 0 0 0 1.418443,-2.287208 14.085576,14.085576 0 0 1 -2.233682,-1.066402 c 0.187339,-0.135875 0.370566,-0.275865 0.547612,-0.411739 a 15.557542,15.557542 0 0 0 13.241513,0 c 0.179108,0.146167 0.362328,0.286158 0.547608,0.411739 a 14.139102,14.139102 0 0 1 -2.237798,1.068461 15.851934,15.851934 0 0 0 1.418443,2.285149 21.667742,21.667742 0 0 0 6.626934,-3.32273 v 0 C 37.54478,24.972045 36.07282,20.086768 33.110355,15.755278 Z M 19.677386,27.617466 c -1.290802,0 -2.357204,-1.171396 -2.357204,-2.612481 0,-1.441085 1.029348,-2.622775 2.353084,-2.622775 1.32374,0 2.381911,1.18169 2.359263,2.622775 -0.02266,1.441085 -1.039642,2.612481 -2.355143,2.612481 z m 8.695913,0 c -1.292853,0 -2.35514,-1.171396 -2.35514,-2.612481 0,-1.441085 1.029345,-2.622775 2.35514,-2.622775 1.3258,0 2.375737,1.18169 2.353089,2.622775 -0.02266,1.441085 -1.03758,2.612481 -2.353089,2.612481 z"
     id="path19"
     style="opacity:0.15;fill:#000000;fill-opacity:1;stroke:none;stroke-width:0.206;stroke-dasharray:none" /><path
     class="cls-1"
     d="m 33.110355,14.755278 c -1.719678,-0.78731 -3.53512,-1.345854 -5.399953,-1.661365 -0.255183,0.456182 -0.486078,0.925532 -0.691718,1.406087 -1.986405,-0.29933 -4.00645,-0.29933 -5.992855,0 -0.205748,-0.480505 -0.436641,-0.94985 -0.69172,-1.406087 -1.866026,0.318176 -3.682661,0.878046 -5.404065,1.665483 -3.417431,5.056149 -4.343844,9.986718 -3.880644,14.847292 v 0 c 2.001333,1.478673 4.241395,2.60323 6.622815,3.324789 0.536226,-0.721203 1.010719,-1.486313 1.418443,-2.287208 -0.774411,-0.289233 -1.521857,-0.646078 -2.233682,-1.066402 0.187339,-0.135875 0.370566,-0.275865 0.547612,-0.411739 4.193549,1.972125 9.047964,1.972125 13.241513,0 0.179108,0.146167 0.362328,0.286158 0.547608,0.411739 -0.713201,0.421005 -1.462013,0.778534 -2.237798,1.068461 0.407224,0.800524 0.881746,1.564992 1.418443,2.285149 2.383453,-0.718663 4.625235,-1.842687 6.626934,-3.32273 v 0 C 37.54478,23.972045 36.07282,19.086768 33.110355,14.755278 Z M 19.677386,26.617466 c -1.290802,0 -2.357204,-1.171396 -2.357204,-2.612481 0,-1.441085 1.029348,-2.622775 2.353084,-2.622775 1.32374,0 2.381911,1.18169 2.359263,2.622775 -0.02266,1.441085 -1.039642,2.612481 -2.355143,2.612481 z m 8.695913,0 c -1.292853,0 -2.35514,-1.171396 -2.35514,-2.612481 0,-1.441085 1.029345,-2.622775 2.35514,-2.622775 1.3258,0 2.375737,1.18169 2.353089,2.622775 -0.02266,1.441085 -1.03758,2.612481 -2.353089,2.612481 z"
     id="path1-6"
     style="fill:#abacae;stroke-width:0.205868" /><path
     id="path21"
     style="fill:#d4d4d4;stroke-width:0.205868"
     class="cls-1"
     d="m 20.333984,13.09375 c -1.866129,0.318326 -3.682845,0.878376 -5.404296,1.666016 -2.767117,4.093997 -3.898909,8.105614 -3.984376,12.064453 0.01313,0.595474 0.04698,1.189915 0.103516,1.783203 2.001444,1.478495 4.241584,2.60286 6.623047,3.324219 0.348648,-0.475334 0.670754,-0.969578 0.964844,-1.480469 -0.612863,-0.248876 -1.207433,-0.540614 -1.779297,-0.873047 l 0.546875,-1.412109 c 4.193737,1.972337 9.04845,1.972337 13.242187,0 l 0.546874,1.412109 c -0.573153,0.333109 -1.169024,0.625497 -1.783203,0.875 0.293899,0.51038 0.616013,1.003984 0.964844,1.478516 2.383429,-0.718519 4.625215,-1.842385 6.626953,-3.322266 0.05777,-0.599162 0.08675,-1.189065 0.09961,-1.771484 -0.09777,-4.486749 -1.524368,-8.476631 -3.990234,-12.082032 -1.71978,-0.787603 -3.535373,-1.346398 -5.40039,-1.662109 -0.255083,0.456242 -0.485874,0.925647 -0.691407,1.40625 -1.986826,-0.299459 -4.007314,-0.299459 -5.99414,0 -0.205641,-0.480554 -0.436429,-0.949953 -0.691407,-1.40625 z m -0.660156,7.289062 c 1.32374,0 2.382023,1.181962 2.359375,2.623047 -0.0025,0.15646 -0.01991,0.308084 -0.04492,0.457032 0.03127,0.1752 0.04784,0.357167 0.04492,0.542968 -0.02266,1.441085 -1.039968,2.611329 -2.355469,2.611329 -1.290802,0 -2.357421,-1.170244 -2.357422,-2.611329 0,-0.173395 0.0164,-0.343534 0.04492,-0.507812 -0.02787,-0.15983 -0.04492,-0.323524 -0.04492,-0.492188 0,-1.441085 1.02978,-2.623047 2.353516,-2.623047 z m 8.699219,0 c 1.3258,0 2.376164,1.181962 2.353515,2.623047 -0.0025,0.15646 -0.01995,0.308084 -0.04492,0.457032 0.03103,0.1752 0.04784,0.357167 0.04492,0.542968 -0.02266,1.441085 -1.038006,2.611329 -2.353515,2.611329 -1.292853,0 -2.355469,-1.170244 -2.355469,-2.611329 0,-0.173395 0.01639,-0.343534 0.04492,-0.507812 -0.02776,-0.159818 -0.04492,-0.323537 -0.04492,-0.492188 0,-1.441085 1.029674,-2.623047 2.355469,-2.623047 z" /><path
     id="path22"
     style="fill:#fafafa;stroke-width:0.205868"
     class="cls-1"
     d="m 20.333984,13.09375 c -1.866129,0.318326 -3.682845,0.878376 -5.404296,1.666016 -2.653508,3.92591 -3.799382,7.775663 -3.964844,11.576172 0.01853,0.424319 0.04365,0.848263 0.08398,1.271484 2.001444,1.478495 4.241584,2.60286 6.623047,3.324219 0.162872,-0.225684 0.319827,-0.45558 0.470703,-0.689453 -0.439477,-0.199196 -0.868427,-0.420843 -1.285156,-0.664063 0.187339,-0.135875 0.546875,-2.412109 0.546875,-2.412109 4.193737,1.972337 9.04845,1.972337 13.242187,0 l 0.546875,2.412109 c -0.417369,0.243861 -0.84697,0.466159 -1.287109,0.666016 0.150207,0.233229 0.306511,0.462474 0.46875,0.6875 2.383429,-0.718519 4.625215,-1.842385 6.626953,-3.322266 0.04143,-0.429702 0.0677,-0.854335 0.08594,-1.275391 -0.190234,-4.282404 -1.603313,-8.108141 -3.976563,-11.578125 -1.71978,-0.787603 -3.535373,-1.346398 -5.40039,-1.662109 -0.255083,0.456242 -0.485874,0.925647 -0.691407,1.40625 -1.986826,-0.299459 -4.007314,-0.299459 -5.99414,0 -0.205641,-0.480554 -0.436429,-0.949953 -0.691407,-1.40625 z m -0.660156,6.289062 c 1.32374,0 2.382023,1.181962 2.359375,2.623047 -0.0054,0.343356 -0.06885,0.670164 -0.177734,0.970703 0.119107,0.316096 0.183456,0.665215 0.177734,1.029297 -0.02266,1.441085 -1.039968,2.611329 -2.355469,2.611329 -1.290802,0 -2.357421,-1.170244 -2.357422,-2.611329 0,-0.356769 0.06466,-0.698788 0.179688,-1.009765 -0.114253,-0.305849 -0.179688,-0.63941 -0.179688,-0.990235 0,-1.441085 1.02978,-2.623047 2.353516,-2.623047 z m 8.699219,0 c 1.3258,0 2.376164,1.181962 2.353515,2.623047 -0.0054,0.342038 -0.06981,0.667201 -0.177734,0.966797 0.119353,0.317193 0.183481,0.667541 0.177734,1.033203 -0.02266,1.441085 -1.038006,2.611329 -2.353515,2.611329 -1.292853,0 -2.355469,-1.170244 -2.355469,-2.611329 0,-0.356769 0.06463,-0.698788 0.179688,-1.009765 -0.113914,-0.305849 -0.179688,-0.63941 -0.179688,-0.990235 0,-1.441085 1.029674,-2.623047 2.355469,-2.623047 z" /></svg>
