<svg height="48" viewBox="0 0 48 48" width="48" xmlns="http://www.w3.org/2000/svg" xmlns:xlink="http://www.w3.org/1999/xlink"><linearGradient id="a" x1="48.9045%" x2="48.9045%" y1=".395456%" y2="99.929117%"><stop offset="0" stop-color="#321d59"/><stop offset="1" stop-color="#1d1134"/></linearGradient><linearGradient id="b" x1="90.540499%" x2="90.540499%" y1="1.351364%" y2="98.501132%"><stop offset="0" stop-color="#fff"/><stop offset=".0695499" stop-color="#fff" stop-opacity=".235294"/><stop offset=".93196869" stop-color="#fff" stop-opacity=".156863"/><stop offset="1" stop-color="#fff" stop-opacity=".392157"/></linearGradient><linearGradient id="c" x1="87.235789%" x2="9.416496%" y1="15.491765%" y2="93.085653%"><stop offset="0" stop-color="#fff44f"/><stop offset=".05" stop-color="#fff44f"/><stop offset=".11" stop-color="#ffe847"/><stop offset=".22" stop-color="#ffc830"/><stop offset=".37" stop-color="#ff980e"/><stop offset=".4" stop-color="#ff8b16"/><stop offset=".46" stop-color="#ff672a"/><stop offset=".53" stop-color="#ff3647"/><stop offset=".7" stop-color="#e31587"/><stop offset="1" stop-color="#e31587"/></linearGradient><radialGradient id="d" cx="85.925388%" cy="-12.928915%" gradientTransform="matrix(.813607 0 0 1 .160159 0)" r="128.293045%"><stop offset="0" stop-color="#ffbd4f"/><stop offset=".13" stop-color="#ffbd4f"/><stop offset=".19" stop-color="#ffac31"/><stop offset=".25" stop-color="#ff9d17"/><stop offset=".28" stop-color="#ff980e"/><stop offset=".4" stop-color="#ff563b"/><stop offset=".47" stop-color="#ff3750"/><stop offset=".71" stop-color="#f5156c"/><stop offset=".78" stop-color="#eb0878"/><stop offset=".86" stop-color="#e50080"/><stop offset="1" stop-color="#e50080"/></radialGradient><radialGradient id="e" cx="47.784708%" cy="39.519103%" gradientTransform="matrix(.813607 0 0 1 .089067 0)" r="128.293045%"><stop offset="0" stop-color="#960e18"/><stop offset=".3" stop-color="#960e18"/><stop offset=".35" stop-color="#b11927" stop-opacity=".74"/><stop offset=".43" stop-color="#db293d" stop-opacity=".34"/><stop offset=".5" stop-color="#f5334b" stop-opacity=".09"/><stop offset=".53" stop-color="#ff3750" stop-opacity="0"/><stop offset="1" stop-color="#ff3750" stop-opacity="0"/></radialGradient><radialGradient id="f" cx="50%" cy="-29.999489%" gradientTransform="matrix(1 0 0 .588951 0 -.123313)" r="314.960083%"><stop offset="0" stop-color="#fff44f"/><stop offset=".13" stop-color="#fff44f"/><stop offset=".25" stop-color="#ffdc3e"/><stop offset=".51" stop-color="#ff9d12"/><stop offset="1" stop-color="#ff980e"/></radialGradient><radialGradient id="g" cx="19.463056%" cy="110.099796%" gradientTransform="matrix(1 0 0 .912036 0 .096848)" r="111.769667%"><stop offset="0" stop-color="#3a8ee6"/><stop offset=".35" stop-color="#3a8ee6"/><stop offset=".47" stop-color="#5c79f0"/><stop offset=".67" stop-color="#9059ff"/><stop offset="1" stop-color="#c139e6"/></radialGradient><radialGradient id="h" cx="48.795952%" cy="28.731752%" gradientTransform="matrix(.97072832 -.21905299 .2401802 .88533917 -.054725 .139833)" r="59.216185%"><stop offset="0" stop-color="#9059ff" stop-opacity="0"/><stop offset=".21" stop-color="#9059ff" stop-opacity="0"/><stop offset=".28" stop-color="#8c4ff3" stop-opacity=".06"/><stop offset=".75" stop-color="#7716a8" stop-opacity=".45"/><stop offset=".97" stop-color="#6e008b" stop-opacity=".6"/><stop offset="1" stop-color="#6e008b" stop-opacity=".6"/></radialGradient><radialGradient id="i" cx="208.04853%" cy="-103.932584%" gradientTransform="matrix(1 0 0 .996255 0 -.003892)" r="293.267259%"><stop offset="0" stop-color="#ffe226"/><stop offset=".12" stop-color="#ffdb27"/><stop offset=".3" stop-color="#ffc82a"/><stop offset=".5" stop-color="#ffa930"/><stop offset=".73" stop-color="#ff7e37"/><stop offset=".79" stop-color="#ff7139"/><stop offset="1" stop-color="#ff7139"/></radialGradient><radialGradient id="j" cx="79.284489%" cy="-40.870048%" gradientTransform="matrix(.839405 0 0 1 .127327 0)" r="193.77375%"><stop offset="0" stop-color="#fff44f"/><stop offset=".11" stop-color="#fff44f"/><stop offset=".46" stop-color="#ff980e"/><stop offset=".62" stop-color="#ff5634"/><stop offset=".72" stop-color="#ff3647"/><stop offset=".9" stop-color="#e31587"/><stop offset="1" stop-color="#e31587"/></radialGradient><radialGradient id="k" cx=".43199%" cy="1.756615%" gradientTransform="matrix(.10049871 .47105998 -.99493719 .04758182 .021363 .014695)" r="346.848896%"><stop offset="0" stop-color="#fff44f"/><stop offset=".06" stop-color="#ffe847"/><stop offset=".17" stop-color="#ffc830"/><stop offset=".3" stop-color="#ff980e"/><stop offset=".36" stop-color="#ff8b16"/><stop offset=".45" stop-color="#ff672a"/><stop offset=".57" stop-color="#ff3647"/><stop offset=".74" stop-color="#e31587"/><stop offset="1" stop-color="#e31587"/></radialGradient><radialGradient id="l" cx="15.34403%" cy="-42.477256%" gradientTransform="matrix(.982826 0 0 1 .002635 0)" r="238.364264%"><stop offset="0" stop-color="#fff44f"/><stop offset=".14" stop-color="#fff44f"/><stop offset=".48" stop-color="#ff980e"/><stop offset=".59" stop-color="#ff5634"/><stop offset=".66" stop-color="#ff3647"/><stop offset=".9" stop-color="#e31587"/><stop offset="1" stop-color="#e31587"/></radialGradient><radialGradient id="m" cx="155.387205%" cy="-44.717154%" gradientTransform="matrix(.894782 0 0 1 .163495 0)" r="313.088672%"><stop offset="0" stop-color="#fff44f"/><stop offset=".09" stop-color="#fff44f"/><stop offset=".23" stop-color="#ffe141"/><stop offset=".51" stop-color="#ffaf1e"/><stop offset=".63" stop-color="#ff980e"/><stop offset="1" stop-color="#ff980e"/></radialGradient><linearGradient id="n" x1="86.299524%" x2="20.086026%" y1="15.076501%" y2="83.508376%"><stop offset="0" stop-color="#fff44f" stop-opacity=".8"/><stop offset=".17" stop-color="#fff44f" stop-opacity=".8"/><stop offset=".27" stop-color="#fff44f" stop-opacity=".63"/><stop offset=".49" stop-color="#fff44f" stop-opacity=".22"/><stop offset=".6" stop-color="#fff44f" stop-opacity="0"/><stop offset="1" stop-color="#fff44f" stop-opacity="0"/></linearGradient><g fill="none" fill-rule="evenodd"><g transform="translate(4.501403 5.5)"><rect fill="url(#a)" fill-rule="nonzero" height="39" rx="4" stroke="#1d1134" stroke-opacity=".5" width="39"/><rect height="37" opacity=".35" rx="3" stroke="url(#b)" stroke-linecap="round" stroke-linejoin="round" width="37" x="1" y="1"/></g><g fill-rule="nonzero" transform="translate(9.050153 9.811939)"><path d="m28.8252134 10.8506536c-.6503754-1.52506427-1.9685694-3.17150258-3.0033142-3.69159017.8422487 1.60881237 1.3294073 3.22247967 1.5156738 4.42650977 0 0 0 .0084962.0031148.0242748-1.6925959-4.11093737-4.5632186-5.7689062-6.9074359-9.37796208-.1189863-.182061-.2373496-.364122-.3532211-.55892727-.0654113-.10984347-.1183634-.20937015-.1644628-.303435-.0971202-.18248581-.1721875-.37534909-.2236444-.57470589.0008099-.01954121-.0137675-.03665495-.0336401-.03944655-.0091576-.00242748-.0188759-.00242748-.0280334 0-.0024919.00109237-.0047969.00254886-.0068527.00424809-.0037377 0-.0074755.00424809-.0112133.00546183l.0062296-.00788931c-3.7608397 2.14589232-5.036672 6.11542897-5.1537894 8.10171448-1.5026539.10007286-2.9399587.63933754-4.1234053 1.5469116-.1237209-.1018934-.2530484-.1971114-.38748426-.2852289-.34107333-1.16312701-.35546383-2.39434487-.04173865-3.56475435-1.53810058.68272875-2.73419338 1.759923-3.60385252 2.71331577h-.00685261c-.59368565-.73249209-.55194699-3.14844155-.51830688-3.65275052-.00685262-.03155724-.44230515.22029381-.498372.25852662-.52385127.36406131-1.01356405.77266688-1.46334478 1.22102243-.51182804.50552271-.97942557 1.0517664-1.39793346 1.63308717-.9628547 1.32922738-1.64568663 2.83135198-2.00906212 4.41922728-.00685261.0315573-.01308226.0643283-.01993488.0964924-.02803342.1280495-.12957672.7707249-.1476427.910305v.0321641c-.13238006.6640371-.21479833 1.3366312-.24669414 2.0123809v.074645c0 8.0543786 6.70310338 14.5842998 14.9710948 14.5842998 7.405185 0 13.5532265-5.2372881 14.7574179-12.1167664.0249186-.1863091.0454764-.3744388.0679032-.5625685.2977772-2.5015181-.0330172-5.1304789-.9712025-7.3285621z" fill="#000" opacity=".15"/><path d="m28.0797836 10.5993692c-.6178047-1.48711035-1.8699835-3.0925741-2.8529084-3.59971839.8000689 1.5687742 1.2628306 3.14228249 1.439769 4.31634819 0 0 0 .0082847.0029588.0236707-1.6078308-4.00862939-4.334693-5.62533671-6.561512-9.1445748-.1130275-.17753008-.2254632-.35506017-.3355319-.54501736-.0621355-.10710982-.1124357-.2041596-.1562264-.29588348-.0922565-.17794432-.1635644-.36600786-.2124444-.5604033.0007693-.0190549-.013078-.03574273-.0319554-.03846486-.008699-.00236706-.0179305-.00236706-.0266295 0-.0023671.00106518-.0045566.00248542-.0065094.00414237-.0035507 0-.0071013.00414237-.0106519.0053259l.0059177-.00769297c-3.5724971 2.09248796-4.7844358 5.96323561-4.895688 7.90008886-1.4274011.09758237-2.7927258.62342648-3.9169055 1.50841394-.1175249-.0993576-.2403757-.19220588-.368079-.27813044-.32399244-1.13418055-.33766225-2.33475735-.0396484-3.4760391-1.46107263.66573783-2.59726518 1.71612417-3.42337185 2.64579006h-.00650944c-.56395391-.71426272-.52430552-3.07008697-.4923501-3.56184531-.00650944-.03077188-.42015454.21481141-.47341357.25209273-.49761683.35500099-.96280483.75343768-1.39006058 1.19063511-.48619573.49294188-.930376 1.02559131-1.32792504 1.59244488-.91463501 1.29614716-1.56327077 2.76088877-1.90844843 4.30924697-.00650944.0307719-.01242711.0627273-.01893655.0940909-.02662951.1248629-.12308752.7515441-.14024877.8876505v.0313636c-.12575047.6475114-.20404124 1.3033667-.23433971 1.9622992v.0727874c0 7.853931 6.36741244 14.2213435 14.22134344 14.2213435 7.0343338 0 12.8744819-5.1069489 14.0183674-11.8152191.0236707-.1816724.043199-.3651202.0645026-.5485679.2828646-2.4392634-.0313636-5.0027979-.9225647-7.1461778z" fill="#000" opacity=".15"/><path d="m28.1298735 9.8458186c-.6178047-1.48711036-1.8699836-3.09257411-2.8529085-3.59971839.8000689 1.5687742 1.2628307 3.14228254 1.439769 4.31634819 0 0 0 .0082847.0029588.0236707-1.6078308-4.00862939-4.3346929-5.62533671-6.561512-9.1445748-.1130275-.17753008-.2254632-.35506017-.3355318-.54501736-.0621356-.10710982-.1124358-.2041596-.1562265-.29588348-.0922565-.17794432-.1635644-.36600786-.2124443-.56040331.0007693-.01905489-.0130781-.03574272-.0319555-.03846485-.0086989-.00236707-.0179305-.00236707-.0266295 0-.002367.00106518-.0045566.00248542-.0065094.00414237-.0035506 0-.0071012.00414237-.0106518.0053259l.0059177-.00769297c-3.5724972 2.09248796-4.7844359 5.96323561-4.8956881 7.90008885-1.427401.09758238-2.7927258.62342649-3.9169054 1.50841397-.117525-.09935767-.2403758-.1922059-.3680791-.27813047-.3239924-1.13418054-.33766221-2.33475734-.0396484-3.47603909-1.46107259.66573782-2.59726514 1.71612417-3.42337181 2.64579006h-.00650944c-.56395391-.71426272-.52430552-3.07008697-.4923501-3.56184531-.00650944-.03077188-.42015454.21481141-.47341357.25209273-.49761683.35500099-.96280484.75343768-1.39006058 1.19063511-.48619573.49294187-.930376 1.02559131-1.32792504 1.59244488-.91463501 1.29614716-1.56327077 2.76088877-1.90844844 4.30924697-.00650943.0307719-.0124271.0627273-.01893654.0940909-.02662951.1248629-.12308752.7515441-.14024877.8876505v.0313636c-.12575047.6475114-.20404124 1.3033667-.23433971 1.9622992v.0727874c0 7.853931 6.36741244 14.2213435 14.2213435 14.2213435 7.0343338 0 12.8744818-5.1069489 14.0183674-11.8152191.0236707-.1816724.043199-.3651202.0645026-.5485679.2828646-2.4392634-.0313637-5.0027979-.9225647-7.1461778zm-16.3919447 11.13232c.0662779.0313636.1290052.0662779.1970584.0970497l.0094683.0059177c-.0680532-.0331389-.1372899-.0674614-.2059349-.1029674zm15.0033592-10.3580161v-.026z" fill="url(#c)"/><path d="m28.1298735 9.8458186c-.6178047-1.48711036-1.8699836-3.09257411-2.8529085-3.59971839.8000689 1.5687742 1.2628307 3.14228254 1.439769 4.31634819v.0289966c1.3421275 3.6381832.6107035 7.3379102-.4426417 9.59846-1.6297262 3.4973427-5.5750365 7.0822669-11.7513082 6.9076956-6.66743827-.1893654-12.54545943-5.1430466-13.64318714-11.6258536-.20001723-1.023165 0-1.5421446.10060039-2.3723937-.12249576.6397001-.16924535.8249232-.23019735 1.9622992v.0727874c0 7.853931 6.36741244 14.2213435 14.2213435 14.2213435 7.0343338 0 12.8744818-5.1069489 14.0183674-11.8152191.0236707-.1816724.043199-.3651202.0645026-.5485679.2810893-2.4392634-.033139-5.0027979-.92434-7.1461778z" fill="url(#d)"/><path d="m28.1298735 9.8458186c-.6178047-1.48711036-1.8699836-3.09257411-2.8529085-3.59971839.8000689 1.5687742 1.2628307 3.14228254 1.439769 4.31634819v.0289966c1.3421275 3.6381832.6107035 7.3379102-.4426417 9.59846-1.6297262 3.4973427-5.5750365 7.0822669-11.7513082 6.9076956-6.66743827-.1893654-12.54545943-5.1430466-13.64318714-11.6258536-.20001723-1.023165 0-1.5421446.10060039-2.3723937-.12249576.6397001-.16924535.8249232-.23019735 1.9622992v.0727874c0 7.853931 6.36741244 14.2213435 14.2213435 14.2213435 7.0343338 0 12.8744818-5.1069489 14.0183674-11.8152191.0236707-.1816724.043199-.3651202.0645026-.5485679.2810893-2.4392634-.033139-5.0027979-.92434-7.1461778z" fill="url(#e)"/><path d="m21.2186272 11.5169685c.0313637.0218954.0591767.0437907.0887651.0656861-.3568947-.6337232-.8016076-1.2138915-1.3208239-1.72322536-4.4204991-4.42049915-1.1586797-9.58544114-.6089282-9.84818567l.0059177-.00769297c-3.5724971 2.09248796-4.7844358 5.96323561-4.895688 7.90008885.1656947-.01124357.3307977-.02544597.4994513-.02544597 2.6659101 0 4.9880036 1.46639851 6.231306 3.63877502z" fill="url(#f)"/><path d="m14.9961977 12.3998848c-.0230789.3550602-1.2728907 1.5741001-1.7102065 1.5741001-4.04413539 0-4.70040495 2.4463646-4.70040495 2.4463646.17753009 2.0605325 1.61315675 3.7571284 3.34999275 4.6548388.0792968.040832.1591853.0775215.2367068.1142111.1390652.0591767.2787222.1183534.4177874.1710206.5956135.2100773 1.219395.3297917 1.8504553.3550602 7.0881846.332573 8.4622675-8.4752863 3.3464421-11.0329031 1.3095803-.2278303 2.6694608.2994341 3.4286978.8326161-1.2427106-2.17237651-3.5653959-3.63877503-6.2313061-3.63877503-.1686535 0-.3337565.01420241-.4994513.02544598-1.4263359.09882509-2.7903587.62520179-3.9133548 1.51018927.2171784.18403953.4621699.42903105.977599.93676708.9669472.9539283 3.4417166 1.9356697 3.4470425 2.0510643z" fill="url(#g)"/><path d="m14.9961977 12.3998848c-.0230789.3550602-1.2728907 1.5741001-1.7102065 1.5741001-4.04413539 0-4.70040495 2.4463646-4.70040495 2.4463646.17753009 2.0605325 1.61315675 3.7571284 3.34999275 4.6548388.0792968.040832.1591853.0775215.2367068.1142111.1390652.0591767.2787222.1183534.4177874.1710206.5956135.2100773 1.219395.3297917 1.8504553.3550602 7.0881846.332573 8.4622675-8.4752863 3.3464421-11.0329031 1.3095803-.2278303 2.6694608.2994341 3.4286978.8326161-1.2427106-2.17237651-3.5653959-3.63877503-6.2313061-3.63877503-.1686535 0-.3337565.01420241-.4994513.02544598-1.4263359.09882509-2.7903587.62520179-3.9133548 1.51018927.2171784.18403953.4621699.42903105.977599.93676708.9669472.9539283 3.4417166 1.9356697 3.4470425 2.0510643z" fill="url(#h)"/><path d="m9.91055247 8.93923163c.11539453.07456263.21007723.13728993.29588343.19469132-.32399236-1.13418054-.33766218-2.33475734-.0396483-3.47603909-1.46107265.66573782-2.59726521 1.71612417-3.42337188 2.64579006.06686967-.0017753 2.12976928-.03905662 3.16713675.63555771z" fill="url(#i)"/><path d="m.87959696 15.471747c1.09772771 6.482807 6.97574887 11.4364882 13.64792134 11.6258536 6.1762717.1745713 10.1192149-3.4103529 11.7513082-6.9076956 1.0533451-2.2611416 1.7847691-5.9602768.4426416-9.59846v-.0272213c0 .0035506 0 .0082847.0029589.0236707.5041854 3.2943666-1.1711068 6.4857658-3.7902674 8.6439399-.0027221.006036-.0052667.0121904-.007693.0183448-5.1039899 4.1559793-9.9878426 2.5073165-10.9766852 1.8344775-.068645-.0331389-.1378817-.0674614-.2065267-.1029674-2.97599599-1.4202407-4.20509596-4.1334922-3.94175966-6.4585446-2.51205073 0-3.36892928-2.1197092-3.36892928-2.1197092s2.25581564-1.6084226 5.22885282-.2094855c2.75349162 1.2959696 5.33951322.2100772 5.33951322.2094855-.0053259-.1153946-2.4800953-1.1000948-3.4452672-2.0510643-.515429-.50773603-.7604205-.75272755-.977599-.93676707-.1175249-.09935768-.2403757-.19220591-.3680791-.27813047-.0846226-.0591767-.17753-.11835339-.29588343-.19469133-1.03736747-.67461433-3.10026708-.63733301-3.16832028-.63555771h-.00650944c-.5639539-.71426272-.52430552-3.07008697-.4923501-3.56184531-.00650944-.03077188-.42015454.21481141-.47341357.25209273-.49761683.35500099-.96280483.75343768-1.39006057 1.19063511-.48619573.49294188-.93037601 1.02559131-1.32792505 1.59244488-.91463501 1.29614716-1.56327077 2.76088877-1.90844843 4.30924697-.01124358.0272213-.51720432 2.2362873-.26747867 3.3819481z" fill="url(#j)"/><path d="m19.9865684 9.85942924c.5192163.50933386.9639292 1.08950216 1.3208239 1.72322536.0739708.0555669.145042.1148028.2130361.1775301 3.2239463 2.9683031 1.5374105 7.1704402 1.4089971 7.4722413 2.6191605-2.158174 4.2944528-5.3495732 3.7902673-8.6439399-1.6078308-4.01099639-4.3346929-5.62770371-6.561512-9.1469418-.1130275-.17753008-.2254632-.35506017-.3355318-.54501736-.0621356-.10710982-.1124358-.2041596-.1562265-.29588348-.0922565-.17794432-.1635644-.36600786-.2124443-.56040331.0007693-.01905489-.0130781-.03574272-.0319555-.03846485-.0086989-.00236707-.0179305-.00236707-.0266295 0-.002367.00106518-.0045566.00248542-.0065094.00414237-.0035506 0-.0071012.00414237-.0106518.0053259-.5503433.26274453-3.8121627 5.42768652.6083364 9.84818567z" fill="url(#k)"/><path d="m21.5192448 11.7572259c-.067994-.0627273-.1390652-.1219632-.2130361-.1775301-.0289966-.0218954-.0591767-.0437908-.088765-.0656862-.759237-.5325902-2.1191175-1.0604463-3.4286978-.8326161 5.1152336 2.5576168 3.7417425 11.3654762-3.3464421 11.0329032-.6310603-.0252685-1.2548418-.1449829-1.8504553-.3550602-.1390652-.0520755-.2787222-.1094769-.4177874-.1710207-.0804803-.0366895-.1603689-.0733791-.2367068-.114211l.0094683.0059177c.9888425.6746143 5.8726952 2.323277 10.9766852-1.8344776 0 0 .0029588-.007693.007693-.0183448.1266381-.2964752 1.8131739-4.4986123-1.411956-7.4698742z" fill="url(#l)"/><path d="m8.58558625 16.4203495s.65626956-2.4463646 4.70040495-2.4463646c.4373158 0 1.6871276-1.2202235 1.7102065-1.5741001.0230789-.3538767-2.5860216 1.0864841-5.33951326-.2094855-2.97303718-1.3989371-5.22885281.2094855-5.22885281.2094855s.85687855 2.1197092 3.36892927 2.1197092c-.26333629 2.3250524.96576367 5.0359368 3.9417597 6.4585446.0662779.0313636.1290052.0662779.1970584.0970497-1.736836-.8959351-3.17068736-2.5943063-3.34999275-4.6548388z" fill="url(#m)"/><path d="m28.1298735 9.8458186c-.6178047-1.48711036-1.8699836-3.09257411-2.8529085-3.59971839.8000689 1.5687742 1.2628307 3.14228254 1.439769 4.31634819 0 0 0 .0082847.0029588.0236707-1.6078308-4.00862939-4.3346929-5.62533671-6.561512-9.1445748-.1130275-.17753008-.2254632-.35506017-.3355318-.54501736-.0621356-.10710982-.1124358-.2041596-.1562265-.29588348-.0922565-.17794432-.1635644-.36600786-.2124443-.56040331.0007693-.01905489-.0130781-.03574272-.0319555-.03846485-.0086989-.00236707-.0179305-.00236707-.0266295 0-.002367.00106518-.0045566.00248542-.0065094.00414237-.0035506 0-.0071012.00414237-.0106518.0053259l.0059177-.00769297c-3.5724972 2.09248796-4.7844359 5.96323561-4.8956881 7.90008885.1656948-.01124357.3307978-.02544597.4994513-.02544597 2.6659102 0 4.9880037 1.46639851 6.2313061 3.63877502-.759237-.5325903-2.1191175-1.0604464-3.4286978-.8326161 5.1152336 2.5576168 3.7417425 11.3654761-3.3464421 11.0329031-.6310603-.0252685-1.2548418-.1449829-1.8504553-.3550602-.1390652-.0520755-.2787222-.1094769-.4177874-.1710206-.0804803-.0366896-.1603689-.0733791-.2367068-.1142111l.0094683.0059177c-.068645-.0331389-.1378817-.0674614-.2065267-.1029674.0662779.0313636.1290052.0662779.1970584.0970497-1.7403866-.8977104-3.17423796-2.5960816-3.35354335-4.6566141 0 0 .65626956-2.4463646 4.70040495-2.4463646.4373158 0 1.6871276-1.2202235 1.7102065-1.5741001-.0053259-.1153946-2.4800953-1.1000948-3.4452672-2.0510643-.5154291-.50773603-.7604206-.75272755-.977599-.93676708-.117525-.09935767-.2403758-.1922059-.3680791-.27813047-.3239924-1.13418054-.33766221-2.33475734-.0396484-3.47603909-1.46107259.66573782-2.59726514 1.71612417-3.42337181 2.64579006h-.00650944c-.56395391-.71426272-.52430552-3.07008697-.4923501-3.56184531-.00650944-.03077188-.42015454.21481141-.47341357.25209273-.49761683.35500099-.96280483.75343768-1.39006058 1.19063511-.48619573.49294187-.930376 1.02559131-1.32792504 1.59244488-.91463501 1.29614716-1.56327077 2.76088877-1.90844843 4.30924697-.00650944.0307719-.01242711.0627273-.01893655.0940909-.02662951.1248629-.14734997.7604206-.16391944.896527-.11077878.6566838-.18173164 1.3195219-.21244434 1.9847863v.0727874c0 7.853931 6.36741244 14.2213435 14.2213435 14.2213435 7.0343338 0 12.8744818-5.1069489 14.0183674-11.8152191.0236707-.1816724.043199-.3651202.0645026-.5485679.2828646-2.4392634-.0313637-5.0027979-.9225647-7.1461778zm-1.3903608.745345v.026z" fill="url(#n)"/></g></g></svg>