<?xml version="1.0" encoding="UTF-8" standalone="no"?>
<svg
   id="svg3489"
   height="48"
   width="48"
   version="1.1"
   xml:space="preserve"
   xmlns:xlink="http://www.w3.org/1999/xlink"
   xmlns="http://www.w3.org/2000/svg"
   xmlns:svg="http://www.w3.org/2000/svg"
   xmlns:rdf="http://www.w3.org/1999/02/22-rdf-syntax-ns#"
   xmlns:cc="http://creativecommons.org/ns#"
   xmlns:dc="http://purl.org/dc/elements/1.1/"><defs
     id="defs3491"><linearGradient
       id="linearGradient10"><stop
         style="stop-color:#fdd8de;stop-opacity:1;"
         offset="0"
         id="stop11" /><stop
         style="stop-color:#fda7b3;stop-opacity:1;"
         offset="1"
         id="stop12" /></linearGradient><linearGradient
       id="linearGradient5"><stop
         style="stop-color:#ffffff;stop-opacity:1;"
         offset="0"
         id="stop6" /><stop
         style="stop-color:#ffffff;stop-opacity:0.25;"
         offset="0.07142857"
         id="stop9" /><stop
         style="stop-color:#ffffff;stop-opacity:0.15000001;"
         offset="0.9285714"
         id="stop10" /><stop
         style="stop-color:#ffffff;stop-opacity:0.5;"
         offset="1"
         id="stop7" /></linearGradient><linearGradient
       id="linearGradient1"><stop
         style="stop-color:#f2487d;stop-opacity:1;"
         offset="0"
         id="stop5" /><stop
         style="stop-color:#c80a27;stop-opacity:1;"
         offset="1"
         id="stop8" /></linearGradient><linearGradient
       id="linearGradient1201"><stop
         id="stop1193"
         style="stop-color:#ffffff;stop-opacity:1"
         offset="0" /><stop
         id="stop1195"
         style="stop-color:#ffffff;stop-opacity:0.23529412"
         offset="0.0695499" /><stop
         id="stop1197"
         style="stop-color:#ffffff;stop-opacity:0.15686275"
         offset="0.93196869" /><stop
         id="stop1199"
         style="stop-color:#ffffff;stop-opacity:0.39215687"
         offset="1" /></linearGradient><linearGradient
       x1="38.999996"
       y1="5.9999938"
       x2="38.999996"
       y2="41.945408"
       id="linearGradient3058-5"
       xlink:href="#linearGradient1201"
       gradientUnits="userSpaceOnUse"
       gradientTransform="translate(4e-6,1.0000062)" /><style
       id="style1">.g{fill:#000;}.g,.h,.i{stroke-width:0px;}.h{fill:url(#e);}.i{fill:#fff;}</style><style
       id="style1-6">.cls-1{fill:#fff;}</style><style
       id="style1-67">.cls-1{fill:#fff;}</style><style
       id="style1-56">.g{fill:#000;}.g,.h,.i{stroke-width:0px;}.h{fill:url(#e);}.i{fill:#fff;}</style><style
       id="style1-7">.g{fill:#000;}.g,.h,.i{stroke-width:0px;}.h{fill:url(#e);}.i{fill:#fff;}</style><style
       id="style1-5">.g{fill:#000;}.g,.h,.i{stroke-width:0px;}.h{fill:url(#e);}.i{fill:#fff;}</style><style
       id="style1-3">.g{fill:#000;}.g,.h,.i{stroke-width:0px;}.h{fill:url(#e);}.i{fill:#fff;}</style><style
       id="style1-6-1">.cls-1{fill:#fff;}</style><style
       id="style1-2">.g{fill:#000;}.g,.h,.i{stroke-width:0px;}.h{fill:url(#e);}.i{fill:#fff;}</style><style
       id="style1-6-8">.cls-1{fill:#fff;}</style><style
       id="style1-0">.g{fill:#000;}.g,.h,.i{stroke-width:0px;}.h{fill:url(#e);}.i{fill:#fff;}</style><style
       id="style1-7-23">.g{fill:#000;}.g,.h,.i{stroke-width:0px;}.h{fill:url(#e);}.i{fill:#fff;}</style><style
       id="style1-5-7">.g{fill:#000;}.g,.h,.i{stroke-width:0px;}.h{fill:url(#e);}.i{fill:#fff;}</style><style
       id="style1-3-2">.g{fill:#000;}.g,.h,.i{stroke-width:0px;}.h{fill:url(#e);}.i{fill:#fff;}</style><style
       id="style1-6-28">.cls-1{fill:#fff;}</style><style
       id="style1-62">.g{fill:#000;}.g,.h,.i{stroke-width:0px;}.h{fill:url(#e);}.i{fill:#fff;}</style><style
       id="style1-6-9">.cls-1{fill:#fff;}</style><style
       id="style1-67-1">.cls-1{fill:#fff;}</style><style
       id="style1-56-2">.g{fill:#000;}.g,.h,.i{stroke-width:0px;}.h{fill:url(#e);}.i{fill:#fff;}</style><style
       id="style1-7-1">.g{fill:#000;}.g,.h,.i{stroke-width:0px;}.h{fill:url(#e);}.i{fill:#fff;}</style><style
       id="style1-5-2">.g{fill:#000;}.g,.h,.i{stroke-width:0px;}.h{fill:url(#e);}.i{fill:#fff;}</style><style
       id="style1-3-7">.g{fill:#000;}.g,.h,.i{stroke-width:0px;}.h{fill:url(#e);}.i{fill:#fff;}</style><style
       id="style1-6-1-9">.cls-1{fill:#fff;}</style><style
       id="style1-2-3">.g{fill:#000;}.g,.h,.i{stroke-width:0px;}.h{fill:url(#e);}.i{fill:#fff;}</style><style
       id="style1-6-8-1">.cls-1{fill:#fff;}</style><style
       id="style1-79">.g{fill:#000;}.g,.h,.i{stroke-width:0px;}.h{fill:url(#e);}.i{fill:#fff;}</style><style
       id="style1-7-2">.g{fill:#000;}.g,.h,.i{stroke-width:0px;}.h{fill:url(#e);}.i{fill:#fff;}</style><style
       id="style1-5-0">.g{fill:#000;}.g,.h,.i{stroke-width:0px;}.h{fill:url(#e);}.i{fill:#fff;}</style><style
       id="style1-53">.g{fill:#000;}.g,.h,.i{stroke-width:0px;}.h{fill:url(#e);}.i{fill:#fff;}</style><style
       id="style1-6-2">.cls-1{fill:#fff;}</style><style
       id="style1-67-3">.cls-1{fill:#fff;}</style><style
       id="style1-675">.g{fill:#000;}.g,.h,.i{stroke-width:0px;}.h{fill:url(#e);}.i{fill:#fff;}</style><style
       id="style1-7-3">.g{fill:#000;}.g,.h,.i{stroke-width:0px;}.h{fill:url(#e);}.i{fill:#fff;}</style><style
       id="style1-5-5">.g{fill:#000;}.g,.h,.i{stroke-width:0px;}.h{fill:url(#e);}.i{fill:#fff;}</style><style
       id="style1-3-9">.g{fill:#000;}.g,.h,.i{stroke-width:0px;}.h{fill:url(#e);}.i{fill:#fff;}</style><style
       id="style1-6-6">.cls-1{fill:#fff;}</style><style
       id="style1-70">.g{fill:#000;}.g,.h,.i{stroke-width:0px;}.h{fill:url(#e);}.i{fill:#fff;}</style><style
       id="style1-6-3">.cls-1{fill:#fff;}</style><style
       id="style1-74">.g{fill:#000;}.g,.h,.i{stroke-width:0px;}.h{fill:url(#e);}.i{fill:#fff;}</style><style
       id="style1-6-99">.cls-1{fill:#fff;}</style><style
       id="style1-67-4">.cls-1{fill:#fff;}</style><style
       id="style1-53-2">.g{fill:#000;}.g,.h,.i{stroke-width:0px;}.h{fill:url(#e);}.i{fill:#fff;}</style><style
       id="style1-6-5">.cls-1{fill:#fff;}</style><style
       id="style1-67-6">.cls-1{fill:#fff;}</style><style
       id="style1-56-5">.g{fill:#000;}.g,.h,.i{stroke-width:0px;}.h{fill:url(#e);}.i{fill:#fff;}</style><style
       id="style1-7-34">.g{fill:#000;}.g,.h,.i{stroke-width:0px;}.h{fill:url(#e);}.i{fill:#fff;}</style><style
       id="style1-5-9">.g{fill:#000;}.g,.h,.i{stroke-width:0px;}.h{fill:url(#e);}.i{fill:#fff;}</style><style
       id="style1-3-0">.g{fill:#000;}.g,.h,.i{stroke-width:0px;}.h{fill:url(#e);}.i{fill:#fff;}</style><style
       id="style1-6-1-2">.cls-1{fill:#fff;}</style><style
       id="style1-2-0">.g{fill:#000;}.g,.h,.i{stroke-width:0px;}.h{fill:url(#e);}.i{fill:#fff;}</style><style
       id="style1-6-8-19">.cls-1{fill:#fff;}</style><style
       id="style1-9">.g{fill:#000;}.g,.h,.i{stroke-width:0px;}.h{fill:url(#e);}.i{fill:#fff;}</style><style
       id="style1-6-22">.cls-1{fill:#fff;}</style><style
       id="style1-67-8">.cls-1{fill:#fff;}</style><style
       id="style1-56-9">.g{fill:#000;}.g,.h,.i{stroke-width:0px;}.h{fill:url(#e);}.i{fill:#fff;}</style><style
       id="style1-7-7">.g{fill:#000;}.g,.h,.i{stroke-width:0px;}.h{fill:url(#e);}.i{fill:#fff;}</style><style
       id="style1-5-3">.g{fill:#000;}.g,.h,.i{stroke-width:0px;}.h{fill:url(#e);}.i{fill:#fff;}</style><style
       id="style1-3-6">.g{fill:#000;}.g,.h,.i{stroke-width:0px;}.h{fill:url(#e);}.i{fill:#fff;}</style><style
       id="style1-6-1-1">.cls-1{fill:#fff;}</style><style
       id="style1-2-2">.g{fill:#000;}.g,.h,.i{stroke-width:0px;}.h{fill:url(#e);}.i{fill:#fff;}</style><style
       id="style1-6-8-9">.cls-1{fill:#fff;}</style><style
       id="style1-0-0">.g{fill:#000;}.g,.h,.i{stroke-width:0px;}.h{fill:url(#e);}.i{fill:#fff;}</style><style
       id="style1-7-23-6">.g{fill:#000;}.g,.h,.i{stroke-width:0px;}.h{fill:url(#e);}.i{fill:#fff;}</style><style
       id="style1-5-7-6">.g{fill:#000;}.g,.h,.i{stroke-width:0px;}.h{fill:url(#e);}.i{fill:#fff;}</style><style
       id="style1-3-2-4">.g{fill:#000;}.g,.h,.i{stroke-width:0px;}.h{fill:url(#e);}.i{fill:#fff;}</style><style
       id="style1-6-28-6">.cls-1{fill:#fff;}</style><style
       id="style1-62-0">.g{fill:#000;}.g,.h,.i{stroke-width:0px;}.h{fill:url(#e);}.i{fill:#fff;}</style><style
       id="style1-6-9-7">.cls-1{fill:#fff;}</style><style
       id="style1-67-1-0">.cls-1{fill:#fff;}</style><style
       id="style1-56-2-1">.g{fill:#000;}.g,.h,.i{stroke-width:0px;}.h{fill:url(#e);}.i{fill:#fff;}</style><style
       id="style1-7-1-0">.g{fill:#000;}.g,.h,.i{stroke-width:0px;}.h{fill:url(#e);}.i{fill:#fff;}</style><style
       id="style1-5-2-1">.g{fill:#000;}.g,.h,.i{stroke-width:0px;}.h{fill:url(#e);}.i{fill:#fff;}</style><style
       id="style1-3-7-3">.g{fill:#000;}.g,.h,.i{stroke-width:0px;}.h{fill:url(#e);}.i{fill:#fff;}</style><style
       id="style1-6-1-9-7">.cls-1{fill:#fff;}</style><style
       id="style1-2-3-7">.g{fill:#000;}.g,.h,.i{stroke-width:0px;}.h{fill:url(#e);}.i{fill:#fff;}</style><style
       id="style1-6-8-1-2">.cls-1{fill:#fff;}</style><style
       id="style1-79-1">.g{fill:#000;}.g,.h,.i{stroke-width:0px;}.h{fill:url(#e);}.i{fill:#fff;}</style><style
       id="style1-7-2-0">.g{fill:#000;}.g,.h,.i{stroke-width:0px;}.h{fill:url(#e);}.i{fill:#fff;}</style><style
       id="style1-5-0-3">.g{fill:#000;}.g,.h,.i{stroke-width:0px;}.h{fill:url(#e);}.i{fill:#fff;}</style><style
       id="style1-53-6">.g{fill:#000;}.g,.h,.i{stroke-width:0px;}.h{fill:url(#e);}.i{fill:#fff;}</style><style
       id="style1-6-2-7">.cls-1{fill:#fff;}</style><style
       id="style1-67-3-8">.cls-1{fill:#fff;}</style><style
       id="style1-675-8">.g{fill:#000;}.g,.h,.i{stroke-width:0px;}.h{fill:url(#e);}.i{fill:#fff;}</style><style
       id="style1-7-3-6">.g{fill:#000;}.g,.h,.i{stroke-width:0px;}.h{fill:url(#e);}.i{fill:#fff;}</style><style
       id="style1-5-5-0">.g{fill:#000;}.g,.h,.i{stroke-width:0px;}.h{fill:url(#e);}.i{fill:#fff;}</style><style
       id="style1-3-9-4">.g{fill:#000;}.g,.h,.i{stroke-width:0px;}.h{fill:url(#e);}.i{fill:#fff;}</style><style
       id="style1-6-6-6">.cls-1{fill:#fff;}</style><style
       id="style1-70-7">.g{fill:#000;}.g,.h,.i{stroke-width:0px;}.h{fill:url(#e);}.i{fill:#fff;}</style><style
       id="style1-6-3-6">.cls-1{fill:#fff;}</style><linearGradient
       xlink:href="#linearGradient1"
       id="linearGradient8"
       x1="20"
       y1="6"
       x2="20"
       y2="44"
       gradientUnits="userSpaceOnUse" /><linearGradient
       xlink:href="#linearGradient5"
       id="linearGradient7"
       x1="27.5"
       y1="25"
       x2="27.5"
       y2="32"
       gradientUnits="userSpaceOnUse" /><linearGradient
       xlink:href="#linearGradient10"
       id="linearGradient12"
       x1="27.5"
       y1="24"
       x2="27.5"
       y2="33"
       gradientUnits="userSpaceOnUse" /></defs><metadata
     id="metadata3494"><rdf:RDF><cc:Work
         rdf:about=""><dc:format>image/svg+xml</dc:format><dc:type
           rdf:resource="http://purl.org/dc/dcmitype/StillImage" /></cc:Work></rdf:RDF></metadata><path
     id="rect9"
     style="opacity:1;fill:url(#linearGradient8);stroke-linecap:round;stroke-linejoin:round"
     d="M 8.5 5.5 C 6.284 5.5 4.5 7.284 4.5 9.5 L 4.5 40.5 C 4.5 42.716 6.284 44.5 8.5 44.5 L 39.5 44.5 C 41.716 44.5 43.5 42.716 43.5 40.5 L 43.5 21.5 L 27.5 5.5 L 8.5 5.5 z M 32.5 5.5 L 43.5 16.5 L 43.5 9 A 3.5 3.5 0 0 0 40 5.5 L 32.5 5.5 z " /><path
     id="path18"
     style="opacity:0.5;fill:none;stroke:url(#linearGradient3058-5);stroke-linecap:round;stroke-linejoin:round"
     d="M 8.5 6.5 C 6.838 6.5 5.5 7.838 5.5 9.5 L 5.5 40.5 C 5.5 42.162 6.838 43.5 8.5 43.5 L 39.5 43.5 C 41.162 43.5 42.500001 42.162 42.5 40.5 L 42.5 22 L 27 6.5 L 8.5 6.5 z M 35 6.5 L 42.5 14 L 42.5 9 A 2.5 2.5 0 0 0 40 6.5 L 35 6.5 z " /><path
     id="path8"
     style="color:#000000;font-variation-settings:normal;display:inline;overflow:visible;visibility:visible;opacity:1;vector-effect:none;fill:none;fill-opacity:1;fill-rule:nonzero;stroke:#860414;stroke-width:1;stroke-linecap:butt;stroke-linejoin:round;stroke-miterlimit:4;stroke-dasharray:none;stroke-dashoffset:0;stroke-opacity:0.5;marker:none;enable-background:accumulate;stop-color:#000000;stop-opacity:1"
     d="m 8.5,5.5 c -2.216,0 -4,1.784 -4,4 v 31 c 0,2.216 1.784,4 4,4 h 31 c 2.216,0 4,-1.784 4,-4 v -19 l -16,-16 z m 24,0 11,11 V 9 C 43.5,7.0670034 41.932997,5.5 40,5.5 Z" /><g
     id="g4"
     transform="translate(1,-1)"><path
       id="path12"
       style="font-weight:bold;font-size:17.3333px;font-family:'Adwaita Sans';-inkscape-font-specification:'Adwaita Sans Bold';letter-spacing:0.5px;fill:#000000;fill-opacity:1;stroke:none;stroke-linejoin:round;opacity:0.15"
       d="m 21,20 a 1.0001,1.0001 0 0 0 -0.955078,0.705078 L 17.011719,30.5625 14.957031,23.712891 A 1.0001,1.0001 0 0 0 14,23 h -2 v 2 h 1.255859 l 2.78711,9.287109 a 1.0001,1.0001 0 0 0 1.912109,0.0078 L 21.738281,22 H 33 v -2 z m 2.113281,5 2.976563,4.382812 -3.197266,4.554688 h 2.726563 l 0.914062,-1.371094 C 26.76454,32.194011 26.980469,31.838541 27.183594,31.5 c 0.09084,-0.153926 0.184245,-0.307011 0.277344,-0.460938 0.09197,0.153927 0.182595,0.307012 0.273437,0.460938 0.203125,0.338541 0.414714,0.694011 0.634766,1.066406 L 29.265625,33.9375 H 32 L 28.845703,29.322266 31.855469,25 h -2.681641 l -0.804687,1.251953 c -0.236979,0.378037 -0.457032,0.746095 -0.660157,1.101563 -0.07299,0.127726 -0.14626,0.255086 -0.220703,0.382812 l -0.21875,-0.382812 C 27.066407,26.998048 26.850694,26.62999 26.625,26.251953 L 25.837891,25 Z M 12,37 v 2 h 5 v -2 z m 8,0 v 2 h 5 v -2 z m 8,0 v 2 h 5 v -2 z" /><path
       style="opacity:1;fill:none;stroke:#fafafa;stroke-width:2;stroke-linejoin:round;stroke-dasharray:none;stroke-opacity:1"
       d="m 12,23 h 2 l 3,10 4,-13 h 12"
       id="path1" /><path
       style="font-weight:bold;font-size:17.3333px;font-family:'Adwaita Sans';-inkscape-font-specification:'Adwaita Sans Bold';letter-spacing:0.5px;fill:url(#linearGradient12);stroke-linejoin:round;stroke:none"
       d="m 22.893247,32.937481 3.605462,-5.13736 -0.05078,1.108722 -3.334629,-4.908845 h 2.725255 l 0.787108,1.252602 q 0.338541,0.567056 0.643228,1.100258 0.304687,0.533202 0.609374,1.066404 h -0.795572 q 0.321614,-0.533202 0.626301,-1.066404 0.304687,-0.533202 0.660155,-1.100258 l 0.804035,-1.252602 h 2.682938 l -3.419265,4.908845 0.05078,-1.108722 L 32,32.937481 H 29.266282 L 28.369148,31.56639 q -0.330077,-0.558593 -0.634764,-1.066404 -0.304687,-0.516275 -0.617838,-1.03255 h 0.69401 q -0.321614,0.516275 -0.626301,1.03255 -0.304687,0.507811 -0.651692,1.066404 l -0.91406,1.371091 z"
       id="text1"
       aria-label="x" /><path
       style="opacity:1;baseline-shift:baseline;display:inline;overflow:visible;vector-effect:none;fill:#fafafa;stroke-linejoin:round;stroke-dasharray:5, 3;enable-background:accumulate;stop-color:#000000;stop-opacity:1"
       d="m 12,36 v 2 h 5 v -2 z m 8,0 v 2 h 5 v -2 z m 8,0 v 2 h 5 v -2 z"
       id="path4" /><path
       style="font-weight:bold;font-size:17.3333px;font-family:'Adwaita Sans';-inkscape-font-specification:'Adwaita Sans Bold';letter-spacing:0.5px;fill:none;stroke-linejoin:round;stroke:url(#linearGradient7);stroke-opacity:1;opacity:0.5"
       d="m 24.076172,24.509766 2.632812,3.876953 -2.835937,4.041015 h 1.472656 l 0.753906,-1.130859 c 0.229636,-0.369657 0.444366,-0.721729 0.646485,-1.058594 0.09076,-0.15382 0.187601,-0.311283 0.279297,-0.46289 l 0.4375,-0.726563 0.435546,0.728516 c 0.09263,0.155027 0.184361,0.308644 0.275391,0.46289 0.20007,0.333423 0.410444,0.686981 0.628906,1.056641 l 0.0059,0.0098 0.734375,1.121093 h 1.490234 l -2.806641,-4.107422 2.654297,-3.810546 h -1.427734 l -0.654297,1.017578 c -0.230226,0.367327 -0.446842,0.730704 -0.646484,1.080078 -0.0721,0.126181 -0.158741,0.267821 -0.22461,0.380859 l -0.445312,0.763672 -0.65625,-1.144531 c -0.19932,-0.348809 -0.410935,-0.712207 -0.632813,-1.083985 l -0.0039,-0.0059 c 0,0 0,-0.002 0,-0.002 l -0.632812,-1.005859 z"
       id="path5"
       aria-label="x" /><path
       style="baseline-shift:baseline;display:inline;overflow:visible;vector-effect:none;fill:#000000;stroke-linejoin:round;stroke-dasharray:5, 3;enable-background:accumulate;stop-color:#000000"
       d="M 12,37 H 33"
       id="path14" /></g></svg>
