<?xml version="1.0" encoding="UTF-8" standalone="no"?>
<svg
   id="svg3489"
   height="48"
   width="48"
   version="1.1"
   xml:space="preserve"
   xmlns:xlink="http://www.w3.org/1999/xlink"
   xmlns="http://www.w3.org/2000/svg"
   xmlns:svg="http://www.w3.org/2000/svg"
   xmlns:rdf="http://www.w3.org/1999/02/22-rdf-syntax-ns#"
   xmlns:cc="http://creativecommons.org/ns#"
   xmlns:dc="http://purl.org/dc/elements/1.1/"><defs
     id="defs3491"><linearGradient
       id="linearGradient55"><stop
         style="stop-color:#ffffff;stop-opacity:1;"
         offset="0"
         id="stop57" /><stop
         style="stop-color:#ffffff;stop-opacity:0.24705882;"
         offset="0.5"
         id="stop59" /><stop
         style="stop-color:#ffffff;stop-opacity:0.15000001;"
         offset="0.75"
         id="stop58" /><stop
         style="stop-color:#ffffff;stop-opacity:0.5;"
         offset="1"
         id="stop56" /></linearGradient><linearGradient
       id="linearGradient53"><stop
         style="stop-color:#ffffff;stop-opacity:0;"
         offset="0"
         id="stop53" /><stop
         style="stop-color:#ffffff;stop-opacity:1;"
         offset="0.42296118"
         id="stop55" /><stop
         style="stop-color:#ffffff;stop-opacity:0;"
         offset="1"
         id="stop54" /></linearGradient><linearGradient
       id="linearGradient52"><stop
         style="stop-color:#ffffff;stop-opacity:1;"
         offset="0"
         id="stop47" /><stop
         style="stop-color:#ffffff;stop-opacity:0.25;"
         offset="0.25"
         id="stop50" /><stop
         style="stop-color:#ffffff;stop-opacity:0.25;"
         offset="0.75"
         id="stop51" /><stop
         style="stop-color:#ffffff;stop-opacity:0.5;"
         offset="1"
         id="stop52" /></linearGradient><linearGradient
       id="linearGradient46"><stop
         style="stop-color:#ffffff;stop-opacity:1;"
         offset="0"
         id="stop39" /><stop
         style="stop-color:#ffffff;stop-opacity:0.25;"
         offset="0.16666667"
         id="stop42" /><stop
         style="stop-color:#ffffff;stop-opacity:0.25;"
         offset="0.83333331"
         id="stop43" /><stop
         style="stop-color:#ffffff;stop-opacity:0.5;"
         offset="1"
         id="stop46" /></linearGradient><linearGradient
       id="linearGradient26"><stop
         style="stop-color:#ffffff;stop-opacity:1;"
         offset="0"
         id="stop31" /><stop
         style="stop-color:#ffffff;stop-opacity:0.25;"
         offset="0.125"
         id="stop33" /><stop
         style="stop-color:#ffffff;stop-opacity:0.25;"
         offset="0.875"
         id="stop38" /><stop
         style="stop-color:#ffffff;stop-opacity:0.5;"
         offset="1"
         id="stop32" /></linearGradient><linearGradient
       id="linearGradient1"><stop
         style="stop-color:#cd9ef7;stop-opacity:1;"
         offset="0"
         id="stop5" /><stop
         style="stop-color:#a56de2;stop-opacity:1;"
         offset="1"
         id="stop8" /></linearGradient><linearGradient
       id="linearGradient1201"><stop
         id="stop1193"
         style="stop-color:#ffffff;stop-opacity:1"
         offset="0" /><stop
         id="stop1195"
         style="stop-color:#ffffff;stop-opacity:0.23529412"
         offset="0.0695499" /><stop
         id="stop1197"
         style="stop-color:#ffffff;stop-opacity:0.15686275"
         offset="0.93196869" /><stop
         id="stop1199"
         style="stop-color:#ffffff;stop-opacity:0.39215687"
         offset="1" /></linearGradient><linearGradient
       x1="38.999996"
       y1="5.9999938"
       x2="38.999996"
       y2="41.945408"
       id="linearGradient3058-5"
       xlink:href="#linearGradient1201"
       gradientUnits="userSpaceOnUse"
       gradientTransform="translate(4e-6,1.0000062)" /><style
       id="style1">.g{fill:#000;}.g,.h,.i{stroke-width:0px;}.h{fill:url(#e);}.i{fill:#fff;}</style><style
       id="style1-6">.cls-1{fill:#fff;}</style><style
       id="style1-67">.cls-1{fill:#fff;}</style><style
       id="style1-56">.g{fill:#000;}.g,.h,.i{stroke-width:0px;}.h{fill:url(#e);}.i{fill:#fff;}</style><style
       id="style1-7">.g{fill:#000;}.g,.h,.i{stroke-width:0px;}.h{fill:url(#e);}.i{fill:#fff;}</style><style
       id="style1-5">.g{fill:#000;}.g,.h,.i{stroke-width:0px;}.h{fill:url(#e);}.i{fill:#fff;}</style><style
       id="style1-3">.g{fill:#000;}.g,.h,.i{stroke-width:0px;}.h{fill:url(#e);}.i{fill:#fff;}</style><style
       id="style1-6-1">.cls-1{fill:#fff;}</style><style
       id="style1-2">.g{fill:#000;}.g,.h,.i{stroke-width:0px;}.h{fill:url(#e);}.i{fill:#fff;}</style><style
       id="style1-6-8">.cls-1{fill:#fff;}</style><style
       id="style1-0">.g{fill:#000;}.g,.h,.i{stroke-width:0px;}.h{fill:url(#e);}.i{fill:#fff;}</style><style
       id="style1-7-23">.g{fill:#000;}.g,.h,.i{stroke-width:0px;}.h{fill:url(#e);}.i{fill:#fff;}</style><style
       id="style1-5-7">.g{fill:#000;}.g,.h,.i{stroke-width:0px;}.h{fill:url(#e);}.i{fill:#fff;}</style><style
       id="style1-3-2">.g{fill:#000;}.g,.h,.i{stroke-width:0px;}.h{fill:url(#e);}.i{fill:#fff;}</style><style
       id="style1-6-28">.cls-1{fill:#fff;}</style><style
       id="style1-62">.g{fill:#000;}.g,.h,.i{stroke-width:0px;}.h{fill:url(#e);}.i{fill:#fff;}</style><style
       id="style1-6-9">.cls-1{fill:#fff;}</style><style
       id="style1-67-1">.cls-1{fill:#fff;}</style><style
       id="style1-56-2">.g{fill:#000;}.g,.h,.i{stroke-width:0px;}.h{fill:url(#e);}.i{fill:#fff;}</style><style
       id="style1-7-1">.g{fill:#000;}.g,.h,.i{stroke-width:0px;}.h{fill:url(#e);}.i{fill:#fff;}</style><style
       id="style1-5-2">.g{fill:#000;}.g,.h,.i{stroke-width:0px;}.h{fill:url(#e);}.i{fill:#fff;}</style><style
       id="style1-3-7">.g{fill:#000;}.g,.h,.i{stroke-width:0px;}.h{fill:url(#e);}.i{fill:#fff;}</style><style
       id="style1-6-1-9">.cls-1{fill:#fff;}</style><style
       id="style1-2-3">.g{fill:#000;}.g,.h,.i{stroke-width:0px;}.h{fill:url(#e);}.i{fill:#fff;}</style><style
       id="style1-6-8-1">.cls-1{fill:#fff;}</style><style
       id="style1-79">.g{fill:#000;}.g,.h,.i{stroke-width:0px;}.h{fill:url(#e);}.i{fill:#fff;}</style><style
       id="style1-7-2">.g{fill:#000;}.g,.h,.i{stroke-width:0px;}.h{fill:url(#e);}.i{fill:#fff;}</style><style
       id="style1-5-0">.g{fill:#000;}.g,.h,.i{stroke-width:0px;}.h{fill:url(#e);}.i{fill:#fff;}</style><style
       id="style1-53">.g{fill:#000;}.g,.h,.i{stroke-width:0px;}.h{fill:url(#e);}.i{fill:#fff;}</style><style
       id="style1-6-2">.cls-1{fill:#fff;}</style><style
       id="style1-67-3">.cls-1{fill:#fff;}</style><style
       id="style1-675">.g{fill:#000;}.g,.h,.i{stroke-width:0px;}.h{fill:url(#e);}.i{fill:#fff;}</style><style
       id="style1-7-3">.g{fill:#000;}.g,.h,.i{stroke-width:0px;}.h{fill:url(#e);}.i{fill:#fff;}</style><style
       id="style1-5-5">.g{fill:#000;}.g,.h,.i{stroke-width:0px;}.h{fill:url(#e);}.i{fill:#fff;}</style><style
       id="style1-3-9">.g{fill:#000;}.g,.h,.i{stroke-width:0px;}.h{fill:url(#e);}.i{fill:#fff;}</style><style
       id="style1-6-6">.cls-1{fill:#fff;}</style><style
       id="style1-70">.g{fill:#000;}.g,.h,.i{stroke-width:0px;}.h{fill:url(#e);}.i{fill:#fff;}</style><style
       id="style1-6-3">.cls-1{fill:#fff;}</style><style
       id="style1-74">.g{fill:#000;}.g,.h,.i{stroke-width:0px;}.h{fill:url(#e);}.i{fill:#fff;}</style><style
       id="style1-6-99">.cls-1{fill:#fff;}</style><style
       id="style1-67-4">.cls-1{fill:#fff;}</style><style
       id="style1-53-2">.g{fill:#000;}.g,.h,.i{stroke-width:0px;}.h{fill:url(#e);}.i{fill:#fff;}</style><style
       id="style1-6-5">.cls-1{fill:#fff;}</style><style
       id="style1-67-6">.cls-1{fill:#fff;}</style><style
       id="style1-56-5">.g{fill:#000;}.g,.h,.i{stroke-width:0px;}.h{fill:url(#e);}.i{fill:#fff;}</style><style
       id="style1-7-34">.g{fill:#000;}.g,.h,.i{stroke-width:0px;}.h{fill:url(#e);}.i{fill:#fff;}</style><style
       id="style1-5-9">.g{fill:#000;}.g,.h,.i{stroke-width:0px;}.h{fill:url(#e);}.i{fill:#fff;}</style><style
       id="style1-3-0">.g{fill:#000;}.g,.h,.i{stroke-width:0px;}.h{fill:url(#e);}.i{fill:#fff;}</style><style
       id="style1-6-1-2">.cls-1{fill:#fff;}</style><style
       id="style1-2-0">.g{fill:#000;}.g,.h,.i{stroke-width:0px;}.h{fill:url(#e);}.i{fill:#fff;}</style><style
       id="style1-6-8-19">.cls-1{fill:#fff;}</style><style
       id="style1-9">.g{fill:#000;}.g,.h,.i{stroke-width:0px;}.h{fill:url(#e);}.i{fill:#fff;}</style><style
       id="style1-6-22">.cls-1{fill:#fff;}</style><style
       id="style1-67-8">.cls-1{fill:#fff;}</style><style
       id="style1-56-9">.g{fill:#000;}.g,.h,.i{stroke-width:0px;}.h{fill:url(#e);}.i{fill:#fff;}</style><style
       id="style1-7-7">.g{fill:#000;}.g,.h,.i{stroke-width:0px;}.h{fill:url(#e);}.i{fill:#fff;}</style><style
       id="style1-5-3">.g{fill:#000;}.g,.h,.i{stroke-width:0px;}.h{fill:url(#e);}.i{fill:#fff;}</style><style
       id="style1-3-6">.g{fill:#000;}.g,.h,.i{stroke-width:0px;}.h{fill:url(#e);}.i{fill:#fff;}</style><style
       id="style1-6-1-1">.cls-1{fill:#fff;}</style><style
       id="style1-2-2">.g{fill:#000;}.g,.h,.i{stroke-width:0px;}.h{fill:url(#e);}.i{fill:#fff;}</style><style
       id="style1-6-8-9">.cls-1{fill:#fff;}</style><style
       id="style1-0-0">.g{fill:#000;}.g,.h,.i{stroke-width:0px;}.h{fill:url(#e);}.i{fill:#fff;}</style><style
       id="style1-7-23-6">.g{fill:#000;}.g,.h,.i{stroke-width:0px;}.h{fill:url(#e);}.i{fill:#fff;}</style><style
       id="style1-5-7-6">.g{fill:#000;}.g,.h,.i{stroke-width:0px;}.h{fill:url(#e);}.i{fill:#fff;}</style><style
       id="style1-3-2-4">.g{fill:#000;}.g,.h,.i{stroke-width:0px;}.h{fill:url(#e);}.i{fill:#fff;}</style><style
       id="style1-6-28-6">.cls-1{fill:#fff;}</style><style
       id="style1-62-0">.g{fill:#000;}.g,.h,.i{stroke-width:0px;}.h{fill:url(#e);}.i{fill:#fff;}</style><style
       id="style1-6-9-7">.cls-1{fill:#fff;}</style><style
       id="style1-67-1-0">.cls-1{fill:#fff;}</style><style
       id="style1-56-2-1">.g{fill:#000;}.g,.h,.i{stroke-width:0px;}.h{fill:url(#e);}.i{fill:#fff;}</style><style
       id="style1-7-1-0">.g{fill:#000;}.g,.h,.i{stroke-width:0px;}.h{fill:url(#e);}.i{fill:#fff;}</style><style
       id="style1-5-2-1">.g{fill:#000;}.g,.h,.i{stroke-width:0px;}.h{fill:url(#e);}.i{fill:#fff;}</style><style
       id="style1-3-7-3">.g{fill:#000;}.g,.h,.i{stroke-width:0px;}.h{fill:url(#e);}.i{fill:#fff;}</style><style
       id="style1-6-1-9-7">.cls-1{fill:#fff;}</style><style
       id="style1-2-3-7">.g{fill:#000;}.g,.h,.i{stroke-width:0px;}.h{fill:url(#e);}.i{fill:#fff;}</style><style
       id="style1-6-8-1-2">.cls-1{fill:#fff;}</style><style
       id="style1-79-1">.g{fill:#000;}.g,.h,.i{stroke-width:0px;}.h{fill:url(#e);}.i{fill:#fff;}</style><style
       id="style1-7-2-0">.g{fill:#000;}.g,.h,.i{stroke-width:0px;}.h{fill:url(#e);}.i{fill:#fff;}</style><style
       id="style1-5-0-3">.g{fill:#000;}.g,.h,.i{stroke-width:0px;}.h{fill:url(#e);}.i{fill:#fff;}</style><style
       id="style1-53-6">.g{fill:#000;}.g,.h,.i{stroke-width:0px;}.h{fill:url(#e);}.i{fill:#fff;}</style><style
       id="style1-6-2-7">.cls-1{fill:#fff;}</style><style
       id="style1-67-3-8">.cls-1{fill:#fff;}</style><style
       id="style1-675-8">.g{fill:#000;}.g,.h,.i{stroke-width:0px;}.h{fill:url(#e);}.i{fill:#fff;}</style><style
       id="style1-7-3-6">.g{fill:#000;}.g,.h,.i{stroke-width:0px;}.h{fill:url(#e);}.i{fill:#fff;}</style><style
       id="style1-5-5-0">.g{fill:#000;}.g,.h,.i{stroke-width:0px;}.h{fill:url(#e);}.i{fill:#fff;}</style><style
       id="style1-3-9-4">.g{fill:#000;}.g,.h,.i{stroke-width:0px;}.h{fill:url(#e);}.i{fill:#fff;}</style><style
       id="style1-6-6-6">.cls-1{fill:#fff;}</style><style
       id="style1-70-7">.g{fill:#000;}.g,.h,.i{stroke-width:0px;}.h{fill:url(#e);}.i{fill:#fff;}</style><style
       id="style1-6-3-6">.cls-1{fill:#fff;}</style><linearGradient
       xlink:href="#linearGradient1"
       id="linearGradient8"
       x1="22"
       y1="6"
       x2="22"
       y2="44"
       gradientUnits="userSpaceOnUse" /><linearGradient
       xlink:href="#linearGradient26"
       id="linearGradient32"
       x1="16"
       y1="20"
       x2="16"
       y2="36"
       gradientUnits="userSpaceOnUse" /><linearGradient
       xlink:href="#linearGradient46"
       id="linearGradient38"
       gradientUnits="userSpaceOnUse"
       x1="16"
       y1="20"
       x2="16"
       y2="32" /><linearGradient
       xlink:href="#linearGradient52"
       id="linearGradient47"
       gradientUnits="userSpaceOnUse"
       x1="16"
       y1="20"
       x2="16"
       y2="28" /><linearGradient
       xlink:href="#linearGradient53"
       id="linearGradient54"
       x1="9.5097656"
       y1="28"
       x2="22.490234"
       y2="28"
       gradientUnits="userSpaceOnUse" /><linearGradient
       xlink:href="#linearGradient55"
       id="linearGradient57"
       x1="16"
       y1="24"
       x2="16"
       y2="20"
       gradientUnits="userSpaceOnUse"
       gradientTransform="translate(0,-4)" /><linearGradient
       xlink:href="#linearGradient52"
       id="linearGradient61"
       gradientUnits="userSpaceOnUse"
       x1="16"
       y1="20"
       x2="16"
       y2="28"
       gradientTransform="translate(0,-4)" /><linearGradient
       xlink:href="#linearGradient26"
       id="linearGradient62"
       gradientUnits="userSpaceOnUse"
       x1="16"
       y1="20"
       x2="16"
       y2="36" /></defs><metadata
     id="metadata3494"><rdf:RDF><cc:Work
         rdf:about=""><dc:format>image/svg+xml</dc:format><dc:type
           rdf:resource="http://purl.org/dc/dcmitype/StillImage" /></cc:Work></rdf:RDF></metadata><path
     id="rect9"
     style="opacity:1;fill:url(#linearGradient8);stroke-linecap:round;stroke-linejoin:round"
     d="M 8.5 5.5 C 6.284 5.5 4.5 7.284 4.5 9.5 L 4.5 40.5 C 4.5 42.716 6.284 44.5 8.5 44.5 L 39.5 44.5 C 41.716 44.5 43.5 42.716 43.5 40.5 L 43.5 21.5 L 27.5 5.5 L 8.5 5.5 z M 32.5 5.5 L 43.5 16.5 L 43.5 9 A 3.5 3.5 0 0 0 40 5.5 L 32.5 5.5 z " /><path
     id="path18"
     style="display:inline;opacity:0.35;fill:none;stroke:url(#linearGradient3058-5);stroke-linecap:round;stroke-linejoin:round"
     d="m 8.5,6.5 c -1.662,0 -3,1.338 -3,3 v 31 c 0,1.662 1.338,3 3,3 h 31 c 1.662,0 3.000001,-1.338 3,-3 V 22 L 27,6.5 Z M 35,6.5 42.5,14 V 9 A 2.5,2.5 0 0 0 40,6.5 Z" /><path
     id="path8"
     style="color:#000000;font-variation-settings:normal;display:inline;overflow:visible;visibility:visible;opacity:1;vector-effect:none;fill:none;fill-opacity:1;fill-rule:nonzero;stroke:#7239b3;stroke-width:1;stroke-linecap:butt;stroke-linejoin:round;stroke-miterlimit:4;stroke-dasharray:none;stroke-dashoffset:0;stroke-opacity:0.501961;marker:none;enable-background:accumulate;stop-color:#000000;stop-opacity:1"
     d="m 8.5,5.5 c -2.216,0 -4,1.784 -4,4 v 31 c 0,2.216 1.784,4 4,4 h 31 c 2.216,0 4,-1.784 4,-4 v -19 l -16,-16 z m 24,0 11,11 V 9 C 43.5,7.0670034 41.932997,5.5 40,5.5 Z" /><g
     id="g60"
     transform="translate(-0.5,2)"><path
       id="path68"
       style="display:inline;opacity:0.15;fill:#000000;stroke:#000000;stroke-width:2;stroke-linejoin:round;stroke-dasharray:none;stroke-opacity:1"
       d="m 16,16.009766 c -2.236908,0 -4.213767,0.560986 -5.361328,1.34375 C 9.8736312,17.875358 9.5097656,18.447301 9.5097656,19 v 16 c 0,0.552699 0.3638656,1.124642 1.1289064,1.646484 1.147561,0.782764 3.12442,1.34375 5.361328,1.34375 2.236908,0 4.213767,-0.560986 5.361328,-1.34375 C 22.126369,36.124642 22.490234,35.552699 22.490234,35 V 19 c 0,-0.552699 -0.363865,-1.124642 -1.128906,-1.646484 C 20.213767,16.570752 18.236908,16.009766 16,16.009766 Z" /><path
       id="path67"
       style="display:inline;opacity:0.15;fill:#000000;stroke:none;stroke-width:1;stroke-linejoin:round;stroke-dasharray:none"
       d="m 16,16.009766 c -2.236908,0 -4.213767,0.560986 -5.361328,1.34375 C 9.8736312,17.875358 9.5097656,18.447301 9.5097656,19 v 16 c 0,0.552699 0.3638656,1.124642 1.1289064,1.646484 1.147561,0.782764 3.12442,1.34375 5.361328,1.34375 2.236908,0 4.213767,-0.560986 5.361328,-1.34375 C 22.126369,36.124642 22.490234,35.552699 22.490234,35 V 19 c 0,-0.552699 -0.363865,-1.124642 -1.128906,-1.646484 C 20.213767,16.570752 18.236908,16.009766 16,16.009766 Z" /><path
       id="path11"
       style="display:inline;opacity:1;fill:#cd9ef7;stroke:none;stroke-width:1;stroke-linejoin:round;stroke-dasharray:none"
       d="m 16,15.009766 c -2.236908,0 -4.213767,0.560986 -5.361328,1.34375 C 9.8736312,16.875358 9.5097656,17.447301 9.5097656,18 v 16 c 0,0.552699 0.3638656,1.124642 1.1289064,1.646484 1.147561,0.782764 3.12442,1.34375 5.361328,1.34375 2.236908,0 4.213767,-0.560986 5.361328,-1.34375 C 22.126369,35.124642 22.490234,34.552699 22.490234,34 V 18 c 0,-0.552699 -0.363865,-1.124642 -1.128906,-1.646484 C 20.213767,15.570752 18.236908,15.009766 16,15.009766 Z" /><path
       id="path60"
       style="display:inline;opacity:0.1;fill:none;stroke:#000000;stroke-width:1;stroke-linecap:round;stroke-linejoin:round;stroke-dasharray:none;stroke-opacity:1"
       d="m 10,31 c 0,1.380712 2.686292,2.5 6,2.5 3.313708,0 6,-1.119288 6,-2.5" /><path
       id="path59"
       style="display:inline;opacity:0.1;fill:none;stroke:#000000;stroke-width:1;stroke-linecap:round;stroke-linejoin:round;stroke-dasharray:none;stroke-opacity:1"
       d="m 10,27 c 0,1.380712 2.686292,2.5 6,2.5 3.313708,0 6,-1.119288 6,-2.5" /><path
       id="ellipse16"
       style="opacity:0.1;fill:none;stroke:#000000;stroke-width:1;stroke-linecap:round;stroke-linejoin:round;stroke-dasharray:none;stroke-opacity:1"
       d="m 10,23 c 0,1.380712 2.686292,2.5 6,2.5 3.313708,0 6,-1.119288 6,-2.5" /><path
       id="path52"
       style="opacity:0.5;fill:url(#linearGradient54);stroke:none;stroke-width:1;stroke-linejoin:round;stroke-dasharray:none"
       d="m 16,15.009766 c -2.236908,0 -4.213767,0.560986 -5.361328,1.34375 C 9.8736312,16.875358 9.5097656,17.447301 9.5097656,18 v 16 c 0,0.552699 0.3638656,1.124642 1.1289064,1.646484 1.147561,0.782764 3.12442,1.34375 5.361328,1.34375 2.236908,0 4.213767,-0.560986 5.361328,-1.34375 C 22.126369,35.124642 22.490234,34.552699 22.490234,34 V 18 c 0,-0.552699 -0.363865,-1.124642 -1.128906,-1.646484 C 20.213767,15.570752 18.236908,15.009766 16,15.009766 Z" /><path
       id="path62"
       style="opacity:0.1;fill:none;stroke:#000000;stroke-width:1;stroke-linecap:round;stroke-linejoin:round;stroke-dasharray:none;stroke-opacity:1"
       d="m 10,19 c 0,1.380712 2.686292,2.5 6,2.5 3.313708,0 6,-1.119288 6,-2.5" /><g
       id="g16"
       style="stroke:url(#linearGradient32);stroke-opacity:1"><path
         id="path14"
         style="opacity:1;fill:none;stroke:url(#linearGradient62);stroke-width:1;stroke-linejoin:round;stroke-dasharray:none;stroke-opacity:1"
         d="m 10,30 v 4 c 0,1.380712 2.686292,2.5 6,2.5 3.313708,0 6,-1.119288 6,-2.5 v -4" /><path
         id="path15"
         style="opacity:1;fill:none;stroke:url(#linearGradient38);stroke-width:1;stroke-linejoin:round;stroke-dasharray:none;stroke-opacity:1"
         d="m 10,26 v 4 c 0,1.380712 2.686292,2.5 6,2.5 3.313708,0 6,-1.119288 6,-2.5 v -4" /><path
         id="path16"
         style="opacity:1;fill:none;stroke:url(#linearGradient47);stroke-width:1;stroke-linejoin:round;stroke-dasharray:none;stroke-opacity:1"
         d="m 10,22 v 4 c 0,1.380712 2.686292,2.5 6,2.5 3.313708,0 6,-1.119288 6,-2.5 v -4" /><path
         id="path61"
         style="opacity:1;fill:none;stroke:url(#linearGradient61);stroke-width:1;stroke-linejoin:round;stroke-dasharray:none;stroke-opacity:1"
         d="m 10,18 v 4 c 0,1.380712 2.686292,2.5 6,2.5 3.313708,0 6,-1.119288 6,-2.5 v -4" /></g><ellipse
       style="opacity:1;fill:#e4c6fa;fill-opacity:1;stroke:none;stroke-width:1;stroke-linecap:round;stroke-linejoin:round;stroke-dasharray:none;stroke-opacity:1"
       id="path55"
       cx="16"
       cy="18"
       rx="6.5"
       ry="3" /><ellipse
       style="opacity:0.5;fill:none;stroke:url(#linearGradient57);stroke-width:1;stroke-linejoin:round;stroke-dasharray:none"
       id="ellipse15"
       cx="16"
       cy="18"
       rx="6"
       ry="2.5" /></g><path
     id="path66"
     style="opacity:0.15;fill:none;fill-opacity:1;stroke:#000000;stroke-width:1;stroke-linecap:butt;stroke-linejoin:round;stroke-dasharray:none;stroke-opacity:1"
     d="m 26.5,28.5 h 12 m -12,5 h 12 m -6,-10 v 15 m -4,-15 h 8 c 1.108,0 2,0.892 2,2 v 11 c 0,1.108 -0.892,2 -2,2 h -8 c -1.108,0 -2,-0.892 -2,-2 v -11 c 0,-1.108 0.892,-2 2,-2 z" /><path
     id="path65"
     style="opacity:1;fill:none;fill-opacity:1;stroke:#ffffff;stroke-width:1;stroke-linecap:butt;stroke-linejoin:round;stroke-dasharray:none;stroke-opacity:1"
     d="m 26.5,27.5 h 12 m -12,5 h 12 m -6,-10 v 15 m -4,-15 h 8 c 1.108,0 2,0.892 2,2 v 11 c 0,1.108 -0.892,2 -2,2 h -8 c -1.108,0 -2,-0.892 -2,-2 v -11 c 0,-1.108 0.892,-2 2,-2 z" /></svg>
