<?xml version="1.0" encoding="UTF-8" standalone="no"?>
<svg
   width="48"
   height="48"
   viewBox="0 0 48 48"
   fill="none"
   version="1.1"
   id="svg4"
   xml:space="preserve"
   sodipodi:docname="slack.svg"
   inkscape:version="1.4.2 (ebf0e940d0, 2025-05-08)"
   xmlns:inkscape="http://www.inkscape.org/namespaces/inkscape"
   xmlns:sodipodi="http://sodipodi.sourceforge.net/DTD/sodipodi-0.dtd"
   xmlns:xlink="http://www.w3.org/1999/xlink"
   xmlns="http://www.w3.org/2000/svg"
   xmlns:svg="http://www.w3.org/2000/svg"><sodipodi:namedview
     id="namedview1"
     pagecolor="#ffffff"
     bordercolor="#000000"
     borderopacity="0.25"
     inkscape:showpageshadow="2"
     inkscape:pageopacity="0.0"
     inkscape:pagecheckerboard="0"
     inkscape:deskcolor="#d1d1d1"
     showgrid="false"
     inkscape:zoom="2.185"
     inkscape:cx="39.359268"
     inkscape:cy="30.434783"
     inkscape:current-layer="svg4"><inkscape:page
       x="0"
       y="0"
       width="48"
       height="48"
       id="page2"
       margin="0"
       bleed="0" /><inkscape:grid
       id="grid4"
       units="px"
       originx="-58"
       originy="0"
       spacingx="0.5"
       spacingy="0.5"
       empcolor="#0099e5"
       empopacity="0.30196078"
       color="#0099e5"
       opacity="0.0784314"
       empspacing="2"
       enabled="true"
       visible="false" /></sodipodi:namedview><defs
     id="defs4"><inkscape:path-effect
       effect="offset"
       id="path-effect1"
       is_visible="true"
       lpeversion="1.3"
       linejoin_type="miter"
       unit="px"
       offset="-0.5"
       miter_limit="4"
       attempt_force_join="false"
       update_on_knot_move="true" /><inkscape:path-effect
       effect="offset"
       id="path-effect4"
       is_visible="true"
       lpeversion="1.3"
       linejoin_type="miter"
       unit="px"
       offset="-0.5"
       miter_limit="4"
       attempt_force_join="false"
       update_on_knot_move="true" /><linearGradient
       id="linearGradient1201"><stop
         id="stop1193"
         style="stop-color:#ffffff;stop-opacity:1"
         offset="0" /><stop
         id="stop1195"
         style="stop-color:#ffffff;stop-opacity:0.23529412"
         offset="0.06781636" /><stop
         id="stop1197"
         style="stop-color:#ffffff;stop-opacity:0.15686275"
         offset="0.94694352" /><stop
         id="stop1199"
         style="stop-color:#ffffff;stop-opacity:0.39215687"
         offset="1" /></linearGradient><linearGradient
       id="linearGradient3688-166-749"><stop
         id="stop2883"
         style="stop-color:#181818;stop-opacity:1"
         offset="0" /><stop
         id="stop2885"
         style="stop-color:#181818;stop-opacity:0"
         offset="1" /></linearGradient><linearGradient
       id="linearGradient3702-501-757"><stop
         id="stop2895"
         style="stop-color:#181818;stop-opacity:0"
         offset="0" /><stop
         id="stop2897"
         style="stop-color:#181818;stop-opacity:1"
         offset="0.5" /><stop
         id="stop2899"
         style="stop-color:#181818;stop-opacity:0"
         offset="1" /></linearGradient><radialGradient
       cx="4.9929786"
       cy="43.5"
       r="2.5"
       fx="4.9929786"
       fy="43.5"
       id="radialGradient3013-6"
       xlink:href="#linearGradient3688-166-749"
       gradientUnits="userSpaceOnUse"
       gradientTransform="matrix(2.003784,0,0,0.89999994,29.98813,4.8500025)" /><radialGradient
       cx="4.9929786"
       cy="43.5"
       r="2.5"
       fx="4.9929786"
       fy="43.5"
       id="radialGradient3015-1"
       xlink:href="#linearGradient3688-166-749"
       gradientUnits="userSpaceOnUse"
       gradientTransform="matrix(2.003784,0,0,0.89999994,-18.01187,-83.149997)" /><linearGradient
       x1="38.999996"
       y1="5.9999938"
       x2="38.999996"
       y2="41.945408"
       id="linearGradient3058-5"
       xlink:href="#linearGradient1201"
       gradientUnits="userSpaceOnUse"
       gradientTransform="translate(4e-6,1.0000062)" /><linearGradient
       xlink:href="#linearGradient3702-501-757"
       id="linearGradient1191"
       gradientUnits="userSpaceOnUse"
       x1="25.058096"
       y1="47.027729"
       x2="25.058096"
       y2="39.999443"
       gradientTransform="matrix(1.1428571,0,0,0.6428571,-3.428569,16.035716)" /><style
       id="style1">.g{fill:#000;}.g,.h,.i{stroke-width:0px;}.h{fill:url(#e);}.i{fill:#fff;}</style><style
       id="style1-7">.g{fill:#000;}.g,.h,.i{stroke-width:0px;}.h{fill:url(#e);}.i{fill:#fff;}</style><style
       id="style1-5">.g{fill:#000;}.g,.h,.i{stroke-width:0px;}.h{fill:url(#e);}.i{fill:#fff;}</style><linearGradient
       id="linearGradient4"><stop
         style="stop-color:#fafafa;stop-opacity:1;"
         offset="0"
         id="stop4" /><stop
         style="stop-color:#d4d4d4;stop-opacity:1;"
         offset="1"
         id="stop5" /></linearGradient><style
       id="style1-53">.g{fill:#000;}.g,.h,.i{stroke-width:0px;}.h{fill:url(#e);}.i{fill:#fff;}</style><style
       id="style1-6">.cls-1{fill:#fff;}</style><style
       id="style1-67">.cls-1{fill:#fff;}</style><linearGradient
       xlink:href="#linearGradient4"
       id="linearGradient3"
       gradientUnits="userSpaceOnUse"
       gradientTransform="matrix(1.444444,0,0,1.444444,0.888913,1.888891)"
       x1="16.692297"
       y1="2.8461533"
       x2="16.692297"
       y2="29.153854" /><linearGradient
       id="linearGradient18"><stop
         style="stop-color:#ffffff;stop-opacity:1;"
         offset="0"
         id="stop18" /><stop
         style="stop-color:#ffffff;stop-opacity:0;"
         offset="1"
         id="stop19" /></linearGradient><linearGradient
       id="linearGradient17"><stop
         offset="0"
         style="stop-color:#ffffff;stop-opacity:1"
         id="stop14" /><stop
         offset="0.14473684"
         style="stop-color:#ffffff;stop-opacity:0.23529412"
         id="stop15" /><stop
         offset="0.85526317"
         style="stop-color:#ffffff;stop-opacity:0.15686275"
         id="stop16" /><stop
         offset="1"
         style="stop-color:#ffffff;stop-opacity:0.39215687"
         id="stop17" /></linearGradient><style
       id="style1-535">.g{fill:#000;}.g,.h,.i{stroke-width:0px;}.h{fill:url(#e);}.i{fill:#fff;}</style><style
       id="style1-7-6">.g{fill:#000;}.g,.h,.i{stroke-width:0px;}.h{fill:url(#e);}.i{fill:#fff;}</style><style
       id="style1-5-29">.g{fill:#000;}.g,.h,.i{stroke-width:0px;}.h{fill:url(#e);}.i{fill:#fff;}</style><linearGradient
       id="linearGradient2-5"><stop
         style="stop-color:#5865f2;stop-opacity:1;"
         offset="0"
         id="stop3-3" /><stop
         style="stop-color:#1f30f4;stop-opacity:1;"
         offset="1"
         id="stop4-5" /></linearGradient><style
       id="style1-3">.g{fill:#000;}.g,.h,.i{stroke-width:0px;}.h{fill:url(#e);}.i{fill:#fff;}</style><style
       id="style1-6-12">.cls-1{fill:#fff;}</style><linearGradient
       xlink:href="#linearGradient17"
       id="linearGradient12"
       x1="24"
       y1="6"
       x2="24"
       y2="44"
       gradientUnits="userSpaceOnUse"
       gradientTransform="translate(0,-49)" /><linearGradient
       xlink:href="#linearGradient18"
       id="linearGradient19"
       x1="38.264111"
       y1="46.5"
       x2="36.881195"
       y2="41"
       gradientUnits="userSpaceOnUse"
       gradientTransform="translate(0,-49)" /><linearGradient
       id="linearGradient3820-7-2"><stop
         id="stop3822-2-6"
         style="stop-color:#000000;stop-opacity:1"
         offset="0" /><stop
         id="stop3824-1-2"
         style="stop-color:#000000;stop-opacity:0"
         offset="1" /></linearGradient><radialGradient
       xlink:href="#linearGradient3820-7-2"
       id="radialGradient3"
       gradientUnits="userSpaceOnUse"
       gradientTransform="matrix(0.3823536,7.5555777e-8,-1.8372241e-8,0.1115198,-5.9254271,36.335849)"
       cx="99.189415"
       cy="185.29727"
       fx="99.189415"
       fy="185.29727"
       r="62.769119" /><radialGradient
       xlink:href="#linearGradient3820-7-2"
       id="radialGradient4"
       gradientUnits="userSpaceOnUse"
       gradientTransform="matrix(0.2549024,5.3967361e-8,-1.2248161e-8,0.07965545,6.7163816,44.240666)"
       cx="99.189415"
       cy="185.29727"
       fx="99.189415"
       fy="185.29727"
       r="62.769119" /><style
       id="style1-62">.g{fill:#000;}.g,.h,.i{stroke-width:0px;}.h{fill:url(#e);}.i{fill:#fff;}</style><style
       id="style1-6-9">.cls-1{fill:#fff;}</style><style
       id="style1-67-7">.cls-1{fill:#fff;}</style><style
       id="style1-56">.g{fill:#000;}.g,.h,.i{stroke-width:0px;}.h{fill:url(#e);}.i{fill:#fff;}</style><style
       id="style1-7-1">.g{fill:#000;}.g,.h,.i{stroke-width:0px;}.h{fill:url(#e);}.i{fill:#fff;}</style><style
       id="style1-5-2">.g{fill:#000;}.g,.h,.i{stroke-width:0px;}.h{fill:url(#e);}.i{fill:#fff;}</style><style
       id="style1-3-7">.g{fill:#000;}.g,.h,.i{stroke-width:0px;}.h{fill:url(#e);}.i{fill:#fff;}</style><style
       id="style1-6-1">.cls-1{fill:#fff;}</style><style
       id="style1-2">.g{fill:#000;}.g,.h,.i{stroke-width:0px;}.h{fill:url(#e);}.i{fill:#fff;}</style><style
       id="style1-6-8">.cls-1{fill:#fff;}</style><linearGradient
       xlink:href="#linearGradient4"
       id="linearGradient9"
       x1="24"
       y1="5"
       x2="24"
       y2="45"
       gradientUnits="userSpaceOnUse"
       gradientTransform="translate(0,-49)" /><style
       id="style1-37">.g{fill:#000;}.g,.h,.i{stroke-width:0px;}.h{fill:url(#e);}.i{fill:#fff;}</style><style
       id="style1-7-5">.g{fill:#000;}.g,.h,.i{stroke-width:0px;}.h{fill:url(#e);}.i{fill:#fff;}</style><style
       id="style1-5-9">.g{fill:#000;}.g,.h,.i{stroke-width:0px;}.h{fill:url(#e);}.i{fill:#fff;}</style><style
       id="style1-3-8">.g{fill:#000;}.g,.h,.i{stroke-width:0px;}.h{fill:url(#e);}.i{fill:#fff;}</style><style
       id="style1-6-97">.cls-1{fill:#fff;}</style><linearGradient
       xlink:href="#linearGradient17"
       id="linearGradient12-3"
       x1="24"
       y1="6"
       x2="24"
       y2="44"
       gradientUnits="userSpaceOnUse"
       gradientTransform="translate(0,-51)" /><linearGradient
       xlink:href="#linearGradient18"
       id="linearGradient19-6"
       x1="38.264111"
       y1="46.5"
       x2="36.881195"
       y2="41"
       gradientUnits="userSpaceOnUse"
       gradientTransform="translate(0,-51)" /><radialGradient
       xlink:href="#linearGradient3820-7-2"
       id="radialGradient3-9"
       gradientUnits="userSpaceOnUse"
       gradientTransform="matrix(0.3823536,7.5555777e-8,-1.8372241e-8,0.1115198,-5.9254271,36.335849)"
       cx="99.189415"
       cy="185.29727"
       fx="99.189415"
       fy="185.29727"
       r="62.769119" /><radialGradient
       xlink:href="#linearGradient3820-7-2"
       id="radialGradient4-3"
       gradientUnits="userSpaceOnUse"
       gradientTransform="matrix(0.2549024,5.3967361e-8,-1.2248161e-8,0.07965545,6.7163816,44.240666)"
       cx="99.189415"
       cy="185.29727"
       fx="99.189415"
       fy="185.29727"
       r="62.769119" /><style
       id="style1-62-1">.g{fill:#000;}.g,.h,.i{stroke-width:0px;}.h{fill:url(#e);}.i{fill:#fff;}</style><style
       id="style1-6-9-9">.cls-1{fill:#fff;}</style><style
       id="style1-67-4">.cls-1{fill:#fff;}</style><style
       id="style1-56-7">.g{fill:#000;}.g,.h,.i{stroke-width:0px;}.h{fill:url(#e);}.i{fill:#fff;}</style><style
       id="style1-7-1-8">.g{fill:#000;}.g,.h,.i{stroke-width:0px;}.h{fill:url(#e);}.i{fill:#fff;}</style><style
       id="style1-5-2-4">.g{fill:#000;}.g,.h,.i{stroke-width:0px;}.h{fill:url(#e);}.i{fill:#fff;}</style><style
       id="style1-3-7-5">.g{fill:#000;}.g,.h,.i{stroke-width:0px;}.h{fill:url(#e);}.i{fill:#fff;}</style><style
       id="style1-6-1-0">.cls-1{fill:#fff;}</style><style
       id="style1-2-3">.g{fill:#000;}.g,.h,.i{stroke-width:0px;}.h{fill:url(#e);}.i{fill:#fff;}</style><style
       id="style1-6-8-6">.cls-1{fill:#fff;}</style><linearGradient
       xlink:href="#linearGradient2-5"
       id="linearGradient9-1"
       x1="24"
       y1="5"
       x2="24"
       y2="45"
       gradientUnits="userSpaceOnUse"
       gradientTransform="translate(0,-51)" /><linearGradient
       id="linearGradient1201-0"><stop
         id="stop1193-6"
         style="stop-color:#ffffff;stop-opacity:1"
         offset="0" /><stop
         id="stop1195-3"
         style="stop-color:#ffffff;stop-opacity:0.23529412"
         offset="0.07352958" /><stop
         id="stop1197-2"
         style="stop-color:#ffffff;stop-opacity:0.15686275"
         offset="0.92647058" /><stop
         id="stop1199-0"
         style="stop-color:#ffffff;stop-opacity:0.39215687"
         offset="1" /></linearGradient><linearGradient
       x1="38.999996"
       y1="5.9999938"
       x2="38.999996"
       y2="40"
       id="linearGradient3058-5-6"
       xlink:href="#linearGradient1201-0"
       gradientUnits="userSpaceOnUse"
       gradientTransform="translate(4e-6)" /><linearGradient
       xlink:href="#linearGradient4"
       id="linearGradient930-9-2"
       x1="16.692297"
       y1="2.8461533"
       x2="16.692297"
       y2="27.769238"
       gradientUnits="userSpaceOnUse"
       gradientTransform="matrix(1.444444,0,0,1.444444,0.888913,0.888891)" /><linearGradient
       id="linearGradient870"><stop
         id="stop866"
         offset="0"
         style="stop-color:#cd9ef7;stop-opacity:1" /><stop
         id="stop868"
         offset="1"
         style="stop-color:#a56de2;stop-opacity:1" /></linearGradient><linearGradient
       id="linearGradient30"><stop
         style="stop-color:#ffffff;stop-opacity:1;"
         offset="0"
         id="stop30" /><stop
         style="stop-color:#fafafa;stop-opacity:0;"
         offset="1"
         id="stop31" /></linearGradient><linearGradient
       id="linearGradient22"><stop
         id="stop13"
         style="stop-color:#ffffff;stop-opacity:1"
         offset="0" /><stop
         id="stop20"
         style="stop-color:#ffffff;stop-opacity:0.23529412"
         offset="0.13461539" /><stop
         id="stop21"
         style="stop-color:#ffffff;stop-opacity:0.15686275"
         offset="0.86538464" /><stop
         id="stop22"
         style="stop-color:#ffffff;stop-opacity:0.39215687"
         offset="1" /></linearGradient><style
       id="style1-79">.g{fill:#000;}.g,.h,.i{stroke-width:0px;}.h{fill:url(#e);}.i{fill:#fff;}</style><style
       id="style1-7-2">.g{fill:#000;}.g,.h,.i{stroke-width:0px;}.h{fill:url(#e);}.i{fill:#fff;}</style><style
       id="style1-5-0">.g{fill:#000;}.g,.h,.i{stroke-width:0px;}.h{fill:url(#e);}.i{fill:#fff;}</style><style
       id="style1-53-1">.g{fill:#000;}.g,.h,.i{stroke-width:0px;}.h{fill:url(#e);}.i{fill:#fff;}</style><style
       id="style1-6-2">.cls-1{fill:#fff;}</style><style
       id="style1-67-3">.cls-1{fill:#fff;}</style><style
       id="style1-675">.g{fill:#000;}.g,.h,.i{stroke-width:0px;}.h{fill:url(#e);}.i{fill:#fff;}</style><style
       id="style1-7-3">.g{fill:#000;}.g,.h,.i{stroke-width:0px;}.h{fill:url(#e);}.i{fill:#fff;}</style><style
       id="style1-5-5">.g{fill:#000;}.g,.h,.i{stroke-width:0px;}.h{fill:url(#e);}.i{fill:#fff;}</style><style
       id="style1-3-9">.g{fill:#000;}.g,.h,.i{stroke-width:0px;}.h{fill:url(#e);}.i{fill:#fff;}</style><style
       id="style1-6-6">.cls-1{fill:#fff;}</style><style
       id="style1-70">.g{fill:#000;}.g,.h,.i{stroke-width:0px;}.h{fill:url(#e);}.i{fill:#fff;}</style><style
       id="style1-6-3">.cls-1{fill:#fff;}</style><linearGradient
       id="linearGradient3820-7-2-2"><stop
         offset="0"
         style="stop-color:#3d3d3d;stop-opacity:1"
         id="stop3822-2-6-36" /><stop
         offset="0.5"
         style="stop-color:#686868;stop-opacity:0.49803922"
         id="stop3864-8-7-6" /><stop
         offset="1"
         style="stop-color:#686868;stop-opacity:0"
         id="stop3824-1-2-4" /></linearGradient><radialGradient
       cx="99.157013"
       cy="186.17059"
       r="62.769119"
       fx="99.157013"
       fy="186.17059"
       id="radialGradient3108-6"
       xlink:href="#linearGradient3820-7-2-2"
       gradientUnits="userSpaceOnUse"
       gradientTransform="matrix(0.21473139,0,0,0.06794726,-5.3136245,15.116856)" /><linearGradient
       xlink:href="#linearGradient22"
       id="linearGradient13"
       x1="16"
       y1="3"
       x2="16"
       y2="29"
       gradientUnits="userSpaceOnUse"
       gradientTransform="translate(0,-33)" /><linearGradient
       xlink:href="#linearGradient2-5"
       id="linearGradient29"
       x1="16"
       y1="3"
       x2="16"
       y2="30"
       gradientUnits="userSpaceOnUse"
       gradientTransform="translate(0,-33)" /><linearGradient
       xlink:href="#linearGradient30"
       id="linearGradient31"
       x1="25.002583"
       y1="30.93301"
       x2="23.779295"
       y2="27.459316"
       gradientUnits="userSpaceOnUse" /><linearGradient
       id="linearGradient4-5"><stop
         id="stop1"
         style="stop-color:#ffffff;stop-opacity:1"
         offset="0" /><stop
         id="stop2"
         style="stop-color:#ffffff;stop-opacity:0.23529412"
         offset="0.06818181" /><stop
         id="stop3"
         style="stop-color:#ffffff;stop-opacity:0.15686275"
         offset="0.93181819" /><stop
         id="stop4-54"
         style="stop-color:#ffffff;stop-opacity:0.39215687"
         offset="1" /></linearGradient><linearGradient
       xlink:href="#linearGradient2-5"
       id="linearGradient930-9-2-8"
       x1="16.999996"
       y1="2.5"
       x2="16.999996"
       y2="29"
       gradientUnits="userSpaceOnUse"
       gradientTransform="translate(58.000004)" /><linearGradient
       x1="23.99999"
       y1="6.2399855"
       x2="23.999994"
       y2="38.799984"
       id="linearGradient4161-0-2"
       xlink:href="#linearGradient4-5"
       gradientUnits="userSpaceOnUse"
       gradientTransform="matrix(0.67567568,0,0,0.67567568,57.783787,-0.21620614)" /></defs><path
     id="rect5505-21-1"
     style="color:#000000;font-variation-settings:normal;display:inline;overflow:visible;visibility:visible;opacity:1;vector-effect:none;fill:url(#linearGradient930-9-2);fill-opacity:1;fill-rule:nonzero;stroke:none;stroke-width:1;stroke-linecap:butt;stroke-linejoin:round;stroke-miterlimit:4;stroke-dasharray:none;stroke-dashoffset:0;stroke-opacity:0.501961;marker:none;enable-background:accumulate;stop-color:#000000;stop-opacity:1"
     d="M 8.5,5.0097656 C 6.5577184,5.0097656 5.0097656,6.5577184 5.0097656,8.5 v 29 c 0,1.942282 1.5479528,3.490234 3.4902344,3.490234 h 22.509766 v 5.277344 l 5.279296,-5.277344 H 39.5 c 1.942282,0 3.490234,-1.547952 3.490234,-3.490234 v -29 c 0,-1.9422816 -1.547952,-3.4902344 -3.490234,-3.4902344 z" /><path
     id="rect6741-2"
     style="opacity:1;fill:none;stroke:url(#linearGradient3058-5-6);stroke-width:1;stroke-linecap:round;stroke-linejoin:round;stroke-miterlimit:4;stroke-dasharray:none;stroke-dashoffset:0;stroke-opacity:1"
     d="m 8.5,5.5 c -1.662,0 -3,1.338 -3,3 v 29 c 0,1.662 1.338,3 3,3 h 23 V 45 L 36,40.5 h 3.5 c 1.662,0 3,-1.338 3,-3 v -29 c 0,-1.662 -1.338,-3 -3,-3 z" /><path
     id="path38-3"
     style="opacity:0.149525;fill:#000000;fill-opacity:1;stroke:#000000;stroke-width:2;stroke-linejoin:round;stroke-dasharray:none;stroke-opacity:1"
     d="M 20.5,11 A 2.5,2.5 0 0 0 18,13.5 2.5,2.5 0 0 0 20.5,16 H 23 V 13.5 A 2.5,2.5 0 0 0 20.5,11 Z m 7,0 A 2.5,2.5 0 0 0 25,13.5 v 7 A 2.5,2.5 0 0 0 27.5,23 2.5,2.5 0 0 0 30,20.5 v -7 A 2.5,2.5 0 0 0 27.5,11 Z m -14,7 A 2.5,2.5 0 0 0 11,20.5 2.5,2.5 0 0 0 13.5,23 h 7 A 2.5,2.5 0 0 0 23,20.5 2.5,2.5 0 0 0 20.5,18 Z m 20.994141,0 a 2.5,2.5 0 0 0 -2.5,2.5 A 2.5,2.5 0 0 0 32,20.582031 V 23 h 2.494141 a 2.5,2.5 0 0 0 0.0059,0 2.5,2.5 0 0 0 2.494141,-2.5 2.5,2.5 0 0 0 -2.5,-2.5 z M 13.5,25 A 2.5,2.5 0 0 0 11,27.5 2.5,2.5 0 0 0 13.5,30 2.5,2.5 0 0 0 16,27.5 V 25 Z m 7,0 A 2.5,2.5 0 0 0 18,27.5 V 34.496094 34.5 A 2.5,2.5 0 0 0 20.5,36.996094 2.5,2.5 0 0 0 23,34.5 2.5,2.5 0 0 0 23,34.498 2.5,2.5 0 0 0 23,34.496 V 27.5 A 2.5,2.5 0 0 0 20.5,25 Z m 7,0 v 0.0059 a 2.5,2.5 0 0 0 -2.5,2.5 2.5,2.5 0 0 0 2.5,2.5 A 2.5,2.5 0 0 0 27.582031,30 h 6.835938 a 2.5,2.5 0 0 0 0.08203,0.0059 2.5,2.5 0 0 0 2.5,-2.5 2.5,2.5 0 0 0 -2.5,-2.5 V 25 Z m 0,6.996094 A 2.5,2.5 0 0 0 27.445312,32 H 25 V 34.496094 34.5 a 2.5,2.5 0 0 0 2.5,2.496094 2.5,2.5 0 0 0 2.5,-2.5 2.5,2.5 0 0 0 -2.5,-2.5 z" /><path
     id="path41-6"
     style="opacity:0.149532;fill:#000000;fill-opacity:1;stroke:none;stroke-width:2;stroke-linejoin:round;stroke-dasharray:none;stroke-opacity:1"
     d="M 20.5,11 A 2.5,2.5 0 0 0 18,13.5 2.5,2.5 0 0 0 20.5,16 H 23 V 13.5 A 2.5,2.5 0 0 0 20.5,11 Z m 7,0 A 2.5,2.5 0 0 0 25,13.5 v 7 A 2.5,2.5 0 0 0 27.5,23 2.5,2.5 0 0 0 30,20.5 v -7 A 2.5,2.5 0 0 0 27.5,11 Z m -14,7 A 2.5,2.5 0 0 0 11,20.5 2.5,2.5 0 0 0 13.5,23 h 7 A 2.5,2.5 0 0 0 23,20.5 2.5,2.5 0 0 0 20.5,18 Z m 20.994141,0 a 2.5,2.5 0 0 0 -2.5,2.5 A 2.5,2.5 0 0 0 32,20.582031 V 23 h 2.494141 a 2.5,2.5 0 0 0 0.0059,0 2.5,2.5 0 0 0 2.494141,-2.5 2.5,2.5 0 0 0 -2.5,-2.5 z M 13.5,25 A 2.5,2.5 0 0 0 11,27.5 2.5,2.5 0 0 0 13.5,30 2.5,2.5 0 0 0 16,27.5 V 25 Z m 7,0 A 2.5,2.5 0 0 0 18,27.5 V 34.496094 34.5 A 2.5,2.5 0 0 0 20.5,36.996094 2.5,2.5 0 0 0 23,34.5 2.5,2.5 0 0 0 23,34.498 2.5,2.5 0 0 0 23,34.496 V 27.5 A 2.5,2.5 0 0 0 20.5,25 Z m 7,0 v 0.0059 a 2.5,2.5 0 0 0 -2.5,2.5 2.5,2.5 0 0 0 2.5,2.5 A 2.5,2.5 0 0 0 27.582031,30 h 6.835938 a 2.5,2.5 0 0 0 0.08203,0.0059 2.5,2.5 0 0 0 2.5,-2.5 2.5,2.5 0 0 0 -2.5,-2.5 V 25 Z m 0,6.996094 A 2.5,2.5 0 0 0 27.445312,32 H 25 V 34.496094 34.5 a 2.5,2.5 0 0 0 2.5,2.496094 2.5,2.5 0 0 0 2.5,-2.5 2.5,2.5 0 0 0 -2.5,-2.5 z" /><path
     id="path7-0"
     style="fill:#1e7a45;fill-opacity:1;stroke:none;stroke-linejoin:round;stroke-opacity:1"
     d="M 27.5,10 A 2.5,2.5 0 0 0 25,12.5 v 7 A 2.5,2.5 0 0 0 27.5,22 2.5,2.5 0 0 0 30,19.5 v -7 A 2.5,2.5 0 0 0 27.5,10 Z m 6.994141,7 a 2.5,2.5 0 0 0 -2.5,2.5 A 2.5,2.5 0 0 0 32,19.582031 V 22 h 2.494141 a 2.5,2.5 0 0 0 0.0059,0 2.5,2.5 0 0 0 2.494141,-2.5 2.5,2.5 0 0 0 -2.5,-2.5 z" /><path
     id="circle9-6"
     style="fill:#1882d4;fill-opacity:1;stroke:none;stroke-linejoin:round;stroke-opacity:1"
     d="M 20.5,10 A 2.5,2.5 0 0 0 18,12.5 2.5,2.5 0 0 0 20.5,15 H 23 V 12.5 A 2.5,2.5 0 0 0 20.5,10 Z m -7,7 A 2.5,2.5 0 0 0 11,19.5 2.5,2.5 0 0 0 13.5,22 h 7 A 2.5,2.5 0 0 0 23,19.5 2.5,2.5 0 0 0 20.5,17 Z" /><path
     id="circle12-2"
     style="fill:#a91149;fill-opacity:1;stroke:none;stroke-linejoin:round;stroke-opacity:1"
     d="M 13.5,24 A 2.5,2.5 0 0 0 11,26.5 2.5,2.5 0 0 0 13.5,29 2.5,2.5 0 0 0 16,26.5 V 24 Z m 7,0 A 2.5,2.5 0 0 0 18,26.5 V 33.496094 33.5 A 2.5,2.5 0 0 0 20.5,35.996094 2.5,2.5 0 0 0 23,33.5 2.5,2.5 0 0 0 23,33.498 2.5,2.5 0 0 0 23,33.496 V 26.5 A 2.5,2.5 0 0 0 20.5,24 Z" /><path
     id="circle15-6"
     style="fill:#c07b11;fill-opacity:1;stroke:none;stroke-linejoin:round;stroke-opacity:1"
     d="m 27.5,24 v 0.0059 a 2.5,2.5 0 0 0 -2.5,2.5 2.5,2.5 0 0 0 2.5,2.5 A 2.5,2.5 0 0 0 27.582031,29 h 6.835938 a 2.5,2.5 0 0 0 0.08203,0.0059 2.5,2.5 0 0 0 2.5,-2.5 2.5,2.5 0 0 0 -2.5,-2.5 V 24 Z m 0,6.996094 A 2.5,2.5 0 0 0 27.445312,31 H 25 V 33.496094 33.5 a 2.5,2.5 0 0 0 2.5,2.496094 2.5,2.5 0 0 0 2.5,-2.5 2.5,2.5 0 0 0 -2.5,-2.5 z" /><path
     id="path27-1"
     style="fill:#e5a40f;fill-opacity:1;stroke:none;stroke-linejoin:round;stroke-opacity:1"
     d="m 27.5,24 v 0.0059 a 2.5,2.5 0 0 0 -2.443359,2 2.5,2.5 0 0 0 2.443359,2 A 2.5,2.5 0 0 0 27.582031,28 h 6.835938 A 2.5,2.5 0 0 0 34.5,28.005859 2.5,2.5 0 0 0 36.945312,25.990234 2.5,2.5 0 0 0 34.5,24.005859 V 24 Z m 0,6.996094 A 2.5,2.5 0 0 0 27.445312,31 H 25 V 32.496094 32.5 a 2.5,2.5 0 0 0 2.5,2.496094 2.5,2.5 0 0 0 2.445312,-2.015625 A 2.5,2.5 0 0 0 27.5,30.996094 Z" /><path
     id="path28-8"
     style="fill:#fcc003;fill-opacity:1;stroke:none;stroke-linejoin:round;stroke-opacity:1"
     d="m 27.5,24 v 0.0059 a 2.5,2.5 0 0 0 -2.28125,1.5 2.5,2.5 0 0 0 2.28125,1.5 A 2.5,2.5 0 0 0 27.582031,27 h 6.835938 A 2.5,2.5 0 0 0 34.5,27.005859 2.5,2.5 0 0 0 36.785156,25.496094 2.5,2.5 0 0 0 34.5,24.005859 V 24 Z m 0,4.996094 A 2.5,2.5 0 0 0 27.447266,29 2.5,2.5 0 0 0 27.5,29.005859 2.5,2.5 0 0 0 27.582031,29 2.5,2.5 0 0 0 27.5,28.996094 Z m 0,2 A 2.5,2.5 0 0 0 27.445312,31 H 25 V 31.496094 31.5 a 2.5,2.5 0 0 0 2.5,2.496094 2.5,2.5 0 0 0 2.285156,-1.509766 A 2.5,2.5 0 0 0 27.5,30.996094 Z" /><path
     id="path32-7"
     style="fill:#2e9850;fill-opacity:1;stroke:none;stroke-linejoin:round;stroke-opacity:1"
     d="M 27.5,10 A 2.5,2.5 0 0 0 25,12.5 v 6 A 2.5,2.5 0 0 0 27.5,21 2.5,2.5 0 0 0 30,18.5 v -6 A 2.5,2.5 0 0 0 27.5,10 Z m 6.994141,7 A 2.5,2.5 0 0 0 32,19.447266 V 19.582031 21 h 2.494141 a 2.5,2.5 0 0 0 0.0059,0 2.5,2.5 0 0 0 2.441406,-2 2.5,2.5 0 0 0 -2.447265,-2 z" /><path
     id="path33-9"
     style="fill:#41b658;fill-opacity:1;stroke:none;stroke-linejoin:round;stroke-opacity:1"
     d="M 27.5,10 A 2.5,2.5 0 0 0 25,12.5 v 5 A 2.5,2.5 0 0 0 27.5,20 2.5,2.5 0 0 0 30,17.5 v -5 A 2.5,2.5 0 0 0 27.5,10 Z m 6.994141,7 A 2.5,2.5 0 0 0 32,19.447266 V 19.582031 20 h 2.494141 A 2.5,2.5 0 0 0 34.5,20 2.5,2.5 0 0 0 36.783203,18.5 2.5,2.5 0 0 0 34.494141,17 Z" /><path
     id="path34-2"
     style="fill:#1da1eb;fill-opacity:1;stroke:none;stroke-linejoin:round;stroke-opacity:1"
     d="M 20.5,10 A 2.5,2.5 0 0 0 18.056641,12 2.5,2.5 0 0 0 20.5,14 H 23 V 12.5 A 2.5,2.5 0 0 0 20.5,10 Z m -7,7 A 2.5,2.5 0 0 0 11.056641,19 2.5,2.5 0 0 0 13.5,21 h 7 A 2.5,2.5 0 0 0 22.945312,18.984375 2.5,2.5 0 0 0 20.5,17 Z" /><path
     id="path35-0"
     style="fill:#1ab9ff;fill-opacity:1;stroke:none;stroke-linejoin:round;stroke-opacity:1"
     d="M 20.5,10 A 2.5,2.5 0 0 0 18.21875,11.5 2.5,2.5 0 0 0 20.5,13 H 23 V 12.5 A 2.5,2.5 0 0 0 20.5,10 Z m -7,7 A 2.5,2.5 0 0 0 11.21875,18.5 2.5,2.5 0 0 0 13.5,20 h 7 A 2.5,2.5 0 0 0 22.783203,18.498047 2.5,2.5 0 0 0 20.5,17 Z" /><path
     id="path36-2"
     style="fill:#c40d55;fill-opacity:1;stroke:none;stroke-linejoin:round;stroke-opacity:1"
     d="M 13.5,24 A 2.5,2.5 0 0 0 11.056641,26 2.5,2.5 0 0 0 13.5,28 2.5,2.5 0 0 0 16,25.5 V 24 Z m 7,0 A 2.5,2.5 0 0 0 18,26.5 V 32.496094 32.5 A 2.5,2.5 0 0 0 20.5,34.996094 2.5,2.5 0 0 0 23,32.5 v -0.002 a 2.5,2.5 0 0 0 0,-0.002 V 26.5 A 2.5,2.5 0 0 0 20.5,24 Z" /><path
     id="path37-3"
     style="fill:#e3066a;fill-opacity:1;stroke:none;stroke-linejoin:round;stroke-opacity:1"
     d="m 13.5,24 a 2.5,2.5 0 0 0 -2.28125,1.501953 2.5,2.5 0 0 0 2.28125,1.501953 2.5,2.5 0 0 0 2.5,-2.5 V 24 Z m 7,0 A 2.5,2.5 0 0 0 18,26.5 v 5 0.0039 A 2.5,2.5 0 0 0 20.5,34 2.5,2.5 0 0 0 23,31.503906 v -0.002 A 2.5,2.5 0 0 0 23,31.5 v -5 A 2.5,2.5 0 0 0 20.5,24 Z" /><path
     id="path1"
     style="color:#000000;font-variation-settings:normal;display:inline;overflow:visible;visibility:visible;opacity:1;vector-effect:none;fill:none;fill-opacity:1;fill-rule:nonzero;stroke:#555761;stroke-width:1;stroke-linecap:butt;stroke-linejoin:round;stroke-miterlimit:4;stroke-dasharray:none;stroke-dashoffset:0;stroke-opacity:0.5;marker:none;enable-background:accumulate;stop-color:#000000;stop-opacity:1"
     d="m 8.5,4.5 c -2.216,0 -4,1.784 -4,4 v 29 c 0,2.216 1.784,4 4,4 h 22 v 6 l 6,-6 h 3 c 2.216,0 4,-1.784 4,-4 v -29 c 0,-2.216 -1.784,-4 -4,-4 z" /></svg>
