<?xml version="1.0" encoding="UTF-8" standalone="no"?>
<!-- Created with Inkscape (http://www.inkscape.org/) -->

<svg
   width="48"
   height="48"
   viewBox="0 0 48 48"
   version="1.1"
   id="svg1"
   xmlns:xlink="http://www.w3.org/1999/xlink"
   xmlns="http://www.w3.org/2000/svg"
   xmlns:svg="http://www.w3.org/2000/svg">
  <defs
     id="defs1">
    <linearGradient
       id="linearGradient26">
      <stop
         style="stop-color:#00a638;stop-opacity:1;"
         offset="0"
         id="stop25" />
      <stop
         style="stop-color:#155e28;stop-opacity:1;"
         offset="1"
         id="stop26" />
    </linearGradient>
    <linearGradient
       id="linearGradient10">
      <stop
         style="stop-color:#24f276;stop-opacity:1;"
         offset="0"
         id="stop10" />
      <stop
         style="stop-color:#00a637;stop-opacity:1;"
         offset="1"
         id="stop11" />
    </linearGradient>
    <linearGradient
       id="linearGradient3">
      <stop
         style="stop-color:#ffffff;stop-opacity:1;"
         offset="0"
         id="stop3" />
      <stop
         style="stop-color:#ffffff;stop-opacity:0.25;"
         offset="0.10338421"
         id="stop5" />
      <stop
         style="stop-color:#ffffff;stop-opacity:0.24705882;"
         offset="0.90118366"
         id="stop6" />
      <stop
         style="stop-color:#ffffff;stop-opacity:1;"
         offset="1"
         id="stop4" />
    </linearGradient>
    <linearGradient
       id="linearGradient1">
      <stop
         style="stop-color:#00a134;stop-opacity:1;"
         offset="0.15352076"
         id="stop1" />
      <stop
         style="stop-color:#146025;stop-opacity:1;"
         offset="0.85281307"
         id="stop2" />
    </linearGradient>
    <linearGradient
       xlink:href="#linearGradient26"
       id="linearGradient2"
       x1="64"
       y1="5"
       x2="64"
       y2="123"
       gradientUnits="userSpaceOnUse"
       gradientTransform="matrix(0.35593219,0,0,0.35593219,0.7203409,0.7203409)" />
    <linearGradient
       xlink:href="#linearGradient3"
       id="linearGradient4"
       x1="64"
       y1="5"
       x2="64"
       y2="123"
       gradientUnits="userSpaceOnUse"
       gradientTransform="matrix(0.34188036,0,0,0.34188036,1.6196563,1.6196559)" />
    <linearGradient
       xlink:href="#linearGradient10"
       id="linearGradient11"
       x1="23.500004"
       y1="2.500001"
       x2="23.500004"
       y2="44.500004"
       gradientUnits="userSpaceOnUse" />
    <clipPath
       clipPathUnits="userSpaceOnUse"
       id="clipPath16">
      <path
         id="path17"
         style="display:inline;fill:none;stroke:none;stroke-width:2.14478"
         d="m 17.703127,14.181643 c -2.348652,0.06982 -4.687097,0.339295 -7,0.808593 -1.0844721,0.220733 -1.7871401,1.278842 -1.5664063,2.365235 0.220733,1.084473 1.2788413,1.787139 2.3652343,1.566406 4.176661,-0.848386 8.451607,-0.973893 12.703125,-0.376953 4.251518,0.59694 8.324208,1.895874 12.105469,3.863281 0.209217,0.107487 0.425751,0.176321 0.646484,0.207031 0.817148,0.115091 1.657168,-0.28608 2.060547,-1.060547 0.509312,-0.982456 0.126739,-2.192838 -0.855469,-2.703125 -4.188178,-2.178543 -8.693935,-3.619015 -13.398437,-4.279296 -2.352251,-0.330141 -4.711895,-0.460444 -7.060547,-0.390625 z m -0.05664,7.273437 c -2.029068,0.07702 -4.047696,0.334849 -6.041015,0.773438 -0.879095,0.193861 -1.436049,1.064264 -1.242188,1.943359 0.149715,0.685234 0.710713,1.173495 1.365235,1.265625 0.188104,0.02687 0.382344,0.01879 0.578125,-0.02344 C 15.913238,24.62134 19.60967,24.481757 23.296878,25 c 3.687209,0.518244 7.20351,1.671463 10.451172,3.427734 0.790801,0.428031 1.780954,0.132598 2.208984,-0.658203 v -0.002 c 0.428032,-0.792722 0.134519,-1.780952 -0.658203,-2.208984 -3.589318,-1.942455 -7.475782,-3.217075 -11.546875,-3.789063 -2.036506,-0.285993 -4.0764,-0.39147 -6.105469,-0.314453 z m 2.570313,6.509766 c -2.625409,-0.121194 -5.237327,0.13006 -7.796875,0.751953 -0.673717,0.16315 -1.086979,0.839956 -0.923828,1.513672 0.163151,0.673717 0.839956,1.086978 1.513672,0.923828 3.103705,-0.754332 6.29625,-0.910083 9.486328,-0.460938 3.190079,0.449144 6.214752,1.47891 8.990234,3.058594 0.142038,0.08061 0.293678,0.129271 0.445313,0.150391 0.49521,0.0691 1.004583,-0.160433 1.265625,-0.621094 h 0.002 c 0.341658,-0.602698 0.130075,-1.367361 -0.470703,-1.710938 -3.0538,-1.737077 -6.37795,-2.866084 -9.882813,-3.359375 -0.876216,-0.123322 -1.75377,-0.205696 -2.628906,-0.246093 z" />
    </clipPath>
    <linearGradient
       xlink:href="#linearGradient1"
       id="linearGradient20"
       gradientUnits="userSpaceOnUse"
       gradientTransform="matrix(0.35593368,0,0,0.35593219,0.72030559,0.72034091)"
       x1="64"
       y1="5"
       x2="64"
       y2="123" />
    <linearGradient
       xlink:href="#linearGradient1"
       id="linearGradient25"
       gradientUnits="userSpaceOnUse"
       gradientTransform="matrix(0.35593219,0,0,0.35593219,0.72034091,0.72034091)"
       x1="64"
       y1="5"
       x2="64"
       y2="123" />
    <clipPath
       clipPathUnits="userSpaceOnUse"
       id="clipPath6">
      <path
         id="path6"
         style="display:inline;fill:#ffffff;fill-opacity:1;stroke-width:2.14478"
         d="m 17.703163,14.181643 c -2.348662,0.06982 -4.687117,0.339295 -7.000029,0.808593 -1.0844771,0.220733 -1.787148,1.278842 -1.5664133,2.365235 0.220734,1.084473 1.2788463,1.787139 2.3652443,1.566406 4.176679,-0.848386 8.451642,-0.973893 12.703178,-0.376953 4.251536,0.59694 8.324243,1.895874 12.10552,3.863281 0.209218,0.107487 0.425753,0.176321 0.646487,0.207031 0.817151,0.115091 1.657175,-0.28608 2.060556,-1.060547 0.509314,-0.982456 0.126739,-2.192838 -0.855473,-2.703125 -4.188196,-2.178543 -8.693972,-3.619015 -13.398493,-4.279296 -2.352261,-0.330141 -4.711915,-0.460444 -7.060577,-0.390625 z m -0.05664,7.273437 c -2.029077,0.07702 -4.047713,0.334849 -6.041041,0.773438 -0.879098,0.193861 -1.436055,1.064264 -1.242193,1.943359 0.149716,0.685234 0.710716,1.173495 1.365241,1.265625 0.188105,0.02687 0.382346,0.01879 0.578127,-0.02344 C 15.913266,24.62134 19.609714,24.481757 23.296937,25 c 3.687225,0.518244 7.203541,1.671463 10.451216,3.427734 0.790805,0.428031 1.780962,0.132598 2.208994,-0.658203 v -0.002 C 36.38518,26.974809 36.091666,25.986579 35.298941,25.558547 31.709608,23.616092 27.823128,22.341472 23.752017,21.769484 21.715503,21.483491 19.6756,21.378014 17.646523,21.455031 Z m 2.570324,6.509766 c -2.62542,-0.121194 -5.237349,0.13006 -7.796908,0.751953 -0.67372,0.16315 -1.086984,0.839956 -0.923832,1.513672 0.163152,0.673717 0.839959,1.086978 1.513678,0.923828 3.103718,-0.754332 6.296277,-0.910083 9.486368,-0.460938 3.190093,0.449144 6.214778,1.47891 8.990272,3.058594 0.142038,0.08061 0.293679,0.129271 0.445315,0.150391 0.495212,0.0691 1.004587,-0.160433 1.26563,-0.621094 h 0.002 c 0.34166,-0.602698 0.130076,-1.367361 -0.470705,-1.710938 -3.053813,-1.737077 -6.377977,-2.866084 -9.882854,-3.359375 -0.87622,-0.123322 -1.753778,-0.205696 -2.628917,-0.246093 z" />
    </clipPath>
    <clipPath
       clipPathUnits="userSpaceOnUse"
       id="clipPath7">
      <path
         id="path7"
         style="display:inline;fill:#ffffff;fill-opacity:1;stroke-width:2.14478"
         d="m 17.703127,14.181643 c -2.348652,0.06982 -4.687097,0.339295 -7,0.808593 -1.0844721,0.220733 -1.7871401,1.278842 -1.5664063,2.365235 0.220733,1.084473 1.2788413,1.787139 2.3652343,1.566406 4.176661,-0.848386 8.451607,-0.973893 12.703125,-0.376953 4.251518,0.59694 8.324208,1.895874 12.105469,3.863281 0.209217,0.107487 0.425751,0.176321 0.646484,0.207031 0.817148,0.115091 1.657168,-0.28608 2.060547,-1.060547 0.509312,-0.982456 0.126739,-2.192838 -0.855469,-2.703125 -4.188178,-2.178543 -8.693935,-3.619015 -13.398437,-4.279296 -2.352251,-0.330141 -4.711895,-0.460444 -7.060547,-0.390625 z m -0.05664,7.273437 c -2.029068,0.07702 -4.047696,0.334849 -6.041015,0.773438 -0.879095,0.193861 -1.436049,1.064264 -1.242188,1.943359 0.149715,0.685234 0.710713,1.173495 1.365235,1.265625 0.188104,0.02687 0.382344,0.01879 0.578125,-0.02344 C 15.913238,24.62134 19.60967,24.481757 23.296878,25 c 3.687209,0.518244 7.20351,1.671463 10.451172,3.427734 0.790801,0.428031 1.780954,0.132598 2.208984,-0.658203 v -0.002 c 0.428032,-0.792722 0.134519,-1.780952 -0.658203,-2.208984 -3.589318,-1.942455 -7.475782,-3.217075 -11.546875,-3.789063 -2.036506,-0.285993 -4.0764,-0.39147 -6.105469,-0.314453 z m 2.570313,6.509766 c -2.625409,-0.121194 -5.237327,0.13006 -7.796875,0.751953 -0.673717,0.16315 -1.086979,0.839956 -0.923828,1.513672 0.163151,0.673717 0.839956,1.086978 1.513672,0.923828 3.103705,-0.754332 6.29625,-0.910083 9.486328,-0.460938 3.190079,0.449144 6.214752,1.47891 8.990234,3.058594 0.142038,0.08061 0.293678,0.129271 0.445313,0.150391 0.49521,0.0691 1.004583,-0.160433 1.265625,-0.621094 h 0.002 c 0.341658,-0.602698 0.130075,-1.367361 -0.470703,-1.710938 -3.0538,-1.737077 -6.37795,-2.866084 -9.882813,-3.359375 -0.876216,-0.123322 -1.75377,-0.205696 -2.628906,-0.246093 z" />
    </clipPath>
  </defs>
  <g
     id="g1"
     transform="translate(0.49999809,0.49999809)">
    <circle
       style="display:inline;opacity:1;fill:url(#linearGradient11);stroke:none;stroke-width:0.999999;stroke-opacity:1"
       id="path10"
       cx="23.500002"
       cy="23.500002"
       r="21" />
    <circle
       style="display:inline;opacity:0.5;fill:none;stroke:#1c8a42;stroke-width:0.999997;stroke-dasharray:none;stroke-opacity:1"
       id="path1-5"
       cx="23.500002"
       cy="23.500002"
       r="21.000002" />
    <circle
       style="display:inline;opacity:0.3;fill:none;stroke:url(#linearGradient4);stroke-width:0.999993;stroke-dasharray:none;stroke-opacity:1"
       id="path1-7"
       cx="23.500002"
       cy="23.500002"
       r="20.000002" />
    <g
       id="g13">
      <path
         id="path2"
         style="display:inline;opacity:0.15;fill:none;stroke:#ffffff;stroke-width:1;stroke-dasharray:none;stroke-opacity:1"
         d="m 17.703127,14.681272 c -2.348652,0.06982 -4.687097,0.339295 -7,0.808593 -1.0844719,0.220733 -1.7871401,1.278842 -1.5664063,2.365235 0.220733,1.084473 1.2788413,1.787139 2.3652343,1.566406 4.176661,-0.848386 8.451607,-0.973893 12.703125,-0.376953 4.251518,0.59694 8.324208,1.895874 12.105469,3.863281 0.209217,0.107487 0.425751,0.176321 0.646484,0.207031 0.817148,0.115091 1.657168,-0.28608 2.060547,-1.060547 0.509312,-0.982456 0.126739,-2.192838 -0.855469,-2.703125 -4.188178,-2.178543 -8.693935,-3.619015 -13.398437,-4.279296 -2.352251,-0.330141 -4.711895,-0.460444 -7.060547,-0.390625 z m -0.05664,7.273437 c -2.029068,0.07702 -4.047696,0.334849 -6.041015,0.773438 -0.879095,0.193861 -1.436049,1.064264 -1.242188,1.943359 0.149715,0.685234 0.710713,1.173495 1.365235,1.265625 0.188104,0.02687 0.382344,0.01879 0.578125,-0.02344 3.606594,-0.792722 7.303026,-0.932305 10.990234,-0.414062 3.687209,0.518244 7.20351,1.671463 10.451172,3.427734 0.790801,0.428031 1.780954,0.132598 2.208984,-0.658203 v -0.002 c 0.428032,-0.792722 0.134519,-1.780952 -0.658203,-2.208984 -3.589318,-1.942455 -7.475782,-3.217075 -11.546875,-3.789063 -2.036506,-0.285993 -4.0764,-0.39147 -6.105469,-0.314453 z m 2.570313,6.509766 c -2.625409,-0.121194 -5.237327,0.13006 -7.796875,0.751953 -0.673717,0.16315 -1.086979,0.839956 -0.923828,1.513672 0.163151,0.673717 0.839956,1.086978 1.513672,0.923828 3.103705,-0.754332 6.29625,-0.910083 9.486328,-0.460938 3.190079,0.449144 6.214752,1.47891 8.990234,3.058594 0.142038,0.08061 0.293678,0.129271 0.445313,0.150391 0.49521,0.0691 1.004583,-0.160433 1.265625,-0.621094 h 0.002 c 0.341658,-0.602698 0.130075,-1.367361 -0.470703,-1.710938 -3.0538,-1.737077 -6.37795,-2.866084 -9.882813,-3.359375 -0.876216,-0.123322 -1.75377,-0.205696 -2.628906,-0.246093 z" />
      <path
         id="path14"
         style="display:inline;opacity:0.15;fill:none;stroke:#ffffff;stroke-width:0.5;stroke-dasharray:none;stroke-opacity:1"
         d="m 17.703127,14.381272 c -2.348652,0.06982 -4.687097,0.339295 -7,0.808593 -1.0844719,0.220733 -1.7871401,1.278842 -1.5664063,2.365235 0.220733,1.084473 1.2788413,1.787139 2.3652343,1.566406 4.176661,-0.848386 8.451607,-0.973893 12.703125,-0.376953 4.251518,0.59694 8.324208,1.895874 12.105469,3.863281 0.209217,0.107487 0.425751,0.176321 0.646484,0.207031 0.817148,0.115091 1.657168,-0.28608 2.060547,-1.060547 0.509312,-0.982456 0.126739,-2.192838 -0.855469,-2.703125 -4.188178,-2.178543 -8.693935,-3.619015 -13.398437,-4.279296 -2.352251,-0.330141 -4.711895,-0.460444 -7.060547,-0.390625 z m -0.05664,7.273437 c -2.029068,0.07702 -4.047696,0.334849 -6.041015,0.773438 -0.879095,0.193861 -1.436049,1.064264 -1.242188,1.943359 0.149715,0.685234 0.710713,1.173495 1.365235,1.265625 0.188104,0.02687 0.382344,0.01879 0.578125,-0.02344 3.606594,-0.792722 7.303026,-0.932305 10.990234,-0.414062 3.687209,0.518244 7.20351,1.671463 10.451172,3.427734 0.790801,0.428031 1.780954,0.132598 2.208984,-0.658203 v -0.002 c 0.428032,-0.792722 0.134519,-1.780952 -0.658203,-2.208984 -3.589318,-1.942455 -7.475782,-3.217075 -11.546875,-3.789063 -2.036506,-0.285993 -4.0764,-0.39147 -6.105469,-0.314453 z m 2.570313,6.509766 c -2.625409,-0.121194 -5.237327,0.13006 -7.796875,0.751953 -0.673717,0.16315 -1.086979,0.839956 -0.923828,1.513672 0.163151,0.673717 0.839956,1.086978 1.513672,0.923828 3.103705,-0.754332 6.29625,-0.910083 9.486328,-0.460938 3.190079,0.449144 6.214752,1.47891 8.990234,3.058594 0.142038,0.08061 0.293678,0.129271 0.445313,0.150391 0.49521,0.0691 1.004583,-0.160433 1.265625,-0.621094 h 0.002 c 0.341658,-0.602698 0.130075,-1.367361 -0.470703,-1.710938 -3.0538,-1.737077 -6.37795,-2.866084 -9.882813,-3.359375 -0.876216,-0.123322 -1.75377,-0.205696 -2.628906,-0.246093 z" />
      <path
         id="path1"
         style="display:inline;fill:url(#linearGradient2);stroke-width:2.14478"
         d="m 17.703127,14.181643 c -2.348652,0.06982 -4.687097,0.339295 -7,0.808593 -1.0844719,0.220733 -1.7871401,1.278842 -1.5664063,2.365235 0.220733,1.084473 1.2788413,1.787139 2.3652343,1.566406 4.176661,-0.848386 8.451607,-0.973893 12.703125,-0.376953 4.251518,0.59694 8.324208,1.895874 12.105469,3.863281 0.209217,0.107487 0.425751,0.176321 0.646484,0.207031 0.817148,0.115091 1.657168,-0.28608 2.060547,-1.060547 0.509312,-0.982456 0.126739,-2.192838 -0.855469,-2.703125 -4.188178,-2.178543 -8.693935,-3.619015 -13.398437,-4.279296 -2.352251,-0.330141 -4.711895,-0.460444 -7.060547,-0.390625 z m -0.05664,7.273437 c -2.029068,0.07702 -4.047696,0.334849 -6.041015,0.773438 -0.879095,0.193861 -1.436049,1.064264 -1.242188,1.943359 0.149715,0.685234 0.710713,1.173495 1.365235,1.265625 0.188104,0.02687 0.382344,0.01879 0.578125,-0.02344 C 15.913238,24.62134 19.60967,24.481757 23.296878,25 c 3.687209,0.518244 7.20351,1.671463 10.451172,3.427734 0.790801,0.428031 1.780954,0.132598 2.208984,-0.658203 v -0.002 c 0.428032,-0.792722 0.134519,-1.780952 -0.658203,-2.208984 -3.589318,-1.942455 -7.475782,-3.217075 -11.546875,-3.789063 -2.036506,-0.285993 -4.0764,-0.39147 -6.105469,-0.314453 z m 2.570313,6.509766 c -2.625409,-0.121194 -5.237327,0.13006 -7.796875,0.751953 -0.673717,0.16315 -1.086979,0.839956 -0.923828,1.513672 0.163151,0.673717 0.839956,1.086978 1.513672,0.923828 3.103705,-0.754332 6.29625,-0.910083 9.486328,-0.460938 3.190079,0.449144 6.214752,1.47891 8.990234,3.058594 0.142038,0.08061 0.293678,0.129271 0.445313,0.150391 0.49521,0.0691 1.004583,-0.160433 1.265625,-0.621094 h 0.002 c 0.341658,-0.602698 0.130075,-1.367361 -0.470703,-1.710938 -3.0538,-1.737077 -6.37795,-2.866084 -9.882813,-3.359375 -0.876216,-0.123322 -1.75377,-0.205696 -2.628906,-0.246093 z" />
      <path
         id="path18"
         style="display:inline;opacity:0.15;fill:none;fill-opacity:1;stroke:#000000;stroke-width:0.5;stroke-dasharray:none;stroke-opacity:1"
         d="m 17.703535,14.431272 c -2.348662,0.06982 -4.687117,0.339295 -7.000029,0.808593 -1.0844768,0.220733 -1.787148,1.278842 -1.5664133,2.365235 0.220734,1.084473 1.2788463,1.856177 2.3652443,1.635444 4.176679,-0.848386 8.451642,-0.973893 12.703178,-0.376953 4.251536,0.59694 8.324243,1.895874 12.10552,3.863281 0.209218,0.107487 0.425753,0.176321 0.646487,0.207031 0.817151,0.115091 1.657175,-0.355118 2.060556,-1.129585 0.509314,-0.982456 0.126739,-2.192838 -0.855473,-2.703125 -4.188196,-2.178543 -8.693972,-3.619015 -13.398493,-4.279296 -2.352261,-0.330141 -4.711915,-0.460444 -7.060577,-0.390625 z m -0.05664,7.273437 c -2.029077,0.07702 -4.047713,0.334849 -6.041041,0.773438 -0.879098,0.193861 -1.436055,1.064264 -1.242193,1.943359 0.149716,0.685234 0.710716,1.242533 1.365241,1.334663 0.188105,0.02687 0.382346,0.01879 0.578127,-0.02344 3.606609,-0.792722 7.303057,-0.932305 10.99028,-0.414062 3.687225,0.518244 7.203541,1.671463 10.451216,3.427734 0.790805,0.428031 1.780962,0.06356 2.208994,-0.727241 v -0.002 C 36.385552,27.224438 36.092038,26.236208 35.299313,25.808176 31.70998,23.865721 27.8235,22.591101 23.752389,22.019113 21.715875,21.73312 19.675972,21.627643 17.646895,21.70466 Z m 2.570324,6.509766 c -2.62542,-0.121194 -5.237349,0.13006 -7.796908,0.751953 -0.67372,0.16315 -1.086984,0.839956 -0.923832,1.513672 0.163152,0.673717 0.839959,1.156016 1.513678,0.992866 3.103718,-0.754332 6.296277,-0.910083 9.486368,-0.460938 3.190093,0.449144 6.214778,1.47891 8.990272,3.058594 0.142038,0.08061 0.293679,0.129271 0.445315,0.150391 0.495212,0.0691 1.004587,-0.229471 1.26563,-0.690132 h 0.002 c 0.34166,-0.602698 0.130076,-1.367361 -0.470705,-1.710938 -3.053813,-1.737077 -6.377977,-2.866084 -9.882854,-3.359375 -0.87622,-0.123322 -1.753778,-0.205696 -2.628917,-0.246093 z"
         clip-path="url(#clipPath6)" />
      <path
         id="path21"
         style="display:inline;opacity:0.15;fill:none;stroke:#000000;stroke-width:1;stroke-dasharray:none;stroke-opacity:1"
         d="m 17.703127,14.681272 c -2.348652,0.06982 -4.687097,0.339295 -7,0.808593 -1.0844719,0.220733 -1.7871401,1.278842 -1.5664063,2.365235 0.220733,1.084473 1.2788413,1.856751 2.3652343,1.636018 4.176661,-0.848386 8.451607,-0.973893 12.703125,-0.376953 4.251518,0.59694 8.324208,1.895874 12.105469,3.863281 0.209217,0.107487 0.425751,0.176321 0.646484,0.207031 0.817148,0.115091 1.657168,-0.355692 2.060547,-1.130159 0.509312,-0.982456 0.126739,-2.192838 -0.855469,-2.703125 -4.188178,-2.178543 -8.693935,-3.619015 -13.398437,-4.279296 -2.352251,-0.330141 -4.711895,-0.460444 -7.060547,-0.390625 z m -0.05664,7.273437 c -2.029068,0.07702 -4.047696,0.334849 -6.041015,0.773438 -0.879095,0.193861 -1.436049,1.064264 -1.242188,1.943359 0.149715,0.685234 0.710713,1.243107 1.365235,1.335237 0.188104,0.02687 0.382344,0.01879 0.578125,-0.02344 3.606594,-0.792722 7.303026,-0.932305 10.990234,-0.414062 3.687209,0.518244 7.20351,1.671463 10.451172,3.427734 0.790801,0.428031 1.780954,0.06299 2.208984,-0.727815 v -0.002 c 0.428032,-0.792722 0.134519,-1.780952 -0.658203,-2.208984 -3.589318,-1.942455 -7.475782,-3.217075 -11.546875,-3.789063 -2.036506,-0.285993 -4.0764,-0.39147 -6.105469,-0.314453 z m 2.570313,6.509766 c -2.625409,-0.121194 -5.237327,0.13006 -7.796875,0.751953 -0.673717,0.16315 -1.086979,0.839956 -0.923828,1.513672 0.163151,0.673717 0.839956,1.15659 1.513672,0.99344 3.103705,-0.754332 6.29625,-0.910083 9.486328,-0.460938 3.190079,0.449144 6.214752,1.47891 8.990234,3.058594 0.142038,0.08061 0.293678,0.129271 0.445313,0.150391 0.49521,0.0691 1.004583,-0.230045 1.265625,-0.690706 h 0.002 c 0.341658,-0.602698 0.130075,-1.367361 -0.470703,-1.710938 -3.0538,-1.737077 -6.37795,-2.866084 -9.882813,-3.359375 -0.876216,-0.123322 -1.75377,-0.205696 -2.628906,-0.246093 z"
         clip-path="url(#clipPath7)" />
      <rect
         style="display:inline;opacity:0.3;fill:none;fill-opacity:1;stroke:none;stroke-opacity:1"
         id="rect12"
         width="48"
         height="48"
         x="-0.49999809"
         y="-0.49999809" />
    </g>
  </g>
</svg>
