<?xml version="1.0" encoding="UTF-8" standalone="no"?>
<svg
   width="48"
   height="48"
   viewBox="0 0 48 48"
   fill="none"
   version="1.1"
   id="svg4"
   xml:space="preserve"
   sodipodi:docname="wezterm.svg"
   inkscape:version="1.4 (e7c3feb100, 2024-10-09)"
   xmlns:inkscape="http://www.inkscape.org/namespaces/inkscape"
   xmlns:sodipodi="http://sodipodi.sourceforge.net/DTD/sodipodi-0.dtd"
   xmlns:xlink="http://www.w3.org/1999/xlink"
   xmlns="http://www.w3.org/2000/svg"
   xmlns:svg="http://www.w3.org/2000/svg"><sodipodi:namedview
     id="namedview1"
     pagecolor="#ffffff"
     bordercolor="#000000"
     borderopacity="0.25"
     inkscape:showpageshadow="2"
     inkscape:pageopacity="0.0"
     inkscape:pagecheckerboard="0"
     inkscape:deskcolor="#d1d1d1"
     showgrid="false"
     inkscape:zoom="2.185"
     inkscape:cx="33.867277"
     inkscape:cy="27.688787"
     inkscape:current-layer="svg4"><inkscape:grid
       id="grid1"
       units="px"
       originx="-74"
       originy="0"
       spacingx="0.5"
       spacingy="0.5"
       empcolor="#0099e5"
       empopacity="0.30196078"
       color="#0099e5"
       opacity="0.078431373"
       empspacing="2"
       enabled="true"
       visible="false" /><inkscape:page
       x="0"
       y="0"
       width="48"
       height="48"
       id="page5"
       margin="0"
       bleed="0" /></sodipodi:namedview><defs
     id="defs4"><inkscape:path-effect
       effect="offset"
       id="path-effect1"
       is_visible="true"
       lpeversion="1.3"
       linejoin_type="miter"
       unit="px"
       offset="-0.5"
       miter_limit="4"
       attempt_force_join="false"
       update_on_knot_move="true" /><linearGradient
       id="linearGradient19"
       inkscape:collect="always"><stop
         style="stop-color:#e4c6fa;stop-opacity:1;"
         offset="0"
         id="stop19" /><stop
         style="stop-color:#cd9ef7;stop-opacity:1;"
         offset="1"
         id="stop20" /></linearGradient><inkscape:path-effect
       effect="offset"
       id="path-effect17"
       is_visible="true"
       lpeversion="1.3"
       linejoin_type="miter"
       unit="px"
       offset="-0.5"
       miter_limit="4"
       attempt_force_join="false"
       update_on_knot_move="true" /><linearGradient
       id="linearGradient48"><stop
         style="stop-color:#ffffff;stop-opacity:1;"
         offset="0"
         id="stop48" /><stop
         style="stop-color:#ffffff;stop-opacity:0;"
         offset="1"
         id="stop49" /></linearGradient><linearGradient
       id="linearGradient909"><stop
         id="stop907"
         style="stop-color:#120031;stop-opacity:1;"
         offset="0" /><stop
         id="stop901"
         style="stop-color:#403c8e;stop-opacity:1;"
         offset="1" /></linearGradient><linearGradient
       id="linearGradient3688-166-749-654"><stop
         offset="0"
         style="stop-color:#181818;stop-opacity:1"
         id="stop3088" /><stop
         offset="1"
         style="stop-color:#181818;stop-opacity:0"
         id="stop3090" /></linearGradient><linearGradient
       id="linearGradient3702-501-757-795"><stop
         offset="0"
         style="stop-color:#181818;stop-opacity:0"
         id="stop3100" /><stop
         offset="0.5"
         style="stop-color:#181818;stop-opacity:1"
         id="stop3102" /><stop
         offset="1"
         style="stop-color:#181818;stop-opacity:0"
         id="stop3104" /></linearGradient><linearGradient
       id="linearGradient1"><stop
         style="stop-color:#c6262e;stop-opacity:1;"
         offset="0"
         id="stop4" /><stop
         style="stop-color:#f37329;stop-opacity:1;"
         offset="0.5"
         id="stop6" /><stop
         style="stop-color:#f9c440;stop-opacity:1;"
         offset="1"
         id="stop5" /></linearGradient><linearGradient
       id="linearGradient2"><stop
         style="stop-color:#d4d4d4;stop-opacity:1;"
         offset="0"
         id="stop7" /><stop
         style="stop-color:#7e8087;stop-opacity:1;"
         offset="1"
         id="stop8" /></linearGradient><linearGradient
       id="linearGradient1201"><stop
         id="stop1193"
         style="stop-color:#ffffff;stop-opacity:1"
         offset="0" /><stop
         id="stop1195"
         style="stop-color:#ffffff;stop-opacity:0.23529412"
         offset="0.06781636" /><stop
         id="stop1197"
         style="stop-color:#ffffff;stop-opacity:0.15686275"
         offset="0.94694352" /><stop
         id="stop1199"
         style="stop-color:#ffffff;stop-opacity:0.39215687"
         offset="1" /></linearGradient><linearGradient
       xlink:href="#linearGradient3702-501-757-795"
       id="linearGradient1191"
       gradientUnits="userSpaceOnUse"
       x1="25.058096"
       y1="47.027729"
       x2="25.058096"
       y2="39.999443"
       gradientTransform="matrix(1.1428571,0,0,0.6428571,-3.428569,16.035716)" /><linearGradient
       xlink:href="#linearGradient909"
       id="linearGradient15-7"
       gradientUnits="userSpaceOnUse"
       x1="24"
       y1="8"
       x2="24"
       y2="42.5" /><linearGradient
       xlink:href="#linearGradient1"
       id="linearGradient16"
       gradientUnits="userSpaceOnUse"
       gradientTransform="translate(-1,-1)"
       x1="25"
       y1="15"
       x2="25"
       y2="35" /><linearGradient
       id="linearGradient12-1"><stop
         id="stop9"
         style="stop-color:#ffffff;stop-opacity:1"
         offset="0" /><stop
         id="stop10-7"
         style="stop-color:#ffffff;stop-opacity:0.23529412"
         offset="0.03571429" /><stop
         id="stop11-2"
         style="stop-color:#ffffff;stop-opacity:0.15686275"
         offset="0.96428573" /><stop
         id="stop12"
         style="stop-color:#ffffff;stop-opacity:0.39215687"
         offset="1" /></linearGradient><radialGradient
       cx="4.9929786"
       cy="43.5"
       r="2.5"
       fx="4.9929786"
       fy="43.5"
       id="radialGradient3013-6-1-7-0"
       xlink:href="#linearGradient3688-166-749-654"
       gradientUnits="userSpaceOnUse"
       gradientTransform="matrix(2.003784,0,0,0.89999994,29.98813,4.8500025)" /><radialGradient
       cx="4.9929786"
       cy="43.5"
       r="2.5"
       fx="4.9929786"
       fy="43.5"
       id="radialGradient3015-1-8-9"
       xlink:href="#linearGradient3688-166-749-654"
       gradientUnits="userSpaceOnUse"
       gradientTransform="matrix(2.003784,0,0,0.89999994,-18.01187,-83.149997)" /><filter
       style="color-interpolation-filters:sRGB"
       id="filter1-0-9"
       x="-0.38399999"
       y="-0.128"
       width="1.768"
       height="1.256"><feGaussianBlur
         stdDeviation="0.32"
         id="feGaussianBlur1-2" /></filter><linearGradient
       inkscape:collect="always"
       xlink:href="#linearGradient1201"
       id="linearGradient13"
       gradientUnits="userSpaceOnUse"
       gradientTransform="translate(0,1.0000062)"
       x1="38.999996"
       y1="5.9999938"
       x2="38.999996"
       y2="41.945408" /><linearGradient
       inkscape:collect="always"
       xlink:href="#linearGradient2"
       id="linearGradient14"
       gradientUnits="userSpaceOnUse"
       x1="24.5"
       y1="6"
       x2="24.5"
       y2="43.999996" /><linearGradient
       inkscape:collect="always"
       xlink:href="#linearGradient48"
       id="linearGradient18-1"
       gradientUnits="userSpaceOnUse"
       x1="24"
       y1="9"
       x2="24"
       y2="31" /><linearGradient
       inkscape:collect="always"
       xlink:href="#linearGradient19"
       id="linearGradient20"
       x1="22"
       y1="15"
       x2="22"
       y2="35"
       gradientUnits="userSpaceOnUse" /><filter
       inkscape:collect="always"
       style="color-interpolation-filters:sRGB"
       id="filter20"
       x="-0.090782179"
       y="-0.13327751"
       width="1.1815644"
       height="1.266555"><feGaussianBlur
         inkscape:collect="always"
         stdDeviation="1.0880859"
         id="feGaussianBlur20" /></filter><linearGradient
       inkscape:collect="always"
       xlink:href="#linearGradient12-1"
       id="linearGradient10"
       x1="23"
       y1="18"
       x2="23"
       y2="32"
       gradientUnits="userSpaceOnUse" /></defs><g
     id="g8-2-3"><rect
       style="opacity:0.6;fill:url(#radialGradient3013-6-1-7-0);fill-opacity:1;stroke:none;stroke-width:0.862764"
       id="rect2801-3-7-8-7"
       y="41.75"
       x="40"
       height="4.4999995"
       width="5" /><rect
       style="opacity:0.6;fill:url(#radialGradient3015-1-8-9);fill-opacity:1;stroke:none;stroke-width:0.862764"
       id="rect3696-6-3-9-5"
       transform="scale(-1)"
       y="-46.25"
       x="-8"
       height="4.4999995"
       width="5" /><rect
       style="opacity:0.6;fill:url(#linearGradient1191);fill-opacity:1;stroke:none;stroke-width:0.862764"
       id="rect3700-4-6-7-9"
       y="41.75"
       x="8"
       height="4.5"
       width="32" /></g><g
     id="g2"><rect
       style="color:#000000;font-variation-settings:normal;display:inline;overflow:visible;visibility:visible;vector-effect:none;fill:url(#linearGradient14);fill-opacity:1;fill-rule:nonzero;stroke:#7e8087;stroke-width:1;stroke-linecap:butt;stroke-linejoin:miter;stroke-miterlimit:4;stroke-dasharray:none;stroke-dashoffset:0;stroke-opacity:0.498039;marker:none;enable-background:accumulate;stop-color:#000000"
       id="rect9"
       y="5.4999952"
       x="4.5000229"
       ry="4"
       rx="4"
       height="39"
       width="39" /><rect
       style="display:inline;fill:none;stroke:url(#linearGradient13);stroke-width:1;stroke-linecap:round;stroke-linejoin:round;stroke-miterlimit:4;stroke-dasharray:none;stroke-dashoffset:0;stroke-opacity:1"
       id="rect10"
       y="6.4999952"
       x="5.5000229"
       ry="3"
       rx="3"
       height="37"
       width="37" /></g><g
     id="g3"><rect
       style="opacity:1;fill:url(#linearGradient15-7);stroke:none;stroke-linejoin:round;stroke-opacity:1"
       id="rect8-1-8"
       width="33"
       height="33"
       x="7.5"
       y="8.5"
       rx="1"
       ry="1" /><rect
       style="display:inline;opacity:1;fill:none;stroke:#091825;stroke-linejoin:round;stroke-opacity:0.496845"
       id="rect1-9-9"
       width="33"
       height="33"
       x="7.5"
       y="8.5"
       rx="1"
       ry="1" /></g><g
     id="g4"><path
       id="path22"
       style="font-style:italic;font-weight:bold;font-size:24px;font-family:Cousine;-inkscape-font-specification:'Cousine Bold Italic';opacity:0.15;fill:#000000;stroke-width:2;stroke-linecap:round;stroke-linejoin:round;stroke:#000000;stroke-opacity:1"
       d="m 17.460938,16.410156 -0.304688,1.570313 c -0.992187,0.03906 -1.875,0.1875 -2.648438,0.445312 -0.773437,0.257813 -1.421875,0.625 -1.945312,1.101563 -0.523437,0.476562 -0.914062,1.042968 -1.171875,1.699218 -0.25,0.65625 -0.375,1.320313 -0.375,1.992188 0,0.90625 0.300781,1.65625 0.902344,2.25 0.601562,0.59375 1.648437,1.070313 3.140625,1.429688 0.03125,0 0.08984,0.01172 0.175781,0.03516 0.09375,0.01562 0.148436,0.03125 0.164063,0.04687 L 14.507812,31.5625 c -0.773437,-0.07813 -1.34375,-0.308594 -1.710937,-0.691406 -0.359375,-0.382813 -0.539063,-1 -0.539063,-1.851563 v -0.128906 l -3.1054682,0.550781 c -1e-7,1.507813 0.3984377,2.628907 1.1953122,3.363282 0.796876,0.726562 2.027344,1.121093 3.691406,1.183593 l -0.386718,2.015625 h 1.277344 l 0.398437,-2.050781 c 1.09375,-0.04687 2.050781,-0.207031 2.871094,-0.480469 0.820312,-0.28125 1.507812,-0.667969 2.0625,-1.160156 0.554687,-0.5 0.976562,-1.105469 1.265625,-1.816406 0.289062,-0.71875 0.433594,-1.445312 0.433594,-2.179688 0,-0.679687 -0.152344,-1.253906 -0.457032,-1.722656 -0.304687,-0.46875 -0.738281,-0.863281 -1.300781,-1.183594 -0.5625,-0.320312 -1.488281,-0.640625 -2.777344,-0.960937 l -0.246093,-0.04687 0.808593,-4.125 c 1.164063,0.164062 1.746094,0.890625 1.746094,2.179687 v 0.08203 l 3.1875,-0.457031 c -0.07031,-1.421874 -0.457032,-2.445312 -1.160156,-3.070312 -0.703126,-0.632814 -1.812501,-0.976564 -3.328125,-1.03125 l 0.304687,-1.570313 z m 6.066406,1.78125 L 26,34 h 2.90625 l 0.914062,-3.65625 0.515626,-2.074219 0.410156,-1.722656 c 0.3125,1.40625 0.664063,2.847656 1.054687,4.324219 L 32.550781,34 h 2.90625 l 2.460938,-15.808594 h -3.035157 l -0.984374,8.144532 c -0.07813,0.609375 -0.140627,1.542968 -0.1875,2.800781 l -0.02344,0.316406 c -0.179687,-0.875 -0.308593,-1.480469 -0.386719,-1.816406 -0.07031,-0.34375 -0.15625,-0.691406 -0.257812,-1.042969 L 31.882812,22.621094 H 29.597656 L 28.4375,26.59375 27.96875,28.5625 27.792969,29.453125 c -0.03125,-1.328125 -0.09375,-2.367187 -0.1875,-3.117187 L 26.5625,18.191406 Z m -6.816406,2.039063 -0.75,3.890625 C 15.3125,23.886718 14.898437,23.710937 14.71875,23.59375 14.546875,23.476563 14.410156,23.335938 14.308594,23.171875 14.207031,23.007812 14.15625,22.800781 14.15625,22.550781 l 0.04687,-0.445312 c 0.226563,-1.140626 1.0625,-1.765626 2.507813,-1.875 z m -0.08203,7.03125 c 0.304688,0.09375 0.589844,0.183594 0.855469,0.269531 0.265625,0.07813 0.5,0.179688 0.703125,0.304688 0.203125,0.125 0.363281,0.277343 0.480469,0.457031 0.117187,0.179687 0.175781,0.410156 0.175781,0.691406 0,0.445313 -0.113281,0.867188 -0.339844,1.265625 -0.21875,0.390625 -0.558594,0.695312 -1.019531,0.914062 -0.460937,0.218752 -1.027343,0.351565 -1.699219,0.398438 z" /><path
       id="path21"
       style="font-style:italic;font-weight:bold;font-size:24px;font-family:Cousine;-inkscape-font-specification:'Cousine Bold Italic';opacity:0.15;fill:#000000;stroke-width:2;stroke-linecap:round;stroke-linejoin:round"
       d="m 17.460938,16.410156 -0.304688,1.570313 c -0.992187,0.03906 -1.875,0.1875 -2.648438,0.445312 -0.773437,0.257813 -1.421875,0.625 -1.945312,1.101563 -0.523437,0.476562 -0.914062,1.042968 -1.171875,1.699218 -0.25,0.65625 -0.375,1.320313 -0.375,1.992188 0,0.90625 0.300781,1.65625 0.902344,2.25 0.601562,0.59375 1.648437,1.070313 3.140625,1.429688 0.03125,0 0.08984,0.01172 0.175781,0.03516 0.09375,0.01562 0.148436,0.03125 0.164063,0.04687 L 14.507812,31.5625 c -0.773437,-0.07813 -1.34375,-0.308594 -1.710937,-0.691406 -0.359375,-0.382813 -0.539063,-1 -0.539063,-1.851563 v -0.128906 l -3.1054682,0.550781 c -1e-7,1.507813 0.3984377,2.628907 1.1953122,3.363282 0.796876,0.726562 2.027344,1.121093 3.691406,1.183593 l -0.386718,2.015625 h 1.277344 l 0.398437,-2.050781 c 1.09375,-0.04687 2.050781,-0.207031 2.871094,-0.480469 0.820312,-0.28125 1.507812,-0.667969 2.0625,-1.160156 0.554687,-0.5 0.976562,-1.105469 1.265625,-1.816406 0.289062,-0.71875 0.433594,-1.445312 0.433594,-2.179688 0,-0.679687 -0.152344,-1.253906 -0.457032,-1.722656 -0.304687,-0.46875 -0.738281,-0.863281 -1.300781,-1.183594 -0.5625,-0.320312 -1.488281,-0.640625 -2.777344,-0.960937 l -0.246093,-0.04687 0.808593,-4.125 c 1.164063,0.164062 1.746094,0.890625 1.746094,2.179687 v 0.08203 l 3.1875,-0.457031 c -0.07031,-1.421874 -0.457032,-2.445312 -1.160156,-3.070312 -0.703126,-0.632814 -1.812501,-0.976564 -3.328125,-1.03125 l 0.304687,-1.570313 z m 6.066406,1.78125 L 26,34 h 2.90625 l 0.914062,-3.65625 0.515626,-2.074219 0.410156,-1.722656 c 0.3125,1.40625 0.664063,2.847656 1.054687,4.324219 L 32.550781,34 h 2.90625 l 2.460938,-15.808594 h -3.035157 l -0.984374,8.144532 c -0.07813,0.609375 -0.140627,1.542968 -0.1875,2.800781 l -0.02344,0.316406 c -0.179687,-0.875 -0.308593,-1.480469 -0.386719,-1.816406 -0.07031,-0.34375 -0.15625,-0.691406 -0.257812,-1.042969 L 31.882812,22.621094 H 29.597656 L 28.4375,26.59375 27.96875,28.5625 27.792969,29.453125 c -0.03125,-1.328125 -0.09375,-2.367187 -0.1875,-3.117187 L 26.5625,18.191406 Z m -6.816406,2.039063 -0.75,3.890625 C 15.3125,23.886718 14.898437,23.710937 14.71875,23.59375 14.546875,23.476563 14.410156,23.335938 14.308594,23.171875 14.207031,23.007812 14.15625,22.800781 14.15625,22.550781 l 0.04687,-0.445312 c 0.226563,-1.140626 1.0625,-1.765626 2.507813,-1.875 z m -0.08203,7.03125 c 0.304688,0.09375 0.589844,0.183594 0.855469,0.269531 0.265625,0.07813 0.5,0.179688 0.703125,0.304688 0.203125,0.125 0.363281,0.277343 0.480469,0.457031 0.117187,0.179687 0.175781,0.410156 0.175781,0.691406 0,0.445313 -0.113281,0.867188 -0.339844,1.265625 -0.21875,0.390625 -0.558594,0.695312 -1.019531,0.914062 -0.460937,0.218752 -1.027343,0.351565 -1.699219,0.398438 z" /><path
       id="path20"
       style="font-style:italic;font-weight:bold;font-size:24px;font-family:Cousine;-inkscape-font-specification:'Cousine Bold Italic';opacity:1;fill:url(#linearGradient20);stroke-width:2;stroke-linecap:round;stroke-linejoin:round;filter:url(#filter20)"
       d="M 17.460938 15.410156 L 17.15625 16.980469 C 16.164063 17.019531 15.28125 17.167969 14.507812 17.425781 C 13.734375 17.683594 13.085937 18.050781 12.5625 18.527344 C 12.039063 19.003906 11.648438 19.570312 11.390625 20.226562 C 11.140625 20.882812 11.015625 21.546875 11.015625 22.21875 C 11.015625 23.125 11.316406 23.875 11.917969 24.46875 C 12.519531 25.0625 13.566406 25.539063 15.058594 25.898438 C 15.089844 25.898438 15.148438 25.910154 15.234375 25.933594 C 15.328124 25.949214 15.382811 25.964842 15.398438 25.980469 L 14.507812 30.5625 C 13.734375 30.484375 13.164062 30.253906 12.796875 29.871094 C 12.4375 29.488281 12.257812 28.871094 12.257812 28.019531 L 12.257812 27.890625 L 9.1523438 28.441406 C 9.1523437 29.949219 9.5507815 31.070313 10.347656 31.804688 C 11.144532 32.53125 12.375 32.925781 14.039062 32.988281 L 13.652344 35.003906 L 14.929688 35.003906 L 15.328125 32.953125 C 16.421875 32.90625 17.378906 32.746094 18.199219 32.472656 C 19.019531 32.191406 19.707031 31.804687 20.261719 31.3125 C 20.816406 30.8125 21.238281 30.207031 21.527344 29.496094 C 21.816406 28.777344 21.960938 28.050782 21.960938 27.316406 C 21.960938 26.636719 21.808594 26.0625 21.503906 25.59375 C 21.199219 25.125 20.765625 24.730469 20.203125 24.410156 C 19.640625 24.089844 18.714844 23.769531 17.425781 23.449219 L 17.179688 23.402344 L 17.988281 19.277344 C 19.152344 19.441406 19.734375 20.167969 19.734375 21.457031 L 19.734375 21.539062 L 22.921875 21.082031 C 22.851562 19.660157 22.464843 18.636719 21.761719 18.011719 C 21.058593 17.378905 19.949218 17.035155 18.433594 16.980469 L 18.738281 15.410156 L 17.460938 15.410156 z M 23.527344 17.191406 L 26 33 L 28.90625 33 L 29.820312 29.34375 L 30.335938 27.269531 L 30.746094 25.546875 C 31.058594 26.953125 31.410157 28.394531 31.800781 29.871094 L 32.550781 33 L 35.457031 33 L 37.917969 17.191406 L 34.882812 17.191406 L 33.898438 25.335938 C 33.820311 25.945313 33.757811 26.878906 33.710938 28.136719 L 33.6875 28.453125 C 33.507813 27.578125 33.378907 26.972656 33.300781 26.636719 C 33.230469 26.292969 33.144531 25.945313 33.042969 25.59375 L 31.882812 21.621094 L 29.597656 21.621094 L 28.4375 25.59375 L 27.96875 27.5625 L 27.792969 28.453125 C 27.761719 27.125 27.699219 26.085938 27.605469 25.335938 L 26.5625 17.191406 L 23.527344 17.191406 z M 16.710938 19.230469 L 15.960938 23.121094 C 15.3125 22.886718 14.898437 22.710937 14.71875 22.59375 C 14.546875 22.476563 14.410156 22.335938 14.308594 22.171875 C 14.207031 22.007812 14.15625 21.800781 14.15625 21.550781 L 14.203125 21.105469 C 14.429688 19.964843 15.265625 19.339843 16.710938 19.230469 z M 16.628906 26.261719 C 16.933594 26.355469 17.21875 26.445313 17.484375 26.53125 C 17.75 26.609375 17.984375 26.710938 18.1875 26.835938 C 18.390625 26.960938 18.550781 27.113281 18.667969 27.292969 C 18.785156 27.472656 18.84375 27.703125 18.84375 27.984375 C 18.84375 28.429688 18.730469 28.851563 18.503906 29.25 C 18.285156 29.640625 17.945312 29.945312 17.484375 30.164062 C 17.023438 30.382814 16.457032 30.515627 15.785156 30.5625 L 16.628906 26.261719 z " /><path
       id="text3"
       style="font-style:italic;font-weight:bold;font-size:24px;font-family:Cousine;-inkscape-font-specification:'Cousine Bold Italic';opacity:1;fill:url(#linearGradient20);stroke-width:2;stroke-linecap:round;stroke-linejoin:round"
       d="M 17.460938 15.410156 L 17.15625 16.980469 C 16.164063 17.019531 15.28125 17.167969 14.507812 17.425781 C 13.734375 17.683594 13.085937 18.050781 12.5625 18.527344 C 12.039063 19.003906 11.648438 19.570312 11.390625 20.226562 C 11.140625 20.882812 11.015625 21.546875 11.015625 22.21875 C 11.015625 23.125 11.316406 23.875 11.917969 24.46875 C 12.519531 25.0625 13.566406 25.539063 15.058594 25.898438 C 15.089844 25.898438 15.148438 25.910154 15.234375 25.933594 C 15.328124 25.949214 15.382811 25.964842 15.398438 25.980469 L 14.507812 30.5625 C 13.734375 30.484375 13.164062 30.253906 12.796875 29.871094 C 12.4375 29.488281 12.257812 28.871094 12.257812 28.019531 L 12.257812 27.890625 L 9.1523438 28.441406 C 9.1523437 29.949219 9.5507815 31.070313 10.347656 31.804688 C 11.144532 32.53125 12.375 32.925781 14.039062 32.988281 L 13.652344 35.003906 L 14.929688 35.003906 L 15.328125 32.953125 C 16.421875 32.90625 17.378906 32.746094 18.199219 32.472656 C 19.019531 32.191406 19.707031 31.804687 20.261719 31.3125 C 20.816406 30.8125 21.238281 30.207031 21.527344 29.496094 C 21.816406 28.777344 21.960938 28.050782 21.960938 27.316406 C 21.960938 26.636719 21.808594 26.0625 21.503906 25.59375 C 21.199219 25.125 20.765625 24.730469 20.203125 24.410156 C 19.640625 24.089844 18.714844 23.769531 17.425781 23.449219 L 17.179688 23.402344 L 17.988281 19.277344 C 19.152344 19.441406 19.734375 20.167969 19.734375 21.457031 L 19.734375 21.539062 L 22.921875 21.082031 C 22.851562 19.660157 22.464843 18.636719 21.761719 18.011719 C 21.058593 17.378905 19.949218 17.035155 18.433594 16.980469 L 18.738281 15.410156 L 17.460938 15.410156 z M 23.527344 17.191406 L 26 33 L 28.90625 33 L 29.820312 29.34375 L 30.335938 27.269531 L 30.746094 25.546875 C 31.058594 26.953125 31.410157 28.394531 31.800781 29.871094 L 32.550781 33 L 35.457031 33 L 37.917969 17.191406 L 34.882812 17.191406 L 33.898438 25.335938 C 33.820311 25.945313 33.757811 26.878906 33.710938 28.136719 L 33.6875 28.453125 C 33.507813 27.578125 33.378907 26.972656 33.300781 26.636719 C 33.230469 26.292969 33.144531 25.945313 33.042969 25.59375 L 31.882812 21.621094 L 29.597656 21.621094 L 28.4375 25.59375 L 27.96875 27.5625 L 27.792969 28.453125 C 27.761719 27.125 27.699219 26.085938 27.605469 25.335938 L 26.5625 17.191406 L 23.527344 17.191406 z M 16.710938 19.230469 L 15.960938 23.121094 C 15.3125 22.886718 14.898437 22.710937 14.71875 22.59375 C 14.546875 22.476563 14.410156 22.335938 14.308594 22.171875 C 14.207031 22.007812 14.15625 21.800781 14.15625 21.550781 L 14.203125 21.105469 C 14.429688 19.964843 15.265625 19.339843 16.710938 19.230469 z M 16.628906 26.261719 C 16.933594 26.355469 17.21875 26.445313 17.484375 26.53125 C 17.75 26.609375 17.984375 26.710938 18.1875 26.835938 C 18.390625 26.960938 18.550781 27.113281 18.667969 27.292969 C 18.785156 27.472656 18.84375 27.703125 18.84375 27.984375 C 18.84375 28.429688 18.730469 28.851563 18.503906 29.25 C 18.285156 29.640625 17.945312 29.945312 17.484375 30.164062 C 17.023438 30.382814 16.457032 30.515627 15.785156 30.5625 L 16.628906 26.261719 z " /><path
       id="path1"
       style="font-style:italic;font-weight:bold;font-size:24px;font-family:Cousine;-inkscape-font-specification:'Cousine Bold Italic';opacity:0.5;fill:none;stroke:url(#linearGradient10);stroke-width:1;stroke-linecap:round;stroke-linejoin:miter;stroke-dasharray:none;stroke-opacity:1"
       d="m 17.880859,15.919922 h 0.240235 l -0.300782,1.548828 0.595704,0.02148 c 1.447622,0.05223 2.432345,0.384437 3.007812,0.902344 0.498043,0.442706 0.834354,1.17135 0.953125,2.253906 l -2.164062,0.310547 c -0.151401,-1.238448 -0.8864,-2.00685 -2.154297,-2.185547 l -0.478516,-0.06641 -1,5.101563 0.75,0.144531 c 1.251741,0.312536 2.14439,0.630888 2.621094,0.902344 0.503947,0.28697 0.869541,0.624563 1.125,1.017578 0.243302,0.37431 0.375,0.841832 0.375,1.445312 0,0.667461 -0.130585,1.327115 -0.396485,1.988281 -0.261904,0.644143 -0.635712,1.180602 -1.130859,1.626954 -0.497403,0.441357 -1.123513,0.79495 -1.886719,1.05664 -0.764098,0.2547 -1.673655,0.409791 -2.730468,0.455078 l -0.402344,0.01758 -0.394531,2.033204 H 14.269531 L 14.652344,32.5 l -0.59375,-0.02148 c -1.593045,-0.05983 -2.695588,-0.43828 -3.365235,-1.048829 -0.599116,-0.552127 -0.9484656,-1.378162 -1.0156246,-2.5625 l 2.0917966,-0.373046 c 0.05925,0.706256 0.259007,1.303191 0.660157,1.730468 0.478085,0.49843 1.180726,0.760181 2.027343,0.845703 l 0.462891,0.04687 1.03125,-5.30664 -0.191406,-0.191406 C 15.627892,25.487326 15.455292,25.45546 15.369141,25.441406 l -0.02344,-0.0059 c -0.006,-9.36e-4 -0.02315,-0.0052 -0.02734,-0.0059 -0.04188,-0.01106 -0.08788,-0.01926 -0.140625,-0.02734 -1.445196,-0.348058 -2.414216,-0.815087 -2.902343,-1.296875 -0.509236,-0.502622 -0.75,-1.093314 -0.75,-1.886719 0,-0.608619 0.112361,-1.209424 0.339843,-1.806641 0.230225,-0.586024 0.572929,-1.081643 1.041016,-1.507812 0.464825,-0.4232 1.046926,-0.755225 1.763672,-0.994141 0.718703,-0.239567 1.55254,-0.382392 2.505859,-0.419922 l 0.404297,-0.01563 z m 6.242188,1.78125 h 1.990234 l 0.986328,7.697265 c 0.09002,0.720156 0.152573,1.748015 0.183594,3.066407 l 1.009766,0.08789 0.171875,-0.873047 0.002,-0.0098 0.002,-0.0078 0.458984,-1.925781 1.052735,-3.605469 H 31.5 l 1.052734,3.603516 c 0.09797,0.339135 0.180559,0.673951 0.248047,1.003906 l 0.002,0.0078 0.002,0.0059 c 0.07554,0.324805 0.203469,0.931356 0.382813,1.804688 l 1.007812,-0.06641 0.02539,-0.324218 v -0.0098 c 0.04659,-1.250339 0.109001,-2.177872 0.183594,-2.759766 l 0.929687,-7.695312 h 1.988282 l -2.302735,14.789062 h -2.066406 l -0.658203,-2.74414 -0.002,-0.0059 c -0.388986,-1.470371 -0.73789,-2.905466 -1.048828,-4.304687 l -0.994141,-0.0059 -0.408203,1.716797 -0.515625,2.074219 -0.81836,3.269531 h -2.072265 z m -6.785156,0.970703 -0.666016,0.05078 c -1.642525,0.124298 -2.691236,0.886065 -2.96875,2.283203 l -0.0039,0.02344 -0.05274,0.49414 v 0.02734 c 0,0.320308 0.0653,0.62501 0.228516,0.888672 0.141828,0.229109 0.330114,0.421723 0.556641,0.576172 l 0.0039,0.002 0.0039,0.0039 c 0.248938,0.162351 0.770306,0.371397 1.347656,0.580078 l 0.5625,0.201172 z m -1.09961,6.935547 -1.082031,5.509765 0.664063,-0.04687 c 0.715938,-0.04995 1.350001,-0.19245 1.882812,-0.445312 0.547355,-0.259762 0.967972,-0.629866 1.244141,-1.123047 0.271089,-0.476742 0.40625,-0.977465 0.40625,-1.517578 0,-0.353459 -0.0734,-0.687936 -0.257813,-0.970703 -0.16254,-0.249228 -0.379865,-0.450861 -0.640625,-0.611328 -0.247127,-0.152079 -0.523828,-0.272398 -0.826172,-0.361328 l 0.01172,0.0059 c -0.268251,-0.08679 -0.554627,-0.179068 -0.861328,-0.273438 z" /></g><g
     id="g1"><path
       id="path8-7"
       style="opacity:0.25;mix-blend-mode:overlay;fill:none;fill-opacity:1;stroke:#ffffff;stroke-width:2;stroke-linejoin:round;stroke-dasharray:none;stroke-opacity:1"
       d="M 8,39 H 40 M 8,35 H 40 M 8,31 H 40 M 8,27 H 40 M 8,23 H 40 M 8,19 H 40 M 8,15 H 40 M 8,11 h 32"
       sodipodi:nodetypes="cccccccccccccccc" /><path
       id="path9"
       style="display:inline;opacity:0.25;mix-blend-mode:overlay;fill:none;fill-opacity:1;stroke:#ffffff;stroke-width:2;stroke-linejoin:round;stroke-dasharray:none;stroke-opacity:1"
       d="M 8,38 H 40 M 8,34 H 40 M 8,30 H 40 M 8,26 H 40 M 8,22 H 40 M 8,18 H 40 M 8,14 H 40 M 8,10 h 32"
       sodipodi:nodetypes="cccccccccccccccc" /></g><path
     id="path14"
     style="baseline-shift:baseline;display:inline;overflow:visible;opacity:0.3;vector-effect:none;fill:url(#linearGradient18-1);stroke-linecap:round;stroke-linejoin:round;enable-background:accumulate;stop-color:#000000"
     d="m 8.5,9 h 31 C 39.777,9 40,9.223 40,9.5 v 7 c 0,0.277 -0.22653,0.455893 -0.5,0.5 l -31,5 C 8.22653,22.04411 8,21.777 8,21.5 V 9.5 C 8,9.223 8.223,9 8.5,9 Z"
     sodipodi:nodetypes="sssssssss" /></svg>
