<?xml version="1.0" encoding="UTF-8" standalone="no"?>
<svg
   id="svg3489"
   height="64"
   width="64"
   version="1.1"
   sodipodi:docname="zen-browser.svg"
   xml:space="preserve"
   inkscape:version="1.4.2 (ebf0e940d0, 2025-05-08)"
   xmlns:inkscape="http://www.inkscape.org/namespaces/inkscape"
   xmlns:sodipodi="http://sodipodi.sourceforge.net/DTD/sodipodi-0.dtd"
   xmlns:xlink="http://www.w3.org/1999/xlink"
   xmlns="http://www.w3.org/2000/svg"
   xmlns:svg="http://www.w3.org/2000/svg"
   xmlns:rdf="http://www.w3.org/1999/02/22-rdf-syntax-ns#"
   xmlns:cc="http://creativecommons.org/ns#"
   xmlns:dc="http://purl.org/dc/elements/1.1/"><sodipodi:namedview
     id="namedview1"
     pagecolor="#ffffff"
     bordercolor="#000000"
     borderopacity="0.25"
     inkscape:showpageshadow="2"
     inkscape:pageopacity="0.0"
     inkscape:pagecheckerboard="0"
     inkscape:deskcolor="#d1d1d1"
     showgrid="false"
     inkscape:zoom="2.185"
     inkscape:cx="47.597254"
     inkscape:cy="32.036613"
     inkscape:current-layer="svg3489"><inkscape:grid
       id="grid1"
       units="px"
       originx="0"
       originy="0"
       spacingx="0.5"
       spacingy="0.5"
       empcolor="#0099e5"
       empopacity="0.30196078"
       color="#0099e5"
       opacity="0.078431373"
       empspacing="2"
       enabled="true"
       visible="false" /><inkscape:page
       x="0"
       y="0"
       width="64"
       height="64"
       id="page8"
       margin="0"
       bleed="0" /></sodipodi:namedview><defs
     id="defs3491"><linearGradient
       id="linearGradient17"
       inkscape:collect="always"><stop
         style="stop-color:#ffffff;stop-opacity:1;"
         offset="0"
         id="stop10" /><stop
         style="stop-color:#ffffff;stop-opacity:0.25;"
         offset="0.28656161"
         id="stop11" /><stop
         style="stop-color:#ffffff;stop-opacity:0.15000001;"
         offset="0.8573131"
         id="stop12" /><stop
         style="stop-color:#ffffff;stop-opacity:0.5;"
         offset="1"
         id="stop17" /></linearGradient><linearGradient
       id="linearGradient6"
       inkscape:collect="always"><stop
         style="stop-color:#333333;stop-opacity:1;"
         offset="0"
         id="stop6" /><stop
         style="stop-color:#1a1a1a;stop-opacity:1;"
         offset="1"
         id="stop7" /></linearGradient><linearGradient
       id="linearGradient3820-7-2"><stop
         offset="0"
         style="stop-color:#000000;stop-opacity:1"
         id="stop3822-2-6" /><stop
         offset="1"
         style="stop-color:#000000;stop-opacity:0"
         id="stop3824-1-2" /></linearGradient><radialGradient
       r="62.769119"
       fy="185.29727"
       fx="99.189415"
       cy="185.29727"
       cx="99.189415"
       gradientTransform="matrix(0.3823536,7.5555777e-8,-1.8372241e-8,0.1115198,-5.9254271,36.335849)"
       gradientUnits="userSpaceOnUse"
       id="radialGradient3300"
       xlink:href="#linearGradient3820-7-2" /><radialGradient
       r="62.769119"
       fy="185.29727"
       fx="99.189415"
       cy="185.29727"
       cx="99.189415"
       gradientTransform="matrix(0.2549024,5.3967361e-8,-1.2248161e-8,0.07965545,6.7163816,44.240666)"
       gradientUnits="userSpaceOnUse"
       id="radialGradient4192"
       xlink:href="#linearGradient3820-7-2" /><linearGradient
       inkscape:collect="always"
       xlink:href="#linearGradient6"
       id="linearGradient7"
       x1="32"
       y1="3"
       x2="32"
       y2="61"
       gradientUnits="userSpaceOnUse" /><linearGradient
       inkscape:collect="always"
       xlink:href="#linearGradient17"
       id="linearGradient10"
       x1="32"
       y1="4"
       x2="32"
       y2="60"
       gradientUnits="userSpaceOnUse" /></defs><metadata
     id="metadata3494"><rdf:RDF><cc:Work
         rdf:about=""><dc:format>image/svg+xml</dc:format><dc:type
           rdf:resource="http://purl.org/dc/dcmitype/StillImage" /></cc:Work></rdf:RDF></metadata><g
     id="g4198"><path
       style="opacity:0.2;fill:url(#radialGradient3300);fill-opacity:1;stroke:none"
       id="path3818-0"
       d="m 55.999998,57.0017 a 24,6.9985714 0 1 1 -47.9999991,0 24,6.9985714 0 1 1 47.9999991,0 z" /><path
       d="m 47.999998,59.0017 a 16,4.9988822 0 1 1 -31.999999,0 16,4.9988822 0 1 1 31.999999,0 z"
       id="path4190"
       style="opacity:0.4;fill:url(#radialGradient4192);fill-opacity:1;stroke:none" /></g><path
     style="color:#000000;display:inline;overflow:visible;visibility:visible;fill:#ffffff;fill-opacity:1;fill-rule:nonzero;stroke:none;stroke-width:1;marker:none;enable-background:accumulate"
     id="path2555"
     d="M 32.000004,2.4999968 C 15.722922,2.4999968 2.5,15.722913 2.5,31.999997 2.5,48.277081 15.722922,61.500004 32.000004,61.5 48.27708,61.5 61.500016,48.277081 61.5,31.999997 61.5,15.722913 48.27708,2.4999968 32.000004,2.4999968 Z" /><path
     id="path3871"
     style="color:#000000;display:inline;overflow:visible;visibility:visible;opacity:1;fill:url(#linearGradient7);stroke:#000000;stroke-width:1.00001;stroke-opacity:0.5;marker:none;enable-background:accumulate"
     d="m 32,2.500004 c -16.277081,0 -29.499996,13.222912 -29.499996,29.499994 0,16.277082 13.222915,29.500004 29.499996,29.499998 16.277078,0 29.500006,-13.222916 29.499996,-29.499998 C 61.499996,15.722916 48.277078,2.500004 32,2.500004 Z"
     sodipodi:nodetypes="sssss" /><path
     id="path8"
     style="color:#000000;display:inline;overflow:visible;visibility:visible;opacity:0.15;fill:#000000;fill-opacity:1;stroke:#000000;stroke-width:2;stroke-dasharray:none;stroke-opacity:1;marker:none;enable-background:accumulate"
     d="M 30.728516,8.0234375 C 20.78418,8.4289453 11.526892,15.458841 8.3359375,24.865234 7.7836361,26.563533 7.3095289,28.514305 7.1308594,30.375 c -0.772644,7.295646 1.8628055,15.062449 7.1640626,20.25 4.93416,4.992822 12.177967,7.809637 19.27539,7.335938 3.9353,-0.265701 8.037418,-1.537517 11.482422,-3.677735 C 49.822169,51.402981 53.542241,46.86602 55.433594,41.625 57.881956,34.994973 57.437859,27.343171 53.998047,21.167969 50.259766,14.218296 43.106283,9.1455079 35.230469,8.234375 33.761892,8.0349732 32.246793,7.9719185 30.728516,8.0234375 Z m 0.697265,4.9960935 c 6.222278,-0.232648 12.404435,2.735435 16.242188,7.611328 4.45422,5.398436 5.477753,13.235608 2.904297,19.695313 -2.232574,5.941337 -7.573694,10.474965 -13.685547,12.039062 -6.123605,1.68846 -12.932495,-0.03169 -17.75,-4.101562 -5.554838,-4.477775 -8.126965,-12.146193 -6.75586,-19.101563 1.527228,-8.743191 9.651188,-15.684752 18.464844,-16.138671 z m -0.111328,4.001953 c -8.035549,0.228688 -15.224594,7.43786 -15.28125,15.503907 -0.27595,5.652044 2.999641,11.242646 7.691406,14.15039 3.251251,2.030835 7.380847,2.730872 11.064453,2.041016 2.34992,-0.445376 4.586452,-1.405115 6.566407,-2.808594 1.527731,-1.096497 2.961205,-2.52957 4.039062,-4.193359 1.07071,-1.690053 1.947037,-3.747042 2.292969,-5.800782 0.618218,-3.461327 0.113726,-7.130064 -1.519531,-10.296874 -2.775051,-5.388454 -8.812551,-8.831927 -14.853516,-8.595704 z m 0.519531,4.03125 c 5.877499,-0.234301 11.220899,4.574481 12.056641,10.310547 0.398207,2.94119 -0.396523,5.956918 -2.095703,8.416016 -2.396284,3.632537 -6.911454,5.644886 -11.214844,5.109375 -5.859697,-0.628285 -10.725611,-6.13135 -10.582031,-12.03125 0.07168,-6.187935 5.587729,-11.870718 11.835937,-11.804688 z m 0.107422,5 c -4.412117,-0.05661 -8.133657,4.904113 -6.578125,9.103516 1.196129,3.518957 5.483887,5.864611 9.021485,4.375 3.325233,-1.257958 5.552882,-5.307367 4.199218,-8.726562 -0.97758,-2.710253 -3.707122,-4.835256 -6.642578,-4.751954 z M 31.75,29.056641 c 1.234115,-0.08859 2.435237,0.527517 3.226562,1.451171 1.567237,1.558247 1.090231,4.325476 -0.599609,5.595704 -1.759285,1.608494 -4.74473,0.742521 -5.845703,-1.22461 -1.473767,-2.327506 0.572367,-5.67987 3.21875,-5.822265 z" /><path
     id="path7"
     style="color:#000000;display:inline;overflow:visible;visibility:visible;opacity:0.15;fill:#000000;fill-opacity:1;stroke:none;stroke-width:1.00011;stroke-opacity:1;marker:none;enable-background:accumulate"
     d="M 30.728516,8.0234375 C 20.78418,8.4289453 11.526892,15.458841 8.3359375,24.865234 7.7836361,26.563533 7.3095289,28.514305 7.1308594,30.375 c -0.772644,7.295646 1.8628055,15.062449 7.1640626,20.25 4.93416,4.992822 12.177967,7.809637 19.27539,7.335938 3.9353,-0.265701 8.037418,-1.537517 11.482422,-3.677735 C 49.822169,51.402981 53.542241,46.86602 55.433594,41.625 57.881956,34.994973 57.437859,27.343171 53.998047,21.167969 50.259766,14.218296 43.106283,9.1455079 35.230469,8.234375 33.761892,8.0349732 32.246793,7.9719185 30.728516,8.0234375 Z m 0.697265,4.9960935 c 6.222278,-0.232648 12.404435,2.735435 16.242188,7.611328 4.45422,5.398436 5.477753,13.235608 2.904297,19.695313 -2.232574,5.941337 -7.573694,10.474965 -13.685547,12.039062 -6.123605,1.68846 -12.932495,-0.03169 -17.75,-4.101562 -5.554838,-4.477775 -8.126965,-12.146193 -6.75586,-19.101563 1.527228,-8.743191 9.651188,-15.684752 18.464844,-16.138671 z m -0.111328,4.001953 c -8.035549,0.228688 -15.224594,7.43786 -15.28125,15.503907 -0.27595,5.652044 2.999641,11.242646 7.691406,14.15039 3.251251,2.030835 7.380847,2.730872 11.064453,2.041016 2.34992,-0.445376 4.586452,-1.405115 6.566407,-2.808594 1.527731,-1.096497 2.961205,-2.52957 4.039062,-4.193359 1.07071,-1.690053 1.947037,-3.747042 2.292969,-5.800782 0.618218,-3.461327 0.113726,-7.130064 -1.519531,-10.296874 -2.775051,-5.388454 -8.812551,-8.831927 -14.853516,-8.595704 z m 0.519531,4.03125 c 5.877499,-0.234301 11.220899,4.574481 12.056641,10.310547 0.398207,2.94119 -0.396523,5.956918 -2.095703,8.416016 -2.396284,3.632537 -6.911454,5.644886 -11.214844,5.109375 -5.859697,-0.628285 -10.725611,-6.13135 -10.582031,-12.03125 0.07168,-6.187935 5.587729,-11.870718 11.835937,-11.804688 z m 0.107422,5 c -4.412117,-0.05661 -8.133657,4.904113 -6.578125,9.103516 1.196129,3.518957 5.483887,5.864611 9.021485,4.375 3.325233,-1.257958 5.552882,-5.307367 4.199218,-8.726562 -0.97758,-2.710253 -3.707122,-4.835256 -6.642578,-4.751954 z M 31.75,29.056641 c 1.234115,-0.08859 2.435237,0.527517 3.226562,1.451171 1.567237,1.558247 1.090231,4.325476 -0.599609,5.595704 -1.759285,1.608494 -4.74473,0.742521 -5.845703,-1.22461 -1.473767,-2.327506 0.572367,-5.67987 3.21875,-5.822265 z" /><path
     id="path1"
     style="color:#000000;display:inline;overflow:visible;visibility:visible;opacity:1;fill:#ffffff;fill-opacity:1;stroke:none;stroke-width:1.00011;stroke-opacity:1;marker:none;enable-background:accumulate"
     d="M 30.728516,7.0234375 C 20.78418,7.4289453 11.526892,14.458841 8.3359375,23.865234 7.7836361,25.563533 7.3095289,27.514305 7.1308594,29.375 c -0.772644,7.295646 1.8628055,15.062449 7.1640626,20.25 4.93416,4.992822 12.177967,7.809637 19.27539,7.335938 3.9353,-0.265701 8.037418,-1.537517 11.482422,-3.677735 C 49.822169,50.402981 53.542241,45.86602 55.433594,40.625 57.881956,33.994973 57.437859,26.343171 53.998047,20.167969 50.259766,13.218296 43.106283,8.1455079 35.230469,7.234375 33.761892,7.0349732 32.246793,6.9719185 30.728516,7.0234375 Z m 0.697265,4.9960935 c 6.222278,-0.232648 12.404435,2.735435 16.242188,7.611328 4.45422,5.398436 5.477753,13.235608 2.904297,19.695313 -2.232574,5.941337 -7.573694,10.474965 -13.685547,12.039062 -6.123605,1.68846 -12.932495,-0.03169 -17.75,-4.101562 -5.554838,-4.477775 -8.126965,-12.146193 -6.75586,-19.101563 1.527228,-8.743191 9.651188,-15.684752 18.464844,-16.138671 z m -0.111328,4.001953 c -8.035549,0.228688 -15.224594,7.43786 -15.28125,15.503907 -0.27595,5.652044 2.999641,11.242646 7.691406,14.15039 3.251251,2.030835 7.380847,2.730872 11.064453,2.041016 2.34992,-0.445376 4.586452,-1.405115 6.566407,-2.808594 1.527731,-1.096497 2.961205,-2.52957 4.039062,-4.193359 1.07071,-1.690053 1.947037,-3.747042 2.292969,-5.800782 0.618218,-3.461327 0.113726,-7.130064 -1.519531,-10.296874 -2.775051,-5.388454 -8.812551,-8.831927 -14.853516,-8.595704 z m 0.519531,4.03125 c 5.877499,-0.234301 11.220899,4.574481 12.056641,10.310547 0.398207,2.94119 -0.396523,5.956918 -2.095703,8.416016 -2.396284,3.632537 -6.911454,5.644886 -11.214844,5.109375 -5.859697,-0.628285 -10.725611,-6.13135 -10.582031,-12.03125 0.07168,-6.187935 5.587729,-11.870718 11.835937,-11.804688 z m 0.107422,5 c -4.412117,-0.05661 -8.133657,4.904113 -6.578125,9.103516 1.196129,3.518957 5.483887,5.864611 9.021485,4.375 3.325233,-1.257958 5.552882,-5.307367 4.199218,-8.726562 -0.97758,-2.710253 -3.707122,-4.835256 -6.642578,-4.751954 z M 31.75,28.056641 c 1.234115,-0.08859 2.435237,0.527517 3.226562,1.451171 1.567237,1.558247 1.090231,4.325476 -0.599609,5.595704 -1.759285,1.608494 -4.74473,0.742521 -5.845703,-1.22461 -1.473767,-2.327506 0.572367,-5.67987 3.21875,-5.822265 z" /><path
     id="path6"
     style="color:#000000;display:inline;overflow:visible;visibility:visible;opacity:0.5;fill:none;stroke:url(#linearGradient10);stroke-width:1.00001;stroke-opacity:1;marker:none;enable-background:accumulate"
     d="m 31.283203,3.5097656 c -7.658775,0.1510845 -15.16701,3.584652 -20.30344,9.2656134 -4.2473305,4.582261 -6.8692813,10.640315 -7.3706712,16.757982 -0.6424367,7.009269 1.4599006,14.258 5.8108301,19.83578 5.2116881,6.868722 13.6871941,11.112149 22.3140331,11.125942 7.303632,0.107961 14.584835,-2.757419 19.852052,-7.818487 2.453465,-2.311794 4.500058,-5.072514 5.94918,-8.037344 1.836669,-3.673787 2.842395,-7.757625 2.94758,-11.768522 C 60.73765,26.27121 58.469036,19.486899 54.367188,14.351562 49.978472,8.7743815 43.459845,4.9195301 36.4375,3.84375 34.837817,3.5965387 32.9956,3.4668303 31.283203,3.5097656 Z" /></svg>
