<?xml version="1.0" encoding="UTF-8" standalone="no"?>
<svg
   width="64"
   height="64"
   viewBox="0 0 64 64"
   fill="none"
   version="1.1"
   id="svg4"
   xml:space="preserve"
   sodipodi:docname="discord.svg"
   inkscape:version="1.4.2 (ebf0e940d0, 2025-05-08)"
   xmlns:inkscape="http://www.inkscape.org/namespaces/inkscape"
   xmlns:sodipodi="http://sodipodi.sourceforge.net/DTD/sodipodi-0.dtd"
   xmlns:xlink="http://www.w3.org/1999/xlink"
   xmlns="http://www.w3.org/2000/svg"
   xmlns:svg="http://www.w3.org/2000/svg"><sodipodi:namedview
     id="namedview1"
     pagecolor="#ffffff"
     bordercolor="#000000"
     borderopacity="0.25"
     inkscape:showpageshadow="2"
     inkscape:pageopacity="0.0"
     inkscape:pagecheckerboard="0"
     inkscape:deskcolor="#d1d1d1"
     showgrid="false"
     inkscape:current-layer="svg4"><inkscape:page
       x="0"
       y="0"
       width="64"
       height="64"
       id="page1"
       margin="0"
       bleed="0" /><inkscape:grid
       id="grid2"
       units="px"
       originx="0"
       originy="0"
       spacingx="0.5"
       spacingy="0.5"
       empcolor="#0099e5"
       empopacity="0.30196078"
       color="#0099e5"
       opacity="0.0784314"
       empspacing="2"
       enabled="true"
       visible="false" /></sodipodi:namedview><defs
     id="defs4"><linearGradient
       id="linearGradient24"><stop
         style="stop-color:#fafafa;stop-opacity:1;"
         offset="0"
         id="stop24" /><stop
         style="stop-color:#fafafa;stop-opacity:0;"
         offset="1"
         id="stop25" /></linearGradient><linearGradient
       id="linearGradient23"><stop
         offset="0"
         style="stop-color:#ffffff;stop-opacity:1"
         id="stop20" /><stop
         offset="0.13392857"
         style="stop-color:#ffffff;stop-opacity:0.23529412"
         id="stop21" /><stop
         offset="0.8660714"
         style="stop-color:#ffffff;stop-opacity:0.15686275"
         id="stop22" /><stop
         offset="1"
         style="stop-color:#ffffff;stop-opacity:0.39215687"
         id="stop23" /></linearGradient><linearGradient
       id="linearGradient2"><stop
         style="stop-color:#5865f2;stop-opacity:1;"
         offset="0"
         id="stop3-3" /><stop
         style="stop-color:#1f30f4;stop-opacity:1;"
         offset="1"
         id="stop4-5" /></linearGradient><style
       id="style1">.g{fill:#000;}.g,.h,.i{stroke-width:0px;}.h{fill:url(#e);}.i{fill:#fff;}</style><style
       id="style1-6">.cls-1{fill:#fff;}</style><style
       id="style1-67">.cls-1{fill:#fff;}</style><style
       id="style1-56">.g{fill:#000;}.g,.h,.i{stroke-width:0px;}.h{fill:url(#e);}.i{fill:#fff;}</style><style
       id="style1-7">.g{fill:#000;}.g,.h,.i{stroke-width:0px;}.h{fill:url(#e);}.i{fill:#fff;}</style><style
       id="style1-5">.g{fill:#000;}.g,.h,.i{stroke-width:0px;}.h{fill:url(#e);}.i{fill:#fff;}</style><style
       id="style1-3">.g{fill:#000;}.g,.h,.i{stroke-width:0px;}.h{fill:url(#e);}.i{fill:#fff;}</style><style
       id="style1-6-1">.cls-1{fill:#fff;}</style><style
       id="style1-2">.g{fill:#000;}.g,.h,.i{stroke-width:0px;}.h{fill:url(#e);}.i{fill:#fff;}</style><style
       id="style1-6-8">.cls-1{fill:#fff;}</style><linearGradient
       xlink:href="#linearGradient2"
       id="linearGradient11"
       x1="32"
       y1="3"
       x2="32"
       y2="61"
       gradientUnits="userSpaceOnUse"
       gradientTransform="translate(0,-65)" /><linearGradient
       xlink:href="#linearGradient23"
       id="linearGradient20"
       x1="32"
       y1="4"
       x2="32"
       y2="60"
       gradientUnits="userSpaceOnUse"
       gradientTransform="translate(0,-65)" /><linearGradient
       xlink:href="#linearGradient24"
       id="linearGradient25"
       x1="53.554375"
       y1="59.875896"
       x2="52.482929"
       y2="55.161541"
       gradientUnits="userSpaceOnUse"
       gradientTransform="translate(0,-65)" /><linearGradient
       id="linearGradient3820-7-2"><stop
         offset="0"
         style="stop-color:#000000;stop-opacity:1"
         id="stop3822-2-6" /><stop
         offset="1"
         style="stop-color:#000000;stop-opacity:0"
         id="stop3824-1-2" /></linearGradient><radialGradient
       xlink:href="#linearGradient3820-7-2"
       id="radialGradient3"
       gradientUnits="userSpaceOnUse"
       gradientTransform="matrix(0.3823536,7.5555777e-8,-1.8372241e-8,0.1115198,-5.9254271,36.335849)"
       cx="99.189415"
       cy="185.29727"
       fx="99.189415"
       fy="185.29727"
       r="62.769119" /><radialGradient
       xlink:href="#linearGradient3820-7-2"
       id="radialGradient4"
       gradientUnits="userSpaceOnUse"
       gradientTransform="matrix(0.2549024,5.3967361e-8,-1.2248161e-8,0.07965545,6.7163816,44.240666)"
       cx="99.189415"
       cy="185.29727"
       fx="99.189415"
       fy="185.29727"
       r="62.769119" /><linearGradient
       id="linearGradient909"><stop
         id="stop901"
         style="stop-color:#cd9ef7;stop-opacity:1"
         offset="0" /><stop
         id="stop907"
         style="stop-color:#a56de2;stop-opacity:1"
         offset="1" /></linearGradient><linearGradient
       y2="39.317303"
       x2="23.999998"
       y1="5.8977108"
       x1="23.999998"
       gradientTransform="matrix(1.4324324,0,0,1.4362832,-2.378375,-2.4707827)"
       gradientUnits="userSpaceOnUse"
       id="linearGradient3904"
       xlink:href="#linearGradient4270" /><linearGradient
       id="linearGradient4270"><stop
         id="stop4272"
         style="stop-color:#ffffff;stop-opacity:1"
         offset="0" /><stop
         id="stop4274"
         style="stop-color:#ffffff;stop-opacity:0.23529412"
         offset="0.09375" /><stop
         id="stop4276"
         style="stop-color:#ffffff;stop-opacity:0.15686275"
         offset="0.92708337" /><stop
         id="stop4278"
         style="stop-color:#ffffff;stop-opacity:0.39215687"
         offset="1" /></linearGradient><linearGradient
       xlink:href="#linearGradient2"
       id="linearGradient899"
       x1="31.781376"
       y1="4.9266648"
       x2="32"
       y2="55"
       gradientUnits="userSpaceOnUse" /><linearGradient
       id="linearGradient18"><stop
         style="stop-color:#ffffff;stop-opacity:1;"
         offset="0"
         id="stop18" /><stop
         style="stop-color:#ffffff;stop-opacity:0;"
         offset="1"
         id="stop19" /></linearGradient><linearGradient
       id="linearGradient17"><stop
         offset="0"
         style="stop-color:#ffffff;stop-opacity:1"
         id="stop14" /><stop
         offset="0.14473684"
         style="stop-color:#ffffff;stop-opacity:0.23529412"
         id="stop15" /><stop
         offset="0.85526317"
         style="stop-color:#ffffff;stop-opacity:0.15686275"
         id="stop16" /><stop
         offset="1"
         style="stop-color:#ffffff;stop-opacity:0.39215687"
         id="stop17" /></linearGradient><style
       id="style1-0">.g{fill:#000;}.g,.h,.i{stroke-width:0px;}.h{fill:url(#e);}.i{fill:#fff;}</style><style
       id="style1-7-23">.g{fill:#000;}.g,.h,.i{stroke-width:0px;}.h{fill:url(#e);}.i{fill:#fff;}</style><style
       id="style1-5-7">.g{fill:#000;}.g,.h,.i{stroke-width:0px;}.h{fill:url(#e);}.i{fill:#fff;}</style><style
       id="style1-3-2">.g{fill:#000;}.g,.h,.i{stroke-width:0px;}.h{fill:url(#e);}.i{fill:#fff;}</style><style
       id="style1-6-28">.cls-1{fill:#fff;}</style><linearGradient
       xlink:href="#linearGradient17"
       id="linearGradient12"
       x1="24"
       y1="6"
       x2="24"
       y2="44"
       gradientUnits="userSpaceOnUse"
       gradientTransform="translate(0,-51)" /><linearGradient
       xlink:href="#linearGradient18"
       id="linearGradient19"
       x1="38.264111"
       y1="46.5"
       x2="36.881195"
       y2="41"
       gradientUnits="userSpaceOnUse"
       gradientTransform="translate(0,-51)" /><radialGradient
       xlink:href="#linearGradient3820-7-2"
       id="radialGradient3-3"
       gradientUnits="userSpaceOnUse"
       gradientTransform="matrix(0.3823536,7.5555777e-8,-1.8372241e-8,0.1115198,-5.9254271,36.335849)"
       cx="99.189415"
       cy="185.29727"
       fx="99.189415"
       fy="185.29727"
       r="62.769119" /><radialGradient
       xlink:href="#linearGradient3820-7-2"
       id="radialGradient4-6"
       gradientUnits="userSpaceOnUse"
       gradientTransform="matrix(0.2549024,5.3967361e-8,-1.2248161e-8,0.07965545,6.7163816,44.240666)"
       cx="99.189415"
       cy="185.29727"
       fx="99.189415"
       fy="185.29727"
       r="62.769119" /><style
       id="style1-62">.g{fill:#000;}.g,.h,.i{stroke-width:0px;}.h{fill:url(#e);}.i{fill:#fff;}</style><style
       id="style1-6-9">.cls-1{fill:#fff;}</style><style
       id="style1-67-1">.cls-1{fill:#fff;}</style><style
       id="style1-56-2">.g{fill:#000;}.g,.h,.i{stroke-width:0px;}.h{fill:url(#e);}.i{fill:#fff;}</style><style
       id="style1-7-1">.g{fill:#000;}.g,.h,.i{stroke-width:0px;}.h{fill:url(#e);}.i{fill:#fff;}</style><style
       id="style1-5-2">.g{fill:#000;}.g,.h,.i{stroke-width:0px;}.h{fill:url(#e);}.i{fill:#fff;}</style><style
       id="style1-3-7">.g{fill:#000;}.g,.h,.i{stroke-width:0px;}.h{fill:url(#e);}.i{fill:#fff;}</style><style
       id="style1-6-1-9">.cls-1{fill:#fff;}</style><style
       id="style1-2-3">.g{fill:#000;}.g,.h,.i{stroke-width:0px;}.h{fill:url(#e);}.i{fill:#fff;}</style><style
       id="style1-6-8-1">.cls-1{fill:#fff;}</style><linearGradient
       xlink:href="#linearGradient2"
       id="linearGradient9"
       x1="24"
       y1="5"
       x2="24"
       y2="45"
       gradientUnits="userSpaceOnUse"
       gradientTransform="translate(0,-51)" /><linearGradient
       id="linearGradient1201"><stop
         id="stop1193"
         style="stop-color:#ffffff;stop-opacity:1"
         offset="0" /><stop
         id="stop1195"
         style="stop-color:#ffffff;stop-opacity:0.23529412"
         offset="0.07352958" /><stop
         id="stop1197"
         style="stop-color:#ffffff;stop-opacity:0.15686275"
         offset="0.92647058" /><stop
         id="stop1199"
         style="stop-color:#ffffff;stop-opacity:0.39215687"
         offset="1" /></linearGradient><linearGradient
       x1="38.999996"
       y1="5.9999938"
       x2="38.999996"
       y2="40"
       id="linearGradient3058-5"
       xlink:href="#linearGradient1201"
       gradientUnits="userSpaceOnUse"
       gradientTransform="translate(74.000004)" /><linearGradient
       xlink:href="#linearGradient2"
       id="linearGradient930-9-2"
       x1="16.692297"
       y1="2.4999993"
       x2="16.692297"
       y2="27.769238"
       gradientUnits="userSpaceOnUse"
       gradientTransform="matrix(1.444444,0,0,1.444444,74.888913,0.888891)" /><linearGradient
       id="linearGradient30"><stop
         style="stop-color:#ffffff;stop-opacity:1;"
         offset="0"
         id="stop30" /><stop
         style="stop-color:#fafafa;stop-opacity:0;"
         offset="1"
         id="stop31" /></linearGradient><linearGradient
       id="linearGradient22"><stop
         id="stop13"
         style="stop-color:#ffffff;stop-opacity:1"
         offset="0" /><stop
         id="stop20-9"
         style="stop-color:#ffffff;stop-opacity:0.23529412"
         offset="0.13461539" /><stop
         id="stop21-4"
         style="stop-color:#ffffff;stop-opacity:0.15686275"
         offset="0.86538464" /><stop
         id="stop22-7"
         style="stop-color:#ffffff;stop-opacity:0.39215687"
         offset="1" /></linearGradient><style
       id="style1-79">.g{fill:#000;}.g,.h,.i{stroke-width:0px;}.h{fill:url(#e);}.i{fill:#fff;}</style><style
       id="style1-7-2">.g{fill:#000;}.g,.h,.i{stroke-width:0px;}.h{fill:url(#e);}.i{fill:#fff;}</style><style
       id="style1-5-0">.g{fill:#000;}.g,.h,.i{stroke-width:0px;}.h{fill:url(#e);}.i{fill:#fff;}</style><style
       id="style1-53">.g{fill:#000;}.g,.h,.i{stroke-width:0px;}.h{fill:url(#e);}.i{fill:#fff;}</style><style
       id="style1-6-2">.cls-1{fill:#fff;}</style><style
       id="style1-67-3">.cls-1{fill:#fff;}</style><style
       id="style1-675">.g{fill:#000;}.g,.h,.i{stroke-width:0px;}.h{fill:url(#e);}.i{fill:#fff;}</style><style
       id="style1-7-3">.g{fill:#000;}.g,.h,.i{stroke-width:0px;}.h{fill:url(#e);}.i{fill:#fff;}</style><style
       id="style1-5-5">.g{fill:#000;}.g,.h,.i{stroke-width:0px;}.h{fill:url(#e);}.i{fill:#fff;}</style><style
       id="style1-3-9">.g{fill:#000;}.g,.h,.i{stroke-width:0px;}.h{fill:url(#e);}.i{fill:#fff;}</style><style
       id="style1-6-6">.cls-1{fill:#fff;}</style><style
       id="style1-70">.g{fill:#000;}.g,.h,.i{stroke-width:0px;}.h{fill:url(#e);}.i{fill:#fff;}</style><style
       id="style1-6-3">.cls-1{fill:#fff;}</style><linearGradient
       id="linearGradient3820-7-2-2"><stop
         offset="0"
         style="stop-color:#3d3d3d;stop-opacity:1"
         id="stop3822-2-6-36" /><stop
         offset="0.5"
         style="stop-color:#686868;stop-opacity:0.49803922"
         id="stop3864-8-7-6" /><stop
         offset="1"
         style="stop-color:#686868;stop-opacity:0"
         id="stop3824-1-2-4" /></linearGradient><radialGradient
       cx="99.157013"
       cy="186.17059"
       r="62.769119"
       fx="99.157013"
       fy="186.17059"
       id="radialGradient3108-6"
       xlink:href="#linearGradient3820-7-2-2"
       gradientUnits="userSpaceOnUse"
       gradientTransform="matrix(0.21473139,0,0,0.06794726,-5.3136245,15.116856)" /><linearGradient
       xlink:href="#linearGradient22"
       id="linearGradient13"
       x1="16"
       y1="3"
       x2="16"
       y2="29"
       gradientUnits="userSpaceOnUse"
       gradientTransform="translate(0,-33)" /><linearGradient
       xlink:href="#linearGradient2"
       id="linearGradient29"
       x1="16"
       y1="3"
       x2="16"
       y2="30"
       gradientUnits="userSpaceOnUse"
       gradientTransform="translate(0,-33)" /><linearGradient
       xlink:href="#linearGradient30"
       id="linearGradient31"
       x1="25.002583"
       y1="30.93301"
       x2="23.779295"
       y2="27.459316"
       gradientUnits="userSpaceOnUse" /><linearGradient
       id="linearGradient4"><stop
         id="stop1"
         style="stop-color:#ffffff;stop-opacity:1"
         offset="0" /><stop
         id="stop2"
         style="stop-color:#ffffff;stop-opacity:0.23529412"
         offset="0.06818181" /><stop
         id="stop3"
         style="stop-color:#ffffff;stop-opacity:0.15686275"
         offset="0.93181819" /><stop
         id="stop4"
         style="stop-color:#ffffff;stop-opacity:0.39215687"
         offset="1" /></linearGradient><linearGradient
       xlink:href="#linearGradient2"
       id="linearGradient930-9-2-8"
       x1="16.999996"
       y1="2.5"
       x2="16.999996"
       y2="29"
       gradientUnits="userSpaceOnUse"
       gradientTransform="translate(58.000004)" /><linearGradient
       x1="23.99999"
       y1="6.2399855"
       x2="23.999994"
       y2="38.799984"
       id="linearGradient4161-0-2"
       xlink:href="#linearGradient4"
       gradientUnits="userSpaceOnUse"
       gradientTransform="matrix(0.67567568,0,0,0.67567568,57.783787,-0.21620614)" /></defs><path
     id="rect5505-21-3-8-5-2-9"
     style="color:#000000;display:inline;overflow:visible;visibility:visible;fill:url(#linearGradient899);fill-opacity:1;fill-rule:nonzero;stroke:none;stroke-width:1;marker:none;enable-background:accumulate"
     d="m 10.5,4.5 c -3.324,0 -6,2.676 -6,6 v 39 c 0,3.324 2.676,6 6,6 h 31 v 8 l 8,-8 h 4 c 3.324,0 6,-2.676 6,-6 v -39 c 0,-3.324 -2.676,-6 -6,-6 z" /><path
     id="rect6741"
     style="opacity:0.5;fill:none;stroke:url(#linearGradient3904);stroke-width:1;stroke-linecap:round;stroke-linejoin:round;stroke-miterlimit:4;stroke-dasharray:none;stroke-dashoffset:0;stroke-opacity:1"
     d="m 10.5,5.5 c -2.77,0 -5,2.23 -5,5 v 39 c 0,2.77 2.23,5 5,5 h 32 V 61 L 49,54.5 h 4.5 c 2.77,0 5,-2.23 5,-5 v -39 c 0,-2.77 -2.23,-5 -5,-5 z" /><path
     id="rect5505-21-9"
     style="color:#000000;display:inline;overflow:visible;visibility:visible;opacity:1;fill:none;stroke:#0a0f9f;stroke-width:1;stroke-linecap:round;stroke-linejoin:round;stroke-miterlimit:4;stroke-dasharray:none;stroke-dashoffset:0;stroke-opacity:0.501961;marker:none;enable-background:accumulate"
     d="m 10.5,4.5 c -3.324,0 -6,2.676 -6,6 v 39 c 0,3.324 2.676,6 6,6 h 31 v 8 l 8,-8 h 4 c 3.324,0 6,-2.676 6,-6 v -39 c 0,-3.324 -2.676,-6 -6,-6 z" /><path
     class="cls-1"
     d="m 45.189615,19.011824 a 31.427493,31.427494 0 0 0 -7.83969,-2.411982 21.537472,21.537472 0 0 0 -1.00424,2.041367 29.194841,29.194842 0 0 0 -8.70047,0 21.630126,21.630126 0 0 0 -1.004245,-2.041367 31.648667,31.648667 0 0 0 -7.84566,2.41796 c -4.96145,7.340554 -6.306425,14.498789 -5.633945,21.555404 v 0 a 31.600845,31.600846 0 0 0 9.61505,4.826952 23.223169,23.22317 0 0 0 2.059305,-3.320584 20.44954,20.44954 0 0 1 -3.242875,-1.548211 c 0.27198,-0.197263 0.53799,-0.400503 0.795025,-0.597765 a 22.58655,22.58655 0 0 0 19.224125,0 c 0.26003,0.212206 0.52603,0.415447 0.79502,0.597765 a 20.527248,20.527249 0 0 1 -3.24885,1.5512 23.013951,23.013952 0 0 0 2.059305,3.317595 31.457381,31.457382 0 0 0 9.62103,-4.823962 v 0 C 51.627545,32.392792 49.490545,25.300311 45.189615,19.011824 Z m -19.50208,17.221608 c -1.873995,0 -3.422205,-1.700641 -3.422205,-3.792818 0,-2.092177 1.494415,-3.807763 3.416225,-3.807763 1.921815,0 3.458075,1.715586 3.425195,3.807763 -0.0329,2.092177 -1.50936,3.792818 -3.419215,3.792818 z m 12.62479,0 c -1.876975,0 -3.41921,-1.700641 -3.41921,-3.792818 0,-2.092177 1.49441,-3.807763 3.41921,-3.807763 1.924805,0 3.44911,1.715586 3.41623,3.807763 -0.0329,2.092177 -1.506365,3.792818 -3.41623,3.792818 z"
     id="path26"
     style="opacity:0.15;fill:#000000;fill-opacity:1;stroke:#000000;stroke-width:2;stroke-dasharray:none;stroke-opacity:1" /><path
     class="cls-1"
     d="m 45.189615,19.011824 a 31.427493,31.427494 0 0 0 -7.83969,-2.411982 21.537472,21.537472 0 0 0 -1.00424,2.041367 29.194841,29.194842 0 0 0 -8.70047,0 21.630126,21.630126 0 0 0 -1.004245,-2.041367 31.648667,31.648667 0 0 0 -7.84566,2.41796 c -4.96145,7.340554 -6.306425,14.498789 -5.633945,21.555404 v 0 a 31.600845,31.600846 0 0 0 9.61505,4.826952 23.223169,23.22317 0 0 0 2.059305,-3.320584 20.44954,20.44954 0 0 1 -3.242875,-1.548211 c 0.27198,-0.197263 0.53799,-0.400503 0.795025,-0.597765 a 22.58655,22.58655 0 0 0 19.224125,0 c 0.26003,0.212206 0.52603,0.415447 0.79502,0.597765 a 20.527248,20.527249 0 0 1 -3.24885,1.5512 23.013951,23.013952 0 0 0 2.059305,3.317595 31.457381,31.457382 0 0 0 9.62103,-4.823962 v 0 C 51.627545,32.392792 49.490545,25.300311 45.189615,19.011824 Z m -19.50208,17.221608 c -1.873995,0 -3.422205,-1.700641 -3.422205,-3.792818 0,-2.092177 1.494415,-3.807763 3.416225,-3.807763 1.921815,0 3.458075,1.715586 3.425195,3.807763 -0.0329,2.092177 -1.50936,3.792818 -3.419215,3.792818 z m 12.62479,0 c -1.876975,0 -3.41921,-1.700641 -3.41921,-3.792818 0,-2.092177 1.49441,-3.807763 3.41921,-3.807763 1.924805,0 3.44911,1.715586 3.41623,3.807763 -0.0329,2.092177 -1.506365,3.792818 -3.41623,3.792818 z"
     id="path25"
     style="opacity:0.15;fill:#000000;fill-opacity:1;stroke-width:0.298882" /><path
     class="cls-1"
     d="m 45.189615,18.011824 a 31.427493,31.427494 0 0 0 -7.83969,-2.411982 21.537472,21.537472 0 0 0 -1.00424,2.041367 29.194841,29.194842 0 0 0 -8.70047,0 21.630126,21.630126 0 0 0 -1.004245,-2.041367 31.648667,31.648667 0 0 0 -7.84566,2.41796 c -4.96145,7.340554 -6.306425,14.498789 -5.633945,21.555404 v 0 a 31.600845,31.600846 0 0 0 9.61505,4.826952 23.223169,23.22317 0 0 0 2.059305,-3.320584 20.44954,20.44954 0 0 1 -3.242875,-1.548211 c 0.27198,-0.197263 0.53799,-0.400503 0.795025,-0.597765 a 22.58655,22.58655 0 0 0 19.224125,0 c 0.26003,0.212206 0.52603,0.415447 0.79502,0.597765 a 20.527248,20.527249 0 0 1 -3.24885,1.5512 23.013951,23.013952 0 0 0 2.059305,3.317595 31.457381,31.457382 0 0 0 9.62103,-4.823962 v 0 C 51.627545,31.392792 49.490545,24.300311 45.189615,18.011824 Z m -19.50208,17.221608 c -1.873995,0 -3.422205,-1.700641 -3.422205,-3.792818 0,-2.092177 1.494415,-3.807763 3.416225,-3.807763 1.921815,0 3.458075,1.715586 3.425195,3.807763 -0.0329,2.092177 -1.50936,3.792818 -3.419215,3.792818 z m 12.62479,0 c -1.876975,0 -3.41921,-1.700641 -3.41921,-3.792818 0,-2.092177 1.49441,-3.807763 3.41921,-3.807763 1.924805,0 3.44911,1.715586 3.41623,3.807763 -0.0329,2.092177 -1.506365,3.792818 -3.41623,3.792818 z"
     id="path1-9-3"
     style="fill:#abacae;stroke-width:0.298882" /><path
     id="path27"
     style="fill:#d4d4d4;stroke-width:0.298882"
     class="cls-1"
     d="m 26.640625,15.599609 c -2.709125,0.461929 -5.346544,1.274756 -7.845703,2.417969 -4.022989,5.952084 -5.667156,11.783698 -5.78711,17.539063 0.0095,1.007523 0.0587,2.012441 0.154297,3.015625 2.905522,2.147181 6.157729,3.780221 9.615235,4.828125 0.587796,-0.802678 1.123405,-1.642299 1.603515,-2.513672 -0.961986,-0.380671 -1.893698,-0.833795 -2.787109,-1.355469 l 0.794922,-1.597656 c 6.087813,2.862686 13.134843,2.862686 19.222656,0 l 0.794922,1.597656 c -0.89538,0.522346 -1.829041,0.976118 -2.792969,1.357422 0.479683,0.871002 1.015311,1.71 1.603516,2.511719 3.460354,-1.043432 6.715012,-2.675386 9.621094,-4.824219 0.08852,-0.91809 0.134449,-1.819904 0.15039,-2.710938 -0.0816,-6.64055 -2.162076,-12.536139 -5.798828,-17.853515 -2.496683,-1.14308 -5.132408,-1.954022 -7.839844,-2.41211 -0.370352,0.662181 -0.705454,1.34347 -1.003906,2.041016 -2.884107,-0.43464 -5.817065,-0.43464 -8.701172,0 -0.298608,-0.697475 -0.633706,-1.378755 -1.003906,-2.041016 z m -0.958984,11.033203 c 1.921815,0 3.458661,1.716417 3.425781,3.808594 -0.0024,0.152476 -0.01586,0.301409 -0.0332,0.449219 0.02129,0.180042 0.03614,0.363765 0.0332,0.550781 -0.0329,2.092177 -1.510067,3.792969 -3.419922,3.792969 -1.873995,0 -3.421875,-1.700792 -3.421875,-3.792969 0,-0.170739 0.01388,-0.338911 0.0332,-0.503906 -0.01949,-0.162939 -0.0332,-0.327376 -0.0332,-0.496094 0,-2.092177 1.494206,-3.808594 3.416016,-3.808594 z m 12.630859,0 c 1.924805,0 3.448896,1.716417 3.416016,3.808594 -0.0024,0.151717 -0.0141,0.300167 -0.03125,0.447266 0.02127,0.180612 0.0342,0.365099 0.03125,0.552734 -0.0329,2.092177 -1.506151,3.792969 -3.416016,3.792969 -1.876975,0 -3.419922,-1.700792 -3.419922,-3.792969 0,-0.170739 0.01388,-0.338911 0.0332,-0.503906 -0.01942,-0.162939 -0.0332,-0.327376 -0.0332,-0.496094 0,-2.092177 1.495122,-3.808594 3.419922,-3.808594 z" /><path
     id="path28"
     style="fill:#fafafa;stroke-width:0.298882"
     class="cls-1"
     d="m 26.640625,15.599609 c -2.709125,0.461929 -5.346544,1.274756 -7.845703,2.417969 -3.950251,5.844467 -5.603174,11.572515 -5.775391,17.226563 0.02307,0.777468 0.06873,1.553214 0.142578,2.328125 2.905522,2.147181 6.157729,3.780221 9.615235,4.828125 0.408506,-0.551728 0.792346,-1.121298 1.15039,-1.707032 -0.801922,-0.337328 -1.581501,-0.725486 -2.333984,-1.162109 l 0.794922,-2.597656 c 6.087813,2.862686 13.134843,2.862686 19.222656,0 l 0.794922,2.597656 c -0.754381,0.437993 -1.535913,0.827455 -2.339844,1.166016 0.35791,0.584556 0.741757,1.152831 1.150391,1.703125 3.460354,-1.043432 6.715012,-2.675386 9.621094,-4.824219 0.07842,-0.813275 0.121212,-1.61229 0.142578,-2.404297 -0.213108,-6.359394 -2.280822,-12.027822 -5.791016,-17.160156 -2.496683,-1.14308 -5.132408,-1.954022 -7.839844,-2.41211 -0.370352,0.662181 -0.705454,1.34347 -1.003906,2.041016 -2.884107,-0.43464 -5.817065,-0.43464 -8.701172,0 -0.298608,-0.697475 -0.633706,-1.378755 -1.003906,-2.041016 z m -0.958984,10.033203 c 1.921815,0 3.458661,1.716417 3.425781,3.808594 -0.0052,0.329723 -0.05011,0.647976 -0.123047,0.953125 0.08249,0.333165 0.128748,0.684081 0.123047,1.046875 -0.0329,2.092177 -1.510067,3.792969 -3.419922,3.792969 -1.873995,0 -3.421875,-1.700792 -3.421875,-3.792969 0,-0.348696 0.04496,-0.686237 0.123047,-1.007812 -0.07817,-0.316819 -0.123047,-0.64842 -0.123047,-0.992188 0,-2.092177 1.494206,-3.808593 3.416016,-3.808594 z m 12.630859,0 c 1.924805,0 3.448896,1.716417 3.416016,3.808594 -0.0052,0.327569 -0.04917,0.643918 -0.121094,0.947266 0.08282,0.334808 0.126827,0.687928 0.121094,1.052734 -0.0329,2.092177 -1.506151,3.792969 -3.416016,3.792969 -1.876975,0 -3.419922,-1.700792 -3.419922,-3.792969 0,-0.348696 0.04495,-0.686237 0.123047,-1.007812 -0.07792,-0.316819 -0.123047,-0.64842 -0.123047,-0.992188 0,-2.092177 1.495122,-3.808593 3.419922,-3.808594 z" /></svg>
