<svg height="64" viewBox="0 0 64 64" width="64" xmlns="http://www.w3.org/2000/svg" xmlns:xlink="http://www.w3.org/1999/xlink"><linearGradient id="a" x1="48.9045%" x2="48.9045%" y1=".395456%" y2="99.929117%"><stop offset="0" stop-color="#321d59"/><stop offset="1" stop-color="#1d1134"/></linearGradient><linearGradient id="b" x1="49.999978%" x2="49.999978%" y1="1.10642%" y2="98.896525%"><stop offset="0" stop-color="#fff"/><stop offset=".08626948" stop-color="#fff" stop-opacity=".235294"/><stop offset=".9137004" stop-color="#fff" stop-opacity=".156863"/><stop offset="1" stop-color="#fff" stop-opacity=".392157"/></linearGradient><linearGradient id="c" x1="87.235789%" x2="9.416496%" y1="15.491765%" y2="93.085653%"><stop offset="0" stop-color="#fff44f"/><stop offset=".05" stop-color="#fff44f"/><stop offset=".11" stop-color="#ffe847"/><stop offset=".22" stop-color="#ffc830"/><stop offset=".37" stop-color="#ff980e"/><stop offset=".4" stop-color="#ff8b16"/><stop offset=".46" stop-color="#ff672a"/><stop offset=".53" stop-color="#ff3647"/><stop offset=".7" stop-color="#e31587"/><stop offset="1" stop-color="#e31587"/></linearGradient><radialGradient id="d" cx="85.925388%" cy="-12.928915%" gradientTransform="matrix(.813607 0 0 1 .160159 0)" r="128.293045%"><stop offset="0" stop-color="#ffbd4f"/><stop offset=".13" stop-color="#ffbd4f"/><stop offset=".19" stop-color="#ffac31"/><stop offset=".25" stop-color="#ff9d17"/><stop offset=".28" stop-color="#ff980e"/><stop offset=".4" stop-color="#ff563b"/><stop offset=".47" stop-color="#ff3750"/><stop offset=".71" stop-color="#f5156c"/><stop offset=".78" stop-color="#eb0878"/><stop offset=".86" stop-color="#e50080"/><stop offset="1" stop-color="#e50080"/></radialGradient><radialGradient id="e" cx="47.784708%" cy="39.519103%" gradientTransform="matrix(.813607 0 0 1 .089067 0)" r="128.293045%"><stop offset="0" stop-color="#960e18"/><stop offset=".3" stop-color="#960e18"/><stop offset=".35" stop-color="#b11927" stop-opacity=".74"/><stop offset=".43" stop-color="#db293d" stop-opacity=".34"/><stop offset=".5" stop-color="#f5334b" stop-opacity=".09"/><stop offset=".53" stop-color="#ff3750" stop-opacity="0"/><stop offset="1" stop-color="#ff3750" stop-opacity="0"/></radialGradient><radialGradient id="f" cx="50%" cy="-29.999489%" gradientTransform="matrix(1 0 0 .588951 0 -.123313)" r="314.960083%"><stop offset="0" stop-color="#fff44f"/><stop offset=".13" stop-color="#fff44f"/><stop offset=".25" stop-color="#ffdc3e"/><stop offset=".51" stop-color="#ff9d12"/><stop offset="1" stop-color="#ff980e"/></radialGradient><radialGradient id="g" cx="19.463056%" cy="110.099796%" gradientTransform="matrix(1 0 0 .912036 0 .096848)" r="111.769667%"><stop offset="0" stop-color="#3a8ee6"/><stop offset=".35" stop-color="#3a8ee6"/><stop offset=".47" stop-color="#5c79f0"/><stop offset=".67" stop-color="#9059ff"/><stop offset="1" stop-color="#c139e6"/></radialGradient><radialGradient id="h" cx="48.795952%" cy="28.731752%" gradientTransform="matrix(.97072832 -.21905299 .2401802 .88533917 -.054725 .139833)" r="59.216185%"><stop offset="0" stop-color="#9059ff" stop-opacity="0"/><stop offset=".21" stop-color="#9059ff" stop-opacity="0"/><stop offset=".28" stop-color="#8c4ff3" stop-opacity=".06"/><stop offset=".75" stop-color="#7716a8" stop-opacity=".45"/><stop offset=".97" stop-color="#6e008b" stop-opacity=".6"/><stop offset="1" stop-color="#6e008b" stop-opacity=".6"/></radialGradient><radialGradient id="i" cx="208.04853%" cy="-103.932584%" gradientTransform="matrix(1 0 0 .996255 0 -.003892)" r="293.267259%"><stop offset="0" stop-color="#ffe226"/><stop offset=".12" stop-color="#ffdb27"/><stop offset=".3" stop-color="#ffc82a"/><stop offset=".5" stop-color="#ffa930"/><stop offset=".73" stop-color="#ff7e37"/><stop offset=".79" stop-color="#ff7139"/><stop offset="1" stop-color="#ff7139"/></radialGradient><radialGradient id="j" cx="79.284489%" cy="-40.870048%" gradientTransform="matrix(.839405 0 0 1 .127327 0)" r="193.77375%"><stop offset="0" stop-color="#fff44f"/><stop offset=".11" stop-color="#fff44f"/><stop offset=".46" stop-color="#ff980e"/><stop offset=".62" stop-color="#ff5634"/><stop offset=".72" stop-color="#ff3647"/><stop offset=".9" stop-color="#e31587"/><stop offset="1" stop-color="#e31587"/></radialGradient><radialGradient id="k" cx=".43199%" cy="1.756615%" gradientTransform="matrix(.10049871 .47105998 -.99493719 .04758182 .021363 .014695)" r="346.848896%"><stop offset="0" stop-color="#fff44f"/><stop offset=".06" stop-color="#ffe847"/><stop offset=".17" stop-color="#ffc830"/><stop offset=".3" stop-color="#ff980e"/><stop offset=".36" stop-color="#ff8b16"/><stop offset=".45" stop-color="#ff672a"/><stop offset=".57" stop-color="#ff3647"/><stop offset=".74" stop-color="#e31587"/><stop offset="1" stop-color="#e31587"/></radialGradient><radialGradient id="l" cx="15.34403%" cy="-42.477256%" gradientTransform="matrix(.982826 0 0 1 .002635 0)" r="238.364264%"><stop offset="0" stop-color="#fff44f"/><stop offset=".14" stop-color="#fff44f"/><stop offset=".48" stop-color="#ff980e"/><stop offset=".59" stop-color="#ff5634"/><stop offset=".66" stop-color="#ff3647"/><stop offset=".9" stop-color="#e31587"/><stop offset="1" stop-color="#e31587"/></radialGradient><radialGradient id="m" cx="155.387205%" cy="-44.717154%" gradientTransform="matrix(.894782 0 0 1 .163495 0)" r="313.088672%"><stop offset="0" stop-color="#fff44f"/><stop offset=".09" stop-color="#fff44f"/><stop offset=".23" stop-color="#ffe141"/><stop offset=".51" stop-color="#ffaf1e"/><stop offset=".63" stop-color="#ff980e"/><stop offset="1" stop-color="#ff980e"/></radialGradient><linearGradient id="n" x1="86.299524%" x2="20.086026%" y1="15.076501%" y2="83.508376%"><stop offset="0" stop-color="#fff44f" stop-opacity=".8"/><stop offset=".17" stop-color="#fff44f" stop-opacity=".8"/><stop offset=".27" stop-color="#fff44f" stop-opacity=".63"/><stop offset=".49" stop-color="#fff44f" stop-opacity=".22"/><stop offset=".6" stop-color="#fff44f" stop-opacity="0"/><stop offset="1" stop-color="#fff44f" stop-opacity="0"/></linearGradient><g fill="none" fill-rule="evenodd"><g transform="translate(4.5 4.5)"><rect fill="url(#a)" fill-rule="nonzero" height="55" rx="6" width="55"/><g stroke-linecap="round" stroke-linejoin="round"><rect height="53.142479" opacity=".3" rx="5" stroke="url(#b)" width="53" x="1" y=".928761"/><rect height="55" opacity=".5" rx="6" stroke="#1d1134" width="55"/></g></g><g fill-rule="nonzero" transform="translate(12.066871 11.749252)"><path d="m38.4336179 14.4675382c-.8671673-2.0334191-2.6247592-4.2286702-4.004419-4.92212029 1.1229982 2.14508319 1.7725431 4.29663959 2.0208985 5.90201299 0 0 0 .0113283.0041531.0323664-2.2567946-5.48124979-6.0842915-7.6918749-9.2099146-12.50394941-.1586484-.242748-.3164662-.485496-.4709615-.74523636-.0872151-.14645796-.1578178-.2791602-.2192837-.40458-.1294936-.24331441-.2295834-.50046546-.2981926-.76627451.0010798-.02605496-.0183567-.04887327-.0448535-.0525954-.0122101-.00323664-.0251677-.00323664-.0373779 0-.0033224.00145648-.0063957.00339847-.0091368.00566412-.0049837 0-.0099674.00566412-.0149511.00728244l.0083062-.01051908c-5.014453 2.86118975-6.7155627 8.15390529-6.8717193 10.802286-2.0035385.1334304-3.9199449.85245-5.4978737 2.0625488-.1649612-.135858-.3373979-.2628152-.5166457-.3803052-.4547644-1.5508361-.4739517-3.1924599-.0556515-4.75300583-2.0508008.910305-3.64559119 2.34656403-4.8051367 3.61775433h-.00913682c-.79158086-.9766561-.73592932-4.19792205-.69107584-4.870334-.00913682-.04207632-.5897402.29372508-.664496.34470216-.69846836.48541508-1.35141874 1.0302225-1.95112637 1.62802991-.68243739.67403023-1.30590076 1.40235523-1.86391128 2.17744953-1.28380627 1.7723032-2.19424885 3.775136-2.67874949 5.8923031-.00913682.0420763-.01744302.085771-.02657984.1286565-.0373779.1707327-.17276896 1.0276332-.19685694 1.21374v.0428854c-.17650675.8853829-.28639778 1.7821749-.32892552 2.6831746v.0995267c0 10.7391715 8.93747118 19.445733 19.9614598 19.445733 9.8735799 0 18.0709687-6.9830507 19.6765571-16.1556885.0332248-.2484121.0606353-.4992517.0905376-.7500913.3970364-3.3353575-.0440229-6.8406386-1.2949366-9.7714161z" fill="#000" opacity=".15"/><path d="m37.4397115 14.1324923c-.8237396-1.9828138-2.4933114-4.1234322-3.803878-4.79962455 1.0667586 2.09169895 1.6837743 4.18971005 1.919692 5.75513085 0 0 0 .0110464.0039452.031561-2.1437745-5.34483919-5.7795906-7.50044895-8.7486827-12.19276639-.1507033-.23670679-.3006176-.47341357-.4473758-.72668982-.0828474-.1428131-.1499143-.2722128-.208302-.39451131-.1230086-.2372591-.2180858-.48801048-.2832591-.74720441.0010257-.02540653-.0174374-.04765696-.0426072-.05128647-.0115987-.00315609-.0239074-.00315609-.035506 0-.0031561.00142024-.0060755.0033139-.0086793.00552316-.0047341 0-.0094683.00552316-.0142024.00710121l.0078902-.0102573c-4.7633295 2.78998394-6.3792478 7.95098081-6.527584 10.53345183-1.9032014.1301098-3.7236344.8312353-5.2225406 2.0112186-.1566999-.1324769-.320501-.2562745-.4907721-.3708406-.4319899-1.5122408-.4502163-3.1130098-.0528645-4.63471882-1.9480968.88765043-3.4630202 2.28816552-4.5644958 3.52772012h-.00867925c-.75193854-.9523503-.69907403-4.09344933-.65646681-4.74912711-.00867925-.04102918-.56020605.2864152-.63121808.33612363-.66348911.47333466-1.28373979 1.00458358-1.85341411 1.58751348-.64826097.65725583-1.24050134 1.3674551-1.77056673 2.1232598-1.21951334 1.7281963-2.08436102 3.681185-2.54459791 5.7456627-.00867925.0410291-.01656947.0836364-.02524872.1254546-.03550602.1664837-.1641167 1.0020587-.18699836 1.1835339v.0418182c-.1676673.8633485-.27205499 1.7378223-.31245295 2.6163989v.0970498c0 10.4719081 8.48988325 18.9617913 18.96179132 18.9617913 9.3791117 0 17.1659758-6.8092651 18.6911565-15.7536254.0315609-.2422299.0575987-.4868269.0860035-.7314239.3771528-3.2523512-.0418182-6.6703971-1.2300863-9.528237z" fill="#000" opacity=".15"/><path d="m37.506498 13.1277581c-.8237396-1.9828138-2.4933115-4.12343211-3.803878-4.79962448 1.0667586 2.09169888 1.6837742 4.18971008 1.919692 5.75513088 0 0 0 .0110463.0039451.0315609-2.1437744-5.34483912-5.7795906-7.50044889-8.7486827-12.19276633-.1507033-.23670678-.3006176-.47341356-.4473758-.72668982-.0828473-.14281309-.1499143-.2722128-.2083019-.3945113-.1230087-.2372591-.2180859-.48801049-.2832592-.74720441.0010258-.02540653-.0174374-.04765697-.0426072-.05128647-.0115986-.00315609-.0239074-.00315609-.035506 0-.0031561.00142024-.0060755.00331389-.0086792.00552316-.0047342 0-.0094683.00552315-.0142025.0071012l.0078903-.01025729c-4.7633295 2.78998393-6.3792478 7.95098081-6.5275841 10.53345176-1.9032014.1301099-3.7236343.8312354-5.2225406 2.0112187-.1566999-.1324769-.320501-.2562746-.4907721-.3708407-.4319898-1.5122407-.4502163-3.11300975-.0528645-4.63471875-1.9480968.88765043-3.4630202 2.28816556-4.56449575 3.52772005h-.00867925c-.75193854-.9523503-.69907403-4.09344926-.65646681-4.74912705-.00867925-.04102918-.56020605.28641521-.63121808.33612363-.66348911.47333466-1.28373978 1.00458358-1.85341411 1.58751349-.64826097.65725583-1.24050134 1.36745508-1.77056673 2.12325983-1.21951334 1.7281962-2.08436102 3.681185-2.5445979 5.7456626-.00867925.0410292-.01656948.0836364-.02524873.1254546-.03550601.1664838-.1641167 1.0020587-.18699836 1.1835339v.0418182c-.1676673.8633486-.27205499 1.7378223-.31245295 2.616399v.0970498c0 10.471908 8.48988325 18.9617913 18.96179127 18.9617913 9.3791118 0 17.1659759-6.8092651 18.6911566-15.7536254.0315609-.2422299.0575986-.486827.0860034-.731424.3771528-3.2523511-.0418182-6.6703971-1.2300862-9.528237zm-21.8559262 14.8430933c.0883705.0418182.1720069.0883706.2627445.1293997l.0126244.0078903c-.0907376-.0441853-.1830533-.0899486-.2745799-.13729zm19.9878122-13.8316881v-.026z" fill="url(#c)"/><path d="m37.506498 13.1277581c-.8237396-1.9828138-2.4933115-4.12343211-3.803878-4.79962448 1.0667586 2.09169888 1.6837742 4.18971008 1.919692 5.75513088v.0386621c1.7895033 4.850911.8142713 9.7838803-.5901889 12.7979467-2.1729683 4.6631236-7.433382 9.4430226-15.6684109 9.2102609-8.8899178-.2524872-16.72727931-6.8573955-18.19091625-15.5011381-.26668964-1.3642201 0-2.056193.13413384-3.1631917-.16332768.8529335-.22566046 1.0998975-.30692979 2.616399v.0970498c0 10.471908 8.48988325 18.9617913 18.9617913 18.9617913 9.3791117 0 17.1659758-6.8092651 18.6911565-15.7536254.0315609-.2422299.0575987-.486827.0860035-.731424.3747857-3.2523511-.0441853-6.6703971-1.2324533-9.528237z" fill="url(#d)"/><path d="m37.506498 13.1277581c-.8237396-1.9828138-2.4933115-4.12343211-3.803878-4.79962448 1.0667586 2.09169888 1.6837742 4.18971008 1.919692 5.75513088v.0386621c1.7895033 4.850911.8142713 9.7838803-.5901889 12.7979467-2.1729683 4.6631236-7.433382 9.4430226-15.6684109 9.2102609-8.8899178-.2524872-16.72727931-6.8573955-18.19091625-15.5011381-.26668964-1.3642201 0-2.056193.13413384-3.1631917-.16332768.8529335-.22566046 1.0998975-.30692979 2.616399v.0970498c0 10.471908 8.48988325 18.9617913 18.9617913 18.9617913 9.3791117 0 17.1659758-6.8092651 18.6911565-15.7536254.0315609-.2422299.0575987-.486827.0860035-.731424.3747857-3.2523511-.0441853-6.6703971-1.2324533-9.528237z" fill="url(#e)"/><path d="m28.291503 15.355958c.0418182.0291938.0789022.0583877.1183533.0875815-.4758595-.8449643-1.06881-1.6185221-1.7610984-2.2976338-5.8939989-5.89399892-1.5449063-12.78058823-.8119043-13.13091427l.0078903-.01025729c-4.7633295 2.78998393-6.3792478 7.95098081-6.5275841 10.53345176.2209264-.0149914.4410637-.0339279.6659351-.0339279 3.5545468 0 6.6506716 1.955198 8.3084081 4.8517z" fill="url(#f)"/><path d="m19.9949302 16.5331797c-.0307718.4734136-1.6971876 2.0988001-2.2802753 2.0988001-5.3921805 0-6.2672066 3.2618195-6.2672066 3.2618195.2367068 2.7473767 2.1508757 5.0095045 4.466657 6.2064518.105729.0544426.2122471.103362.3156091.1522814.1854203.0789023.3716296.1578045.5570499.2280275.7941513.280103 1.62586.4397223 2.4672737.4734136 9.4509128.4434307 11.2830233-11.3003818 4.4619229-14.7105375 1.746107-.3037737 3.5592809.3992454 4.5715969 1.1101548-1.6569474-2.896502-4.7538612-4.8517-8.308408-4.8517-.2248715 0-.4450088.0189365-.6659351.033928-1.9017812.1317667-3.7204783.8336024-5.2178065 2.0135857.2895713.245386.6162267.5720414 1.3034654 1.2490228 1.2892629 1.2719044 4.5889554 2.5808929 4.5960566 2.7347523z" fill="url(#g)"/><path d="m19.9949302 16.5331797c-.0307718.4734136-1.6971876 2.0988001-2.2802753 2.0988001-5.3921805 0-6.2672066 3.2618195-6.2672066 3.2618195.2367068 2.7473767 2.1508757 5.0095045 4.466657 6.2064518.105729.0544426.2122471.103362.3156091.1522814.1854203.0789023.3716296.1578045.5570499.2280275.7941513.280103 1.62586.4397223 2.4672737.4734136 9.4509128.4434307 11.2830233-11.3003818 4.4619229-14.7105375 1.746107-.3037737 3.5592809.3992454 4.5715969 1.1101548-1.6569474-2.896502-4.7538612-4.8517-8.308408-4.8517-.2248715 0-.4450088.0189365-.6659351.033928-1.9017812.1317667-3.7204783.8336024-5.2178065 2.0135857.2895713.245386.6162267.5720414 1.3034654 1.2490228 1.2892629 1.2719044 4.5889554 2.5808929 4.5960566 2.7347523z" fill="url(#h)"/><path d="m13.21407 11.9189755c.1538594.0994169.280103.1830532.3945113.2595884-.4319899-1.5122407-.4502163-3.11300975-.0528646-4.63471875-1.9480968.88765043-3.4630202 2.28816556-4.56449574 3.52772005.08915956-.002367 2.83969234-.0520755 4.22284904.8474103z" fill="url(#i)"/><path d="m1.17279595 20.6289961c1.46363694 8.6437426 9.30099845 15.2486509 18.19722835 15.5011381 8.235029.2327617 13.4922866-4.5471373 15.668411-9.2102609 1.4044602-3.0148554 2.3796922-7.9470357.5901889-12.7979467v-.036295c0 .0047341 0 .0110463.0039451.0315609.6722473 4.3924888-1.5614757 8.6476878-5.0536898 11.5252532-.0036295.008048-.0070223.0162539-.0102573.0244597-6.80532 5.5413058-13.3171236 3.3430888-14.6355803 2.4459701-.0915267-.0441853-.1838423-.0899486-.2753689-.1372899-3.9679947-1.8936543-5.6067947-5.511323-5.2556796-8.6113928-3.34940098 0-4.49190572-2.826279-4.49190572-2.826279s3.00775418-2.1445634 6.97180372-.279314c3.6713222 1.7279596 7.119351.2801031 7.119351.279314-.0071012-.1538594-3.3067937-1.466793-4.5936896-2.7347523-.6872387-.6769814-1.013894-1.0036368-1.3034653-1.2490228-.1566999-.1324769-.320501-.2562745-.4907721-.3708406-.1128302-.0789023-.2367068-.1578045-.3945113-.2595885-1.3831566-.8994857-4.13368945-.8497773-4.22442705-.8474102h-.00867924c-.75193855-.9523503-.69907403-4.09344933-.65646681-4.74912711-.00867925-.04102918-.56020605.2864152-.63121809.33612363-.66348911.47333466-1.28373978 1.00458358-1.8534141 1.58751348-.64826098.65725583-1.24050135 1.36745508-1.77056673 2.1232598-1.21951334 1.7281963-2.08436102 3.681185-2.54459791 5.7456627-.01499143.036295-.68960576 2.9817164-.35663822 4.5092642z" fill="url(#j)"/><path d="m26.6487579 13.1459057c.6922884.6791117 1.2852389 1.4526695 1.7610984 2.2976338.0986279.0740892.1933895.1530704.2840482.2367068 4.2985951 3.9577374 2.0498807 9.5605869 1.8786628 9.9629884 3.4922141-2.8775654 5.7259371-7.1327643 5.0536898-11.5252532-2.1437744-5.34799522-5.7795906-7.50360499-8.7486827-12.19592243-.1507033-.23670678-.3006176-.47341356-.4473758-.72668982-.0828473-.14281309-.1499143-.2722128-.2083019-.3945113-.1230087-.2372591-.2180859-.48801049-.2832592-.74720441.0010258-.02540653-.0174374-.04765697-.0426072-.05128647-.0115986-.00315609-.0239074-.00315609-.035506 0-.0031561.00142024-.0060755.00331389-.0086792.00552316-.0047342 0-.0094683.00552315-.0142025.0071012-.733791.35032604-5.0828836 7.23691535.8111153 13.13091427z" fill="url(#k)"/><path d="m28.6923264 15.6763012c-.0906587-.0836364-.1854203-.1626176-.2840481-.2367068-.0386621-.0291939-.0789023-.0583877-.1183534-.0875815-1.012316-.7101204-2.8254899-1.4139285-4.571597-1.1101548 6.8203114 3.4101557 4.98899 15.1539681-4.4619228 14.7105374-.8414137-.0336912-1.6731225-.1933105-2.4672737-.4734135-.1854203-.069434-.3716297-.1459692-.55705-.2280276-.107307-.0489194-.2138251-.0978388-.315609-.1522813l.0126243.0078902c1.3184568.8994858 7.8302604 3.0977028 14.6355804-2.4459701 0 0 .0039451-.0102573.0102573-.0244597.1688508-.3953003 2.4175652-5.9981498-1.882608-9.9598323z" fill="url(#l)"/><path d="m11.4474483 21.8937993s.8750261-3.2618195 6.2672066-3.2618195c.5830877 0 2.2495035-1.6269646 2.2802753-2.0988001.0307719-.4718355-3.4480288 1.4486455-7.1193509-.279314-3.96404962-1.8652494-6.9718038.279314-6.9718038.279314s1.14250474 2.826279 4.4919057 2.826279c-.3511151 3.1000698 1.2876849 6.7145824 5.2556796 8.6113927.0883705.0418182.1720069.0883706.2627445.1293997-2.3157813-1.1945802-4.2275831-3.4590751-4.466657-6.2064518z" fill="url(#m)"/><path d="m37.506498 13.1277581c-.8237396-1.9828138-2.4933115-4.12343211-3.803878-4.79962448 1.0667586 2.09169888 1.6837742 4.18971008 1.919692 5.75513088 0 0 0 .0110463.0039451.0315609-2.1437744-5.34483912-5.7795906-7.50044889-8.7486827-12.19276633-.1507033-.23670678-.3006176-.47341356-.4473758-.72668982-.0828473-.14281309-.1499143-.2722128-.2083019-.3945113-.1230087-.2372591-.2180859-.48801049-.2832592-.74720441.0010258-.02540653-.0174374-.04765697-.0426072-.05128647-.0115986-.00315609-.0239074-.00315609-.035506 0-.0031561.00142024-.0060755.00331389-.0086792.00552316-.0047342 0-.0094683.00552315-.0142025.0071012l.0078903-.01025729c-4.7633295 2.78998393-6.3792478 7.95098081-6.5275841 10.53345176.2209264-.0149914.4410637-.0339279.6659351-.0339279 3.5545469 0 6.6506716 1.955198 8.3084081 4.8517-1.012316-.7101204-2.82549-1.4139285-4.571597-1.1101548 6.8203114 3.4101557 4.9889899 15.1539682-4.4619229 14.7105375-.8414137-.0336913-1.6731224-.1933106-2.4672736-.4734136-.1854204-.069434-.3716297-.1459692-.55705-.2280275-.1073071-.0489194-.2138251-.0978388-.315609-.1522814l.0126243.0078902c-.0915266-.0441852-.1838423-.0899486-.2753689-.1372899.0883706.0418182.172007.0883705.2627446.1293997-2.3205155-1.1969473-4.2323173-3.4614422-4.4713912-6.2088189 0 0 .8750261-3.2618195 6.2672066-3.2618195.5830877 0 2.2495035-1.6269646 2.2802753-2.0988001-.0071012-.1538594-3.3067937-1.466793-4.5936896-2.7347523-.6872387-.6769814-1.013894-1.0036368-1.3034653-1.2490228-.1566999-.1324769-.320501-.2562746-.4907721-.3708407-.4319899-1.5122407-.4502163-3.11300975-.0528645-4.63471875-1.9480968.88765043-3.4630202 2.28816556-4.56449578 3.52772005h-.00867925c-.75193854-.9523503-.69907403-4.09344926-.65646681-4.74912705-.00867925-.04102918-.56020605.28641521-.63121808.33612363-.66348911.47333466-1.28373979 1.00458358-1.85341411 1.58751349-.64826097.65725583-1.24050134 1.36745508-1.77056673 2.12325983-1.21951334 1.7281962-2.08436102 3.681185-2.54459791 5.7456626-.00867924.0410292-.01656947.0836364-.02524872.1254546-.03550602.1664838-.19646663 1.0138941-.21855926 1.1953693-.14770503.8755784-.24230884 1.7593626-.28325912 2.6463818v.0970498c0 10.471908 8.48988325 18.9617913 18.96179127 18.9617913 9.3791118 0 17.1659759-6.8092651 18.6911566-15.7536254.0315609-.2422299.0575986-.486827.0860034-.731424.3771528-3.2523511-.0418182-6.6703971-1.2300862-9.528237zm-1.870481.9814601v.026z" fill="url(#n)"/></g></g></svg>