<?xml version="1.0" encoding="UTF-8" standalone="no"?>
<svg
   width="64"
   height="64"
   viewBox="0 0 64 64"
   fill="none"
   version="1.1"
   id="svg4"
   xml:space="preserve"
   sodipodi:docname="slack.svg"
   inkscape:version="1.4.2 (ebf0e940d0, 2025-05-08)"
   xmlns:inkscape="http://www.inkscape.org/namespaces/inkscape"
   xmlns:sodipodi="http://sodipodi.sourceforge.net/DTD/sodipodi-0.dtd"
   xmlns:xlink="http://www.w3.org/1999/xlink"
   xmlns="http://www.w3.org/2000/svg"
   xmlns:svg="http://www.w3.org/2000/svg"><sodipodi:namedview
     id="namedview1"
     pagecolor="#ffffff"
     bordercolor="#000000"
     borderopacity="0.25"
     inkscape:showpageshadow="2"
     inkscape:pageopacity="0.0"
     inkscape:pagecheckerboard="0"
     inkscape:deskcolor="#d1d1d1"
     showgrid="false"
     inkscape:zoom="2.185"
     inkscape:cx="2.7459954"
     inkscape:cy="26.315789"
     inkscape:current-layer="svg4"><inkscape:page
       x="0"
       y="0"
       width="64"
       height="64"
       id="page2"
       margin="0"
       bleed="0" /><inkscape:grid
       id="grid4"
       units="px"
       originx="-74"
       originy="0"
       spacingx="0.5"
       spacingy="0.5"
       empcolor="#0099e5"
       empopacity="0.30196078"
       color="#0099e5"
       opacity="0.0784314"
       empspacing="2"
       enabled="true"
       visible="false" /></sodipodi:namedview><defs
     id="defs4"><inkscape:path-effect
       effect="offset"
       id="path-effect4"
       is_visible="true"
       lpeversion="1.3"
       linejoin_type="miter"
       unit="px"
       offset="-0.5"
       miter_limit="4"
       attempt_force_join="false"
       update_on_knot_move="true" /><linearGradient
       id="linearGradient4"><stop
         style="stop-color:#fafafa;stop-opacity:1;"
         offset="0"
         id="stop4" /><stop
         style="stop-color:#d4d4d4;stop-opacity:1;"
         offset="1"
         id="stop5" /></linearGradient><linearGradient
       y2="42.05267"
       x2="37.962261"
       y1="5.8481112"
       x1="37.962261"
       gradientTransform="matrix(1.4324324,0,0,1.4362832,-2.378375,-2.3995437)"
       gradientUnits="userSpaceOnUse"
       id="linearGradient3904"
       xlink:href="#linearGradient4270" /><linearGradient
       id="linearGradient4270"><stop
         id="stop4272"
         style="stop-color:#ffffff;stop-opacity:1"
         offset="0" /><stop
         id="stop4274"
         style="stop-color:#ffffff;stop-opacity:0.23529412"
         offset="0.08653846" /><stop
         id="stop4276"
         style="stop-color:#ffffff;stop-opacity:0.15686275"
         offset="0.91346157" /><stop
         id="stop4278"
         style="stop-color:#ffffff;stop-opacity:0.39215687"
         offset="1" /></linearGradient><linearGradient
       id="linearGradient3688-166-749-654"><stop
         offset="0"
         style="stop-color:#181818;stop-opacity:1"
         id="stop3088" /><stop
         offset="1"
         style="stop-color:#181818;stop-opacity:0"
         id="stop3090" /></linearGradient><linearGradient
       id="linearGradient3702-501-757-795"><stop
         offset="0"
         style="stop-color:#181818;stop-opacity:0"
         id="stop3100" /><stop
         offset="0.5"
         style="stop-color:#181818;stop-opacity:1"
         id="stop3102" /><stop
         offset="1"
         style="stop-color:#181818;stop-opacity:0"
         id="stop3104" /></linearGradient><radialGradient
       cx="4.9929786"
       cy="43.5"
       r="2.5"
       fx="4.9929786"
       fy="43.5"
       id="radialGradient3337-2-2"
       xlink:href="#linearGradient3688-166-749-654"
       gradientUnits="userSpaceOnUse"
       gradientTransform="matrix(2.4045407,0,0,0.99999998,41.985755,15.500001)" /><radialGradient
       cx="4.9929786"
       cy="43.5"
       r="2.5"
       fx="4.9929786"
       fy="43.5"
       id="radialGradient3339-1-4"
       xlink:href="#linearGradient3688-166-749-654"
       gradientUnits="userSpaceOnUse"
       gradientTransform="matrix(2.4045407,0,0,0.99999998,-22.014244,-102.5)" /><linearGradient
       x1="25.058096"
       y1="47.027729"
       x2="25.058096"
       y2="39.999443"
       id="linearGradient6394"
       xlink:href="#linearGradient3702-501-757-795"
       gradientUnits="userSpaceOnUse"
       gradientTransform="matrix(1.5714286,0,0,0.7142857,-5.7142853,27.928572)" /><style
       id="style1">.g{fill:#000;}.g,.h,.i{stroke-width:0px;}.h{fill:url(#e);}.i{fill:#fff;}</style><style
       id="style1-6">.cls-1{fill:#fff;}</style><style
       id="style1-67">.cls-1{fill:#fff;}</style><linearGradient
       xlink:href="#linearGradient4"
       id="linearGradient5"
       x1="33.5"
       y1="5"
       x2="33.5"
       y2="59"
       gradientUnits="userSpaceOnUse" /><linearGradient
       id="linearGradient24"><stop
         style="stop-color:#fafafa;stop-opacity:1;"
         offset="0"
         id="stop24" /><stop
         style="stop-color:#fafafa;stop-opacity:0;"
         offset="1"
         id="stop25" /></linearGradient><linearGradient
       id="linearGradient23"><stop
         offset="0"
         style="stop-color:#ffffff;stop-opacity:1"
         id="stop20" /><stop
         offset="0.13392857"
         style="stop-color:#ffffff;stop-opacity:0.23529412"
         id="stop21" /><stop
         offset="0.8660714"
         style="stop-color:#ffffff;stop-opacity:0.15686275"
         id="stop22" /><stop
         offset="1"
         style="stop-color:#ffffff;stop-opacity:0.39215687"
         id="stop23" /></linearGradient><linearGradient
       id="linearGradient2"><stop
         style="stop-color:#5865f2;stop-opacity:1;"
         offset="0"
         id="stop3-3" /><stop
         style="stop-color:#1f30f4;stop-opacity:1;"
         offset="1"
         id="stop4-5" /></linearGradient><style
       id="style1-53">.g{fill:#000;}.g,.h,.i{stroke-width:0px;}.h{fill:url(#e);}.i{fill:#fff;}</style><style
       id="style1-6-5">.cls-1{fill:#fff;}</style><style
       id="style1-67-6">.cls-1{fill:#fff;}</style><style
       id="style1-56">.g{fill:#000;}.g,.h,.i{stroke-width:0px;}.h{fill:url(#e);}.i{fill:#fff;}</style><style
       id="style1-7">.g{fill:#000;}.g,.h,.i{stroke-width:0px;}.h{fill:url(#e);}.i{fill:#fff;}</style><style
       id="style1-5">.g{fill:#000;}.g,.h,.i{stroke-width:0px;}.h{fill:url(#e);}.i{fill:#fff;}</style><style
       id="style1-3">.g{fill:#000;}.g,.h,.i{stroke-width:0px;}.h{fill:url(#e);}.i{fill:#fff;}</style><style
       id="style1-6-1">.cls-1{fill:#fff;}</style><style
       id="style1-2">.g{fill:#000;}.g,.h,.i{stroke-width:0px;}.h{fill:url(#e);}.i{fill:#fff;}</style><style
       id="style1-6-8">.cls-1{fill:#fff;}</style><linearGradient
       xlink:href="#linearGradient4"
       id="linearGradient11"
       x1="32"
       y1="3"
       x2="32"
       y2="61"
       gradientUnits="userSpaceOnUse"
       gradientTransform="translate(0,-67)" /><linearGradient
       xlink:href="#linearGradient23"
       id="linearGradient20"
       x1="32"
       y1="4"
       x2="32"
       y2="60"
       gradientUnits="userSpaceOnUse"
       gradientTransform="translate(0,-67)" /><linearGradient
       xlink:href="#linearGradient24"
       id="linearGradient25"
       x1="53.554375"
       y1="59.875896"
       x2="52.482929"
       y2="55.161541"
       gradientUnits="userSpaceOnUse"
       gradientTransform="translate(0,-67)" /><linearGradient
       id="linearGradient3820-7-2"><stop
         offset="0"
         style="stop-color:#000000;stop-opacity:1"
         id="stop3822-2-6" /><stop
         offset="1"
         style="stop-color:#000000;stop-opacity:0"
         id="stop3824-1-2" /></linearGradient><radialGradient
       xlink:href="#linearGradient3820-7-2"
       id="radialGradient3"
       gradientUnits="userSpaceOnUse"
       gradientTransform="matrix(0.3823536,7.5555777e-8,-1.8372241e-8,0.1115198,-5.9254271,36.335849)"
       cx="99.189415"
       cy="185.29727"
       fx="99.189415"
       fy="185.29727"
       r="62.769119" /><radialGradient
       xlink:href="#linearGradient3820-7-2"
       id="radialGradient4"
       gradientUnits="userSpaceOnUse"
       gradientTransform="matrix(0.2549024,5.3967361e-8,-1.2248161e-8,0.07965545,6.7163816,44.240666)"
       cx="99.189415"
       cy="185.29727"
       fx="99.189415"
       fy="185.29727"
       r="62.769119" /><style
       id="style1-9">.g{fill:#000;}.g,.h,.i{stroke-width:0px;}.h{fill:url(#e);}.i{fill:#fff;}</style><style
       id="style1-6-22">.cls-1{fill:#fff;}</style><style
       id="style1-67-8">.cls-1{fill:#fff;}</style><style
       id="style1-56-9">.g{fill:#000;}.g,.h,.i{stroke-width:0px;}.h{fill:url(#e);}.i{fill:#fff;}</style><style
       id="style1-7-7">.g{fill:#000;}.g,.h,.i{stroke-width:0px;}.h{fill:url(#e);}.i{fill:#fff;}</style><style
       id="style1-5-3">.g{fill:#000;}.g,.h,.i{stroke-width:0px;}.h{fill:url(#e);}.i{fill:#fff;}</style><style
       id="style1-3-6">.g{fill:#000;}.g,.h,.i{stroke-width:0px;}.h{fill:url(#e);}.i{fill:#fff;}</style><style
       id="style1-6-1-1">.cls-1{fill:#fff;}</style><style
       id="style1-2-2">.g{fill:#000;}.g,.h,.i{stroke-width:0px;}.h{fill:url(#e);}.i{fill:#fff;}</style><style
       id="style1-6-8-9">.cls-1{fill:#fff;}</style><linearGradient
       xlink:href="#linearGradient2"
       id="linearGradient11-3"
       x1="32"
       y1="3"
       x2="32"
       y2="61"
       gradientUnits="userSpaceOnUse"
       gradientTransform="translate(0,-65)" /><linearGradient
       xlink:href="#linearGradient23"
       id="linearGradient20-1"
       x1="32"
       y1="4"
       x2="32"
       y2="60"
       gradientUnits="userSpaceOnUse"
       gradientTransform="translate(0,-65)" /><linearGradient
       xlink:href="#linearGradient24"
       id="linearGradient25-9"
       x1="53.554375"
       y1="59.875896"
       x2="52.482929"
       y2="55.161541"
       gradientUnits="userSpaceOnUse"
       gradientTransform="translate(0,-65)" /><radialGradient
       xlink:href="#linearGradient3820-7-2"
       id="radialGradient3-8"
       gradientUnits="userSpaceOnUse"
       gradientTransform="matrix(0.3823536,7.5555777e-8,-1.8372241e-8,0.1115198,-5.9254271,36.335849)"
       cx="99.189415"
       cy="185.29727"
       fx="99.189415"
       fy="185.29727"
       r="62.769119" /><radialGradient
       xlink:href="#linearGradient3820-7-2"
       id="radialGradient4-4"
       gradientUnits="userSpaceOnUse"
       gradientTransform="matrix(0.2549024,5.3967361e-8,-1.2248161e-8,0.07965545,6.7163816,44.240666)"
       cx="99.189415"
       cy="185.29727"
       fx="99.189415"
       fy="185.29727"
       r="62.769119" /><linearGradient
       id="linearGradient909"><stop
         id="stop901"
         style="stop-color:#cd9ef7;stop-opacity:1"
         offset="0" /><stop
         id="stop907"
         style="stop-color:#a56de2;stop-opacity:1"
         offset="1" /></linearGradient><linearGradient
       y2="39.317303"
       x2="23.999998"
       y1="5.8977108"
       x1="23.999998"
       gradientTransform="matrix(1.4324324,0,0,1.4362832,-2.378375,-2.4707827)"
       gradientUnits="userSpaceOnUse"
       id="linearGradient3904-5"
       xlink:href="#linearGradient4270-0" /><linearGradient
       id="linearGradient4270-0"><stop
         id="stop4272-3"
         style="stop-color:#ffffff;stop-opacity:1"
         offset="0" /><stop
         id="stop4274-6"
         style="stop-color:#ffffff;stop-opacity:0.23529412"
         offset="0.09375" /><stop
         id="stop4276-1"
         style="stop-color:#ffffff;stop-opacity:0.15686275"
         offset="0.92708337" /><stop
         id="stop4278-0"
         style="stop-color:#ffffff;stop-opacity:0.39215687"
         offset="1" /></linearGradient><linearGradient
       xlink:href="#linearGradient4"
       id="linearGradient899"
       x1="31.781376"
       y1="4.9266648"
       x2="32"
       y2="55"
       gradientUnits="userSpaceOnUse" /><linearGradient
       id="linearGradient18"><stop
         style="stop-color:#ffffff;stop-opacity:1;"
         offset="0"
         id="stop18" /><stop
         style="stop-color:#ffffff;stop-opacity:0;"
         offset="1"
         id="stop19" /></linearGradient><linearGradient
       id="linearGradient17"><stop
         offset="0"
         style="stop-color:#ffffff;stop-opacity:1"
         id="stop14" /><stop
         offset="0.14473684"
         style="stop-color:#ffffff;stop-opacity:0.23529412"
         id="stop15" /><stop
         offset="0.85526317"
         style="stop-color:#ffffff;stop-opacity:0.15686275"
         id="stop16" /><stop
         offset="1"
         style="stop-color:#ffffff;stop-opacity:0.39215687"
         id="stop17" /></linearGradient><style
       id="style1-0">.g{fill:#000;}.g,.h,.i{stroke-width:0px;}.h{fill:url(#e);}.i{fill:#fff;}</style><style
       id="style1-7-23">.g{fill:#000;}.g,.h,.i{stroke-width:0px;}.h{fill:url(#e);}.i{fill:#fff;}</style><style
       id="style1-5-7">.g{fill:#000;}.g,.h,.i{stroke-width:0px;}.h{fill:url(#e);}.i{fill:#fff;}</style><style
       id="style1-3-2">.g{fill:#000;}.g,.h,.i{stroke-width:0px;}.h{fill:url(#e);}.i{fill:#fff;}</style><style
       id="style1-6-28">.cls-1{fill:#fff;}</style><linearGradient
       xlink:href="#linearGradient17"
       id="linearGradient12"
       x1="24"
       y1="6"
       x2="24"
       y2="44"
       gradientUnits="userSpaceOnUse"
       gradientTransform="translate(0,-51)" /><linearGradient
       xlink:href="#linearGradient18"
       id="linearGradient19"
       x1="38.264111"
       y1="46.5"
       x2="36.881195"
       y2="41"
       gradientUnits="userSpaceOnUse"
       gradientTransform="translate(0,-51)" /><radialGradient
       xlink:href="#linearGradient3820-7-2"
       id="radialGradient3-3"
       gradientUnits="userSpaceOnUse"
       gradientTransform="matrix(0.3823536,7.5555777e-8,-1.8372241e-8,0.1115198,-5.9254271,36.335849)"
       cx="99.189415"
       cy="185.29727"
       fx="99.189415"
       fy="185.29727"
       r="62.769119" /><radialGradient
       xlink:href="#linearGradient3820-7-2"
       id="radialGradient4-6"
       gradientUnits="userSpaceOnUse"
       gradientTransform="matrix(0.2549024,5.3967361e-8,-1.2248161e-8,0.07965545,6.7163816,44.240666)"
       cx="99.189415"
       cy="185.29727"
       fx="99.189415"
       fy="185.29727"
       r="62.769119" /><style
       id="style1-62">.g{fill:#000;}.g,.h,.i{stroke-width:0px;}.h{fill:url(#e);}.i{fill:#fff;}</style><style
       id="style1-6-9">.cls-1{fill:#fff;}</style><style
       id="style1-67-1">.cls-1{fill:#fff;}</style><style
       id="style1-56-2">.g{fill:#000;}.g,.h,.i{stroke-width:0px;}.h{fill:url(#e);}.i{fill:#fff;}</style><style
       id="style1-7-1">.g{fill:#000;}.g,.h,.i{stroke-width:0px;}.h{fill:url(#e);}.i{fill:#fff;}</style><style
       id="style1-5-2">.g{fill:#000;}.g,.h,.i{stroke-width:0px;}.h{fill:url(#e);}.i{fill:#fff;}</style><style
       id="style1-3-7">.g{fill:#000;}.g,.h,.i{stroke-width:0px;}.h{fill:url(#e);}.i{fill:#fff;}</style><style
       id="style1-6-1-9">.cls-1{fill:#fff;}</style><style
       id="style1-2-3">.g{fill:#000;}.g,.h,.i{stroke-width:0px;}.h{fill:url(#e);}.i{fill:#fff;}</style><style
       id="style1-6-8-1">.cls-1{fill:#fff;}</style><linearGradient
       xlink:href="#linearGradient2"
       id="linearGradient9"
       x1="24"
       y1="5"
       x2="24"
       y2="45"
       gradientUnits="userSpaceOnUse"
       gradientTransform="translate(0,-51)" /><linearGradient
       id="linearGradient1201"><stop
         id="stop1193"
         style="stop-color:#ffffff;stop-opacity:1"
         offset="0" /><stop
         id="stop1195"
         style="stop-color:#ffffff;stop-opacity:0.23529412"
         offset="0.07352958" /><stop
         id="stop1197"
         style="stop-color:#ffffff;stop-opacity:0.15686275"
         offset="0.92647058" /><stop
         id="stop1199"
         style="stop-color:#ffffff;stop-opacity:0.39215687"
         offset="1" /></linearGradient><linearGradient
       x1="38.999996"
       y1="5.9999938"
       x2="38.999996"
       y2="40"
       id="linearGradient3058-5"
       xlink:href="#linearGradient1201"
       gradientUnits="userSpaceOnUse"
       gradientTransform="translate(74.000004)" /><linearGradient
       xlink:href="#linearGradient2"
       id="linearGradient930-9-2"
       x1="16.692297"
       y1="2.4999993"
       x2="16.692297"
       y2="27.769238"
       gradientUnits="userSpaceOnUse"
       gradientTransform="matrix(1.444444,0,0,1.444444,74.888913,0.888891)" /><linearGradient
       id="linearGradient30"><stop
         style="stop-color:#ffffff;stop-opacity:1;"
         offset="0"
         id="stop30" /><stop
         style="stop-color:#fafafa;stop-opacity:0;"
         offset="1"
         id="stop31" /></linearGradient><linearGradient
       id="linearGradient22"><stop
         id="stop13"
         style="stop-color:#ffffff;stop-opacity:1"
         offset="0" /><stop
         id="stop20-9"
         style="stop-color:#ffffff;stop-opacity:0.23529412"
         offset="0.13461539" /><stop
         id="stop21-4"
         style="stop-color:#ffffff;stop-opacity:0.15686275"
         offset="0.86538464" /><stop
         id="stop22-7"
         style="stop-color:#ffffff;stop-opacity:0.39215687"
         offset="1" /></linearGradient><style
       id="style1-79">.g{fill:#000;}.g,.h,.i{stroke-width:0px;}.h{fill:url(#e);}.i{fill:#fff;}</style><style
       id="style1-7-2">.g{fill:#000;}.g,.h,.i{stroke-width:0px;}.h{fill:url(#e);}.i{fill:#fff;}</style><style
       id="style1-5-0">.g{fill:#000;}.g,.h,.i{stroke-width:0px;}.h{fill:url(#e);}.i{fill:#fff;}</style><style
       id="style1-53-6">.g{fill:#000;}.g,.h,.i{stroke-width:0px;}.h{fill:url(#e);}.i{fill:#fff;}</style><style
       id="style1-6-2">.cls-1{fill:#fff;}</style><style
       id="style1-67-3">.cls-1{fill:#fff;}</style><style
       id="style1-675">.g{fill:#000;}.g,.h,.i{stroke-width:0px;}.h{fill:url(#e);}.i{fill:#fff;}</style><style
       id="style1-7-3">.g{fill:#000;}.g,.h,.i{stroke-width:0px;}.h{fill:url(#e);}.i{fill:#fff;}</style><style
       id="style1-5-5">.g{fill:#000;}.g,.h,.i{stroke-width:0px;}.h{fill:url(#e);}.i{fill:#fff;}</style><style
       id="style1-3-9">.g{fill:#000;}.g,.h,.i{stroke-width:0px;}.h{fill:url(#e);}.i{fill:#fff;}</style><style
       id="style1-6-6">.cls-1{fill:#fff;}</style><style
       id="style1-70">.g{fill:#000;}.g,.h,.i{stroke-width:0px;}.h{fill:url(#e);}.i{fill:#fff;}</style><style
       id="style1-6-3">.cls-1{fill:#fff;}</style><linearGradient
       id="linearGradient3820-7-2-2"><stop
         offset="0"
         style="stop-color:#3d3d3d;stop-opacity:1"
         id="stop3822-2-6-36" /><stop
         offset="0.5"
         style="stop-color:#686868;stop-opacity:0.49803922"
         id="stop3864-8-7-6" /><stop
         offset="1"
         style="stop-color:#686868;stop-opacity:0"
         id="stop3824-1-2-4" /></linearGradient><radialGradient
       cx="99.157013"
       cy="186.17059"
       r="62.769119"
       fx="99.157013"
       fy="186.17059"
       id="radialGradient3108-6"
       xlink:href="#linearGradient3820-7-2-2"
       gradientUnits="userSpaceOnUse"
       gradientTransform="matrix(0.21473139,0,0,0.06794726,-5.3136245,15.116856)" /><linearGradient
       xlink:href="#linearGradient22"
       id="linearGradient13"
       x1="16"
       y1="3"
       x2="16"
       y2="29"
       gradientUnits="userSpaceOnUse"
       gradientTransform="translate(0,-33)" /><linearGradient
       xlink:href="#linearGradient2"
       id="linearGradient29"
       x1="16"
       y1="3"
       x2="16"
       y2="30"
       gradientUnits="userSpaceOnUse"
       gradientTransform="translate(0,-33)" /><linearGradient
       xlink:href="#linearGradient30"
       id="linearGradient31"
       x1="25.002583"
       y1="30.93301"
       x2="23.779295"
       y2="27.459316"
       gradientUnits="userSpaceOnUse" /><linearGradient
       id="linearGradient4-3"><stop
         id="stop1"
         style="stop-color:#ffffff;stop-opacity:1"
         offset="0" /><stop
         id="stop2"
         style="stop-color:#ffffff;stop-opacity:0.23529412"
         offset="0.06818181" /><stop
         id="stop3"
         style="stop-color:#ffffff;stop-opacity:0.15686275"
         offset="0.93181819" /><stop
         id="stop4-2"
         style="stop-color:#ffffff;stop-opacity:0.39215687"
         offset="1" /></linearGradient><linearGradient
       xlink:href="#linearGradient2"
       id="linearGradient930-9-2-8"
       x1="16.999996"
       y1="2.5"
       x2="16.999996"
       y2="29"
       gradientUnits="userSpaceOnUse"
       gradientTransform="translate(58.000004)" /><linearGradient
       x1="23.99999"
       y1="6.2399855"
       x2="23.999994"
       y2="38.799984"
       id="linearGradient4161-0-2"
       xlink:href="#linearGradient4-3"
       gradientUnits="userSpaceOnUse"
       gradientTransform="matrix(0.67567568,0,0,0.67567568,57.783787,-0.21620614)" /></defs><path
     id="rect5505-21-3-8-5-2-9"
     style="color:#000000;display:inline;overflow:visible;visibility:visible;fill:url(#linearGradient899);fill-opacity:1;fill-rule:nonzero;stroke:none;stroke-width:1;marker:none;enable-background:accumulate"
     d="m 10.5,4.5 c -3.324,0 -6,2.676 -6,6 v 39 c 0,3.324 2.676,6 6,6 h 31 v 8 l 8,-8 h 4 c 3.324,0 6,-2.676 6,-6 v -39 c 0,-3.324 -2.676,-6 -6,-6 z" /><path
     id="rect6741"
     style="opacity:1;fill:none;stroke:url(#linearGradient3904-5);stroke-width:1;stroke-linecap:round;stroke-linejoin:round;stroke-miterlimit:4;stroke-dasharray:none;stroke-dashoffset:0;stroke-opacity:1"
     d="m 10.5,5.5 c -2.77,0 -5,2.23 -5,5 v 39 c 0,2.77 2.23,5 5,5 h 32 V 61 L 49,54.5 h 4.5 c 2.77,0 5,-2.23 5,-5 v -39 c 0,-2.77 -2.23,-5 -5,-5 z" /><path
     id="rect5505-21-9"
     style="color:#000000;display:inline;overflow:visible;visibility:visible;opacity:1;fill:none;stroke:#555761;stroke-width:1;stroke-linecap:round;stroke-linejoin:round;stroke-miterlimit:4;stroke-dasharray:none;stroke-dashoffset:0;stroke-opacity:0.5;marker:none;enable-background:accumulate"
     d="m 10.5,4.5 c -3.324,0 -6,2.676 -6,6 v 39 c 0,3.324 2.676,6 6,6 h 31 v 8 l 8,-8 h 4 c 3.324,0 6,-2.676 6,-6 v -39 c 0,-3.324 -2.676,-6 -6,-6 z" /><path
     id="path29-7"
     style="opacity:0.150149;fill:#000000;fill-opacity:1;stroke:#000000;stroke-width:2;stroke-linecap:round;stroke-linejoin:round;stroke-opacity:1"
     d="m 27,11 a 4,4 0 0 0 -4,4 4,4 0 0 0 4,4 h 4 v -4 a 4,4 0 0 0 -4,-4 z m 9.92969,0 C 34.75308,11 33,12.784004 33,15 v 10 c 0,2.215996 1.75308,4 3.92969,4 h 0.14062 C 39.24692,29 41,27.215996 41,25 V 15 c 0,-2.215996 -1.75308,-4 -3.92969,-4 z M 17,21 c -2.215996,0 -4,1.784004 -4,4 0,2.215996 1.784004,4 4,4 h 10 c 2.216,0 4,-1.784004 4,-4 0,-2.215996 -1.784,-4 -4,-4 z m 30,0 a 4,4 0 0 0 -4,4 v 4 h 4 a 4,4 0 0 0 4,-4 4,4 0 0 0 -4,-4 z M 17,31 a 4,4 0 0 0 -4,4 4,4 0 0 0 4,4 4,4 0 0 0 4,-4 v -4 z m 9.982422,0 C 24.7759,31 23,32.784004 23,35 v 10 c 0,2.215996 1.7759,4 3.982422,4 h 0.03516 C 29.2241,49 31,47.215996 31,45 V 35 c 0,-2.215996 -1.7759,-4 -3.98242,-4 z M 37,31 c -2.216,0 -4,1.749689 -4,3.923828 v 0.152344 C 33,37.250311 34.784,39 37,39 h 10 c 2.216,0 4,-1.749689 4,-3.923828 V 34.923828 C 51,32.749689 49.216,31 47,31 Z m -4,10 v 4 a 4,4 0 0 0 4,4 4,4 0 0 0 4,-4 4,4 0 0 0 -4,-4 z" /><path
     id="path26-0"
     style="opacity:0.14952;fill:#000000;fill-opacity:1;stroke:none;stroke-width:2;stroke-linecap:round;stroke-linejoin:round;stroke-opacity:1"
     d="m 27,11 a 4,4 0 0 0 -4,4 4,4 0 0 0 4,4 h 4 v -4 a 4,4 0 0 0 -4,-4 z m 9.92969,0 C 34.75308,11 33,12.784004 33,15 v 10 c 0,2.215996 1.75308,4 3.92969,4 h 0.14062 C 39.24692,29 41,27.215996 41,25 V 15 c 0,-2.215996 -1.75308,-4 -3.92969,-4 z M 17,21 c -2.215996,0 -4,1.784004 -4,4 0,2.215996 1.784004,4 4,4 h 10 c 2.216,0 4,-1.784004 4,-4 0,-2.215996 -1.784,-4 -4,-4 z m 30,0 a 4,4 0 0 0 -4,4 v 4 h 4 a 4,4 0 0 0 4,-4 4,4 0 0 0 -4,-4 z M 17,31 a 4,4 0 0 0 -4,4 4,4 0 0 0 4,4 4,4 0 0 0 4,-4 v -4 z m 9.982422,0 C 24.7759,31 23,32.784004 23,35 v 10 c 0,2.215996 1.7759,4 3.982422,4 h 0.03516 C 29.2241,49 31,47.215996 31,45 V 35 c 0,-2.215996 -1.7759,-4 -3.98242,-4 z M 37,31 c -2.216,0 -4,1.749689 -4,3.923828 v 0.152344 C 33,37.250311 34.784,39 37,39 h 10 c 2.216,0 4,-1.749689 4,-3.923828 V 34.923828 C 51,32.749689 49.216,31 47,31 Z m -4,10 v 4 a 4,4 0 0 0 4,4 4,4 0 0 0 4,-4 4,4 0 0 0 -4,-4 z" /><path
     id="rect7-9"
     style="fill:#1882d4;fill-opacity:1;stroke:none;stroke-width:2;stroke-linecap:round;stroke-linejoin:round;stroke-opacity:1"
     d="m 27,10 a 4,4 0 0 0 -4,4 4,4 0 0 0 4,4 h 4 V 14 A 4,4 0 0 0 27,10 Z M 17,20 c -2.215998,0 -4,1.784002 -4,4 0,2.215998 1.784002,4 4,4 h 10 c 2.216,0 4,-1.784002 4,-4 0,-2.215998 -1.784,-4 -4,-4 z" /><path
     id="rect8-3"
     style="fill:#a91149;fill-opacity:1;stroke:none;stroke-width:2;stroke-linecap:round;stroke-linejoin:round;stroke-opacity:1"
     d="m 17,30 a 4,4 0 0 0 -4,4 4,4 0 0 0 4,4 4,4 0 0 0 4,-4 v -4 z m 9.982422,0 C 24.775898,30 23,31.784002 23,34 v 10 c 0,2.215998 1.775898,4 3.982422,4 h 0.03516 C 29.2241,48 31,46.215998 31,44 V 34 c 0,-2.215998 -1.7759,-4 -3.98242,-4 z" /><path
     id="rect9-6"
     style="fill:#c07b11;fill-opacity:1;stroke:none;stroke-width:2;stroke-linecap:round;stroke-linejoin:round;stroke-opacity:1"
     d="m 37,30 c -2.216,0 -4,1.749687 -4,3.923828 v 0.152344 C 33,36.250313 34.784,38 37,38 h 10 c 2.216,0 4,-1.749687 4,-3.923828 V 33.923828 C 51,31.749687 49.216,30 47,30 Z m -4,10 v 4 a 4,4 0 0 0 4,4 4,4 0 0 0 4,-4 4,4 0 0 0 -4,-4 z" /><path
     id="rect6-0"
     style="fill:#1e7a45;fill-opacity:1;stroke:none;stroke-width:2;stroke-linecap:round;stroke-linejoin:round;stroke-opacity:1"
     d="M 36.92969,10 C 34.75308,10 33,11.784002 33,14 v 10 c 0,2.215998 1.75308,4 3.92969,4 h 0.14062 C 39.24692,28 41,26.215998 41,24 V 14 c 0,-2.215998 -1.75308,-4 -3.92969,-4 z M 47,20 a 4,4 0 0 0 -4,4 v 4 h 4 a 4,4 0 0 0 4,-4 4,4 0 0 0 -4,-4 z" /><path
     id="path18-6"
     style="fill:#1da1eb;fill-opacity:1;stroke:none;stroke-width:2;stroke-linecap:round;stroke-linejoin:round;stroke-opacity:1"
     d="M 27,10 A 4,4 0 0 0 23.056641,13.5 4,4 0 0 0 27,17 h 4 V 14 A 4,4 0 0 0 27,10 Z M 17,20 c -2.046243,0 -3.719786,1.522198 -3.964844,3.5 C 13.280214,25.477802 14.953757,27 17,27 h 10 c 2.04624,0 3.71979,-1.522198 3.96484,-3.5 C 30.71979,21.522198 29.04624,20 27,20 Z" /><path
     id="path19-2"
     style="fill:#1ab9ff;fill-opacity:1;stroke:none;stroke-width:2;stroke-linecap:round;stroke-linejoin:round;stroke-opacity:1"
     d="M 27,10 A 4,4 0 0 0 23.138672,13 4,4 0 0 0 27,16 h 4 V 14 A 4,4 0 0 0 27,10 Z M 17,20 c -1.869833,0 -3.428636,1.271887 -3.871094,3 0.442458,1.728113 2.001261,3 3.871094,3 h 10 c 1.86983,0 3.42864,-1.271887 3.87109,-3 C 30.42864,21.271887 28.86983,20 27,20 Z" /><path
     id="path20-6"
     style="fill:#2e9850;fill-opacity:1;stroke:none;stroke-width:2;stroke-linecap:round;stroke-linejoin:round;stroke-opacity:1"
     d="M 36.92969,10 C 34.75308,10 33,11.784004 33,14 v 9 c 0,2.215996 1.75308,4 3.92969,4 h 0.14062 C 39.24692,27 41,25.215996 41,23 v -9 c 0,-2.215996 -1.75308,-4 -3.92969,-4 z M 47,20 a 4,4 0 0 0 -4,4 v 3 h 4 a 4,4 0 0 0 3.95508,-3.595703 4,4 0 0 0 0,-0.002 A 4,4 0 0 0 47,20 Z" /><path
     id="path21-1"
     style="fill:#41b658;fill-opacity:1;stroke:none;stroke-width:2;stroke-linecap:round;stroke-linejoin:round;stroke-opacity:1"
     d="M 36.92969,10 C 34.75308,10 33,11.784004 33,14 v 8 c 0,2.215996 1.75308,4 3.92969,4 h 0.14062 C 39.24692,26 41,24.215996 41,22 v -8 c 0,-2.215996 -1.75308,-4 -3.92969,-4 z M 47,20 a 4,4 0 0 0 -4,4 v 2 h 4 A 4,4 0 0 0 50.86719,22.986328 4,4 0 0 0 47,20 Z" /><path
     id="path22-8"
     style="fill:#e5a40f;fill-opacity:1;stroke:none;stroke-width:2;stroke-linecap:round;stroke-linejoin:round;stroke-opacity:1"
     d="m 37,30 c -2.06984,0 -3.7603,1.526934 -3.97461,3.5 C 33.2397,35.473066 34.93016,37 37,37 h 10 c 2.06984,0 3.7603,-1.526934 3.97461,-3.5 C 50.7603,31.526934 49.06984,30 47,30 Z m -4,10 v 3 a 4,4 0 0 0 4,4 4,4 0 0 0 3.95508,-3.595703 4,4 0 0 0 0,-0.002 A 4,4 0 0 0 37,40 Z" /><path
     id="path23-7"
     style="fill:#fcc003;fill-opacity:1;stroke:none;stroke-width:2;stroke-linecap:round;stroke-linejoin:round;stroke-opacity:1"
     d="m 37,30 c -1.89086,0 -3.46291,1.275472 -3.88477,3 0.42186,1.724528 1.99391,3 3.88477,3 h 10 c 1.89086,0 3.46291,-1.275472 3.88477,-3 C 50.46291,31.275472 48.89086,30 47,30 Z m -4,10 v 2 a 4,4 0 0 0 4,4 4,4 0 0 0 3.86719,-3.013672 A 4,4 0 0 0 37,40 Z" /><path
     id="path24-9"
     style="fill:#c40d55;fill-opacity:1;stroke:none;stroke-width:2;stroke-linecap:round;stroke-linejoin:round;stroke-opacity:1"
     d="M 17,30 A 4,4 0 0 0 13.056641,33.5 4,4 0 0 0 17,37 4,4 0 0 0 21,33 v -3 z m 9.982422,0 C 24.7759,30 23,31.784004 23,34 v 9 c 0,2.215996 1.7759,4 3.982422,4 h 0.03516 C 29.2241,47 31,45.215996 31,43 v -9 c 0,-2.215996 -1.7759,-4 -3.98242,-4 z" /><path
     id="path25-2"
     style="fill:#e3066a;fill-opacity:1;stroke:none;stroke-width:2;stroke-linecap:round;stroke-linejoin:round;stroke-opacity:1"
     d="M 17,30 A 4,4 0 0 0 13.138672,33 4,4 0 0 0 17,36 4,4 0 0 0 21,32 v -2 z m 9.982422,0 C 24.7759,30 23,31.784004 23,34 v 8 c 0,2.215996 1.7759,4 3.982422,4 h 0.03516 C 29.2241,46 31,44.215996 31,42 v -8 c 0,-2.215996 -1.7759,-4 -3.98242,-4 z" /></svg>
