<?xml version="1.0" encoding="UTF-8" standalone="no"?>
<svg
   id="svg3489"
   height="64"
   width="64"
   version="1.1"
   sodipodi:docname="zen-browser.svg"
   xml:space="preserve"
   inkscape:version="1.4.2 (ebf0e940d0, 2025-05-08)"
   xmlns:inkscape="http://www.inkscape.org/namespaces/inkscape"
   xmlns:sodipodi="http://sodipodi.sourceforge.net/DTD/sodipodi-0.dtd"
   xmlns:xlink="http://www.w3.org/1999/xlink"
   xmlns="http://www.w3.org/2000/svg"
   xmlns:svg="http://www.w3.org/2000/svg"
   xmlns:rdf="http://www.w3.org/1999/02/22-rdf-syntax-ns#"
   xmlns:cc="http://creativecommons.org/ns#"
   xmlns:dc="http://purl.org/dc/elements/1.1/"><sodipodi:namedview
     id="namedview1"
     pagecolor="#ffffff"
     bordercolor="#000000"
     borderopacity="0.25"
     inkscape:showpageshadow="2"
     inkscape:pageopacity="0.0"
     inkscape:pagecheckerboard="0"
     inkscape:deskcolor="#d1d1d1"
     showgrid="false"
     inkscape:zoom="2.185"
     inkscape:cx="47.597254"
     inkscape:cy="32.036613"
     inkscape:current-layer="svg3489"><inkscape:grid
       id="grid1"
       units="px"
       originx="-74"
       originy="0"
       spacingx="0.5"
       spacingy="0.5"
       empcolor="#0099e5"
       empopacity="0.30196078"
       color="#0099e5"
       opacity="0.078431373"
       empspacing="2"
       enabled="true"
       visible="false" /><inkscape:page
       x="0"
       y="0"
       width="64"
       height="64"
       id="page1"
       margin="0"
       bleed="0" /></sodipodi:namedview><defs
     id="defs3491"><linearGradient
       id="linearGradient5"
       inkscape:collect="always"><stop
         style="stop-color:#fafafa;stop-opacity:1;"
         offset="0"
         id="stop5" /><stop
         style="stop-color:#d4d4d4;stop-opacity:1;"
         offset="1"
         id="stop8" /></linearGradient><linearGradient
       id="linearGradient6"
       inkscape:collect="always"><stop
         style="stop-color:#333333;stop-opacity:1;"
         offset="0"
         id="stop6" /><stop
         style="stop-color:#1a1a1a;stop-opacity:1;"
         offset="1"
         id="stop7" /></linearGradient><linearGradient
       id="linearGradient3820-7-2"><stop
         offset="0"
         style="stop-color:#000000;stop-opacity:1"
         id="stop3822-2-6" /><stop
         offset="1"
         style="stop-color:#000000;stop-opacity:0"
         id="stop3824-1-2" /></linearGradient><radialGradient
       r="62.769119"
       fy="185.29727"
       fx="99.189415"
       cy="185.29727"
       cx="99.189415"
       gradientTransform="matrix(0.3823536,7.5555777e-8,-1.8372241e-8,0.1115198,-5.9254271,36.335849)"
       gradientUnits="userSpaceOnUse"
       id="radialGradient3300"
       xlink:href="#linearGradient3820-7-2" /><radialGradient
       r="62.769119"
       fy="185.29727"
       fx="99.189415"
       cy="185.29727"
       cx="99.189415"
       gradientTransform="matrix(0.2549024,5.3967361e-8,-1.2248161e-8,0.07965545,6.7163816,44.240666)"
       gradientUnits="userSpaceOnUse"
       id="radialGradient4192"
       xlink:href="#linearGradient3820-7-2" /><linearGradient
       id="linearGradient909"><stop
         id="stop901"
         style="stop-color:#cd9ef7;stop-opacity:1"
         offset="0" /><stop
         id="stop907"
         style="stop-color:#a56de2;stop-opacity:1"
         offset="1" /></linearGradient><linearGradient
       y2="42.091705"
       x2="23.99999"
       y1="5.9093657"
       x1="23.99999"
       gradientTransform="matrix(1.4324324,0,0,1.4362832,-2.378375,-2.4707827)"
       gradientUnits="userSpaceOnUse"
       id="linearGradient3904"
       xlink:href="#linearGradient4270" /><linearGradient
       id="linearGradient4270"><stop
         id="stop4272"
         style="stop-color:#ffffff;stop-opacity:1"
         offset="0" /><stop
         id="stop4274"
         style="stop-color:#ffffff;stop-opacity:0.23529412"
         offset="0.08626948" /><stop
         id="stop4276"
         style="stop-color:#ffffff;stop-opacity:0.15686275"
         offset="0.9137004" /><stop
         id="stop4278"
         style="stop-color:#ffffff;stop-opacity:0.39215687"
         offset="1" /></linearGradient><linearGradient
       xlink:href="#linearGradient6"
       id="linearGradient899"
       x1="31.781376"
       y1="4.9266648"
       x2="31.781376"
       y2="59.148476"
       gradientUnits="userSpaceOnUse" /><linearGradient
       inkscape:collect="always"
       xlink:href="#linearGradient5"
       id="linearGradient8"
       x1="32"
       y1="10"
       x2="32"
       y2="54"
       gradientUnits="userSpaceOnUse" /></defs><metadata
     id="metadata3494"><rdf:RDF><cc:Work
         rdf:about=""><dc:format>image/svg+xml</dc:format><dc:type
           rdf:resource="http://purl.org/dc/dcmitype/StillImage" /></cc:Work></rdf:RDF></metadata><rect
     width="55"
     height="55"
     rx="6"
     ry="6"
     x="4.5"
     y="4.5"
     id="rect5505-21-3-8-5-2-9"
     style="color:#000000;display:inline;overflow:visible;visibility:visible;fill:url(#linearGradient899);fill-rule:nonzero;stroke:none;stroke-width:1;marker:none;enable-background:accumulate" /><path
     id="path17"
     style="baseline-shift:baseline;display:inline;overflow:visible;opacity:0.15;fill:#000000;stroke-linejoin:round;enable-background:accumulate;stop-color:#000000;stop-opacity:1;fill-opacity:1;stroke:#000000;stroke-opacity:1;stroke-width:2;stroke-dasharray:none"
     d="M 32,11 C 19.879347,11 10,20.879347 10,33 10,45.120653 19.879347,55 32,55 44.120653,55 54,45.120653 54,33 54,20.879347 44.120653,11 32,11 Z m 0,5 c 9.418452,0 17,7.581548 17,17 0,9.418452 -7.581548,17 -17,17 -9.418452,0 -17,-7.581548 -17,-17 0,-9.418452 7.581548,-17 17,-17 z m 0,2 c -8.266504,0 -15,6.733496 -15,15 0,8.266504 6.733496,15 15,15 8.266504,0 15,-6.733496 15,-15 0,-8.266504 -6.733496,-15 -15,-15 z m 0,3 c 6.645184,0 12,5.354816 12,12 0,6.645184 -5.354816,12 -12,12 -6.645184,0 -12,-5.354816 -12,-12 0,-6.645184 5.354816,-12 12,-12 z m 0,3 c -4.958718,0 -9,4.041282 -9,9 0,4.958718 4.041282,9 9,9 4.958718,0 9,-4.041282 9,-9 0,-4.958718 -4.041282,-9 -9,-9 z m 0,2 c 3.877838,0 7,3.122162 7,7 0,3.877838 -3.122162,7 -7,7 -3.877838,0 -7,-3.122162 -7,-7 0,-3.877838 3.122162,-7 7,-7 z" /><path
     id="path16"
     style="baseline-shift:baseline;display:inline;overflow:visible;opacity:0.15;vector-effect:none;fill:#000000;stroke-linejoin:round;enable-background:accumulate;stop-color:#000000;stop-opacity:1;fill-opacity:1;stroke:none;stroke-opacity:1"
     d="M 32,11 C 19.879347,11 10,20.879347 10,33 10,45.120653 19.879347,55 32,55 44.120653,55 54,45.120653 54,33 54,20.879347 44.120653,11 32,11 Z m 0,5 c 9.418452,0 17,7.581548 17,17 0,9.418452 -7.581548,17 -17,17 -9.418452,0 -17,-7.581548 -17,-17 0,-9.418452 7.581548,-17 17,-17 z m 0,2 c -8.266504,0 -15,6.733496 -15,15 0,8.266504 6.733496,15 15,15 8.266504,0 15,-6.733496 15,-15 0,-8.266504 -6.733496,-15 -15,-15 z m 0,3 c 6.645184,0 12,5.354816 12,12 0,6.645184 -5.354816,12 -12,12 -6.645184,0 -12,-5.354816 -12,-12 0,-6.645184 5.354816,-12 12,-12 z m 0,3 c -4.958718,0 -9,4.041282 -9,9 0,4.958718 4.041282,9 9,9 4.958718,0 9,-4.041282 9,-9 0,-4.958718 -4.041282,-9 -9,-9 z m 0,2 c 3.877838,0 7,3.122162 7,7 0,3.877838 -3.122162,7 -7,7 -3.877838,0 -7,-3.122162 -7,-7 0,-3.877838 3.122162,-7 7,-7 z" /><path
     id="path4"
     style="baseline-shift:baseline;display:inline;overflow:visible;vector-effect:none;fill:url(#linearGradient8);stroke-linejoin:round;enable-background:accumulate;stop-color:#000000;stop-opacity:1;opacity:1"
     d="M 32 10 C 19.879347 10 10 19.879347 10 32 C 10 44.120653 19.879347 54 32 54 C 44.120653 54 54 44.120653 54 32 C 54 19.879347 44.120653 10 32 10 z M 32 15 C 41.418452 15 49 22.581548 49 32 C 49 41.418452 41.418452 49 32 49 C 22.581548 49 15 41.418452 15 32 C 15 22.581548 22.581548 15 32 15 z M 32 17 C 23.733496 17 17 23.733496 17 32 C 17 40.266504 23.733496 47 32 47 C 40.266504 47 47 40.266504 47 32 C 47 23.733496 40.266504 17 32 17 z M 32 20 C 38.645184 20 44 25.354816 44 32 C 44 38.645184 38.645184 44 32 44 C 25.354816 44 20 38.645184 20 32 C 20 25.354816 25.354816 20 32 20 z M 32 23 C 27.041282 23 23 27.041282 23 32 C 23 36.958718 27.041282 41 32 41 C 36.958718 41 41 36.958718 41 32 C 41 27.041282 36.958718 23 32 23 z M 32 25 C 35.877838 25 39 28.122162 39 32 C 39 35.877838 35.877838 39 32 39 C 28.122162 39 25 35.877838 25 32 C 25 28.122162 28.122162 25 32 25 z " /><rect
     style="opacity:0.3;fill:none;stroke:url(#linearGradient3904);stroke-width:1;stroke-linecap:round;stroke-linejoin:round;stroke-miterlimit:4;stroke-dasharray:none;stroke-dashoffset:0;stroke-opacity:1"
     id="rect6741"
     y="5.428761"
     x="5.5"
     ry="5"
     rx="5"
     height="53.142479"
     width="53" /><rect
     style="color:#000000;display:inline;overflow:visible;visibility:visible;opacity:0.5;fill:none;stroke:#000000;stroke-width:1;stroke-linecap:round;stroke-linejoin:round;stroke-miterlimit:4;stroke-dasharray:none;stroke-dashoffset:0;stroke-opacity:1;marker:none;enable-background:accumulate"
     id="rect5505-21-9"
     y="4.5"
     x="4.5"
     ry="6"
     rx="6"
     height="55"
     width="55" /><path
     id="path11"
     style="baseline-shift:baseline;display:inline;overflow:visible;vector-effect:none;fill:#ffffff;stroke-linejoin:round;enable-background:accumulate;stop-color:#000000;stop-opacity:1;opacity:0.25;fill-opacity:1"
     d="M 32 10 C 19.879347 10 10 19.879347 10 32 C 10 32.3351 10.008496 32.668487 10.023438 33 C 10.548927 21.340628 20.214447 12 32 12 C 43.785553 12 53.451073 21.340628 53.976562 33 C 53.991504 32.668487 54 32.3351 54 32 C 54 19.879347 44.120653 10 32 10 z M 32 17 C 23.733509 17.000015 17 23.733505 17 32 C 17 32.335982 17.011306 32.669432 17.033203 33 C 17.550065 25.197269 24.069478 19 32 19 C 39.930522 19 46.449935 25.197269 46.966797 33 C 46.988694 32.669432 47 32.335982 47 32 C 47 23.733509 40.266487 17.000021 32 17 z M 32 23 C 27.041282 23 23 27.041282 23 32 C 23 32.337924 23.01814 32.671586 23.054688 33 C 23.528325 28.743897 26.989301 25.376186 31.283203 25.035156 C 31.519087 25.011342 31.757635 25 32 25 C 32.242365 25 32.480913 25.011342 32.716797 25.035156 C 37.010699 25.376186 40.471675 28.743897 40.945312 33 C 40.98186 32.671586 41 32.337924 41 32 C 41 27.041282 36.958718 23 32 23 z M 15.029297 33 C 15.010288 33.330825 15 33.664246 15 34 C 15 43.418452 22.581548 51 32 51 C 41.418452 51 49 43.418452 49 34 C 49 33.664246 48.989712 33.330825 48.970703 33 C 48.456471 41.949349 41.082682 48.999982 32 49 C 22.917317 48.999983 15.543529 41.94935 15.029297 33 z M 20.041016 33 C 20.01403 33.329665 20 33.663175 20 34 C 20 40.645184 25.354816 46 32 46 C 38.645184 46 44 40.645184 44 34 C 44 33.663175 43.98597 33.329665 43.958984 33 C 43.453572 39.174266 38.308359 44 32 44 C 25.691641 44 20.546428 39.174266 20.041016 33 z M 25.070312 33 C 25.023996 33.326475 25 33.660339 25 34 C 25 37.635473 27.744952 40.607632 31.283203 40.964844 C 31.519087 40.988658 31.757635 41 32 41 C 32.242365 41 32.480913 40.988658 32.716797 40.964844 C 36.255048 40.607632 39 37.635473 39 34 C 39 33.660339 38.976004 33.326475 38.929688 33 C 38.447218 36.400827 35.538177 39 32 39 C 28.461823 39 25.552782 36.400827 25.070312 33 z " /><path
     id="path9"
     style="baseline-shift:baseline;display:inline;overflow:visible;vector-effect:none;fill:#ffffff;stroke-linejoin:round;enable-background:accumulate;stop-color:#000000;stop-opacity:1;opacity:0.25;fill-opacity:1"
     d="M 32 10 C 19.879347 10 10 19.879347 10 32 C 10 32.167099 10.002124 32.333773 10.005859 32.5 C 10.273072 20.608825 20.046446 11 32 11 C 43.953554 11 53.726928 20.608825 53.994141 32.5 C 53.997876 32.333773 54 32.167099 54 32 C 54 19.879347 44.120653 10 32 10 z M 32 17 C 23.733496 17 17 23.733496 17 32 C 17 32.167309 17.002339 32.33399 17.007812 32.5 C 17.272772 24.46369 23.900805 18 32 18 C 40.099195 18 46.727228 24.46369 46.992188 32.5 C 46.997661 32.33399 47 32.167309 47 32 C 47 23.733496 40.266504 17 32 17 z M 32 23 C 27.041282 23 23 27.041282 23 32 C 23 32.167757 23.004542 32.334464 23.013672 32.5 C 23.274406 27.772468 27.209039 24 32 24 C 36.790961 24 40.725594 27.772468 40.986328 32.5 C 40.995458 32.334464 41 32.167757 41 32 C 41 27.041282 36.958718 23 32 23 z M 15.007812 32.5 C 15.003063 32.666066 15 32.832744 15 33 C 15 42.418452 22.581548 50 32 50 C 41.418452 50 49 42.418452 49 33 C 49 32.832744 48.996937 32.666066 48.992188 32.5 C 48.729476 41.685333 41.251195 49 32 49 C 22.748805 49 15.270524 41.685333 15.007812 32.5 z M 20.009766 32.5 C 20.003026 32.665803 20 32.832492 20 33 C 20 39.645184 25.354816 45 32 45 C 38.645184 45 44 39.645184 44 33 C 44 32.832492 43.996974 32.665803 43.990234 32.5 C 43.729594 38.911744 38.477676 44 32 44 C 25.522324 44 20.270406 38.911744 20.009766 32.5 z M 25.017578 32.5 C 25.00603 32.665117 25 32.831848 25 33 C 25 36.877838 28.122162 40 32 40 C 35.877838 40 39 36.877838 39 33 C 39 32.831848 38.99397 32.665117 38.982422 32.5 C 38.727652 36.142736 35.709686 39 32 39 C 28.290314 39 25.272348 36.142736 25.017578 32.5 z " /><path
     id="path15"
     style="baseline-shift:baseline;display:inline;overflow:visible;opacity:0.15;vector-effect:none;fill:#000000;fill-opacity:1;stroke-linejoin:round;enable-background:accumulate;stop-color:#000000;stop-opacity:1"
     d="m 32,13 c -9.418452,0 -17,7.581548 -17,17 0,0.335754 0.01029,0.669175 0.0293,1 C 15.543529,22.050657 22.917327,15.000028 32,15 c 9.082683,1.7e-5 16.456471,7.05065 16.970703,16 C 48.989712,30.669175 49,30.335754 49,30 49,20.581548 41.418452,13 32,13 Z m 0,5 c -6.645184,0 -12,5.354816 -12,12 0,0.336825 0.01403,0.670335 0.04102,1 C 20.546427,24.825733 25.691641,20 32,20 38.308359,20 43.453573,24.825733 43.958984,31 43.98597,30.670335 44,30.336825 44,30 44,23.354816 38.645184,18 32,18 Z m 0,5 c -0.242365,0 -0.480913,0.01134 -0.716797,0.03516 C 27.744952,23.392368 25,26.364527 25,30 c 0,0.339661 0.024,0.673524 0.07031,1 0.48247,-3.400827 3.391511,-6 6.929688,-6 3.538177,0 6.447218,2.599173 6.929688,6 C 38.976004,30.673524 39,30.339661 39,30 39,26.364527 36.255048,23.392368 32.716797,23.035156 32.480913,23.011342 32.242365,23 32,23 Z M 10.023438,31 C 10.008496,31.331512 10,31.6649 10,32 10,44.120653 19.879347,54 32,54 44.120653,54 54,44.120653 54,32 54,31.6649 53.9915,31.331512 53.97656,31 53.451072,42.659371 43.785553,52 32,52 20.214447,52 10.548928,42.659371 10.023438,31 Z m 7.009765,0 C 17.011306,31.330568 17,31.664018 17,32 c 0,8.266491 6.733514,14.999979 15,15 8.266487,-2.1e-5 15,-6.733509 15,-15 0,-0.335982 -0.01131,-0.669432 -0.0332,-1 C 46.449935,38.802731 39.930522,45 32,45 24.069478,45 17.550065,38.802731 17.033203,31 Z m 6.021485,0 C 23.01814,31.328414 23,31.662077 23,32 c 0,4.958718 4.041282,9 9,9 4.958718,0 9,-4.041282 9,-9 0,-0.337923 -0.01814,-0.671586 -0.05469,-1 -0.473637,4.256102 -3.934613,7.623814 -8.228515,7.964844 C 32.48006,38.983646 32.241448,39 32,39 31.758552,39 31.51994,38.983646 31.283203,38.964844 26.989301,38.623814 23.528325,35.256102 23.054688,31 Z" /><path
     id="path13"
     style="baseline-shift:baseline;display:inline;overflow:visible;vector-effect:none;fill:#000000;stroke-linejoin:round;enable-background:accumulate;stop-color:#000000;stop-opacity:1;opacity:0.15;fill-opacity:1"
     d="M 32 14 C 22.581548 14 15 21.581548 15 31 C 15 31.167257 15.003063 31.333934 15.007812 31.5 C 15.270523 22.314666 22.748804 15 32 15 C 41.251196 15 48.729477 22.314666 48.992188 31.5 C 48.996937 31.333934 49 31.167257 49 31 C 49 21.581548 41.418452 14 32 14 z M 32 19 C 25.354816 19 20 24.354816 20 31 C 20 31.167508 20.003026 31.334197 20.009766 31.5 C 20.270406 25.088256 25.522324 20 32 20 C 38.477676 20 43.729594 25.088256 43.990234 31.5 C 43.996974 31.334197 44 31.167508 44 31 C 44 24.354816 38.645184 19 32 19 z M 32 24 C 28.122162 24 25 27.122162 25 31 C 25 31.168152 25.00603 31.334883 25.017578 31.5 C 25.272348 27.857264 28.290314 25 32 25 C 35.709686 25 38.727652 27.857264 38.982422 31.5 C 38.99397 31.334883 39 31.168152 39 31 C 39 27.122162 35.877838 24 32 24 z M 10.005859 31.5 C 10.002124 31.666227 10 31.832901 10 32 C 10 44.120653 19.879347 54 32 54 C 44.120653 54 54 44.120653 54 32 C 54 31.832901 53.997876 31.666227 53.994141 31.5 C 53.726928 43.391175 43.953554 53 32 53 C 20.046446 53 10.273072 43.391175 10.005859 31.5 z M 17.007812 31.5 C 17.002339 31.66601 17 31.832691 17 32 C 17 40.266504 23.733496 47 32 47 C 40.266504 47 47 40.266504 47 32 C 47 31.832691 46.997661 31.66601 46.992188 31.5 C 46.727227 39.536309 40.099195 46 32 46 C 23.900805 46 17.272773 39.536309 17.007812 31.5 z M 23.013672 31.5 C 23.004542 31.665536 23 31.832243 23 32 C 23 36.958718 27.041282 41 32 41 C 36.958718 41 41 36.958718 41 32 C 41 31.832243 40.995458 31.665536 40.986328 31.5 C 40.725594 36.227532 36.790961 40 32 40 C 27.209039 40 23.274406 36.227532 23.013672 31.5 z " /></svg>
