<?xml version="1.0" encoding="UTF-8" standalone="no"?>
<svg
   id="svg4157"
   height="24"
   width="24"
   version="1.1"
   xml:space="preserve"
   sodipodi:docname="discord.svg"
   inkscape:version="1.4.2 (ebf0e940d0, 2025-05-08)"
   xmlns:inkscape="http://www.inkscape.org/namespaces/inkscape"
   xmlns:sodipodi="http://sodipodi.sourceforge.net/DTD/sodipodi-0.dtd"
   xmlns:xlink="http://www.w3.org/1999/xlink"
   xmlns="http://www.w3.org/2000/svg"
   xmlns:svg="http://www.w3.org/2000/svg"
   xmlns:rdf="http://www.w3.org/1999/02/22-rdf-syntax-ns#"
   xmlns:cc="http://creativecommons.org/ns#"
   xmlns:dc="http://purl.org/dc/elements/1.1/"><sodipodi:namedview
     id="namedview1"
     pagecolor="#ffffff"
     bordercolor="#000000"
     borderopacity="0.25"
     inkscape:showpageshadow="2"
     inkscape:pageopacity="0.0"
     inkscape:pagecheckerboard="0"
     inkscape:deskcolor="#d1d1d1"
     showgrid="false"
     inkscape:current-layer="svg4157"><inkscape:page
       x="0"
       y="0"
       width="24"
       height="24"
       id="page1"
       margin="0"
       bleed="0" /><inkscape:grid
       id="grid2"
       units="px"
       originx="0"
       originy="0"
       spacingx="0.5"
       spacingy="0.5"
       empcolor="#0099e5"
       empopacity="0.30196078"
       color="#0099e5"
       opacity="0.0784314"
       empspacing="2"
       enabled="true"
       visible="false" /></sodipodi:namedview><defs
     id="defs4159"><linearGradient
       id="linearGradient25"><stop
         style="stop-color:#ffffff;stop-opacity:1;"
         offset="0"
         id="stop25" /><stop
         style="stop-color:#ffffff;stop-opacity:0;"
         offset="1"
         id="stop26" /></linearGradient><linearGradient
       id="linearGradient14"><stop
         id="stop9"
         style="stop-color:#ffffff;stop-opacity:1"
         offset="0" /><stop
         id="stop10"
         style="stop-color:#ffffff;stop-opacity:0.23529412"
         offset="0.19444445" /><stop
         id="stop11"
         style="stop-color:#ffffff;stop-opacity:0.15686275"
         offset="0.80555558" /><stop
         id="stop12"
         style="stop-color:#ffffff;stop-opacity:0.39215687"
         offset="1" /></linearGradient><style
       id="style1">.g{fill:#000;}.g,.h,.i{stroke-width:0px;}.h{fill:url(#e);}.i{fill:#fff;}</style><style
       id="style1-7">.g{fill:#000;}.g,.h,.i{stroke-width:0px;}.h{fill:url(#e);}.i{fill:#fff;}</style><style
       id="style1-5">.g{fill:#000;}.g,.h,.i{stroke-width:0px;}.h{fill:url(#e);}.i{fill:#fff;}</style><style
       id="style1-53">.g{fill:#000;}.g,.h,.i{stroke-width:0px;}.h{fill:url(#e);}.i{fill:#fff;}</style><style
       id="style1-6">.cls-1{fill:#fff;}</style><style
       id="style1-67">.cls-1{fill:#fff;}</style><linearGradient
       id="linearGradient3820-7-2-2"><stop
         offset="0"
         style="stop-color:#3d3d3d;stop-opacity:1"
         id="stop3822-2-6-36" /><stop
         offset="0.5"
         style="stop-color:#686868;stop-opacity:0.49803922"
         id="stop3864-8-7-6" /><stop
         offset="1"
         style="stop-color:#686868;stop-opacity:0"
         id="stop3824-1-2-4" /></linearGradient><style
       id="style1-75">.g{fill:#000;}.g,.h,.i{stroke-width:0px;}.h{fill:url(#e);}.i{fill:#fff;}</style><style
       id="style1-7-35">.g{fill:#000;}.g,.h,.i{stroke-width:0px;}.h{fill:url(#e);}.i{fill:#fff;}</style><style
       id="style1-5-6">.g{fill:#000;}.g,.h,.i{stroke-width:0px;}.h{fill:url(#e);}.i{fill:#fff;}</style><style
       id="style1-53-1">.g{fill:#000;}.g,.h,.i{stroke-width:0px;}.h{fill:url(#e);}.i{fill:#fff;}</style><style
       id="style1-6-2">.cls-1{fill:#fff;}</style><style
       id="style1-67-7">.cls-1{fill:#fff;}</style><style
       id="style1-675">.g{fill:#000;}.g,.h,.i{stroke-width:0px;}.h{fill:url(#e);}.i{fill:#fff;}</style><style
       id="style1-7-3">.g{fill:#000;}.g,.h,.i{stroke-width:0px;}.h{fill:url(#e);}.i{fill:#fff;}</style><style
       id="style1-5-5">.g{fill:#000;}.g,.h,.i{stroke-width:0px;}.h{fill:url(#e);}.i{fill:#fff;}</style><linearGradient
       id="linearGradient2-5"><stop
         style="stop-color:#5865f2;stop-opacity:1;"
         offset="0"
         id="stop3-3" /><stop
         style="stop-color:#1f30f4;stop-opacity:1;"
         offset="1"
         id="stop4-5" /></linearGradient><style
       id="style1-3">.g{fill:#000;}.g,.h,.i{stroke-width:0px;}.h{fill:url(#e);}.i{fill:#fff;}</style><style
       id="style1-6-6">.cls-1{fill:#fff;}</style><style
       id="style1-70">.g{fill:#000;}.g,.h,.i{stroke-width:0px;}.h{fill:url(#e);}.i{fill:#fff;}</style><style
       id="style1-6-3">.cls-1{fill:#fff;}</style><style
       id="style1-2">.g{fill:#000;}.g,.h,.i{stroke-width:0px;}.h{fill:url(#e);}.i{fill:#fff;}</style><style
       id="style1-6-8">.cls-1{fill:#fff;}</style><radialGradient
       xlink:href="#linearGradient3820-7-2-2"
       id="radialGradient4"
       gradientUnits="userSpaceOnUse"
       gradientTransform="matrix(0.15931401,0,0,0.05069083,-3.797101,11.381075)"
       cx="99.157013"
       cy="186.17059"
       fx="99.157013"
       fy="186.17059"
       r="62.769119" /><linearGradient
       xlink:href="#linearGradient14"
       id="linearGradient9"
       x1="12"
       y1="3"
       x2="12"
       y2="21"
       gradientUnits="userSpaceOnUse"
       gradientTransform="translate(0,-28)" /><linearGradient
       xlink:href="#linearGradient2-5"
       id="linearGradient24"
       x1="12"
       y1="2"
       x2="12"
       y2="22"
       gradientUnits="userSpaceOnUse"
       gradientTransform="translate(0,-28)" /><linearGradient
       xlink:href="#linearGradient25"
       id="linearGradient26"
       x1="18.337318"
       y1="23.034569"
       x2="17.71455"
       y2="20.534698"
       gradientUnits="userSpaceOnUse"
       gradientTransform="translate(0,-28)" /><linearGradient
       id="linearGradient881"><stop
         offset="0"
         style="stop-color:#cd9ef7;stop-opacity:1"
         id="stop873" /><stop
         offset="1"
         style="stop-color:#a56de2;stop-opacity:1"
         id="stop879" /></linearGradient><linearGradient
       gradientTransform="matrix(0.45945947,0,0,0.45945947,0.97422,0.9717328)"
       gradientUnits="userSpaceOnUse"
       xlink:href="#linearGradient4095"
       id="linearGradient3233"
       y2="39.237991"
       x2="23.997286"
       y1="6.5493407"
       x1="23.99999" /><linearGradient
       id="linearGradient4095"><stop
         offset="0"
         style="stop-color:#ffffff;stop-opacity:1"
         id="stop4097" /><stop
         offset="0.03456334"
         style="stop-color:#ffffff;stop-opacity:0.23529412"
         id="stop4100" /><stop
         offset="0.96670914"
         style="stop-color:#ffffff;stop-opacity:0.15686275"
         id="stop4102" /><stop
         offset="1"
         style="stop-color:#ffffff;stop-opacity:0.39215687"
         id="stop4104" /></linearGradient><linearGradient
       xlink:href="#linearGradient2-5"
       id="linearGradient871"
       x1="11"
       y1="3"
       x2="11"
       y2="20"
       gradientUnits="userSpaceOnUse" /><style
       id="style1-20">.g{fill:#000;}.g,.h,.i{stroke-width:0px;}.h{fill:url(#e);}.i{fill:#fff;}</style><style
       id="style1-7-23">.g{fill:#000;}.g,.h,.i{stroke-width:0px;}.h{fill:url(#e);}.i{fill:#fff;}</style><style
       id="style1-5-7">.g{fill:#000;}.g,.h,.i{stroke-width:0px;}.h{fill:url(#e);}.i{fill:#fff;}</style><style
       id="style1-3-2">.g{fill:#000;}.g,.h,.i{stroke-width:0px;}.h{fill:url(#e);}.i{fill:#fff;}</style><style
       id="style1-6-28">.cls-1{fill:#fff;}</style><style
       id="style1-62">.g{fill:#000;}.g,.h,.i{stroke-width:0px;}.h{fill:url(#e);}.i{fill:#fff;}</style><style
       id="style1-6-9">.cls-1{fill:#fff;}</style><style
       id="style1-67-9">.cls-1{fill:#fff;}</style><style
       id="style1-56">.g{fill:#000;}.g,.h,.i{stroke-width:0px;}.h{fill:url(#e);}.i{fill:#fff;}</style><style
       id="style1-7-1">.g{fill:#000;}.g,.h,.i{stroke-width:0px;}.h{fill:url(#e);}.i{fill:#fff;}</style><style
       id="style1-5-2">.g{fill:#000;}.g,.h,.i{stroke-width:0px;}.h{fill:url(#e);}.i{fill:#fff;}</style><style
       id="style1-3-7">.g{fill:#000;}.g,.h,.i{stroke-width:0px;}.h{fill:url(#e);}.i{fill:#fff;}</style><style
       id="style1-6-1">.cls-1{fill:#fff;}</style><style
       id="style1-2-7">.g{fill:#000;}.g,.h,.i{stroke-width:0px;}.h{fill:url(#e);}.i{fill:#fff;}</style><style
       id="style1-6-8-3">.cls-1{fill:#fff;}</style><style
       id="style1-79">.g{fill:#000;}.g,.h,.i{stroke-width:0px;}.h{fill:url(#e);}.i{fill:#fff;}</style><style
       id="style1-7-2">.g{fill:#000;}.g,.h,.i{stroke-width:0px;}.h{fill:url(#e);}.i{fill:#fff;}</style><style
       id="style1-5-0">.g{fill:#000;}.g,.h,.i{stroke-width:0px;}.h{fill:url(#e);}.i{fill:#fff;}</style><style
       id="style1-53-6">.g{fill:#000;}.g,.h,.i{stroke-width:0px;}.h{fill:url(#e);}.i{fill:#fff;}</style><style
       id="style1-6-2-1">.cls-1{fill:#fff;}</style><style
       id="style1-67-3">.cls-1{fill:#fff;}</style><style
       id="style1-675-2">.g{fill:#000;}.g,.h,.i{stroke-width:0px;}.h{fill:url(#e);}.i{fill:#fff;}</style><style
       id="style1-7-3-9">.g{fill:#000;}.g,.h,.i{stroke-width:0px;}.h{fill:url(#e);}.i{fill:#fff;}</style><style
       id="style1-5-5-3">.g{fill:#000;}.g,.h,.i{stroke-width:0px;}.h{fill:url(#e);}.i{fill:#fff;}</style><style
       id="style1-3-9">.g{fill:#000;}.g,.h,.i{stroke-width:0px;}.h{fill:url(#e);}.i{fill:#fff;}</style><style
       id="style1-6-6-1">.cls-1{fill:#fff;}</style><style
       id="style1-70-9">.g{fill:#000;}.g,.h,.i{stroke-width:0px;}.h{fill:url(#e);}.i{fill:#fff;}</style><style
       id="style1-6-3-4">.cls-1{fill:#fff;}</style><linearGradient
       id="linearGradient4"><stop
         id="stop1"
         style="stop-color:#ffffff;stop-opacity:1"
         offset="0" /><stop
         id="stop2"
         style="stop-color:#ffffff;stop-opacity:0.23529412"
         offset="0.06818181" /><stop
         id="stop3"
         style="stop-color:#ffffff;stop-opacity:0.15686275"
         offset="0.93181819" /><stop
         id="stop4"
         style="stop-color:#ffffff;stop-opacity:0.39215687"
         offset="1" /></linearGradient><linearGradient
       xlink:href="#linearGradient2-5"
       id="linearGradient930-9-2-8"
       x1="16.999996"
       y1="2.5"
       x2="16.999996"
       y2="29"
       gradientUnits="userSpaceOnUse"
       gradientTransform="translate(34.000004)" /><linearGradient
       x1="23.99999"
       y1="6.2399855"
       x2="23.999994"
       y2="38.799984"
       id="linearGradient4161-0-2"
       xlink:href="#linearGradient4"
       gradientUnits="userSpaceOnUse"
       gradientTransform="matrix(0.67567568,0,0,0.67567568,33.783787,-0.21620614)" /></defs><metadata
     id="metadata4162"><rdf:RDF><cc:Work
         rdf:about=""><dc:format>image/svg+xml</dc:format><dc:type
           rdf:resource="http://purl.org/dc/dcmitype/StillImage" /></cc:Work></rdf:RDF></metadata><path
     id="rect5505-21-8"
     style="color:#000000;display:inline;overflow:visible;visibility:visible;fill:url(#linearGradient871);fill-rule:nonzero;stroke:none;stroke-width:1;marker:none;enable-background:accumulate"
     d="m 4.5,2.5 c -1.108,0 -2,0.892 -2,2 v 14 c 0,1.108 0.892,2 2,2 h 11 v 3 l 3,-3 h 1 c 1.108,0 2,-0.892 2,-2 v -14 c 0,-1.108 -0.892,-2 -2,-2 z" /><path
     id="rect5505-21-8-1"
     style="color:#000000;display:inline;overflow:visible;visibility:visible;opacity:0.5;fill:none;stroke:#0a0f9f;stroke-width:1;stroke-linecap:round;stroke-linejoin:round;stroke-miterlimit:4;stroke-dasharray:none;stroke-dashoffset:0;stroke-opacity:1;marker:none;enable-background:accumulate"
     d="m 4.5,2.5 c -1.108,0 -2,0.892 -2,2 v 14 c 0,1.108 0.892,2 2,2 h 11 v 3 l 3,-3 h 1 c 1.108,0 2,-0.892 2,-2 v -14 c 0,-1.108 -0.892,-2 -2,-2 z" /><path
     id="rect6741-9"
     style="opacity:0.5;fill:none;stroke:url(#linearGradient3233);stroke-width:1;stroke-linecap:round;stroke-linejoin:round;stroke-miterlimit:4;stroke-dasharray:none;stroke-dashoffset:0;stroke-opacity:1"
     d="m 4.5019531,3.4980469 c -0.554,0 -1,0.446 -1,1 V 18.5 c 0,0.554 0.446,1 1,1 H 16.5 V 21 L 18,19.5 h 1.5 c 0.554,0 1,-0.446 1,-1 V 4.4980469 c 0,-0.554 -0.446,-1 -1,-1 z" /><path
     class="cls-1"
     d="M 16.946105,7.904493 A 11.78531,11.78531 0 0 0 14.006221,7 a 8.076552,8.076552 0 0 0 -0.37659,0.7655124 10.948066,10.948066 0 0 0 -3.262675,0 A 8.1112973,8.1112973 0 0 0 9.9903636,7 11.86825,11.86825 0 0 0 7.0482411,7.9067348 C 5.1876974,10.659442 4.6833317,13.34378 4.9355117,15.990011 v 0 A 11.850317,11.850317 0 0 0 8.5411555,17.800118 8.7086886,8.7086886 0 0 0 9.3133949,16.554899 7.6685775,7.6685775 0 0 1 8.0973167,15.97432 C 8.1993092,15.90035 8.299063,15.824132 8.3954511,15.750158 a 8.4699562,8.4699562 0 0 0 7.2090469,0 c 0.09751,0.07958 0.197261,0.155793 0.298132,0.224162 a 7.6977182,7.6977182 0 0 1 -1.218319,0.5817 8.6302318,8.6302318 0 0 0 0.77224,1.244098 11.796518,11.796518 0 0 0 3.607886,-1.808986 v 0 c 0.295892,-3.068776 -0.505483,-5.728456 -2.118332,-8.086639 z m -7.3132795,6.458103 c -0.7027481,0 -1.2833269,-0.63774 -1.2833269,-1.422307 0,-0.784566 0.5604056,-1.427911 1.2810844,-1.427911 0.720681,0 1.296778,0.643345 1.284448,1.427911 -0.01234,0.784567 -0.56601,1.422307 -1.2822055,1.422307 z m 4.7342955,0 c -0.703865,0 -1.282203,-0.63774 -1.282203,-1.422307 0,-0.784566 0.560403,-1.427911 1.282203,-1.427911 0.721802,0 1.293417,0.643345 1.281087,1.427911 -0.01234,0.784567 -0.564887,1.422307 -1.281087,1.422307 z"
     id="path17"
     style="opacity:0.15;fill:#000000;fill-opacity:1;stroke:#000000;stroke-width:2;stroke-dasharray:none;stroke-opacity:1" /><path
     class="cls-1"
     d="M 16.946105,7.904493 A 11.78531,11.78531 0 0 0 14.006221,7 a 8.076552,8.076552 0 0 0 -0.37659,0.7655124 10.948066,10.948066 0 0 0 -3.262675,0 A 8.1112973,8.1112973 0 0 0 9.9903636,7 11.86825,11.86825 0 0 0 7.0482411,7.9067348 C 5.1876974,10.659442 4.6833317,13.34378 4.9355117,15.990011 v 0 A 11.850317,11.850317 0 0 0 8.5411555,17.800118 8.7086886,8.7086886 0 0 0 9.3133949,16.554899 7.6685775,7.6685775 0 0 1 8.0973167,15.97432 C 8.1993092,15.90035 8.299063,15.824132 8.3954511,15.750158 a 8.4699562,8.4699562 0 0 0 7.2090469,0 c 0.09751,0.07958 0.197261,0.155793 0.298132,0.224162 a 7.6977182,7.6977182 0 0 1 -1.218319,0.5817 8.6302318,8.6302318 0 0 0 0.77224,1.244098 11.796518,11.796518 0 0 0 3.607886,-1.808986 v 0 c 0.295892,-3.068776 -0.505483,-5.728456 -2.118332,-8.086639 z m -7.3132795,6.458103 c -0.7027481,0 -1.2833269,-0.63774 -1.2833269,-1.422307 0,-0.784566 0.5604056,-1.427911 1.2810844,-1.427911 0.720681,0 1.296778,0.643345 1.284448,1.427911 -0.01234,0.784567 -0.56601,1.422307 -1.2822055,1.422307 z m 4.7342955,0 c -0.703865,0 -1.282203,-0.63774 -1.282203,-1.422307 0,-0.784566 0.560403,-1.427911 1.282203,-1.427911 0.721802,0 1.293417,0.643345 1.281087,1.427911 -0.01234,0.784567 -0.564887,1.422307 -1.281087,1.422307 z"
     id="path16"
     style="opacity:0.15;fill:#000000;fill-opacity:1;stroke-width:0.112081" /><path
     class="cls-1"
     d="M 16.946105,6.904493 A 11.78531,11.78531 0 0 0 14.006221,6 a 8.076552,8.076552 0 0 0 -0.37659,0.7655124 10.948066,10.948066 0 0 0 -3.262675,0 A 8.1112973,8.1112973 0 0 0 9.9903636,6 11.86825,11.86825 0 0 0 7.0482411,6.9067348 C 5.1876974,9.6594421 4.6833317,12.34378 4.9355117,14.990011 v 0 A 11.850317,11.850317 0 0 0 8.5411555,16.800118 8.7086886,8.7086886 0 0 0 9.3133949,15.554899 7.6685775,7.6685775 0 0 1 8.0973167,14.97432 C 8.1993092,14.90035 8.299063,14.824132 8.3954511,14.750158 a 8.4699562,8.4699562 0 0 0 7.2090469,0 c 0.09751,0.07958 0.197261,0.155793 0.298132,0.224162 a 7.6977182,7.6977182 0 0 1 -1.218319,0.5817 8.6302318,8.6302318 0 0 0 0.77224,1.244098 11.796518,11.796518 0 0 0 3.607886,-1.808986 v 0 C 19.360329,11.922356 18.558954,9.2626758 16.946105,6.904493 Z m -7.3132795,6.458103 c -0.7027481,0 -1.2833269,-0.63774 -1.2833269,-1.422307 0,-0.784566 0.5604056,-1.427911 1.2810844,-1.427911 0.720681,0 1.296778,0.643345 1.284448,1.427911 -0.01234,0.784567 -0.56601,1.422307 -1.2822055,1.422307 z m 4.7342955,0 c -0.703865,0 -1.282203,-0.63774 -1.282203,-1.422307 0,-0.784566 0.560403,-1.427911 1.282203,-1.427911 0.721802,0 1.293417,0.643345 1.281087,1.427911 -0.01234,0.784567 -0.564887,1.422307 -1.281087,1.422307 z"
     id="path1-73"
     style="fill:#d4d4d4;stroke-width:0.112081" /><path
     id="path14"
     style="fill:#fafafa;stroke-width:0.112081"
     class="cls-1"
     d="M 9.9902344,5.9996685 C 8.9745856,6.1727975 7.9858041,6.477442 7.0488281,6.9059185 5.5930016,9.0598395 4.969137,11.172782 4.8867188,13.257481 c 0.00992,0.244546 0.025587,0.488547 0.048828,0.732422 1.0894967,0.805168 2.3089897,1.417557 3.6054687,1.810547 C 8.6464931,15.655168 8.7474528,15.50666 8.84375,15.355137 8.5882987,15.241872 8.3392293,15.11473 8.0976562,14.974278 l 0.296875,-1.22461 c 2.2836138,1.074273 4.9273248,1.074273 7.2109378,0 l 0.296875,1.22461 c -0.242193,0.141129 -0.491914,0.268923 -0.748047,0.382812 0.09629,0.15089 0.197249,0.298749 0.302734,0.44336 1.297429,-0.391189 2.517755,-1.003004 3.607422,-1.808594 0.02449,-0.253951 0.03921,-0.505497 0.04883,-0.753906 C 19.014814,10.894823 18.2427,8.8009051 16.945312,6.9039653 16.009199,6.4754352 15.020969,6.171415 14.005859,5.9996685 c -0.139056,0.2483871 -0.264882,0.503952 -0.376953,0.765625 -1.08114,-0.1628672 -2.180578,-0.1628672 -3.261718,0 -0.11213,-0.261646 -0.237955,-0.5172079 -0.3769536,-0.765625 z m -0.359375,3.5136716 c 0.7206806,0 1.2955326,0.6431689 1.2832026,1.4277349 -0.0027,0.170416 -0.0302,0.332844 -0.08008,0.484375 0.05458,0.160102 0.08293,0.334214 0.08008,0.515625 -0.01234,0.784567 -0.565054,1.421875 -1.2812495,1.421875 -0.7027481,0 -1.2832031,-0.637308 -1.2832031,-1.421875 0,-0.177013 0.029573,-0.347038 0.082031,-0.503907 -0.052577,-0.154804 -0.082031,-0.32128 -0.082031,-0.496093 0,-0.784566 0.5605712,-1.4277349 1.28125,-1.4277349 z m 4.7363286,0 c 0.721802,0 1.29358,0.6431689 1.28125,1.4277349 -0.0027,0.169755 -0.0326,0.331386 -0.08203,0.482422 0.05471,0.160698 0.08489,0.335351 0.08203,0.517578 -0.01234,0.784567 -0.565051,1.421875 -1.28125,1.421875 -0.703866,0 -1.283204,-0.637308 -1.283204,-1.421875 0,-0.177013 0.02956,-0.347038 0.08203,-0.503907 -0.05242,-0.154804 -0.08203,-0.32128 -0.08203,-0.496093 0,-0.784566 0.561403,-1.4277349 1.283204,-1.4277349 z" /></svg>
