<?xml version="1.0" encoding="UTF-8" standalone="no"?>
<svg
   id="svg4157"
   height="24"
   width="24"
   version="1.1"
   xml:space="preserve"
   sodipodi:docname="slack.svg"
   inkscape:version="1.4.2 (ebf0e940d0, 2025-05-08)"
   xmlns:inkscape="http://www.inkscape.org/namespaces/inkscape"
   xmlns:sodipodi="http://sodipodi.sourceforge.net/DTD/sodipodi-0.dtd"
   xmlns:xlink="http://www.w3.org/1999/xlink"
   xmlns="http://www.w3.org/2000/svg"
   xmlns:svg="http://www.w3.org/2000/svg"
   xmlns:rdf="http://www.w3.org/1999/02/22-rdf-syntax-ns#"
   xmlns:cc="http://creativecommons.org/ns#"
   xmlns:dc="http://purl.org/dc/elements/1.1/"><sodipodi:namedview
     id="namedview1"
     pagecolor="#ffffff"
     bordercolor="#000000"
     borderopacity="0.25"
     inkscape:showpageshadow="2"
     inkscape:pageopacity="0.0"
     inkscape:pagecheckerboard="0"
     inkscape:deskcolor="#d1d1d1"
     showgrid="false"
     inkscape:zoom="2.185"
     inkscape:cx="-17.391304"
     inkscape:cy="16.24714"
     inkscape:current-layer="svg4157"><inkscape:grid
       id="grid1"
       units="px"
       originx="-34"
       originy="0"
       spacingx="0.5"
       spacingy="0.5"
       empcolor="#0099e5"
       empopacity="0.30196078"
       color="#0099e5"
       opacity="0.0784314"
       empspacing="2"
       enabled="true"
       visible="false" /><inkscape:page
       x="0"
       y="0"
       width="24"
       height="24"
       id="page2"
       margin="0"
       bleed="0" /></sodipodi:namedview><defs
     id="defs4159"><inkscape:path-effect
       effect="offset"
       id="path-effect1"
       is_visible="true"
       lpeversion="1.3"
       linejoin_type="miter"
       unit="px"
       offset="-0.5"
       miter_limit="4"
       attempt_force_join="false"
       update_on_knot_move="true" /><inkscape:path-effect
       effect="offset"
       id="path-effect3"
       is_visible="true"
       lpeversion="1.3"
       linejoin_type="miter"
       unit="px"
       offset="-0.5"
       miter_limit="4"
       attempt_force_join="false"
       update_on_knot_move="true" /><linearGradient
       gradientTransform="matrix(0.45945947,0,0,0.45945947,0.9742203,0.9717328)"
       gradientUnits="userSpaceOnUse"
       xlink:href="#linearGradient4095"
       id="linearGradient3233"
       y2="41.414463"
       x2="23.99999"
       y1="6.5909343"
       x1="23.99999" /><linearGradient
       id="linearGradient4095"><stop
         offset="0"
         style="stop-color:#ffffff;stop-opacity:1"
         id="stop4097" /><stop
         offset="0.03141704"
         style="stop-color:#ffffff;stop-opacity:0.23529412"
         id="stop4100" /><stop
         offset="0.96875"
         style="stop-color:#ffffff;stop-opacity:0.15686275"
         id="stop4102" /><stop
         offset="1"
         style="stop-color:#ffffff;stop-opacity:0.39215687"
         id="stop4104" /></linearGradient><radialGradient
       gradientTransform="matrix(2.003784,0,0,1.4,27.98813,-17.4)"
       gradientUnits="userSpaceOnUse"
       xlink:href="#linearGradient3688-166-749-9"
       id="radialGradient3082-6"
       fy="43.5"
       fx="4.9929786"
       r="2.5"
       cy="43.5"
       cx="4.9929786" /><linearGradient
       id="linearGradient3688-166-749-9"><stop
         offset="0"
         style="stop-color:#181818;stop-opacity:1"
         id="stop2883-2" /><stop
         offset="1"
         style="stop-color:#181818;stop-opacity:0"
         id="stop2885-2" /></linearGradient><radialGradient
       gradientTransform="matrix(2.003784,0,0,1.4,-20.01187,-104.4)"
       gradientUnits="userSpaceOnUse"
       xlink:href="#linearGradient3688-464-309-7-6"
       id="radialGradient3084-4"
       fy="43.5"
       fx="4.9929786"
       r="2.5"
       cy="43.5"
       cx="4.9929786" /><linearGradient
       id="linearGradient3688-464-309-7-6"><stop
         offset="0"
         style="stop-color:#181818;stop-opacity:1"
         id="stop2889-75" /><stop
         offset="1"
         style="stop-color:#181818;stop-opacity:0"
         id="stop2891-4-9" /></linearGradient><linearGradient
       gradientUnits="userSpaceOnUse"
       xlink:href="#linearGradient3702-501-757-1"
       id="linearGradient3086-8"
       y2="39.999443"
       x2="25.058096"
       y1="47.027729"
       x1="25.058096" /><linearGradient
       id="linearGradient3702-501-757-1"><stop
         offset="0"
         style="stop-color:#181818;stop-opacity:0"
         id="stop2895-2" /><stop
         offset="0.5"
         style="stop-color:#181818;stop-opacity:1"
         id="stop2897-89" /><stop
         offset="1"
         style="stop-color:#181818;stop-opacity:0"
         id="stop2899-36" /></linearGradient><linearGradient
       xlink:href="#linearGradient4-6"
       id="linearGradient871"
       x1="11"
       y1="3"
       x2="11"
       y2="20"
       gradientUnits="userSpaceOnUse" /><style
       id="style1">.g{fill:#000;}.g,.h,.i{stroke-width:0px;}.h{fill:url(#e);}.i{fill:#fff;}</style><style
       id="style1-7">.g{fill:#000;}.g,.h,.i{stroke-width:0px;}.h{fill:url(#e);}.i{fill:#fff;}</style><style
       id="style1-5">.g{fill:#000;}.g,.h,.i{stroke-width:0px;}.h{fill:url(#e);}.i{fill:#fff;}</style><linearGradient
       id="linearGradient4-6"><stop
         style="stop-color:#fafafa;stop-opacity:1;"
         offset="0"
         id="stop4-7" /><stop
         style="stop-color:#d4d4d4;stop-opacity:1;"
         offset="1"
         id="stop5" /></linearGradient><style
       id="style1-53">.g{fill:#000;}.g,.h,.i{stroke-width:0px;}.h{fill:url(#e);}.i{fill:#fff;}</style><style
       id="style1-6">.cls-1{fill:#fff;}</style><style
       id="style1-67">.cls-1{fill:#fff;}</style><linearGradient
       id="linearGradient25"><stop
         style="stop-color:#ffffff;stop-opacity:1;"
         offset="0"
         id="stop25" /><stop
         style="stop-color:#ffffff;stop-opacity:0;"
         offset="1"
         id="stop26" /></linearGradient><linearGradient
       id="linearGradient14"><stop
         id="stop9"
         style="stop-color:#ffffff;stop-opacity:1"
         offset="0" /><stop
         id="stop10"
         style="stop-color:#ffffff;stop-opacity:0.23529412"
         offset="0.19444445" /><stop
         id="stop11"
         style="stop-color:#ffffff;stop-opacity:0.15686275"
         offset="0.80555558" /><stop
         id="stop12"
         style="stop-color:#ffffff;stop-opacity:0.39215687"
         offset="1" /></linearGradient><style
       id="style1-535">.g{fill:#000;}.g,.h,.i{stroke-width:0px;}.h{fill:url(#e);}.i{fill:#fff;}</style><style
       id="style1-7-6">.g{fill:#000;}.g,.h,.i{stroke-width:0px;}.h{fill:url(#e);}.i{fill:#fff;}</style><style
       id="style1-5-2">.g{fill:#000;}.g,.h,.i{stroke-width:0px;}.h{fill:url(#e);}.i{fill:#fff;}</style><style
       id="style1-53-9">.g{fill:#000;}.g,.h,.i{stroke-width:0px;}.h{fill:url(#e);}.i{fill:#fff;}</style><style
       id="style1-6-1">.cls-1{fill:#fff;}</style><style
       id="style1-67-2">.cls-1{fill:#fff;}</style><linearGradient
       id="linearGradient3820-7-2-2"><stop
         offset="0"
         style="stop-color:#3d3d3d;stop-opacity:1"
         id="stop3822-2-6-36" /><stop
         offset="0.5"
         style="stop-color:#686868;stop-opacity:0.49803922"
         id="stop3864-8-7-6" /><stop
         offset="1"
         style="stop-color:#686868;stop-opacity:0"
         id="stop3824-1-2-4" /></linearGradient><style
       id="style1-75">.g{fill:#000;}.g,.h,.i{stroke-width:0px;}.h{fill:url(#e);}.i{fill:#fff;}</style><style
       id="style1-7-35">.g{fill:#000;}.g,.h,.i{stroke-width:0px;}.h{fill:url(#e);}.i{fill:#fff;}</style><style
       id="style1-5-6">.g{fill:#000;}.g,.h,.i{stroke-width:0px;}.h{fill:url(#e);}.i{fill:#fff;}</style><style
       id="style1-53-1">.g{fill:#000;}.g,.h,.i{stroke-width:0px;}.h{fill:url(#e);}.i{fill:#fff;}</style><style
       id="style1-6-2">.cls-1{fill:#fff;}</style><style
       id="style1-67-7">.cls-1{fill:#fff;}</style><style
       id="style1-675">.g{fill:#000;}.g,.h,.i{stroke-width:0px;}.h{fill:url(#e);}.i{fill:#fff;}</style><style
       id="style1-7-3">.g{fill:#000;}.g,.h,.i{stroke-width:0px;}.h{fill:url(#e);}.i{fill:#fff;}</style><style
       id="style1-5-5">.g{fill:#000;}.g,.h,.i{stroke-width:0px;}.h{fill:url(#e);}.i{fill:#fff;}</style><linearGradient
       id="linearGradient2-5"><stop
         style="stop-color:#5865f2;stop-opacity:1;"
         offset="0"
         id="stop3-3" /><stop
         style="stop-color:#1f30f4;stop-opacity:1;"
         offset="1"
         id="stop4-5" /></linearGradient><style
       id="style1-3">.g{fill:#000;}.g,.h,.i{stroke-width:0px;}.h{fill:url(#e);}.i{fill:#fff;}</style><style
       id="style1-6-6">.cls-1{fill:#fff;}</style><style
       id="style1-70">.g{fill:#000;}.g,.h,.i{stroke-width:0px;}.h{fill:url(#e);}.i{fill:#fff;}</style><style
       id="style1-6-3">.cls-1{fill:#fff;}</style><style
       id="style1-2">.g{fill:#000;}.g,.h,.i{stroke-width:0px;}.h{fill:url(#e);}.i{fill:#fff;}</style><style
       id="style1-6-8">.cls-1{fill:#fff;}</style><radialGradient
       xlink:href="#linearGradient3820-7-2-2"
       id="radialGradient4"
       gradientUnits="userSpaceOnUse"
       gradientTransform="matrix(0.15931401,0,0,0.05069083,-3.797101,11.381075)"
       cx="99.157013"
       cy="186.17059"
       fx="99.157013"
       fy="186.17059"
       r="62.769119" /><linearGradient
       xlink:href="#linearGradient14"
       id="linearGradient9"
       x1="12"
       y1="3"
       x2="12"
       y2="21"
       gradientUnits="userSpaceOnUse"
       gradientTransform="translate(0,-26)" /><linearGradient
       xlink:href="#linearGradient4-6"
       id="linearGradient24"
       x1="12"
       y1="2"
       x2="12"
       y2="22"
       gradientUnits="userSpaceOnUse"
       gradientTransform="translate(34)" /><linearGradient
       xlink:href="#linearGradient25"
       id="linearGradient26"
       x1="18.337318"
       y1="23.034569"
       x2="17.71455"
       y2="20.534698"
       gradientUnits="userSpaceOnUse"
       gradientTransform="translate(0,-26)" /><style
       id="style1-37">.g{fill:#000;}.g,.h,.i{stroke-width:0px;}.h{fill:url(#e);}.i{fill:#fff;}</style><style
       id="style1-7-5">.g{fill:#000;}.g,.h,.i{stroke-width:0px;}.h{fill:url(#e);}.i{fill:#fff;}</style><style
       id="style1-5-9">.g{fill:#000;}.g,.h,.i{stroke-width:0px;}.h{fill:url(#e);}.i{fill:#fff;}</style><style
       id="style1-53-2">.g{fill:#000;}.g,.h,.i{stroke-width:0px;}.h{fill:url(#e);}.i{fill:#fff;}</style><style
       id="style1-6-289">.cls-1{fill:#fff;}</style><style
       id="style1-67-73">.cls-1{fill:#fff;}</style><style
       id="style1-75-9">.g{fill:#000;}.g,.h,.i{stroke-width:0px;}.h{fill:url(#e);}.i{fill:#fff;}</style><style
       id="style1-7-35-3">.g{fill:#000;}.g,.h,.i{stroke-width:0px;}.h{fill:url(#e);}.i{fill:#fff;}</style><style
       id="style1-5-6-1">.g{fill:#000;}.g,.h,.i{stroke-width:0px;}.h{fill:url(#e);}.i{fill:#fff;}</style><style
       id="style1-53-1-9">.g{fill:#000;}.g,.h,.i{stroke-width:0px;}.h{fill:url(#e);}.i{fill:#fff;}</style><style
       id="style1-6-2-4">.cls-1{fill:#fff;}</style><style
       id="style1-67-7-7">.cls-1{fill:#fff;}</style><style
       id="style1-675-8">.g{fill:#000;}.g,.h,.i{stroke-width:0px;}.h{fill:url(#e);}.i{fill:#fff;}</style><style
       id="style1-7-3-4">.g{fill:#000;}.g,.h,.i{stroke-width:0px;}.h{fill:url(#e);}.i{fill:#fff;}</style><style
       id="style1-5-5-5">.g{fill:#000;}.g,.h,.i{stroke-width:0px;}.h{fill:url(#e);}.i{fill:#fff;}</style><style
       id="style1-3-6">.g{fill:#000;}.g,.h,.i{stroke-width:0px;}.h{fill:url(#e);}.i{fill:#fff;}</style><style
       id="style1-6-6-10">.cls-1{fill:#fff;}</style><style
       id="style1-70-6">.g{fill:#000;}.g,.h,.i{stroke-width:0px;}.h{fill:url(#e);}.i{fill:#fff;}</style><style
       id="style1-6-3-3">.cls-1{fill:#fff;}</style><style
       id="style1-2-2">.g{fill:#000;}.g,.h,.i{stroke-width:0px;}.h{fill:url(#e);}.i{fill:#fff;}</style><style
       id="style1-6-8-0">.cls-1{fill:#fff;}</style><radialGradient
       xlink:href="#linearGradient3820-7-2-2"
       id="radialGradient4-6"
       gradientUnits="userSpaceOnUse"
       gradientTransform="matrix(0.15931401,0,0,0.05069083,-3.797101,11.381075)"
       cx="99.157013"
       cy="186.17059"
       fx="99.157013"
       fy="186.17059"
       r="62.769119" /><linearGradient
       xlink:href="#linearGradient14"
       id="linearGradient9-1"
       x1="12"
       y1="3"
       x2="12"
       y2="21"
       gradientUnits="userSpaceOnUse"
       gradientTransform="translate(0,-28)" /><linearGradient
       xlink:href="#linearGradient2-5"
       id="linearGradient24-5"
       x1="12"
       y1="2"
       x2="12"
       y2="22"
       gradientUnits="userSpaceOnUse"
       gradientTransform="translate(0,-28)" /><linearGradient
       xlink:href="#linearGradient25"
       id="linearGradient26-5"
       x1="18.337318"
       y1="23.034569"
       x2="17.71455"
       y2="20.534698"
       gradientUnits="userSpaceOnUse"
       gradientTransform="translate(0,-28)" /><linearGradient
       id="linearGradient881"><stop
         offset="0"
         style="stop-color:#cd9ef7;stop-opacity:1"
         id="stop873" /><stop
         offset="1"
         style="stop-color:#a56de2;stop-opacity:1"
         id="stop879" /></linearGradient><linearGradient
       gradientTransform="matrix(0.45945947,0,0,0.45945947,0.97422,0.9717328)"
       gradientUnits="userSpaceOnUse"
       xlink:href="#linearGradient4095-7"
       id="linearGradient3233-4"
       y2="39.237991"
       x2="23.997286"
       y1="6.5493407"
       x1="23.99999" /><linearGradient
       id="linearGradient4095-7"><stop
         offset="0"
         style="stop-color:#ffffff;stop-opacity:1"
         id="stop4097-6" /><stop
         offset="0.03456334"
         style="stop-color:#ffffff;stop-opacity:0.23529412"
         id="stop4100-5" /><stop
         offset="0.96670914"
         style="stop-color:#ffffff;stop-opacity:0.15686275"
         id="stop4102-6" /><stop
         offset="1"
         style="stop-color:#ffffff;stop-opacity:0.39215687"
         id="stop4104-9" /></linearGradient><style
       id="style1-20">.g{fill:#000;}.g,.h,.i{stroke-width:0px;}.h{fill:url(#e);}.i{fill:#fff;}</style><style
       id="style1-7-23">.g{fill:#000;}.g,.h,.i{stroke-width:0px;}.h{fill:url(#e);}.i{fill:#fff;}</style><style
       id="style1-5-7">.g{fill:#000;}.g,.h,.i{stroke-width:0px;}.h{fill:url(#e);}.i{fill:#fff;}</style><style
       id="style1-3-2">.g{fill:#000;}.g,.h,.i{stroke-width:0px;}.h{fill:url(#e);}.i{fill:#fff;}</style><style
       id="style1-6-28">.cls-1{fill:#fff;}</style><style
       id="style1-62">.g{fill:#000;}.g,.h,.i{stroke-width:0px;}.h{fill:url(#e);}.i{fill:#fff;}</style><style
       id="style1-6-9">.cls-1{fill:#fff;}</style><style
       id="style1-67-9">.cls-1{fill:#fff;}</style><style
       id="style1-56">.g{fill:#000;}.g,.h,.i{stroke-width:0px;}.h{fill:url(#e);}.i{fill:#fff;}</style><style
       id="style1-7-1">.g{fill:#000;}.g,.h,.i{stroke-width:0px;}.h{fill:url(#e);}.i{fill:#fff;}</style><style
       id="style1-5-2-7">.g{fill:#000;}.g,.h,.i{stroke-width:0px;}.h{fill:url(#e);}.i{fill:#fff;}</style><style
       id="style1-3-7">.g{fill:#000;}.g,.h,.i{stroke-width:0px;}.h{fill:url(#e);}.i{fill:#fff;}</style><style
       id="style1-6-1-4">.cls-1{fill:#fff;}</style><style
       id="style1-2-7">.g{fill:#000;}.g,.h,.i{stroke-width:0px;}.h{fill:url(#e);}.i{fill:#fff;}</style><style
       id="style1-6-8-3">.cls-1{fill:#fff;}</style><style
       id="style1-79">.g{fill:#000;}.g,.h,.i{stroke-width:0px;}.h{fill:url(#e);}.i{fill:#fff;}</style><style
       id="style1-7-2">.g{fill:#000;}.g,.h,.i{stroke-width:0px;}.h{fill:url(#e);}.i{fill:#fff;}</style><style
       id="style1-5-0">.g{fill:#000;}.g,.h,.i{stroke-width:0px;}.h{fill:url(#e);}.i{fill:#fff;}</style><style
       id="style1-53-6">.g{fill:#000;}.g,.h,.i{stroke-width:0px;}.h{fill:url(#e);}.i{fill:#fff;}</style><style
       id="style1-6-2-1">.cls-1{fill:#fff;}</style><style
       id="style1-67-3">.cls-1{fill:#fff;}</style><style
       id="style1-675-2">.g{fill:#000;}.g,.h,.i{stroke-width:0px;}.h{fill:url(#e);}.i{fill:#fff;}</style><style
       id="style1-7-3-9">.g{fill:#000;}.g,.h,.i{stroke-width:0px;}.h{fill:url(#e);}.i{fill:#fff;}</style><style
       id="style1-5-5-3">.g{fill:#000;}.g,.h,.i{stroke-width:0px;}.h{fill:url(#e);}.i{fill:#fff;}</style><style
       id="style1-3-9">.g{fill:#000;}.g,.h,.i{stroke-width:0px;}.h{fill:url(#e);}.i{fill:#fff;}</style><style
       id="style1-6-6-1">.cls-1{fill:#fff;}</style><style
       id="style1-70-9">.g{fill:#000;}.g,.h,.i{stroke-width:0px;}.h{fill:url(#e);}.i{fill:#fff;}</style><style
       id="style1-6-3-4">.cls-1{fill:#fff;}</style><linearGradient
       id="linearGradient4"><stop
         id="stop1"
         style="stop-color:#ffffff;stop-opacity:1"
         offset="0" /><stop
         id="stop2"
         style="stop-color:#ffffff;stop-opacity:0.23529412"
         offset="0.06818181" /><stop
         id="stop3"
         style="stop-color:#ffffff;stop-opacity:0.15686275"
         offset="0.93181819" /><stop
         id="stop4"
         style="stop-color:#ffffff;stop-opacity:0.39215687"
         offset="1" /></linearGradient><linearGradient
       xlink:href="#linearGradient2-5"
       id="linearGradient930-9-2-8"
       x1="16.999996"
       y1="2.5"
       x2="16.999996"
       y2="29"
       gradientUnits="userSpaceOnUse"
       gradientTransform="translate(34.000004)" /><linearGradient
       x1="23.99999"
       y1="6.2399855"
       x2="23.999994"
       y2="38.799984"
       id="linearGradient4161-0-2"
       xlink:href="#linearGradient4"
       gradientUnits="userSpaceOnUse"
       gradientTransform="matrix(0.67567568,0,0,0.67567568,33.783787,-0.21620614)" /></defs><metadata
     id="metadata4162"><rdf:RDF><cc:Work
         rdf:about=""><dc:format>image/svg+xml</dc:format><dc:type
           rdf:resource="http://purl.org/dc/dcmitype/StillImage" /></cc:Work></rdf:RDF></metadata><path
     id="rect5505-21-8"
     style="color:#000000;display:inline;overflow:visible;visibility:visible;fill:url(#linearGradient871);fill-rule:nonzero;stroke:none;stroke-width:1;marker:none;enable-background:accumulate"
     d="M 4.5,3.0097656 C 3.6657184,3.0097656 3.0097656,3.6657184 3.0097656,4.5 v 14 c 0,0.834282 0.6559528,1.490234 1.4902344,1.490234 h 11.509766 v 2.277344 l 2.279296,-2.277344 H 19.5 c 0.834282,0 1.490234,-0.655952 1.490234,-1.490234 v -14 c 0,-0.8342816 -0.655952,-1.4902344 -1.490234,-1.4902344 z" /><path
     id="rect5505-21-8-1"
     style="color:#000000;display:inline;overflow:visible;visibility:visible;opacity:0.5;fill:none;stroke:#555761;stroke-width:1;stroke-linecap:round;stroke-linejoin:round;stroke-miterlimit:4;stroke-dasharray:none;stroke-dashoffset:0;stroke-opacity:1;marker:none;enable-background:accumulate"
     d="m 4.5,2.5 c -1.108,0 -2,0.892 -2,2 v 14 c 0,1.108 0.892,2 2,2 h 11 v 3 l 3,-3 h 1 c 1.108,0 2,-0.892 2,-2 v -14 c 0,-1.108 -0.892,-2 -2,-2 z" /><path
     id="rect6741-9"
     style="opacity:1;fill:none;stroke:url(#linearGradient3233-4);stroke-width:1;stroke-linecap:round;stroke-linejoin:round;stroke-miterlimit:4;stroke-dasharray:none;stroke-dashoffset:0;stroke-opacity:1"
     d="m 4.501953,3.4980469 c -0.554,0 -1,0.446 -1,1 V 18.5 c 0,0.554 0.446,1 1,1 H 16.5 V 21 L 18,19.5 h 1.5 c 0.554,0 1,-0.446 1,-1 V 4.4980469 c 0,-0.554 -0.446,-1 -1,-1 z" /><path
     id="path36-9"
     style="opacity:0.150245;fill:#000000;fill-opacity:1;stroke:#000000;stroke-width:2;stroke-linejoin:round;stroke-opacity:1"
     d="m 10,6 a 1,1 0 0 0 -1,1 1,1 0 0 0 1,1 h 1 V 7 A 1,1 0 0 0 10,6 Z m 4,0 a 0.99999499,0.99999499 0 0 0 -1,1 v 3 a 1,1 0 0 0 1,1 1,1 0 0 0 1,-1 V 7 A 0.99999499,0.99999499 0 0 0 14,6 Z M 7,9 a 0.99999499,0.99999499 0 0 0 -1,1 0.99999499,0.99999499 0 0 0 1,1 h 3 a 1,1 0 0 0 1,-1 1,1 0 0 0 -1,-1 z m 10,0 a 1,1 0 0 0 -1,1 v 1 h 1 A 1,1 0 0 0 18,10 1,1 0 0 0 17,9 Z M 7,13 a 1,1 0 0 0 -1,1 1,1 0 0 0 1,1 1,1 0 0 0 1,-1 v -1 z m 3,0 a 1,1 0 0 0 -1,1 v 3 a 1,1 0 0 0 1,1 1,1 0 0 0 1,-1 v -3 a 1,1 0 0 0 -1,-1 z m 4,0 a 0.99998999,0.99998999 0 0 0 -1,1 0.99998999,0.99998999 0 0 0 1,1 h 3 a 0.99998999,0.99998999 0 0 0 1,-1 0.99998999,0.99998999 0 0 0 -1,-1 z m -1,3 v 1 a 1,1 0 0 0 1,1 1,1 0 0 0 1,-1 1,1 0 0 0 -1,-1 z" /><path
     id="path33-3"
     style="opacity:0.149887;fill:#000000;fill-opacity:1;stroke:none;stroke-width:2;stroke-linejoin:round"
     d="m 10,6 a 1,1 0 0 0 -1,1 1,1 0 0 0 1,1 h 1 V 7 A 1,1 0 0 0 10,6 Z m 4,0 a 0.99999499,0.99999499 0 0 0 -1,1 v 3 a 1,1 0 0 0 1,1 1,1 0 0 0 1,-1 V 7 A 0.99999499,0.99999499 0 0 0 14,6 Z M 7,9 a 0.99999499,0.99999499 0 0 0 -1,1 0.99999499,0.99999499 0 0 0 1,1 h 3 a 1,1 0 0 0 1,-1 1,1 0 0 0 -1,-1 z m 10,0 a 1,1 0 0 0 -1,1 v 1 h 1 A 1,1 0 0 0 18,10 1,1 0 0 0 17,9 Z M 7,13 a 1,1 0 0 0 -1,1 1,1 0 0 0 1,1 1,1 0 0 0 1,-1 v -1 z m 3,0 a 1,1 0 0 0 -1,1 v 3 a 1,1 0 0 0 1,1 1,1 0 0 0 1,-1 v -3 a 1,1 0 0 0 -1,-1 z m 4,0 a 0.99998999,0.99998999 0 0 0 -1,1 0.99998999,0.99998999 0 0 0 1,1 h 3 a 0.99998999,0.99998999 0 0 0 1,-1 0.99998999,0.99998999 0 0 0 -1,-1 z m -1,3 v 1 a 1,1 0 0 0 1,1 1,1 0 0 0 1,-1 1,1 0 0 0 -1,-1 z" /><path
     id="path2-6"
     style="fill:#1da1eb;fill-opacity:1;stroke:none;stroke-width:2;stroke-linejoin:round"
     d="m 10,5 a 1,1 0 0 0 -1,1 1,1 0 0 0 1,1 h 1 V 6 A 1,1 0 0 0 10,5 Z M 7,8 a 0.99999499,0.99999499 0 0 0 -1,1 0.99999499,0.99999499 0 0 0 1,1 h 3 A 1,1 0 0 0 11,9 1,1 0 0 0 10,8 Z" /><path
     id="path6-0"
     style="fill:#2e9850;fill-opacity:1;stroke:none;stroke-width:2;stroke-linejoin:round"
     d="m 14,5 a 0.99999499,0.99999499 0 0 0 -1,1 v 3 a 1,1 0 0 0 1,1 1,1 0 0 0 1,-1 V 6 A 0.99999499,0.99999499 0 0 0 14,5 Z m 3,3 a 1,1 0 0 0 -1,1 v 1 h 1 A 1,1 0 0 0 18,9 1,1 0 0 0 17,8 Z" /><path
     id="path10-6"
     style="fill:#c40d55;fill-opacity:1;stroke:none;stroke-width:2;stroke-linejoin:round"
     d="m 7,12 a 1,1 0 0 0 -1,1 1,1 0 0 0 1,1 1,1 0 0 0 1,-1 v -1 z m 3,0 a 1,1 0 0 0 -1,1 v 3 a 1,1 0 0 0 1,1 1,1 0 0 0 1,-1 v -3 a 1,1 0 0 0 -1,-1 z" /><path
     id="path13-2"
     style="fill:#e5a40f;fill-opacity:1;stroke:none;stroke-width:2;stroke-linejoin:round"
     d="m 14,12 a 0.99998999,0.99998999 0 0 0 -1,1 0.99998999,0.99998999 0 0 0 1,1 h 3 a 0.99998999,0.99998999 0 0 0 1,-1 0.99998999,0.99998999 0 0 0 -1,-1 z m -1,3 v 1 a 1,1 0 0 0 1,1 1,1 0 0 0 1,-1 1,1 0 0 0 -1,-1 z" /><path
     id="path37-6"
     style="fill:#41b658;fill-opacity:1;stroke:none;stroke-width:2;stroke-linejoin:round"
     d="m 14,5 a 0.99999499,0.99999499 0 0 0 -1,1 v 2 a 1,1 0 0 0 1,1 1,1 0 0 0 1,-1 V 6 A 0.99999499,0.99999499 0 0 0 14,5 Z m 3,3 a 1,1 0 0 0 -1,1 h 1 A 1,1 0 0 0 17.863281,8.4941406 1,1 0 0 0 17,8 Z" /><path
     id="path38-1"
     style="fill:#1ab9ff;fill-opacity:1;stroke:none;stroke-width:2;stroke-linejoin:round"
     d="M 10,5 A 1,1 0 0 0 9.140625,5.5 1,1 0 0 0 10,6 h 1 A 1,1 0 0 0 10,5 Z M 7,8 A 0.99999499,0.99999499 0 0 0 6.140625,8.5 0.99999499,0.99999499 0 0 0 7,9 h 3 A 1,1 0 0 0 10.863281,8.4941406 1,1 0 0 0 10,8 Z" /><path
     id="path39-8"
     style="fill:#fcc003;fill-opacity:1;stroke:none;stroke-width:2;stroke-linejoin:round"
     d="M 14,12 A 0.99998999,0.99998999 0 0 0 13.140625,12.5 0.99998999,0.99998999 0 0 0 14,13 h 3 A 0.99998999,0.99998999 0 0 0 17.865234,12.5 0.99998999,0.99998999 0 0 0 17,12 Z m -1,3 a 1,1 0 0 0 1,1 1,1 0 0 0 0.863281,-0.505859 A 1,1 0 0 0 14,15 Z" /><path
     id="path41-7"
     style="fill:#e3066a;fill-opacity:1;stroke:none;stroke-width:2;stroke-linejoin:round"
     d="M 7,12 A 1,1 0 0 0 6.140625,12.5 1,1 0 0 0 7,13 1,1 0 0 0 8,12 Z m 3,0 a 1,1 0 0 0 -1,1 v 2 a 1,1 0 0 0 1,1 1,1 0 0 0 1,-1 v -2 a 1,1 0 0 0 -1,-1 z" /></svg>
