<?xml version="1.0" encoding="UTF-8" standalone="no"?>
<svg
   width="128"
   height="128"
   viewBox="0 0 128 128"
   fill="none"
   version="1.1"
   id="svg4"
   xml:space="preserve"
   sodipodi:docname="discord.svg"
   inkscape:version="1.4.2 (ebf0e940d0, 2025-05-08)"
   xmlns:inkscape="http://www.inkscape.org/namespaces/inkscape"
   xmlns:sodipodi="http://sodipodi.sourceforge.net/DTD/sodipodi-0.dtd"
   xmlns:xlink="http://www.w3.org/1999/xlink"
   xmlns="http://www.w3.org/2000/svg"
   xmlns:svg="http://www.w3.org/2000/svg"><sodipodi:namedview
     id="namedview1"
     pagecolor="#ffffff"
     bordercolor="#000000"
     borderopacity="0.25"
     inkscape:showpageshadow="2"
     inkscape:pageopacity="0.0"
     inkscape:pagecheckerboard="0"
     inkscape:deskcolor="#d1d1d1"
     showgrid="false"
     inkscape:current-layer="svg4"><inkscape:page
       x="0"
       y="0"
       width="128"
       height="128"
       id="page1"
       margin="0"
       bleed="0" /><inkscape:grid
       id="grid2"
       units="px"
       originx="0"
       originy="0"
       spacingx="0.5"
       spacingy="0.5"
       empcolor="#0099e5"
       empopacity="0.30196078"
       color="#0099e5"
       opacity="0.0784314"
       empspacing="2"
       enabled="true"
       visible="false" /></sodipodi:namedview><defs
     id="defs4"><linearGradient
       id="linearGradient29"><stop
         style="stop-color:#ffffff;stop-opacity:1;"
         offset="0"
         id="stop29" /><stop
         style="stop-color:#ffffff;stop-opacity:0;"
         offset="1"
         id="stop30" /></linearGradient><linearGradient
       id="linearGradient12"><stop
         id="stop8"
         style="stop-color:#ffffff;stop-opacity:1"
         offset="0" /><stop
         id="stop9"
         style="stop-color:#ffffff;stop-opacity:0.23529412"
         offset="0.08018868" /><stop
         id="stop10"
         style="stop-color:#ffffff;stop-opacity:0.15686275"
         offset="0.91981131" /><stop
         id="stop11"
         style="stop-color:#ffffff;stop-opacity:0.39215687"
         offset="1" /></linearGradient><linearGradient
       id="linearGradient4113"><stop
         id="stop4115"
         style="stop-color:#000000;stop-opacity:1"
         offset="0" /><stop
         id="stop4117"
         style="stop-color:#000000;stop-opacity:0"
         offset="1" /></linearGradient><linearGradient
       id="linearGradient2"><stop
         style="stop-color:#5865f2;stop-opacity:1;"
         offset="0"
         id="stop3-3" /><stop
         style="stop-color:#1f30f4;stop-opacity:1;"
         offset="1"
         id="stop4-5" /></linearGradient><radialGradient
       gradientTransform="matrix(1.5563924,0,0,0.16978827,70.27036,102.13029)"
       gradientUnits="userSpaceOnUse"
       xlink:href="#linearGradient4113"
       id="radialGradient4377"
       fy="93.467628"
       fx="-4.0287771"
       r="35.338131"
       cy="93.467628"
       cx="-4.0287771" /><style
       id="style1">.g{fill:#000;}.g,.h,.i{stroke-width:0px;}.h{fill:url(#e);}.i{fill:#fff;}</style><style
       id="style1-6">.cls-1{fill:#fff;}</style><radialGradient
       xlink:href="#linearGradient4113"
       id="radialGradient4"
       gradientUnits="userSpaceOnUse"
       gradientTransform="matrix(0.3823536,7.5555777e-8,-1.8372241e-8,0.1115198,-5.9254271,36.335849)"
       cx="99.189415"
       cy="185.29727"
       fx="99.189415"
       fy="185.29727"
       r="62.769119" /><radialGradient
       xlink:href="#linearGradient4113"
       id="radialGradient5"
       gradientUnits="userSpaceOnUse"
       gradientTransform="matrix(0.2549024,5.3967361e-8,-1.2248161e-8,0.07965545,6.7163816,44.240666)"
       cx="99.189415"
       cy="185.29727"
       fx="99.189415"
       fy="185.29727"
       r="62.769119" /><style
       id="style1-9">.g{fill:#000;}.g,.h,.i{stroke-width:0px;}.h{fill:url(#e);}.i{fill:#fff;}</style><style
       id="style1-6-12">.cls-1{fill:#fff;}</style><style
       id="style1-67">.cls-1{fill:#fff;}</style><style
       id="style1-56">.g{fill:#000;}.g,.h,.i{stroke-width:0px;}.h{fill:url(#e);}.i{fill:#fff;}</style><style
       id="style1-7">.g{fill:#000;}.g,.h,.i{stroke-width:0px;}.h{fill:url(#e);}.i{fill:#fff;}</style><style
       id="style1-5">.g{fill:#000;}.g,.h,.i{stroke-width:0px;}.h{fill:url(#e);}.i{fill:#fff;}</style><style
       id="style1-3">.g{fill:#000;}.g,.h,.i{stroke-width:0px;}.h{fill:url(#e);}.i{fill:#fff;}</style><style
       id="style1-6-1">.cls-1{fill:#fff;}</style><style
       id="style1-2">.g{fill:#000;}.g,.h,.i{stroke-width:0px;}.h{fill:url(#e);}.i{fill:#fff;}</style><style
       id="style1-6-8">.cls-1{fill:#fff;}</style><linearGradient
       xlink:href="#linearGradient12"
       id="linearGradient8"
       x1="64"
       y1="14"
       x2="64"
       y2="120"
       gradientUnits="userSpaceOnUse"
       gradientTransform="translate(0,-137)" /><linearGradient
       xlink:href="#linearGradient2"
       id="linearGradient26"
       x1="64"
       y1="13"
       x2="64"
       y2="120.99023"
       gradientUnits="userSpaceOnUse"
       gradientTransform="translate(0,-137)" /><linearGradient
       xlink:href="#linearGradient29"
       id="linearGradient30"
       x1="101.85315"
       y1="126.12645"
       x2="97.222069"
       y2="108.93288"
       gradientUnits="userSpaceOnUse"
       gradientTransform="translate(0,-137)" /><linearGradient
       id="linearGradient880"><stop
         style="stop-color:#cd9ef7;stop-opacity:1"
         offset="0"
         id="stop876" /><stop
         style="stop-color:#a56de2;stop-opacity:1"
         offset="1"
         id="stop878" /></linearGradient><linearGradient
       gradientTransform="matrix(2.7297298,0,0,2.7297298,-1.51351,1.486514)"
       gradientUnits="userSpaceOnUse"
       xlink:href="#linearGradient3924-776"
       id="linearGradient3159"
       y2="39.569294"
       x2="23.999998"
       y1="5.6831579"
       x1="23.999998" /><linearGradient
       id="linearGradient3924-776"><stop
         offset="0"
         style="stop-color:#ffffff;stop-opacity:1"
         id="stop3124" /><stop
         offset="0.0918919"
         style="stop-color:#ffffff;stop-opacity:0.23529412"
         id="stop3126" /><stop
         offset="0.92432439"
         style="stop-color:#ffffff;stop-opacity:0.15686275"
         id="stop3128" /><stop
         offset="1"
         style="stop-color:#ffffff;stop-opacity:0.39215687"
         id="stop3130" /></linearGradient><linearGradient
       xlink:href="#linearGradient2"
       id="linearGradient882"
       x1="62.871635"
       y1="15.90732"
       x2="62.871635"
       y2="111"
       gradientUnits="userSpaceOnUse" /><linearGradient
       id="linearGradient24"><stop
         style="stop-color:#fafafa;stop-opacity:1;"
         offset="0"
         id="stop24" /><stop
         style="stop-color:#fafafa;stop-opacity:0;"
         offset="1"
         id="stop25" /></linearGradient><linearGradient
       id="linearGradient23"><stop
         offset="0"
         style="stop-color:#ffffff;stop-opacity:1"
         id="stop20" /><stop
         offset="0.13392857"
         style="stop-color:#ffffff;stop-opacity:0.23529412"
         id="stop21" /><stop
         offset="0.8660714"
         style="stop-color:#ffffff;stop-opacity:0.15686275"
         id="stop22" /><stop
         offset="1"
         style="stop-color:#ffffff;stop-opacity:0.39215687"
         id="stop23" /></linearGradient><style
       id="style1-37">.g{fill:#000;}.g,.h,.i{stroke-width:0px;}.h{fill:url(#e);}.i{fill:#fff;}</style><style
       id="style1-6-5">.cls-1{fill:#fff;}</style><style
       id="style1-67-9">.cls-1{fill:#fff;}</style><style
       id="style1-56-22">.g{fill:#000;}.g,.h,.i{stroke-width:0px;}.h{fill:url(#e);}.i{fill:#fff;}</style><style
       id="style1-7-8">.g{fill:#000;}.g,.h,.i{stroke-width:0px;}.h{fill:url(#e);}.i{fill:#fff;}</style><style
       id="style1-5-9">.g{fill:#000;}.g,.h,.i{stroke-width:0px;}.h{fill:url(#e);}.i{fill:#fff;}</style><style
       id="style1-3-73">.g{fill:#000;}.g,.h,.i{stroke-width:0px;}.h{fill:url(#e);}.i{fill:#fff;}</style><style
       id="style1-6-1-6">.cls-1{fill:#fff;}</style><style
       id="style1-2-1">.g{fill:#000;}.g,.h,.i{stroke-width:0px;}.h{fill:url(#e);}.i{fill:#fff;}</style><style
       id="style1-6-8-2">.cls-1{fill:#fff;}</style><linearGradient
       xlink:href="#linearGradient2"
       id="linearGradient11"
       x1="32"
       y1="3"
       x2="32"
       y2="61"
       gradientUnits="userSpaceOnUse"
       gradientTransform="translate(0,-65)" /><linearGradient
       xlink:href="#linearGradient23"
       id="linearGradient20"
       x1="32"
       y1="4"
       x2="32"
       y2="60"
       gradientUnits="userSpaceOnUse"
       gradientTransform="translate(0,-65)" /><linearGradient
       xlink:href="#linearGradient24"
       id="linearGradient25"
       x1="53.554375"
       y1="59.875896"
       x2="52.482929"
       y2="55.161541"
       gradientUnits="userSpaceOnUse"
       gradientTransform="translate(0,-65)" /><radialGradient
       xlink:href="#linearGradient4113"
       id="radialGradient3"
       gradientUnits="userSpaceOnUse"
       gradientTransform="matrix(0.3823536,7.5555777e-8,-1.8372241e-8,0.1115198,-5.9254271,36.335849)"
       cx="99.189415"
       cy="185.29727"
       fx="99.189415"
       fy="185.29727"
       r="62.769119" /><radialGradient
       xlink:href="#linearGradient4113"
       id="radialGradient4-9"
       gradientUnits="userSpaceOnUse"
       gradientTransform="matrix(0.2549024,5.3967361e-8,-1.2248161e-8,0.07965545,6.7163816,44.240666)"
       cx="99.189415"
       cy="185.29727"
       fx="99.189415"
       fy="185.29727"
       r="62.769119" /><linearGradient
       y2="39.317303"
       x2="23.999998"
       y1="5.8977108"
       x1="23.999998"
       gradientTransform="matrix(1.4324324,0,0,1.4362832,135.62162,-2.4707827)"
       gradientUnits="userSpaceOnUse"
       id="linearGradient3904"
       xlink:href="#linearGradient4270" /><linearGradient
       id="linearGradient4270"><stop
         id="stop4272"
         style="stop-color:#ffffff;stop-opacity:1"
         offset="0" /><stop
         id="stop4274"
         style="stop-color:#ffffff;stop-opacity:0.23529412"
         offset="0.09375" /><stop
         id="stop4276"
         style="stop-color:#ffffff;stop-opacity:0.15686275"
         offset="0.92708337" /><stop
         id="stop4278"
         style="stop-color:#ffffff;stop-opacity:0.39215687"
         offset="1" /></linearGradient><linearGradient
       xlink:href="#linearGradient2"
       id="linearGradient899"
       x1="31.781376"
       y1="4.9266648"
       x2="32"
       y2="55"
       gradientUnits="userSpaceOnUse"
       gradientTransform="translate(138)" /><linearGradient
       id="linearGradient17"><stop
         offset="0"
         style="stop-color:#ffffff;stop-opacity:1"
         id="stop14" /><stop
         offset="0.14473684"
         style="stop-color:#ffffff;stop-opacity:0.23529412"
         id="stop15" /><stop
         offset="0.85526317"
         style="stop-color:#ffffff;stop-opacity:0.15686275"
         id="stop16" /><stop
         offset="1"
         style="stop-color:#ffffff;stop-opacity:0.39215687"
         id="stop17" /></linearGradient><style
       id="style1-0">.g{fill:#000;}.g,.h,.i{stroke-width:0px;}.h{fill:url(#e);}.i{fill:#fff;}</style><style
       id="style1-7-23">.g{fill:#000;}.g,.h,.i{stroke-width:0px;}.h{fill:url(#e);}.i{fill:#fff;}</style><style
       id="style1-5-7">.g{fill:#000;}.g,.h,.i{stroke-width:0px;}.h{fill:url(#e);}.i{fill:#fff;}</style><style
       id="style1-3-2">.g{fill:#000;}.g,.h,.i{stroke-width:0px;}.h{fill:url(#e);}.i{fill:#fff;}</style><style
       id="style1-6-28">.cls-1{fill:#fff;}</style><linearGradient
       xlink:href="#linearGradient17"
       id="linearGradient12-3"
       x1="24"
       y1="6"
       x2="24"
       y2="44"
       gradientUnits="userSpaceOnUse"
       gradientTransform="translate(0,-51)" /><linearGradient
       xlink:href="#linearGradient29"
       id="linearGradient19"
       x1="38.264111"
       y1="46.5"
       x2="36.881195"
       y2="41"
       gradientUnits="userSpaceOnUse"
       gradientTransform="translate(0,-51)" /><radialGradient
       xlink:href="#linearGradient4113"
       id="radialGradient3-3"
       gradientUnits="userSpaceOnUse"
       gradientTransform="matrix(0.3823536,7.5555777e-8,-1.8372241e-8,0.1115198,-5.9254271,36.335849)"
       cx="99.189415"
       cy="185.29727"
       fx="99.189415"
       fy="185.29727"
       r="62.769119" /><radialGradient
       xlink:href="#linearGradient4113"
       id="radialGradient4-6"
       gradientUnits="userSpaceOnUse"
       gradientTransform="matrix(0.2549024,5.3967361e-8,-1.2248161e-8,0.07965545,6.7163816,44.240666)"
       cx="99.189415"
       cy="185.29727"
       fx="99.189415"
       fy="185.29727"
       r="62.769119" /><style
       id="style1-62">.g{fill:#000;}.g,.h,.i{stroke-width:0px;}.h{fill:url(#e);}.i{fill:#fff;}</style><style
       id="style1-6-9">.cls-1{fill:#fff;}</style><style
       id="style1-67-1">.cls-1{fill:#fff;}</style><style
       id="style1-56-2">.g{fill:#000;}.g,.h,.i{stroke-width:0px;}.h{fill:url(#e);}.i{fill:#fff;}</style><style
       id="style1-7-1">.g{fill:#000;}.g,.h,.i{stroke-width:0px;}.h{fill:url(#e);}.i{fill:#fff;}</style><style
       id="style1-5-2">.g{fill:#000;}.g,.h,.i{stroke-width:0px;}.h{fill:url(#e);}.i{fill:#fff;}</style><style
       id="style1-3-7">.g{fill:#000;}.g,.h,.i{stroke-width:0px;}.h{fill:url(#e);}.i{fill:#fff;}</style><style
       id="style1-6-1-9">.cls-1{fill:#fff;}</style><style
       id="style1-2-3">.g{fill:#000;}.g,.h,.i{stroke-width:0px;}.h{fill:url(#e);}.i{fill:#fff;}</style><style
       id="style1-6-8-1">.cls-1{fill:#fff;}</style><linearGradient
       xlink:href="#linearGradient2"
       id="linearGradient9"
       x1="24"
       y1="5"
       x2="24"
       y2="45"
       gradientUnits="userSpaceOnUse"
       gradientTransform="translate(0,-51)" /><linearGradient
       id="linearGradient1201"><stop
         id="stop1193"
         style="stop-color:#ffffff;stop-opacity:1"
         offset="0" /><stop
         id="stop1195"
         style="stop-color:#ffffff;stop-opacity:0.23529412"
         offset="0.07352958" /><stop
         id="stop1197"
         style="stop-color:#ffffff;stop-opacity:0.15686275"
         offset="0.92647058" /><stop
         id="stop1199"
         style="stop-color:#ffffff;stop-opacity:0.39215687"
         offset="1" /></linearGradient><linearGradient
       x1="38.999996"
       y1="5.9999938"
       x2="38.999996"
       y2="40"
       id="linearGradient3058-5"
       xlink:href="#linearGradient1201"
       gradientUnits="userSpaceOnUse"
       gradientTransform="translate(74.000004)" /><linearGradient
       xlink:href="#linearGradient2"
       id="linearGradient930-9-2"
       x1="16.692297"
       y1="2.4999993"
       x2="16.692297"
       y2="27.769238"
       gradientUnits="userSpaceOnUse"
       gradientTransform="matrix(1.444444,0,0,1.444444,74.888913,0.888891)" /><linearGradient
       id="linearGradient30-1"><stop
         style="stop-color:#ffffff;stop-opacity:1;"
         offset="0"
         id="stop30-9" /><stop
         style="stop-color:#fafafa;stop-opacity:0;"
         offset="1"
         id="stop31" /></linearGradient><linearGradient
       id="linearGradient22"><stop
         id="stop13"
         style="stop-color:#ffffff;stop-opacity:1"
         offset="0" /><stop
         id="stop20-9"
         style="stop-color:#ffffff;stop-opacity:0.23529412"
         offset="0.13461539" /><stop
         id="stop21-4"
         style="stop-color:#ffffff;stop-opacity:0.15686275"
         offset="0.86538464" /><stop
         id="stop22-7"
         style="stop-color:#ffffff;stop-opacity:0.39215687"
         offset="1" /></linearGradient><style
       id="style1-79">.g{fill:#000;}.g,.h,.i{stroke-width:0px;}.h{fill:url(#e);}.i{fill:#fff;}</style><style
       id="style1-7-2">.g{fill:#000;}.g,.h,.i{stroke-width:0px;}.h{fill:url(#e);}.i{fill:#fff;}</style><style
       id="style1-5-0">.g{fill:#000;}.g,.h,.i{stroke-width:0px;}.h{fill:url(#e);}.i{fill:#fff;}</style><style
       id="style1-53">.g{fill:#000;}.g,.h,.i{stroke-width:0px;}.h{fill:url(#e);}.i{fill:#fff;}</style><style
       id="style1-6-2">.cls-1{fill:#fff;}</style><style
       id="style1-67-3">.cls-1{fill:#fff;}</style><style
       id="style1-675">.g{fill:#000;}.g,.h,.i{stroke-width:0px;}.h{fill:url(#e);}.i{fill:#fff;}</style><style
       id="style1-7-3">.g{fill:#000;}.g,.h,.i{stroke-width:0px;}.h{fill:url(#e);}.i{fill:#fff;}</style><style
       id="style1-5-5">.g{fill:#000;}.g,.h,.i{stroke-width:0px;}.h{fill:url(#e);}.i{fill:#fff;}</style><style
       id="style1-3-9">.g{fill:#000;}.g,.h,.i{stroke-width:0px;}.h{fill:url(#e);}.i{fill:#fff;}</style><style
       id="style1-6-6">.cls-1{fill:#fff;}</style><style
       id="style1-70">.g{fill:#000;}.g,.h,.i{stroke-width:0px;}.h{fill:url(#e);}.i{fill:#fff;}</style><style
       id="style1-6-3">.cls-1{fill:#fff;}</style><linearGradient
       id="linearGradient3820-7-2-2"><stop
         offset="0"
         style="stop-color:#3d3d3d;stop-opacity:1"
         id="stop3822-2-6-36" /><stop
         offset="0.5"
         style="stop-color:#686868;stop-opacity:0.49803922"
         id="stop3864-8-7-6" /><stop
         offset="1"
         style="stop-color:#686868;stop-opacity:0"
         id="stop3824-1-2-4" /></linearGradient><radialGradient
       cx="99.157013"
       cy="186.17059"
       r="62.769119"
       fx="99.157013"
       fy="186.17059"
       id="radialGradient3108-6"
       xlink:href="#linearGradient3820-7-2-2"
       gradientUnits="userSpaceOnUse"
       gradientTransform="matrix(0.21473139,0,0,0.06794726,-5.3136245,15.116856)" /><linearGradient
       xlink:href="#linearGradient22"
       id="linearGradient13"
       x1="16"
       y1="3"
       x2="16"
       y2="29"
       gradientUnits="userSpaceOnUse"
       gradientTransform="translate(0,-33)" /><linearGradient
       xlink:href="#linearGradient2"
       id="linearGradient29-4"
       x1="16"
       y1="3"
       x2="16"
       y2="30"
       gradientUnits="userSpaceOnUse"
       gradientTransform="translate(0,-33)" /><linearGradient
       xlink:href="#linearGradient30-1"
       id="linearGradient31"
       x1="25.002583"
       y1="30.93301"
       x2="23.779295"
       y2="27.459316"
       gradientUnits="userSpaceOnUse" /><linearGradient
       id="linearGradient4"><stop
         id="stop1"
         style="stop-color:#ffffff;stop-opacity:1"
         offset="0" /><stop
         id="stop2"
         style="stop-color:#ffffff;stop-opacity:0.23529412"
         offset="0.06818181" /><stop
         id="stop3"
         style="stop-color:#ffffff;stop-opacity:0.15686275"
         offset="0.93181819" /><stop
         id="stop4"
         style="stop-color:#ffffff;stop-opacity:0.39215687"
         offset="1" /></linearGradient><linearGradient
       xlink:href="#linearGradient2"
       id="linearGradient930-9-2-8"
       x1="16.999996"
       y1="2.5"
       x2="16.999996"
       y2="29"
       gradientUnits="userSpaceOnUse"
       gradientTransform="translate(58.000004)" /><linearGradient
       x1="23.99999"
       y1="6.2399855"
       x2="23.999994"
       y2="38.799984"
       id="linearGradient4161-0-2"
       xlink:href="#linearGradient4"
       gradientUnits="userSpaceOnUse"
       gradientTransform="matrix(0.67567568,0,0,0.67567568,57.783787,-0.21620614)" /></defs><path
     id="rect5505-21-3"
     style="color:#000000;display:inline;overflow:visible;visibility:visible;fill:url(#linearGradient882);fill-rule:nonzero;stroke:none;stroke-width:1;marker:none;enable-background:accumulate"
     d="m 22.5,15.5 c -5.54,0 -10,4.46 -10,10 v 76 c 0,5.54 4.46,10 10,10 h 58 v 16 l 16,-16 h 9 c 5.54,0 10,-4.46 10,-10 v -76 c 0,-5.54 -4.46,-10 -10,-10 z" /><path
     class="cls-1"
     d="m 90.37923,41.023647 a 62.854987,62.854987 0 0 0 -15.67938,-4.823963 43.074944,43.074944 0 0 0 -2.00848,4.082733 58.389683,58.389683 0 0 0 -17.40094,0 43.260252,43.260252 0 0 0 -2.00849,-4.082733 63.297334,63.297334 0 0 0 -15.69132,4.835919 C 27.66772,55.716711 24.977773,70.033181 26.32273,84.146412 v 0 a 63.201691,63.201691 0 0 0 19.2301,9.653904 46.446339,46.446339 0 0 0 4.11861,-6.641169 40.89908,40.89908 0 0 1 -6.48575,-3.096421 c 0.54396,-0.394526 1.07598,-0.801006 1.59005,-1.195531 a 45.1731,45.1731 0 0 0 38.44825,0 c 0.52006,0.424413 1.05206,0.830894 1.59004,1.195531 a 41.054497,41.054497 0 0 1 -6.4977,3.1024 46.027903,46.027903 0 0 0 4.11861,6.63519 62.914763,62.914763 0 0 0 19.24206,-9.647925 v 0 C 103.25509,67.785584 98.98109,53.600622 90.37923,41.023647 Z M 51.37507,75.466864 c -3.74799,0 -6.84441,-3.401282 -6.84441,-7.585637 0,-4.184353 2.98883,-7.615526 6.83245,-7.615526 3.84363,0 6.91615,3.431173 6.85039,7.615526 -0.0658,4.184355 -3.01872,7.585637 -6.83843,7.585637 z m 25.24958,0 c -3.75395,0 -6.83842,-3.401282 -6.83842,-7.585637 0,-4.184353 2.98882,-7.615526 6.83842,-7.615526 3.84961,0 6.89822,3.431173 6.83246,7.615526 -0.0658,4.184355 -3.01273,7.585637 -6.83246,7.585637 z"
     id="path15"
     style="opacity:0.15;fill:#000000;fill-opacity:1;stroke:#000000;stroke-width:2;stroke-dasharray:none;stroke-opacity:1" /><path
     class="cls-1"
     d="m 90.37923,41.023647 a 62.854987,62.854987 0 0 0 -15.67938,-4.823963 43.074944,43.074944 0 0 0 -2.00848,4.082733 58.389683,58.389683 0 0 0 -17.40094,0 43.260252,43.260252 0 0 0 -2.00849,-4.082733 63.297334,63.297334 0 0 0 -15.69132,4.835919 C 27.66772,55.716711 24.977773,70.033181 26.32273,84.146412 v 0 a 63.201691,63.201691 0 0 0 19.2301,9.653904 46.446339,46.446339 0 0 0 4.11861,-6.641169 40.89908,40.89908 0 0 1 -6.48575,-3.096421 c 0.54396,-0.394526 1.07598,-0.801006 1.59005,-1.195531 a 45.1731,45.1731 0 0 0 38.44825,0 c 0.52006,0.424413 1.05206,0.830894 1.59004,1.195531 a 41.054497,41.054497 0 0 1 -6.4977,3.1024 46.027903,46.027903 0 0 0 4.11861,6.63519 62.914763,62.914763 0 0 0 19.24206,-9.647925 v 0 C 103.25509,67.785584 98.98109,53.600622 90.37923,41.023647 Z M 51.37507,75.466864 c -3.74799,0 -6.84441,-3.401282 -6.84441,-7.585637 0,-4.184353 2.98883,-7.615526 6.83245,-7.615526 3.84363,0 6.91615,3.431173 6.85039,7.615526 -0.0658,4.184355 -3.01872,7.585637 -6.83843,7.585637 z m 25.24958,0 c -3.75395,0 -6.83842,-3.401282 -6.83842,-7.585637 0,-4.184353 2.98882,-7.615526 6.83842,-7.615526 3.84961,0 6.89822,3.431173 6.83246,7.615526 -0.0658,4.184355 -3.01273,7.585637 -6.83246,7.585637 z"
     id="path14"
     style="opacity:0.15;fill:#000000;fill-opacity:1;stroke:none;stroke-width:0.597764" /><path
     class="cls-1"
     d="m 90.37923,40.023647 a 62.854987,62.854987 0 0 0 -15.67938,-4.823963 43.074944,43.074944 0 0 0 -2.00848,4.082733 58.389683,58.389683 0 0 0 -17.40094,0 43.260252,43.260252 0 0 0 -2.00849,-4.082733 63.297334,63.297334 0 0 0 -15.69132,4.835919 C 27.66772,54.716711 24.977773,69.033181 26.32273,83.146412 v 0 a 63.201691,63.201691 0 0 0 19.2301,9.653904 46.446339,46.446339 0 0 0 4.11861,-6.641169 40.89908,40.89908 0 0 1 -6.48575,-3.096421 c 0.54396,-0.394526 1.07598,-0.801006 1.59005,-1.195531 a 45.1731,45.1731 0 0 0 38.44825,0 c 0.52006,0.424413 1.05206,0.830894 1.59004,1.195531 a 41.054497,41.054497 0 0 1 -6.4977,3.1024 46.027903,46.027903 0 0 0 4.11861,6.63519 62.914763,62.914763 0 0 0 19.24206,-9.647925 v 0 C 103.25509,66.785584 98.98109,52.600622 90.37923,40.023647 Z M 51.37507,74.466864 c -3.74799,0 -6.84441,-3.401282 -6.84441,-7.585637 0,-4.184353 2.98883,-7.615526 6.83245,-7.615526 3.84363,0 6.91615,3.431173 6.85039,7.615526 -0.0658,4.184355 -3.01872,7.585637 -6.83843,7.585637 z m 25.24958,0 c -3.75395,0 -6.83842,-3.401282 -6.83842,-7.585637 0,-4.184353 2.98882,-7.615526 6.83842,-7.615526 3.84961,0 6.89822,3.431173 6.83246,7.615526 -0.0658,4.184355 -3.01273,7.585637 -6.83246,7.585637 z"
     id="path1"
     style="fill:#abacae;stroke-width:0.597764" /><path
     id="path12"
     style="fill:#d4d4d4;stroke-width:0.597764"
     class="cls-1"
     d="M 53.28125,35.199219 C 47.863001,36.123076 42.588163,37.74873 37.589844,40.035156 29.527487,51.963557 26.24163,63.652012 26.013672,75.185547 c -0.0025,0.553013 -0.01116,1.105879 0,1.658203 0.03578,1.77082 0.140474,3.53858 0.308594,5.302734 5.811183,4.293672 12.315588,7.559088 19.230468,9.654297 1.364173,-1.851903 2.588897,-3.802582 3.664063,-5.835937 -2.086336,-0.801042 -4.103506,-1.771739 -6.03125,-2.902344 l 1.589844,-2.195312 c 12.17672,5.726596 26.272498,5.726596 38.449218,0 l 1.589844,2.195312 c -1.931579,1.133247 -3.952645,2.106546 -6.042969,2.910156 1.074157,2.031449 2.298936,3.979605 3.664063,5.828125 6.920706,-2.086864 13.43002,-5.350771 19.242183,-9.648437 0.1871,-1.940421 0.28543,-3.848475 0.31055,-5.728516 -0.0233,-13.565912 -4.209035,-25.580187 -11.609374,-36.40039 -4.993365,-2.286159 -10.264815,-3.908042 -15.679687,-4.824219 -0.740766,1.324998 -1.410972,2.688228 -2.007813,4.083984 -5.767574,-0.869083 -11.632816,-0.869083 -17.40039,0 -0.597791,-1.395653 -1.268641,-2.758867 -2.009766,-4.083984 z m -1.917969,23.066406 c 3.84363,0 6.91537,3.430881 6.84961,7.615234 -0.0018,0.115932 -0.01332,0.229076 -0.01953,0.34375 0.01373,0.216725 0.02301,0.434915 0.01953,0.65625 -0.0658,4.184355 -3.018181,7.585938 -6.837891,7.585938 -3.74799,0 -6.84375,-3.401583 -6.84375,-7.585938 0,-0.173242 0.01139,-0.343201 0.02148,-0.513671 -0.0094,-0.161456 -0.02148,-0.322309 -0.02148,-0.486329 0,-4.184353 2.988411,-7.615234 6.832031,-7.615234 z m 25.261719,0 c 3.84961,0 6.897791,3.430881 6.832031,7.615234 -0.0018,0.115932 -0.01333,0.229076 -0.01953,0.34375 0.01361,0.216725 0.02301,0.434915 0.01953,0.65625 -0.0658,4.184355 -3.012301,7.585938 -6.832031,7.585938 -3.75395,0 -6.837891,-3.401583 -6.837891,-7.585938 0,-0.173242 0.01139,-0.343201 0.02148,-0.513671 -0.0093,-0.161456 -0.02148,-0.322309 -0.02148,-0.486329 0,-4.184353 2.988291,-7.615234 6.837891,-7.615234 z" /><path
     id="path13"
     style="stroke-width:0.597764"
     class="cls-1"
     d="M 53.28125,35.199219 C 47.863001,36.123076 42.588163,37.74873 37.589844,40.035156 29.527487,51.963557 26.24163,63.652012 26.013672,75.185547 c 0.0023,0.219346 -0.0044,0.438965 0,0.658203 0.03578,1.77082 0.140474,3.53858 0.308594,5.302734 5.811183,4.293672 12.315588,7.559088 19.230468,9.654297 1.176262,-1.605301 2.248133,-3.284544 3.208985,-5.027343 -1.924641,-0.761252 -3.78872,-1.667501 -5.576172,-2.710938 l 1.589844,-3.195312 c 12.17672,5.726596 26.272498,5.726596 38.449218,0 l 1.589844,3.195312 c -1.791959,1.045538 -3.660593,1.953739 -5.589844,2.716797 0.9607,1.741442 2.033261,3.418786 3.210938,5.021484 6.920706,-2.086864 13.43002,-5.350771 19.242183,-9.648437 0.177,-1.835658 0.26887,-3.6403 0.30079,-5.421875 C 101.81553,62.448942 97.6526,50.658471 90.378906,40.023438 85.385541,37.737279 80.114091,36.115396 74.699219,35.199219 c -0.740766,1.324998 -1.410972,2.688228 -2.007813,4.083984 -5.767574,-0.869083 -11.632816,-0.869083 -17.40039,0 -0.597791,-1.395653 -1.268641,-2.758867 -2.009766,-4.083984 z m -1.917969,22.066406 c 3.84363,0 6.91537,3.430881 6.84961,7.615234 -0.0048,0.305713 -0.02961,0.606013 -0.06445,0.902344 0.04249,0.359721 0.07033,0.724018 0.06445,1.097656 -0.0658,4.184355 -3.018181,7.585938 -6.837891,7.585938 -3.74799,0 -6.84375,-3.401583 -6.84375,-7.585938 0,-0.343683 0.02531,-0.679681 0.06445,-1.011718 -0.03856,-0.324116 -0.06445,-0.652745 -0.06445,-0.988282 0,-4.184353 2.988411,-7.615234 6.832031,-7.615234 z m 25.261719,0 c 3.84961,0 6.897791,3.430881 6.832031,7.615234 -0.0048,0.305713 -0.02967,0.606013 -0.06445,0.902344 0.04215,0.359721 0.07032,0.724018 0.06445,1.097656 -0.0658,4.184355 -3.012301,7.585938 -6.832031,7.585938 -3.75395,0 -6.837891,-3.401583 -6.837891,-7.585938 0,-0.343016 0.02546,-0.678347 0.06445,-1.009765 -0.03858,-0.324759 -0.06445,-0.654005 -0.06445,-0.990235 0,-4.184353 2.988291,-7.615234 6.837891,-7.615234 z" /><path
     id="rect6741-7"
     style="opacity:0.5;fill:none;stroke:url(#linearGradient3159);stroke-width:1;stroke-linecap:round;stroke-linejoin:round;stroke-miterlimit:4;stroke-dasharray:none;stroke-dashoffset:0;stroke-opacity:1"
     d="m 22.5,16.5 c -4.986,0 -9,4.014 -9,9 v 76 c 0,4.986 4.014,9 9,9 h 59 V 125 L 96,110.5 h 9.5 c 4.986,0 9,-4.014 9,-9 v -76 c 0,-4.986 -4.014,-9 -9,-9 z" /><path
     id="rect5505-21-6"
     style="color:#000000;display:inline;overflow:visible;visibility:visible;opacity:0.5;fill:none;stroke:#0a0f9f;stroke-width:1;stroke-linecap:round;stroke-linejoin:round;stroke-miterlimit:4;stroke-dasharray:none;stroke-dashoffset:0;stroke-opacity:1;marker:none;enable-background:accumulate"
     d="m 22.5,15.5 c -5.54,0 -10,4.46 -10,10 v 76 c 0,5.54 4.46,10 10,10 h 58 v 16 l 16,-16 h 9 c 5.54,0 10,-4.46 10,-10 v -76 c 0,-5.54 -4.46,-10 -10,-10 z" /></svg>
