<svg height="128" viewBox="0 0 128 128" width="128" xmlns="http://www.w3.org/2000/svg" xmlns:xlink="http://www.w3.org/1999/xlink"><linearGradient id="a" x1="48.9045%" x2="48.9045%" y1=".395456%" y2="99.929117%"><stop offset="0" stop-color="#321d59"/><stop offset="1" stop-color="#1d1134"/></linearGradient><linearGradient id="b" x1="49.999997%" x2="49.999997%" y1=".495049%" y2="99.504955%"><stop offset="0" stop-color="#fff"/><stop offset=".085" stop-color="#fff" stop-opacity=".235294"/><stop offset=".91499996" stop-color="#fff" stop-opacity=".156863"/><stop offset="1" stop-color="#fff" stop-opacity=".392157"/></linearGradient><linearGradient id="c" x1="87.235789%" x2="9.416496%" y1="15.491765%" y2="93.085653%"><stop offset="0" stop-color="#fff44f"/><stop offset=".05" stop-color="#fff44f"/><stop offset=".11" stop-color="#ffe847"/><stop offset=".22" stop-color="#ffc830"/><stop offset=".37" stop-color="#ff980e"/><stop offset=".4" stop-color="#ff8b16"/><stop offset=".46" stop-color="#ff672a"/><stop offset=".53" stop-color="#ff3647"/><stop offset=".7" stop-color="#e31587"/><stop offset="1" stop-color="#e31587"/></linearGradient><radialGradient id="d" cx="85.925388%" cy="-12.928915%" gradientTransform="matrix(.813607 0 0 1 .160159 0)" r="128.293045%"><stop offset="0" stop-color="#ffbd4f"/><stop offset=".13" stop-color="#ffbd4f"/><stop offset=".19" stop-color="#ffac31"/><stop offset=".25" stop-color="#ff9d17"/><stop offset=".28" stop-color="#ff980e"/><stop offset=".4" stop-color="#ff563b"/><stop offset=".47" stop-color="#ff3750"/><stop offset=".71" stop-color="#f5156c"/><stop offset=".78" stop-color="#eb0878"/><stop offset=".86" stop-color="#e50080"/><stop offset="1" stop-color="#e50080"/></radialGradient><radialGradient id="e" cx="47.784708%" cy="39.519103%" gradientTransform="matrix(.813607 0 0 1 .089067 0)" r="128.293045%"><stop offset="0" stop-color="#960e18"/><stop offset=".3" stop-color="#960e18"/><stop offset=".35" stop-color="#b11927" stop-opacity=".74"/><stop offset=".43" stop-color="#db293d" stop-opacity=".34"/><stop offset=".5" stop-color="#f5334b" stop-opacity=".09"/><stop offset=".53" stop-color="#ff3750" stop-opacity="0"/><stop offset="1" stop-color="#ff3750" stop-opacity="0"/></radialGradient><radialGradient id="f" cx="50%" cy="-29.999489%" gradientTransform="matrix(1 0 0 .588951 0 -.123313)" r="314.960083%"><stop offset="0" stop-color="#fff44f"/><stop offset=".13" stop-color="#fff44f"/><stop offset=".25" stop-color="#ffdc3e"/><stop offset=".51" stop-color="#ff9d12"/><stop offset="1" stop-color="#ff980e"/></radialGradient><radialGradient id="g" cx="19.463056%" cy="110.099796%" gradientTransform="matrix(1 0 0 .912036 0 .096848)" r="111.769667%"><stop offset="0" stop-color="#3a8ee6"/><stop offset=".35" stop-color="#3a8ee6"/><stop offset=".47" stop-color="#5c79f0"/><stop offset=".67" stop-color="#9059ff"/><stop offset="1" stop-color="#c139e6"/></radialGradient><radialGradient id="h" cx="48.795952%" cy="28.731752%" gradientTransform="matrix(.97072832 -.21905299 .2401802 .88533917 -.054725 .139833)" r="59.216185%"><stop offset="0" stop-color="#9059ff" stop-opacity="0"/><stop offset=".21" stop-color="#9059ff" stop-opacity="0"/><stop offset=".28" stop-color="#8c4ff3" stop-opacity=".06"/><stop offset=".75" stop-color="#7716a8" stop-opacity=".45"/><stop offset=".97" stop-color="#6e008b" stop-opacity=".6"/><stop offset="1" stop-color="#6e008b" stop-opacity=".6"/></radialGradient><radialGradient id="i" cx="208.04853%" cy="-103.932584%" gradientTransform="matrix(1 0 0 .996255 0 -.003892)" r="293.267259%"><stop offset="0" stop-color="#ffe226"/><stop offset=".12" stop-color="#ffdb27"/><stop offset=".3" stop-color="#ffc82a"/><stop offset=".5" stop-color="#ffa930"/><stop offset=".73" stop-color="#ff7e37"/><stop offset=".79" stop-color="#ff7139"/><stop offset="1" stop-color="#ff7139"/></radialGradient><radialGradient id="j" cx="79.284489%" cy="-40.870048%" gradientTransform="matrix(.839405 0 0 1 .127327 0)" r="193.77375%"><stop offset="0" stop-color="#fff44f"/><stop offset=".11" stop-color="#fff44f"/><stop offset=".46" stop-color="#ff980e"/><stop offset=".62" stop-color="#ff5634"/><stop offset=".72" stop-color="#ff3647"/><stop offset=".9" stop-color="#e31587"/><stop offset="1" stop-color="#e31587"/></radialGradient><radialGradient id="k" cx=".43199%" cy="1.756615%" gradientTransform="matrix(.10049871 .47105998 -.99493719 .04758182 .021363 .014695)" r="346.848896%"><stop offset="0" stop-color="#fff44f"/><stop offset=".06" stop-color="#ffe847"/><stop offset=".17" stop-color="#ffc830"/><stop offset=".3" stop-color="#ff980e"/><stop offset=".36" stop-color="#ff8b16"/><stop offset=".45" stop-color="#ff672a"/><stop offset=".57" stop-color="#ff3647"/><stop offset=".74" stop-color="#e31587"/><stop offset="1" stop-color="#e31587"/></radialGradient><radialGradient id="l" cx="15.34403%" cy="-42.477256%" gradientTransform="matrix(.982826 0 0 1 .002635 0)" r="238.364264%"><stop offset="0" stop-color="#fff44f"/><stop offset=".14" stop-color="#fff44f"/><stop offset=".48" stop-color="#ff980e"/><stop offset=".59" stop-color="#ff5634"/><stop offset=".66" stop-color="#ff3647"/><stop offset=".9" stop-color="#e31587"/><stop offset="1" stop-color="#e31587"/></radialGradient><radialGradient id="m" cx="155.387205%" cy="-44.717154%" gradientTransform="matrix(.894782 0 0 1 .163495 0)" r="313.088672%"><stop offset="0" stop-color="#fff44f"/><stop offset=".09" stop-color="#fff44f"/><stop offset=".23" stop-color="#ffe141"/><stop offset=".51" stop-color="#ffaf1e"/><stop offset=".63" stop-color="#ff980e"/><stop offset="1" stop-color="#ff980e"/></radialGradient><linearGradient id="n" x1="86.299524%" x2="20.086026%" y1="15.076501%" y2="83.508376%"><stop offset="0" stop-color="#fff44f" stop-opacity=".8"/><stop offset=".17" stop-color="#fff44f" stop-opacity=".8"/><stop offset=".27" stop-color="#fff44f" stop-opacity=".63"/><stop offset=".49" stop-color="#fff44f" stop-opacity=".22"/><stop offset=".6" stop-color="#fff44f" stop-opacity="0"/><stop offset="1" stop-color="#fff44f" stop-opacity="0"/></linearGradient><g fill="none" fill-rule="evenodd"><g transform="translate(12.5 15.5)"><rect fill="url(#a)" fill-rule="nonzero" height="103" rx="10" width="103"/><g stroke-linecap="round" stroke-linejoin="round"><rect height="101" opacity=".3" rx="9" stroke="url(#b)" width="101" x="1" y="1"/><rect height="103" opacity=".5" rx="10" stroke="#1d1134" width="103"/></g></g><g fill-rule="nonzero" transform="translate(25.290163 26.498504)"><path d="m74.632266 27.4034177c-1.6839076-4.0090755-5.0968849-8.3372179-7.7759754-9.7044196 2.1806926 4.2292317 3.4420103 8.4712261 3.9242788 11.6363697 0 0 0 .0223346.0080647.0638133-4.3823532-10.8067957-11.8147727-15.1652495-17.8842594-24.65270359-.3080712-.47860034-.6145294-.95720068-.9145359-1.46930305-.1693586-.28875554-.3064583-.55039039-.4258157-.79766723-.2514571-.47971708-.4458162-.98671438-.5790449-1.51078175.0020968-.05136977-.0356459-.0963582-.0870986-.10369674-.0237102-.00638134-.0488721-.00638134-.0725823 0-.0064517.0028716-.0124196.0067004-.0177423.01116734-.0096776 0-.0193552.01116734-.0290329.01435801l.0161294-.02073935c-9.7373082 5.6411027-13.0406058 16.07618546-13.3438382 21.29771526-3.8905683.2630706-7.6119395 1.6806848-10.6760383 4.0665075-.3203295-.2678566-.6551755-.5181646-1.0032476-.7498072-.8830837-3.057618-.9203425-6.2942326-.1080668-9.3709947-3.9823446 1.7947513-7.079186 4.62647-9.3308478 7.1327405h-.0177424c-1.5371301-1.9255687-1.4290633-8.2765953-1.3419646-9.6023182-.0177423-.0829574-1.1451861.5791064-1.2903506.6796125-1.3563198.9570411-2.6242505 2.0311798-3.78879195 3.2098129-1.32519007 1.3289136-2.53586152 2.7648742-3.61943344 4.2930451-2.49295737 3.4942611-4.26089899 7.443033-5.20172587 11.6172256-.01774232.0829574-.0338717.1691055-.05161403.2536582-.07258222.3366156-.33549115 2.0260748-.38226636 2.3930017v.0845528c-.34274938 1.7456149-.55614111 3.5137241-.63872355 5.2901291v.1962261c0 21.1732792 17.3552156 38.3390781 38.7621321 38.3390781 19.1729971 0 35.0910847-13.7677365 38.2088943-31.8524481.0645176-.4897677.1177445-.9843214.1758103-1.4788751.7709845-6.5759687-.0854857-13.4869576-2.5145707-19.2652591z" fill="#000" opacity=".15"/><path d="m73.8574884 27.115759c-1.6474792-3.9656276-4.9866229-8.2468643-7.607756-9.599249 2.1335171 4.1833978 3.3675485 8.3794201 3.839384 11.5102618 0 0 0 .0220926.0078902.0631218-4.2875488-10.6896783-11.5591812-15.0008978-17.4973653-24.38553272-.3014067-.47341357-.6012352-.94682713-.8947517-1.45337965-.1656947-.28562618-.2998285-.54442559-.4166039-.7890226-.2460172-.4745182-.4361717-.97602097-.5665182-1.49440882.0020514-.05081306-.0348748-.09531393-.0852145-.10257294-.0231972-.00631218-.0478147-.00631218-.071012 0-.0063122.00284048-.0121509.00662779-.0173585.01104632-.0094683 0-.0189365.01104631-.0284048.01420241l.0157804-.02051459c-9.5266589 5.57996787-12.7584955 15.90196159-13.055168 21.06690359-3.8064029.2602197-7.4472688 1.6624706-10.4450813 4.0224373-.3133998-.2649538-.641002-.5125491-.9815441-.7416813-.8639798-3.0244814-.9004326-6.2260196-.105729-9.2694376-3.8961937 1.7753009-6.9260405 4.5763311-9.1289916 7.0554402h-.0173585c-1.5038771-1.9047006-1.3981481-8.1868986-1.3129336-9.4982542-.0173585-.0820583-1.1204121.5728304-1.2624362.6722473-1.3269782.9466693-2.5674796 2.0091672-3.7068282 3.175027-1.29652195 1.3145116-2.48100268 2.7349101-3.54113346 4.2465196-2.43902668 3.4563925-4.16872204 7.36237-5.08919581 11.4913253-.0173585.0820583-.03313895.1672728-.05049745.2509092-.07101204.3329675-.32823341 2.0041174-.37399672 2.3670678v.0836364c-.33533461 1.7266971-.54410999 3.4756446-.6249059 5.2327979v.1940996c0 20.9438161 16.97976654 37.9235826 37.92358254 37.9235826 18.7582235 0 34.3319517-13.6185302 37.3823131-31.5072508.0631218-.4844599.1151973-.9736539.1720069-1.4628479.7543057-6.5047024-.0836363-13.3407942-2.4601724-19.056474z" fill="#000" opacity=".15"/><path d="m73.8574884 26.2555163c-1.6474792-3.9656277-4.9866229-8.2468643-7.607756-9.5992491 2.1335171 4.1833979 3.3675485 8.3794201 3.839384 11.5102618 0 0 0 .0220927.0078902.0631218-4.2875488-10.6896782-11.5591812-15.0008978-17.4973653-24.38553266-.3014067-.47341356-.6012352-.94682713-.8947517-1.45337964-.1656947-.28562618-.2998285-.5444256-.4166039-.78902261-.2460172-.47451819-.4361717-.97602096-.5665182-1.49440881.0020514-.05081306-.0348748-.09531394-.0852145-.10257294-.0231972-.00631219-.0478147-.00631219-.071012 0-.0063122.00284048-.0121509.00662779-.0173585.01104631-.0094683 0-.0189365.01104632-.0284048.01420241l.0157804-.02051459c-9.5266589 5.57996788-12.7584955 15.90196163-13.055168 21.06690363-3.8064029.2602196-7.4472688 1.6624706-10.4450813 4.0224372-.3133998-.2649538-.641002-.5125491-.9815441-.7416812-.8639798-3.0244815-.9004326-6.2260196-.105729-9.2694376-3.8961937 1.7753009-6.9260405 4.5763311-9.1289916 7.0554401h-.0173585c-1.5038771-1.9047005-1.3981481-8.1868985-1.3129336-9.4982541-.0173585-.0820584-1.1204121.5728304-1.2624362.6722473-1.3269782.9466693-2.5674796 2.0091671-3.7068282 3.1750269-1.29652195 1.3145117-2.48100268 2.7349102-3.54113346 4.2465197-2.43902668 3.4563924-4.16872204 7.36237-5.08919581 11.4913253-.0173585.0820583-.03313895.1672727-.05049745.2509091-.07101204.3329676-.32823341 2.0041175-.37399672 2.3670679v.0836364c-.33533461 1.726697-.54410999 3.4756445-.6249059 5.2327979v.1940996c0 20.943816 16.97976654 37.9235825 37.92358254 37.9235825 18.7582235 0 34.3319517-13.6185302 37.3823131-31.5072507.0631218-.4844599.1151973-.9736539.1720069-1.4628479.7543057-6.5047024-.0836363-13.3407943-2.4601724-19.056474zm-43.7118525 29.6861865c.1767411.0836364.3440139.1767411.5254891.2587995l.0252487.0157804c-.1814752-.0883705-.3661065-.1798971-.5491597-.2745799zm39.9545268-27.6899593v-.0410292z" fill="url(#c)"/><path d="m73.8574884 26.2555163c-1.6474792-3.9656277-4.9866229-8.2468643-7.607756-9.5992491 2.1335171 4.1833979 3.3675485 8.3794201 3.839384 11.5102618v.0773242c3.5790065 9.701822 1.6285426 19.5677607-1.1803778 25.5958934-4.3459366 9.3262472-14.866764 18.8860451-31.3368219 18.4205218-17.7798354-.5049745-33.45455853-13.714791-36.3818324-31.0022763-.53337929-2.7284402 0-4.1123858.26826768-6.3263832-.32665536 1.7058668-.45132093 2.199795-.61385959 5.2327979v.1940996c0 20.943816 16.97976651 37.9235825 37.92358261 37.9235825 18.7582234 0 34.3319517-13.6185302 37.3823131-31.5072507.0631218-.4844599.1151973-.9736539.1720069-1.4628479.7495715-6.5047024-.0883705-13.3407943-2.4649066-19.056474z" fill="url(#d)"/><path d="m73.8574884 26.2555163c-1.6474792-3.9656277-4.9866229-8.2468643-7.607756-9.5992491 2.1335171 4.1833979 3.3675485 8.3794201 3.839384 11.5102618v.0773242c3.5790065 9.701822 1.6285426 19.5677607-1.1803778 25.5958934-4.3459366 9.3262472-14.866764 18.8860451-31.3368219 18.4205218-17.7798354-.5049745-33.45455853-13.714791-36.3818324-31.0022763-.53337929-2.7284402 0-4.1123858.26826768-6.3263832-.32665536 1.7058668-.45132093 2.199795-.61385959 5.2327979v.1940996c0 20.943816 16.97976651 37.9235825 37.92358261 37.9235825 18.7582234 0 34.3319517-13.6185302 37.3823131-31.5072507.0631218-.4844599.1151973-.9736539.1720069-1.4628479.7495715-6.5047024-.0883705-13.3407943-2.4649066-19.056474z" fill="url(#e)"/><path d="m55.4274983 30.711916c.0836364.0583876.1578045.1167753.2367068.175163-.9517191-1.6899286-2.1376201-3.2370442-3.5221969-4.5952677-11.7879978-11.7879977-3.0898126-25.56117637-1.6238086-26.26182844l.0157805-.02051459c-9.526659 5.57996788-12.7584956 15.90196163-13.0551681 21.06690363.4418527-.0299829.8821273-.067856 1.3318702-.067856 7.1090937 0 13.3013431 3.9103961 16.6168161 9.7034001z" fill="url(#f)"/><path d="m38.8343529 33.0663594c-.0615438.9468271-3.3943753 4.1976003-4.5605507 4.1976003-10.784361 0-12.5344131 6.5236389-12.5344131 6.5236389.4734135 5.4947534 4.3017512 10.0190091 8.9333139 12.4129037.2114581.1088851.4244942.2067239.6312181.3045627.3708406.1578045.7432593.315609 1.1140999.456055 1.5883025.5602061 3.25172.8794446 4.9345474.9468272 18.9018256.8868614 22.5660466-22.6007636 8.9238457-29.421075 3.4922141-.6075474 7.118562.7984909 9.143194 2.2203096-3.313895-5.793004-9.5077224-9.7034-16.6168161-9.7034-.4497429 0-.8900175.0378731-1.3318702.0678559-3.8035624.2635336-7.4409566 1.6672048-10.435613 4.0271714.5791426.4907721 1.2324533 1.1440828 2.6069307 2.4980456 2.5785259 2.5438089 9.177911 5.1617859 9.1921134 5.4695047z" fill="url(#g)"/><path d="m38.8343529 33.0663594c-.0615438.9468271-3.3943753 4.1976003-4.5605507 4.1976003-10.784361 0-12.5344131 6.5236389-12.5344131 6.5236389.4734135 5.4947534 4.3017512 10.0190091 8.9333139 12.4129037.2114581.1088851.4244942.2067239.6312181.3045627.3708406.1578045.7432593.315609 1.1140999.456055 1.5883025.5602061 3.25172.8794446 4.9345474.9468272 18.9018256.8868614 22.5660466-22.6007636 8.9238457-29.421075 3.4922141-.6075474 7.118562.7984909 9.143194 2.2203096-3.313895-5.793004-9.5077224-9.7034-16.6168161-9.7034-.4497429 0-.8900175.0378731-1.3318702.0678559-3.8035624.2635336-7.4409566 1.6672048-10.435613 4.0271714.5791426.4907721 1.2324533 1.1440828 2.6069307 2.4980456 2.5785259 2.5438089 9.177911 5.1617859 9.1921134 5.4695047z" fill="url(#h)"/><path d="m25.2726323 23.837951c.3077188.1988337.5602061.3661065.7890226.5191769-.8639797-3.0244815-.9004326-6.2260196-.105729-9.2694376-3.8961936 1.7753009-6.9260405 4.5763311-9.1289916 7.0554401.1783191-.0047341 5.6793847-.1041509 8.445698 1.6948206z" fill="url(#i)"/><path d="m1.1900843 41.2579921c2.92727387 17.2874853 18.601997 30.4973018 36.3944568 31.0022763 16.4700579.4655233 26.9845731-9.0942746 31.3368218-18.4205218 2.8089205-6.0297107 4.7593844-15.8940714 1.1803779-25.5958934v-.07259c0 .0094682 0 .0220926.0078902.0631218 1.3444945 8.7849777-3.1229515 17.2953755-10.1073796 23.0505064-.007259.0160961-.0140446.0325077-.0205146.0489194-13.61064 11.0826116-26.6342471 6.6861776-29.2711607 4.8919402-.1830532-.0883706-.3676845-.1798972-.5507378-.2745799-7.9359893-3.7873085-11.2135893-11.0226458-10.5113591-17.2227855-6.698802 0-8.9838114-5.6525579-8.9838114-5.6525579s6.0155083-4.2891269 13.9436075-.558628c7.3426444 3.455919 14.2387019.560206 14.2387019.558628-.0142024-.3077188-6.6135875-2.9335861-9.1873792-5.4695047-1.3744774-1.3539628-2.0277881-2.0072735-2.6069307-2.4980456-.3133998-.2649538-.641002-.5125491-.9815441-.7416812-.2256605-.1578046-.4734136-.3156091-.7890226-.5191769-2.7663133-1.7989716-8.2673789-1.6995547-8.4488541-1.6948206h-.0173585c-1.5038771-1.9047006-1.3981481-8.1868986-1.3129336-9.4982541-.0173585-.0820584-1.1204121.5728304-1.2624362.6722472-1.3269782.9466694-2.5674795 2.0091672-3.7068282 3.175027-1.29652194 1.3145117-2.48100268 2.7349102-3.54113345 4.2465197-2.43902669 3.4563924-4.16872204 7.3623699-5.08919582 11.4913252-.02998286.0725901-1.37921151 5.9634329-.71327643 9.0185284z" fill="url(#j)"/><path d="m52.1420082 26.2918113c1.3845768 1.3582235 2.5704778 2.9053391 3.5221969 4.5952677.1972556.1481784.3867789.3061407.5680963.4734135 8.5971903 7.9154748 4.0997614 19.1211739 3.7573256 19.925977 6.9844281-5.7551309 11.4518741-14.2655288 10.1073796-23.0505065-4.2875488-10.6959904-11.5591812-15.00721-17.4973653-24.39184486-.3014067-.47341356-.6012352-.94682713-.8947517-1.45337964-.1656947-.28562618-.2998285-.5444256-.4166039-.78902261-.2460172-.47451819-.4361717-.97602096-.5665182-1.49440881.0020514-.05081306-.0348748-.09531394-.0852145-.10257294-.0231972-.00631219-.0478147-.00631219-.071012 0-.0063122.00284048-.0121509.00662779-.0173585.01104631-.0094683 0-.0189365.01104632-.0284048.01420241-1.4675821.70065207-10.1657673 14.47383074 1.6222305 26.26182844z" fill="url(#k)"/><path d="m56.2291453 31.3526023c-.1813174-.1672728-.3708407-.3252351-.5680963-.4734136-.0773242-.0583876-.1578045-.1167753-.2367068-.175163-2.024632-1.4202407-5.6509799-2.827857-9.143194-2.2203096 13.6406229 6.8203114 9.9779799 30.3079364-8.9238456 29.421075-1.6828275-.0673825-3.3462449-.3866211-4.9345474-.9468271-.3708407-.138868-.7432593-.2919384-1.1140999-.4560551-.2146142-.0978388-.4276503-.1956776-.6312181-.3045627l.0252487.0157804c2.6369135 1.7989716 15.6605207 6.1954055 29.2711607-4.8919401 0 0 .0078902-.0205146.0205146-.0489194.3377016-.7906007 4.8351305-11.9962998-3.7652159-19.9196648z" fill="url(#l)"/><path d="m21.7393891 43.7875986s1.7500521-6.5236389 12.5344131-6.5236389c1.1661754 0 4.4990069-3.2539292 4.5605507-4.1976003.0615437-.943671-6.8960576 2.897291-14.238702-.558628-7.9280991-3.7304989-13.9436075.558628-13.9436075.558628s2.2850095 5.652558 8.9838114 5.652558c-.7022301 6.2001396 2.5753698 13.4291647 10.5113592 17.2227854.176741.0836364.3440138.1767411.525489.2587995-4.6315627-2.3891605-8.4551662-6.9181503-8.9333139-12.4129037z" fill="url(#m)"/><path d="m73.8574884 26.2555163c-1.6474792-3.9656277-4.9866229-8.2468643-7.607756-9.5992491 2.1335171 4.1833979 3.3675485 8.3794201 3.839384 11.5102618 0 0 0 .0220927.0078902.0631218-4.2875488-10.6896782-11.5591812-15.0008978-17.4973653-24.38553266-.3014067-.47341356-.6012352-.94682713-.8947517-1.45337964-.1656947-.28562618-.2998285-.5444256-.4166039-.78902261-.2460172-.47451819-.4361717-.97602096-.5665182-1.49440881.0020514-.05081306-.0348748-.09531394-.0852145-.10257294-.0231972-.00631219-.0478147-.00631219-.071012 0-.0063122.00284048-.0121509.00662779-.0173585.01104631-.0094683 0-.0189365.01104632-.0284048.01420241l.0157804-.02051459c-9.5266589 5.57996788-12.7584955 15.90196163-13.055168 21.06690363.4418526-.0299829.8821273-.067856 1.3318701-.067856 7.1090937 0 13.3013432 3.9103961 16.6168161 9.7034001-2.024632-1.4202407-5.6509799-2.8278571-9.1431939-2.2203097 13.6406228 6.8203115 9.9779799 30.3079364-8.9238457 29.421075-1.6828274-.0673825-3.3462449-.3866211-4.9345474-.9468271-.3708406-.138868-.7432593-.2919384-1.1140999-.4560551-.2146142-.0978388-.4276503-.1956776-.6312181-.3045627l.0252487.0157804c-.1830532-.0883705-.3676845-.1798971-.5507378-.2745798.1767411.0836364.3440139.176741.5254891.2587994-4.641031-2.3938946-8.4646345-6.9228844-8.9427822-12.4176378 0 0 1.7500521-6.5236389 12.5344131-6.5236389 1.1661754 0 4.4990069-3.2539292 4.5605507-4.1976003-.0142024-.3077188-6.6135875-2.933586-9.1873793-5.4695047-1.3744773-1.3539628-2.0277881-2.0072735-2.6069307-2.4980456-.3133997-.2649538-.6410019-.5125491-.9815441-.7416812-.8639797-3.0244815-.9004326-6.2260196-.105729-9.2694376-3.8961936 1.7753009-6.9260404 4.5763311-9.1289916 7.0554401h-.0173585c-1.5038771-1.9047005-1.398148-8.1868985-1.3129336-9.4982541-.0173585-.0820584-1.1204121.5728304-1.2624362.6722473-1.3269782.9466693-2.5674795 2.0091671-3.7068282 3.1750269-1.29652191 1.3145117-2.48100265 2.7349102-3.54113342 4.2465197-2.43902669 3.4563924-4.16872205 7.36237-5.08919582 11.4913253-.0173585.0820583-.03313895.1672727-.05049745.2509091-.07101203.3329676-.39293325 2.0277881-.43711852 2.3907385-.29541006 1.7511568-.48461768 3.5187253-.56651823 5.2927637v.1940996c0 20.943816 16.97976654 37.9235825 37.92358254 37.9235825 18.7582235 0 34.3319517-13.6185302 37.3823131-31.5072507.0631218-.4844599.1151973-.9736539.1720069-1.4628479.7543057-6.5047024-.0836363-13.3407943-2.4601724-19.056474zm-3.7620598 1.9473078v.0410291z" fill="url(#n)"/></g></g></svg>