<?xml version="1.0" encoding="UTF-8" standalone="no"?>
<svg
   width="128"
   height="128"
   viewBox="0 0 128 128"
   fill="none"
   version="1.1"
   id="svg4"
   xml:space="preserve"
   sodipodi:docname="slack.svg"
   inkscape:version="1.4.2 (ebf0e940d0, 2025-05-08)"
   xmlns:inkscape="http://www.inkscape.org/namespaces/inkscape"
   xmlns:sodipodi="http://sodipodi.sourceforge.net/DTD/sodipodi-0.dtd"
   xmlns:xlink="http://www.w3.org/1999/xlink"
   xmlns="http://www.w3.org/2000/svg"
   xmlns:svg="http://www.w3.org/2000/svg"><sodipodi:namedview
     id="namedview1"
     pagecolor="#ffffff"
     bordercolor="#000000"
     borderopacity="0.25"
     inkscape:showpageshadow="2"
     inkscape:pageopacity="0.0"
     inkscape:pagecheckerboard="0"
     inkscape:deskcolor="#d1d1d1"
     showgrid="false"
     inkscape:zoom="2.185"
     inkscape:cx="60.411899"
     inkscape:cy="46.453089"
     inkscape:current-layer="svg4"><inkscape:page
       x="0"
       y="0"
       width="128"
       height="128"
       id="page2"
       margin="0"
       bleed="0" /><inkscape:grid
       id="grid2"
       units="px"
       originx="-138"
       originy="0"
       spacingx="0.5"
       spacingy="0.5"
       empcolor="#0099e5"
       empopacity="0.30196078"
       color="#0099e5"
       opacity="0.0784314"
       empspacing="2"
       enabled="true"
       visible="false" /></sodipodi:namedview><defs
     id="defs4"><inkscape:path-effect
       effect="offset"
       id="path-effect9"
       is_visible="true"
       lpeversion="1.3"
       linejoin_type="miter"
       unit="px"
       offset="-0.5"
       miter_limit="4"
       attempt_force_join="false"
       update_on_knot_move="true" /><inkscape:path-effect
       effect="offset"
       id="path-effect2"
       is_visible="true"
       lpeversion="1.3"
       linejoin_type="miter"
       unit="px"
       offset="-0.5"
       miter_limit="4"
       attempt_force_join="false"
       update_on_knot_move="true" /><linearGradient
       id="linearGradient3688-166-749-654"><stop
         offset="0"
         style="stop-color:#181818;stop-opacity:1"
         id="stop3088" /><stop
         offset="1"
         style="stop-color:#181818;stop-opacity:0"
         id="stop3090" /></linearGradient><linearGradient
       id="linearGradient3702-501-757-795"><stop
         offset="0"
         style="stop-color:#181818;stop-opacity:0"
         id="stop3100" /><stop
         offset="0.5"
         style="stop-color:#181818;stop-opacity:1"
         id="stop3102" /><stop
         offset="1"
         style="stop-color:#181818;stop-opacity:0"
         id="stop3104" /></linearGradient><linearGradient
       id="linearGradient4113"><stop
         id="stop4115"
         style="stop-color:#000000;stop-opacity:1"
         offset="0" /><stop
         id="stop4117"
         style="stop-color:#000000;stop-opacity:0"
         offset="1" /></linearGradient><linearGradient
       gradientTransform="matrix(2.7297298,0,0,2.7297298,-1.51351,1.486514)"
       gradientUnits="userSpaceOnUse"
       xlink:href="#linearGradient3924-776"
       id="linearGradient3159"
       y2="42.499989"
       x2="23.999998"
       y1="5.49999"
       x1="23.999998" /><linearGradient
       id="linearGradient3924-776"><stop
         offset="0"
         style="stop-color:#ffffff;stop-opacity:1"
         id="stop3124" /><stop
         offset="0.08792076"
         style="stop-color:#ffffff;stop-opacity:0.23529412"
         id="stop3126" /><stop
         offset="0.91089112"
         style="stop-color:#ffffff;stop-opacity:0.15686275"
         id="stop3128" /><stop
         offset="1"
         style="stop-color:#ffffff;stop-opacity:0.39215687"
         id="stop3130" /></linearGradient><radialGradient
       gradientTransform="matrix(2.003784,0,0,1.4,27.98813,-17.4)"
       gradientUnits="userSpaceOnUse"
       xlink:href="#linearGradient3688-166-749-654"
       id="radialGradient2455-1"
       fy="43.5"
       fx="4.9929786"
       r="2.5"
       cy="43.5"
       cx="4.9929786" /><radialGradient
       gradientTransform="matrix(2.003784,0,0,1.4,-20.01187,-104.4)"
       gradientUnits="userSpaceOnUse"
       xlink:href="#linearGradient3688-166-749-654"
       id="radialGradient2457-5"
       fy="43.5"
       fx="4.9929786"
       r="2.5"
       cy="43.5"
       cx="4.9929786" /><linearGradient
       gradientUnits="userSpaceOnUse"
       xlink:href="#linearGradient3702-501-757-795"
       id="linearGradient2459-7"
       y2="39.999443"
       x2="25.058096"
       y1="47.027729"
       x1="25.058096" /><radialGradient
       gradientTransform="matrix(1.5563924,0,0,0.16978827,70.27036,102.13029)"
       gradientUnits="userSpaceOnUse"
       xlink:href="#linearGradient4113"
       id="radialGradient4377"
       fy="93.467628"
       fx="-4.0287771"
       r="35.338131"
       cy="93.467628"
       cx="-4.0287771" /><style
       id="style1">.g{fill:#000;}.g,.h,.i{stroke-width:0px;}.h{fill:url(#e);}.i{fill:#fff;}</style><linearGradient
       xlink:href="#linearGradient4-5"
       id="linearGradient4"
       x1="66"
       y1="16"
       x2="66"
       y2="118.5"
       gradientUnits="userSpaceOnUse" /><style
       id="style1-6">.cls-1{fill:#fff;}</style><linearGradient
       id="linearGradient4-5"><stop
         style="stop-color:#fafafa;stop-opacity:1;"
         offset="0"
         id="stop4" /><stop
         style="stop-color:#d4d4d4;stop-opacity:1;"
         offset="1"
         id="stop5" /></linearGradient><style
       id="style1-1">.g{fill:#000;}.g,.h,.i{stroke-width:0px;}.h{fill:url(#e);}.i{fill:#fff;}</style><style
       id="style1-6-2">.cls-1{fill:#fff;}</style><style
       id="style1-67">.cls-1{fill:#fff;}</style><linearGradient
       id="linearGradient29"><stop
         style="stop-color:#ffffff;stop-opacity:1;"
         offset="0"
         id="stop29" /><stop
         style="stop-color:#ffffff;stop-opacity:0;"
         offset="1"
         id="stop30" /></linearGradient><linearGradient
       id="linearGradient12"><stop
         id="stop8"
         style="stop-color:#ffffff;stop-opacity:1"
         offset="0" /><stop
         id="stop9"
         style="stop-color:#ffffff;stop-opacity:0.23529412"
         offset="0.08018868" /><stop
         id="stop10"
         style="stop-color:#ffffff;stop-opacity:0.15686275"
         offset="0.91981131" /><stop
         id="stop11"
         style="stop-color:#ffffff;stop-opacity:0.39215687"
         offset="1" /></linearGradient><linearGradient
       id="linearGradient2"><stop
         style="stop-color:#5865f2;stop-opacity:1;"
         offset="0"
         id="stop3-3" /><stop
         style="stop-color:#1f30f4;stop-opacity:1;"
         offset="1"
         id="stop4-5" /></linearGradient><radialGradient
       gradientTransform="matrix(1.5563924,0,0,0.16978827,70.27036,102.13029)"
       gradientUnits="userSpaceOnUse"
       xlink:href="#linearGradient4113"
       id="radialGradient4377-5"
       fy="93.467628"
       fx="-4.0287771"
       r="35.338131"
       cy="93.467628"
       cx="-4.0287771" /><style
       id="style1-62">.g{fill:#000;}.g,.h,.i{stroke-width:0px;}.h{fill:url(#e);}.i{fill:#fff;}</style><style
       id="style1-6-9">.cls-1{fill:#fff;}</style><radialGradient
       xlink:href="#linearGradient4113"
       id="radialGradient4"
       gradientUnits="userSpaceOnUse"
       gradientTransform="matrix(0.3823536,7.5555777e-8,-1.8372241e-8,0.1115198,-5.9254271,36.335849)"
       cx="99.189415"
       cy="185.29727"
       fx="99.189415"
       fy="185.29727"
       r="62.769119" /><radialGradient
       xlink:href="#linearGradient4113"
       id="radialGradient5"
       gradientUnits="userSpaceOnUse"
       gradientTransform="matrix(0.2549024,5.3967361e-8,-1.2248161e-8,0.07965545,6.7163816,44.240666)"
       cx="99.189415"
       cy="185.29727"
       fx="99.189415"
       fy="185.29727"
       r="62.769119" /><style
       id="style1-9">.g{fill:#000;}.g,.h,.i{stroke-width:0px;}.h{fill:url(#e);}.i{fill:#fff;}</style><style
       id="style1-6-12">.cls-1{fill:#fff;}</style><style
       id="style1-67-1">.cls-1{fill:#fff;}</style><style
       id="style1-56">.g{fill:#000;}.g,.h,.i{stroke-width:0px;}.h{fill:url(#e);}.i{fill:#fff;}</style><style
       id="style1-7">.g{fill:#000;}.g,.h,.i{stroke-width:0px;}.h{fill:url(#e);}.i{fill:#fff;}</style><style
       id="style1-5">.g{fill:#000;}.g,.h,.i{stroke-width:0px;}.h{fill:url(#e);}.i{fill:#fff;}</style><style
       id="style1-3">.g{fill:#000;}.g,.h,.i{stroke-width:0px;}.h{fill:url(#e);}.i{fill:#fff;}</style><style
       id="style1-6-1">.cls-1{fill:#fff;}</style><style
       id="style1-2">.g{fill:#000;}.g,.h,.i{stroke-width:0px;}.h{fill:url(#e);}.i{fill:#fff;}</style><style
       id="style1-6-8">.cls-1{fill:#fff;}</style><linearGradient
       xlink:href="#linearGradient12"
       id="linearGradient8"
       x1="64"
       y1="14"
       x2="64"
       y2="120"
       gradientUnits="userSpaceOnUse"
       gradientTransform="translate(0,-138)" /><linearGradient
       xlink:href="#linearGradient4-5"
       id="linearGradient26"
       x1="64"
       y1="13"
       x2="64"
       y2="120.99023"
       gradientUnits="userSpaceOnUse"
       gradientTransform="translate(0,-138)" /><linearGradient
       xlink:href="#linearGradient29"
       id="linearGradient30"
       x1="101.85315"
       y1="126.12645"
       x2="97.222069"
       y2="108.93288"
       gradientUnits="userSpaceOnUse"
       gradientTransform="translate(0,-138)" /><radialGradient
       gradientTransform="matrix(1.5563924,0,0,0.16978827,70.27036,102.13029)"
       gradientUnits="userSpaceOnUse"
       xlink:href="#linearGradient4113"
       id="radialGradient4377-8"
       fy="93.467628"
       fx="-4.0287771"
       r="35.338131"
       cy="93.467628"
       cx="-4.0287771" /><style
       id="style1-97">.g{fill:#000;}.g,.h,.i{stroke-width:0px;}.h{fill:url(#e);}.i{fill:#fff;}</style><style
       id="style1-6-36">.cls-1{fill:#fff;}</style><radialGradient
       xlink:href="#linearGradient4113"
       id="radialGradient4-1"
       gradientUnits="userSpaceOnUse"
       gradientTransform="matrix(0.3823536,7.5555777e-8,-1.8372241e-8,0.1115198,-5.9254271,36.335849)"
       cx="99.189415"
       cy="185.29727"
       fx="99.189415"
       fy="185.29727"
       r="62.769119" /><radialGradient
       xlink:href="#linearGradient4113"
       id="radialGradient5-2"
       gradientUnits="userSpaceOnUse"
       gradientTransform="matrix(0.2549024,5.3967361e-8,-1.2248161e-8,0.07965545,6.7163816,44.240666)"
       cx="99.189415"
       cy="185.29727"
       fx="99.189415"
       fy="185.29727"
       r="62.769119" /><style
       id="style1-9-9">.g{fill:#000;}.g,.h,.i{stroke-width:0px;}.h{fill:url(#e);}.i{fill:#fff;}</style><style
       id="style1-6-12-3">.cls-1{fill:#fff;}</style><style
       id="style1-67-19">.cls-1{fill:#fff;}</style><style
       id="style1-56-4">.g{fill:#000;}.g,.h,.i{stroke-width:0px;}.h{fill:url(#e);}.i{fill:#fff;}</style><style
       id="style1-7-7">.g{fill:#000;}.g,.h,.i{stroke-width:0px;}.h{fill:url(#e);}.i{fill:#fff;}</style><style
       id="style1-5-8">.g{fill:#000;}.g,.h,.i{stroke-width:0px;}.h{fill:url(#e);}.i{fill:#fff;}</style><style
       id="style1-3-4">.g{fill:#000;}.g,.h,.i{stroke-width:0px;}.h{fill:url(#e);}.i{fill:#fff;}</style><style
       id="style1-6-1-5">.cls-1{fill:#fff;}</style><style
       id="style1-2-0">.g{fill:#000;}.g,.h,.i{stroke-width:0px;}.h{fill:url(#e);}.i{fill:#fff;}</style><style
       id="style1-6-8-3">.cls-1{fill:#fff;}</style><linearGradient
       xlink:href="#linearGradient12"
       id="linearGradient8-6"
       x1="64"
       y1="14"
       x2="64"
       y2="120"
       gradientUnits="userSpaceOnUse"
       gradientTransform="translate(0,-137)" /><linearGradient
       xlink:href="#linearGradient2"
       id="linearGradient26-1"
       x1="64"
       y1="13"
       x2="64"
       y2="120.99023"
       gradientUnits="userSpaceOnUse"
       gradientTransform="translate(0,-137)" /><linearGradient
       xlink:href="#linearGradient29"
       id="linearGradient30-0"
       x1="101.85315"
       y1="126.12645"
       x2="97.222069"
       y2="108.93288"
       gradientUnits="userSpaceOnUse"
       gradientTransform="translate(0,-137)" /><linearGradient
       id="linearGradient880"><stop
         style="stop-color:#cd9ef7;stop-opacity:1"
         offset="0"
         id="stop876" /><stop
         style="stop-color:#a56de2;stop-opacity:1"
         offset="1"
         id="stop878" /></linearGradient><linearGradient
       gradientTransform="matrix(2.7297298,0,0,2.7297298,-1.51351,1.486514)"
       gradientUnits="userSpaceOnUse"
       xlink:href="#linearGradient3924-776-3"
       id="linearGradient3159-6"
       y2="39.569294"
       x2="23.999998"
       y1="5.6831579"
       x1="23.999998" /><linearGradient
       id="linearGradient3924-776-3"><stop
         offset="0"
         style="stop-color:#ffffff;stop-opacity:1"
         id="stop3124-2" /><stop
         offset="0.0918919"
         style="stop-color:#ffffff;stop-opacity:0.23529412"
         id="stop3126-0" /><stop
         offset="0.92432439"
         style="stop-color:#ffffff;stop-opacity:0.15686275"
         id="stop3128-6" /><stop
         offset="1"
         style="stop-color:#ffffff;stop-opacity:0.39215687"
         id="stop3130-1" /></linearGradient><linearGradient
       xlink:href="#linearGradient4-5"
       id="linearGradient882"
       x1="62.871635"
       y1="15.90732"
       x2="62.871635"
       y2="111"
       gradientUnits="userSpaceOnUse" /><linearGradient
       id="linearGradient24"><stop
         style="stop-color:#fafafa;stop-opacity:1;"
         offset="0"
         id="stop24" /><stop
         style="stop-color:#fafafa;stop-opacity:0;"
         offset="1"
         id="stop25" /></linearGradient><linearGradient
       id="linearGradient23"><stop
         offset="0"
         style="stop-color:#ffffff;stop-opacity:1"
         id="stop20" /><stop
         offset="0.13392857"
         style="stop-color:#ffffff;stop-opacity:0.23529412"
         id="stop21" /><stop
         offset="0.8660714"
         style="stop-color:#ffffff;stop-opacity:0.15686275"
         id="stop22" /><stop
         offset="1"
         style="stop-color:#ffffff;stop-opacity:0.39215687"
         id="stop23" /></linearGradient><style
       id="style1-37">.g{fill:#000;}.g,.h,.i{stroke-width:0px;}.h{fill:url(#e);}.i{fill:#fff;}</style><style
       id="style1-6-5">.cls-1{fill:#fff;}</style><style
       id="style1-67-9">.cls-1{fill:#fff;}</style><style
       id="style1-56-22">.g{fill:#000;}.g,.h,.i{stroke-width:0px;}.h{fill:url(#e);}.i{fill:#fff;}</style><style
       id="style1-7-8">.g{fill:#000;}.g,.h,.i{stroke-width:0px;}.h{fill:url(#e);}.i{fill:#fff;}</style><style
       id="style1-5-9">.g{fill:#000;}.g,.h,.i{stroke-width:0px;}.h{fill:url(#e);}.i{fill:#fff;}</style><style
       id="style1-3-73">.g{fill:#000;}.g,.h,.i{stroke-width:0px;}.h{fill:url(#e);}.i{fill:#fff;}</style><style
       id="style1-6-1-6">.cls-1{fill:#fff;}</style><style
       id="style1-2-1">.g{fill:#000;}.g,.h,.i{stroke-width:0px;}.h{fill:url(#e);}.i{fill:#fff;}</style><style
       id="style1-6-8-2">.cls-1{fill:#fff;}</style><linearGradient
       xlink:href="#linearGradient2"
       id="linearGradient11"
       x1="32"
       y1="3"
       x2="32"
       y2="61"
       gradientUnits="userSpaceOnUse"
       gradientTransform="translate(0,-65)" /><linearGradient
       xlink:href="#linearGradient23"
       id="linearGradient20"
       x1="32"
       y1="4"
       x2="32"
       y2="60"
       gradientUnits="userSpaceOnUse"
       gradientTransform="translate(0,-65)" /><linearGradient
       xlink:href="#linearGradient24"
       id="linearGradient25"
       x1="53.554375"
       y1="59.875896"
       x2="52.482929"
       y2="55.161541"
       gradientUnits="userSpaceOnUse"
       gradientTransform="translate(0,-65)" /><radialGradient
       xlink:href="#linearGradient4113"
       id="radialGradient3"
       gradientUnits="userSpaceOnUse"
       gradientTransform="matrix(0.3823536,7.5555777e-8,-1.8372241e-8,0.1115198,-5.9254271,36.335849)"
       cx="99.189415"
       cy="185.29727"
       fx="99.189415"
       fy="185.29727"
       r="62.769119" /><radialGradient
       xlink:href="#linearGradient4113"
       id="radialGradient4-9"
       gradientUnits="userSpaceOnUse"
       gradientTransform="matrix(0.2549024,5.3967361e-8,-1.2248161e-8,0.07965545,6.7163816,44.240666)"
       cx="99.189415"
       cy="185.29727"
       fx="99.189415"
       fy="185.29727"
       r="62.769119" /><linearGradient
       y2="39.317303"
       x2="23.999998"
       y1="5.8977108"
       x1="23.999998"
       gradientTransform="matrix(1.4324324,0,0,1.4362832,135.62162,-2.4707827)"
       gradientUnits="userSpaceOnUse"
       id="linearGradient3904"
       xlink:href="#linearGradient4270" /><linearGradient
       id="linearGradient4270"><stop
         id="stop4272"
         style="stop-color:#ffffff;stop-opacity:1"
         offset="0" /><stop
         id="stop4274"
         style="stop-color:#ffffff;stop-opacity:0.23529412"
         offset="0.09375" /><stop
         id="stop4276"
         style="stop-color:#ffffff;stop-opacity:0.15686275"
         offset="0.92708337" /><stop
         id="stop4278"
         style="stop-color:#ffffff;stop-opacity:0.39215687"
         offset="1" /></linearGradient><linearGradient
       xlink:href="#linearGradient2"
       id="linearGradient899"
       x1="31.781376"
       y1="4.9266648"
       x2="32"
       y2="55"
       gradientUnits="userSpaceOnUse"
       gradientTransform="translate(138)" /><linearGradient
       id="linearGradient17"><stop
         offset="0"
         style="stop-color:#ffffff;stop-opacity:1"
         id="stop14" /><stop
         offset="0.14473684"
         style="stop-color:#ffffff;stop-opacity:0.23529412"
         id="stop15" /><stop
         offset="0.85526317"
         style="stop-color:#ffffff;stop-opacity:0.15686275"
         id="stop16" /><stop
         offset="1"
         style="stop-color:#ffffff;stop-opacity:0.39215687"
         id="stop17" /></linearGradient><style
       id="style1-0">.g{fill:#000;}.g,.h,.i{stroke-width:0px;}.h{fill:url(#e);}.i{fill:#fff;}</style><style
       id="style1-7-23">.g{fill:#000;}.g,.h,.i{stroke-width:0px;}.h{fill:url(#e);}.i{fill:#fff;}</style><style
       id="style1-5-7">.g{fill:#000;}.g,.h,.i{stroke-width:0px;}.h{fill:url(#e);}.i{fill:#fff;}</style><style
       id="style1-3-2">.g{fill:#000;}.g,.h,.i{stroke-width:0px;}.h{fill:url(#e);}.i{fill:#fff;}</style><style
       id="style1-6-28">.cls-1{fill:#fff;}</style><linearGradient
       xlink:href="#linearGradient17"
       id="linearGradient12-3"
       x1="24"
       y1="6"
       x2="24"
       y2="44"
       gradientUnits="userSpaceOnUse"
       gradientTransform="translate(0,-51)" /><linearGradient
       xlink:href="#linearGradient29"
       id="linearGradient19"
       x1="38.264111"
       y1="46.5"
       x2="36.881195"
       y2="41"
       gradientUnits="userSpaceOnUse"
       gradientTransform="translate(0,-51)" /><radialGradient
       xlink:href="#linearGradient4113"
       id="radialGradient3-3"
       gradientUnits="userSpaceOnUse"
       gradientTransform="matrix(0.3823536,7.5555777e-8,-1.8372241e-8,0.1115198,-5.9254271,36.335849)"
       cx="99.189415"
       cy="185.29727"
       fx="99.189415"
       fy="185.29727"
       r="62.769119" /><radialGradient
       xlink:href="#linearGradient4113"
       id="radialGradient4-6"
       gradientUnits="userSpaceOnUse"
       gradientTransform="matrix(0.2549024,5.3967361e-8,-1.2248161e-8,0.07965545,6.7163816,44.240666)"
       cx="99.189415"
       cy="185.29727"
       fx="99.189415"
       fy="185.29727"
       r="62.769119" /><style
       id="style1-62-5">.g{fill:#000;}.g,.h,.i{stroke-width:0px;}.h{fill:url(#e);}.i{fill:#fff;}</style><style
       id="style1-6-9-5">.cls-1{fill:#fff;}</style><style
       id="style1-67-1-4">.cls-1{fill:#fff;}</style><style
       id="style1-56-2">.g{fill:#000;}.g,.h,.i{stroke-width:0px;}.h{fill:url(#e);}.i{fill:#fff;}</style><style
       id="style1-7-1">.g{fill:#000;}.g,.h,.i{stroke-width:0px;}.h{fill:url(#e);}.i{fill:#fff;}</style><style
       id="style1-5-2">.g{fill:#000;}.g,.h,.i{stroke-width:0px;}.h{fill:url(#e);}.i{fill:#fff;}</style><style
       id="style1-3-7">.g{fill:#000;}.g,.h,.i{stroke-width:0px;}.h{fill:url(#e);}.i{fill:#fff;}</style><style
       id="style1-6-1-9">.cls-1{fill:#fff;}</style><style
       id="style1-2-3">.g{fill:#000;}.g,.h,.i{stroke-width:0px;}.h{fill:url(#e);}.i{fill:#fff;}</style><style
       id="style1-6-8-1">.cls-1{fill:#fff;}</style><linearGradient
       xlink:href="#linearGradient2"
       id="linearGradient9"
       x1="24"
       y1="5"
       x2="24"
       y2="45"
       gradientUnits="userSpaceOnUse"
       gradientTransform="translate(0,-51)" /><linearGradient
       id="linearGradient1201"><stop
         id="stop1193"
         style="stop-color:#ffffff;stop-opacity:1"
         offset="0" /><stop
         id="stop1195"
         style="stop-color:#ffffff;stop-opacity:0.23529412"
         offset="0.07352958" /><stop
         id="stop1197"
         style="stop-color:#ffffff;stop-opacity:0.15686275"
         offset="0.92647058" /><stop
         id="stop1199"
         style="stop-color:#ffffff;stop-opacity:0.39215687"
         offset="1" /></linearGradient><linearGradient
       x1="38.999996"
       y1="5.9999938"
       x2="38.999996"
       y2="40"
       id="linearGradient3058-5"
       xlink:href="#linearGradient1201"
       gradientUnits="userSpaceOnUse"
       gradientTransform="translate(74.000004)" /><linearGradient
       xlink:href="#linearGradient2"
       id="linearGradient930-9-2"
       x1="16.692297"
       y1="2.4999993"
       x2="16.692297"
       y2="27.769238"
       gradientUnits="userSpaceOnUse"
       gradientTransform="matrix(1.444444,0,0,1.444444,74.888913,0.888891)" /><linearGradient
       id="linearGradient30-1"><stop
         style="stop-color:#ffffff;stop-opacity:1;"
         offset="0"
         id="stop30-9" /><stop
         style="stop-color:#fafafa;stop-opacity:0;"
         offset="1"
         id="stop31" /></linearGradient><linearGradient
       id="linearGradient22"><stop
         id="stop13"
         style="stop-color:#ffffff;stop-opacity:1"
         offset="0" /><stop
         id="stop20-9"
         style="stop-color:#ffffff;stop-opacity:0.23529412"
         offset="0.13461539" /><stop
         id="stop21-4"
         style="stop-color:#ffffff;stop-opacity:0.15686275"
         offset="0.86538464" /><stop
         id="stop22-7"
         style="stop-color:#ffffff;stop-opacity:0.39215687"
         offset="1" /></linearGradient><style
       id="style1-79">.g{fill:#000;}.g,.h,.i{stroke-width:0px;}.h{fill:url(#e);}.i{fill:#fff;}</style><style
       id="style1-7-2">.g{fill:#000;}.g,.h,.i{stroke-width:0px;}.h{fill:url(#e);}.i{fill:#fff;}</style><style
       id="style1-5-0">.g{fill:#000;}.g,.h,.i{stroke-width:0px;}.h{fill:url(#e);}.i{fill:#fff;}</style><style
       id="style1-53">.g{fill:#000;}.g,.h,.i{stroke-width:0px;}.h{fill:url(#e);}.i{fill:#fff;}</style><style
       id="style1-6-2-7">.cls-1{fill:#fff;}</style><style
       id="style1-67-3">.cls-1{fill:#fff;}</style><style
       id="style1-675">.g{fill:#000;}.g,.h,.i{stroke-width:0px;}.h{fill:url(#e);}.i{fill:#fff;}</style><style
       id="style1-7-3">.g{fill:#000;}.g,.h,.i{stroke-width:0px;}.h{fill:url(#e);}.i{fill:#fff;}</style><style
       id="style1-5-5">.g{fill:#000;}.g,.h,.i{stroke-width:0px;}.h{fill:url(#e);}.i{fill:#fff;}</style><style
       id="style1-3-9">.g{fill:#000;}.g,.h,.i{stroke-width:0px;}.h{fill:url(#e);}.i{fill:#fff;}</style><style
       id="style1-6-6">.cls-1{fill:#fff;}</style><style
       id="style1-70">.g{fill:#000;}.g,.h,.i{stroke-width:0px;}.h{fill:url(#e);}.i{fill:#fff;}</style><style
       id="style1-6-3">.cls-1{fill:#fff;}</style><linearGradient
       id="linearGradient3820-7-2-2"><stop
         offset="0"
         style="stop-color:#3d3d3d;stop-opacity:1"
         id="stop3822-2-6-36" /><stop
         offset="0.5"
         style="stop-color:#686868;stop-opacity:0.49803922"
         id="stop3864-8-7-6" /><stop
         offset="1"
         style="stop-color:#686868;stop-opacity:0"
         id="stop3824-1-2-4" /></linearGradient><radialGradient
       cx="99.157013"
       cy="186.17059"
       r="62.769119"
       fx="99.157013"
       fy="186.17059"
       id="radialGradient3108-6"
       xlink:href="#linearGradient3820-7-2-2"
       gradientUnits="userSpaceOnUse"
       gradientTransform="matrix(0.21473139,0,0,0.06794726,-5.3136245,15.116856)" /><linearGradient
       xlink:href="#linearGradient22"
       id="linearGradient13"
       x1="16"
       y1="3"
       x2="16"
       y2="29"
       gradientUnits="userSpaceOnUse"
       gradientTransform="translate(0,-33)" /><linearGradient
       xlink:href="#linearGradient2"
       id="linearGradient29-4"
       x1="16"
       y1="3"
       x2="16"
       y2="30"
       gradientUnits="userSpaceOnUse"
       gradientTransform="translate(0,-33)" /><linearGradient
       xlink:href="#linearGradient30-1"
       id="linearGradient31"
       x1="25.002583"
       y1="30.93301"
       x2="23.779295"
       y2="27.459316"
       gradientUnits="userSpaceOnUse" /><linearGradient
       id="linearGradient4-6"><stop
         id="stop1"
         style="stop-color:#ffffff;stop-opacity:1"
         offset="0" /><stop
         id="stop2"
         style="stop-color:#ffffff;stop-opacity:0.23529412"
         offset="0.06818181" /><stop
         id="stop3"
         style="stop-color:#ffffff;stop-opacity:0.15686275"
         offset="0.93181819" /><stop
         id="stop4-56"
         style="stop-color:#ffffff;stop-opacity:0.39215687"
         offset="1" /></linearGradient><linearGradient
       xlink:href="#linearGradient2"
       id="linearGradient930-9-2-8"
       x1="16.999996"
       y1="2.5"
       x2="16.999996"
       y2="29"
       gradientUnits="userSpaceOnUse"
       gradientTransform="translate(58.000004)" /><linearGradient
       x1="23.99999"
       y1="6.2399855"
       x2="23.999994"
       y2="38.799984"
       id="linearGradient4161-0-2"
       xlink:href="#linearGradient4-6"
       gradientUnits="userSpaceOnUse"
       gradientTransform="matrix(0.67567568,0,0,0.67567568,57.783787,-0.21620614)" /></defs><path
     id="rect5505-21-3"
     style="color:#000000;display:inline;overflow:visible;visibility:visible;fill:url(#linearGradient882);fill-rule:nonzero;stroke:none;stroke-width:1;marker:none;enable-background:accumulate"
     d="m 22.5,16.009766 c -5.266282,0 -9.490234,4.223952 -9.490234,9.490234 v 76 c 0,5.26628 4.223952,9.49023 9.490234,9.49023 h 58.509766 v 15.27735 L 96.289062,110.99023 H 105.5 c 5.26628,0 9.49023,-4.22395 9.49023,-9.49023 v -76 c 0,-5.266282 -4.22395,-9.490234 -9.49023,-9.490234 z" /><path
     id="rect6741-7"
     style="opacity:1;fill:none;stroke:url(#linearGradient3159-6);stroke-width:1;stroke-linecap:round;stroke-linejoin:round;stroke-miterlimit:4;stroke-dasharray:none;stroke-dashoffset:0;stroke-opacity:1"
     d="m 22.5,16.5 c -4.986,0 -9,4.014 -9,9 v 76 c 0,4.986 4.014,9 9,9 h 59 V 125 L 96,110.5 h 9.5 c 4.986,0 9,-4.014 9,-9 v -76 c 0,-4.986 -4.014,-9 -9,-9 z" /><path
     id="rect5505-21-6"
     style="color:#000000;display:inline;overflow:visible;visibility:visible;opacity:0.5;fill:none;stroke:#555761;stroke-width:1;stroke-linecap:round;stroke-linejoin:round;stroke-miterlimit:4;stroke-dasharray:none;stroke-dashoffset:0;stroke-opacity:1;marker:none;enable-background:accumulate"
     d="m 22.5,15.5 c -5.54,0 -10,4.46 -10,10 v 76 c 0,5.54 4.46,10 10,10 h 58 v 16 l 16,-16 h 9 c 5.54,0 10,-4.46 10,-10 v -76 c 0,-5.54 -4.46,-10 -10,-10 z" /><path
     id="path30-0"
     style="opacity:0.15;fill:#000000;fill-opacity:1;stroke:#000000;stroke-width:2;stroke-linecap:round;stroke-linejoin:round;stroke-dasharray:none;stroke-opacity:1"
     d="m 54,26 a 8,8 0 0 0 -8,8 8,8 0 0 0 8,8 h 8 v -8 a 8,8 0 0 0 -8,-8 z m 19.85937,0 C 69.50615,26 66,29.568004 66,34 v 20 c 0,4.431996 3.50615,8 7.85937,8 h 0.28125 C 78.49384,62 82,58.431996 82,54 V 34 c 0,-4.431996 -3.50616,-8 -7.85938,-8 z M 34,46 c -4.432,0 -8,3.568004 -8,8 0,4.431996 3.568,8 8,8 h 20 c 4.432,0 8,-3.568004 8,-8 0,-4.431996 -3.568,-8 -8,-8 z m 60,0 a 8,8 0 0 0 -8,8 v 8 h 8 a 8,8 0 0 0 8,-8 8,8 0 0 0 -8,-8 z M 34,66 a 8,8 0 0 0 -8,8 8,8 0 0 0 8,8 8,8 0 0 0 8,-8 v -8 z m 19.96484,0 C 49.5518,66 46,69.568004 46,74 v 20 c 0,4.432 3.5518,8 7.96484,8 h 0.0703 C 58.44812,102 62,98.432 62,94 V 74 c 0,-4.431996 -3.5518,-8 -7.96484,-8 z M 74,66 c -4.432,0 -8,3.499374 -8,7.847656 v 0.304688 C 66,78.500626 69.568,82 74,82 h 20 c 4.432,0 8,-3.499374 8,-7.847656 V 73.847656 C 102,69.499374 98.432,66 94,66 Z m -8,20 v 8 a 8,8 0 0 0 8,8 8,8 0 0 0 8,-8 8,8 0 0 0 -8,-8 z" /><path
     id="path17-6"
     style="opacity:0.15;fill:#000000;fill-opacity:1;stroke:none;stroke-width:4;stroke-linecap:round;stroke-linejoin:round;stroke-opacity:1"
     d="m 54,26 a 8,8 0 0 0 -8,8 8,8 0 0 0 8,8 h 8 v -8 a 8,8 0 0 0 -8,-8 z m 19.85937,0 C 69.50615,26 66,29.568004 66,34 v 20 c 0,4.431996 3.50615,8 7.85937,8 h 0.28125 C 78.49384,62 82,58.431996 82,54 V 34 c 0,-4.431996 -3.50616,-8 -7.85938,-8 z M 34,46 c -4.432,0 -8,3.568004 -8,8 0,4.431996 3.568,8 8,8 h 20 c 4.432,0 8,-3.568004 8,-8 0,-4.431996 -3.568,-8 -8,-8 z m 60,0 a 8,8 0 0 0 -8,8 v 8 h 8 a 8,8 0 0 0 8,-8 8,8 0 0 0 -8,-8 z M 34,66 a 8,8 0 0 0 -8,8 8,8 0 0 0 8,8 8,8 0 0 0 8,-8 v -8 z m 19.96484,0 C 49.5518,66 46,69.568004 46,74 v 20 c 0,4.432 3.5518,8 7.96484,8 h 0.0703 C 58.44812,102 62,98.432 62,94 V 74 c 0,-4.431996 -3.5518,-8 -7.96484,-8 z M 74,66 c -4.432,0 -8,3.499374 -8,7.847656 v 0.304688 C 66,78.500626 69.568,82 74,82 h 20 c 4.432,0 8,-3.499374 8,-7.847656 V 73.847656 C 102,69.499374 98.432,66 94,66 Z m -8,20 v 8 a 8,8 0 0 0 8,8 8,8 0 0 0 8,-8 8,8 0 0 0 -8,-8 z" /><path
     id="rect7-0-2"
     style="fill:#1ab9ff;fill-opacity:1;stroke:none;stroke-width:4;stroke-linecap:round;stroke-linejoin:round;stroke-opacity:1"
     d="m 54,25 a 8,8 0 0 0 -8,8 8,8 0 0 0 8,8 h 8 V 33 A 8,8 0 0 0 54,25 Z M 34,45 c -4.432,0 -8,3.568004 -8,8 0,4.431996 3.568,8 8,8 h 20 c 4.432,0 8,-3.568004 8,-8 0,-4.431996 -3.568,-8 -8,-8 z" /><path
     id="rect8-9-6"
     style="fill:#e3066a;fill-opacity:1;stroke:none;stroke-width:4;stroke-linecap:round;stroke-linejoin:round;stroke-opacity:1"
     d="m 34,65 a 8,8 0 0 0 -8,8 8,8 0 0 0 8,8 8,8 0 0 0 8,-8 v -8 z m 19.96484,0 C 49.5518,65 46,68.568004 46,73 v 20 c 0,4.432 3.5518,8 7.96484,8 h 0.0704 C 58.4482,101 62,97.432 62,93 V 73 c 0,-4.431996 -3.5518,-8 -7.96484,-8 z" /><path
     id="rect9-3-1"
     style="fill:#fcc003;fill-opacity:1;stroke:none;stroke-width:4;stroke-linecap:round;stroke-linejoin:round;stroke-opacity:1"
     d="m 74,65 c -4.432,0 -8,3.499374 -8,7.847656 v 0.304688 C 66,77.500626 69.568,81 74,81 h 20 c 4.432,0 8,-3.499374 8,-7.847656 V 72.847656 C 102,68.499374 98.432,65 94,65 Z m -8,20 v 8 a 8,8 0 0 0 8,8 8,8 0 0 0 8,-8 8,8 0 0 0 -8,-8 z" /><path
     id="rect6-6-8"
     style="fill:#41b658;fill-opacity:1;stroke:none;stroke-width:4;stroke-linecap:round;stroke-linejoin:round;stroke-opacity:1"
     d="M 73.85938,25 C 69.50616,25 66,28.568004 66,33 v 20 c 0,4.431996 3.50616,8 7.85938,8 h 0.28124 C 78.49384,61 82,57.431996 82,53 V 33 c 0,-4.431996 -3.50616,-8 -7.85938,-8 z M 94,45 a 8,8 0 0 0 -8,8 v 8 h 8 a 8,8 0 0 0 8,-8 8,8 0 0 0 -8,-8 z" /><path
     id="path7"
     style="opacity:0.25;fill:#ffffff;fill-opacity:1;stroke:none;stroke-width:4;stroke-linecap:round;stroke-linejoin:round;stroke-opacity:1"
     d="m 54,25 a 8,8 0 0 0 -8,8 8,8 0 0 0 0.0625,1 8,8 0 0 1 7.9375,-7 8,8 0 0 1 8,8 v -2 a 8,8 0 0 0 -8,-8 z m 19.85938,0 C 69.50616,25 66,28.568004 66,33 v 2 c 0,-4.431996 3.50616,-8 7.85938,-8 h 0.28125 C 78.49384,27 82,30.568004 82,35 v -2 c 0,-4.431996 -3.50616,-8 -7.85937,-8 z M 34,45 c -4.432,0 -8,3.568004 -8,8 0,0.338784 0.0201,0.67252 0.0606,1 0.48919,-3.956628 3.84624,-7 7.93945,-7 h 20 c 4.09322,0 7.45026,3.043372 7.93945,7 0.0405,-0.32748 0.0606,-0.661216 0.0606,-1 0,-4.431996 -3.568,-8 -8,-8 z m 60,0 a 8,8 0 0 0 -8,8 v 2 a 8,8 0 0 1 8,-8 8,8 0 0 1 7.9375,7 A 8,8 0 0 0 102,53 8,8 0 0 0 94,45 Z M 34,65 a 8,8 0 0 0 -8,8 8,8 0 0 0 0.0625,1 A 8,8 0 0 1 34,67 h 8 v -2 z m 19.96484,0 C 49.5518,65 46,68.568004 46,73 v 2 c 0,-4.431996 3.5518,-8 7.96484,-8 h 0.0703 C 58.4482,67 62,70.568004 62,75 v -2 c 0,-4.431996 -3.5518,-8 -7.96484,-8 z M 74,65 c -4.432,0 -8,3.499374 -8,7.847656 v 0.304688 c 0,0.286489 0.0147,0.569294 0.0449,0.847656 0.42822,-3.946553 3.81509,-7 7.95508,-7 h 20 c 4.13999,0 7.52686,3.053447 7.95508,7 C 101.98528,73.721639 102,73.438833 102,73.152344 V 72.847656 C 102,68.499374 98.432,65 94,65 Z m -8,20 v 2 h 8 A 8,8 0 0 1 81.9375,94 8,8 0 0 0 82,93 8,8 0 0 0 74,85 Z" /><path
     id="path8"
     style="opacity:0.25;mix-blend-mode:luminosity;fill:#ffffff;fill-opacity:1;stroke:none;stroke-width:4;stroke-linecap:round;stroke-linejoin:round;stroke-opacity:1"
     d="m 54,25 a 8,8 0 0 0 -8,8 8,8 0 0 0 0.01563,0.5 A 8,8 0 0 1 54,26 a 8,8 0 0 1 8,8 v -1 a 8,8 0 0 0 -8,-8 z m 19.859375,0 C 69.506155,25 66,28.568004 66,33 v 1 c 0,-4.431996 3.506155,-8 7.859375,-8 h 0.28125 C 78.493845,26 82,29.568004 82,34 v -1 c 0,-4.431996 -3.506155,-8 -7.859375,-8 z M 34,45 c -4.432,0 -8,3.568004 -8,8 0,0.167956 0.0055,0.334672 0.01563,0.5 C 26.272069,49.302699 29.735957,46 34,46 h 20 c 4.264043,0 7.727931,3.302699 7.984375,7.5 C 61.994476,53.334672 62,53.167956 62,53 62,48.568004 58.432,45 54,45 Z m 60,0 a 8,8 0 0 0 -8,8 v 1 a 8,8 0 0 1 8,-8 8,8 0 0 1 7.98438,7.5 A 8,8 0 0 0 102,53 8,8 0 0 0 94,45 Z M 34,65 a 8,8 0 0 0 -8,8 8,8 0 0 0 0.01563,0.5 A 8,8 0 0 1 34,66 h 8 v -1 z m 19.964844,0 C 49.551804,65 46,68.568004 46,73 v 1 c 0,-4.431996 3.551804,-8 7.964844,-8 h 0.07031 C 58.448196,66 62,69.568004 62,74 v -1 c 0,-4.431996 -3.551804,-8 -7.964844,-8 z M 74,65 c -4.432,0 -8,3.499374 -8,7.847656 v 0.304688 C 66,73.268856 66.0027,73.384758 66.0078,73.5 66.192008,69.314355 69.686755,66 74,66 h 20 c 4.313245,0 7.80799,3.314356 7.99219,7.5 0.005,-0.115242 0.008,-0.231145 0.008,-0.347656 V 72.847656 C 102,68.499374 98.432,65 94,65 Z m -8,20 v 1 h 8 A 8,8 0 0 1 81.984375,93.5 8,8 0 0 0 82,93 8,8 0 0 0 74,85 Z" /><path
     id="path1"
     style="opacity:0.15;fill:#000000;fill-opacity:1;stroke:none;stroke-width:4;stroke-linecap:round;stroke-linejoin:round;stroke-opacity:1"
     d="M 46.0625,32 A 8,8 0 0 0 46,33 a 8,8 0 0 0 8,8 h 8 V 39 H 54 A 8,8 0 0 1 46.0625,32 Z M 66,51 v 2 c 0,4.431996 3.506155,8 7.859375,8 h 0.28125 C 78.493845,61 82,57.431996 82,53 v -2 c 0,4.431996 -3.506155,8 -7.859375,8 h -0.28125 C 69.506155,59 66,55.431996 66,51 Z M 26.060547,52 C 26.020058,52.32748 26,52.661216 26,53 c 0,4.431996 3.568,8 8,8 h 20 c 4.432,0 8,-3.568004 8,-8 0,-0.338784 -0.02006,-0.67252 -0.06055,-1 C 61.450262,55.956628 58.093215,59 54,59 H 34 c -4.093215,0 -7.450262,-3.043372 -7.939453,-7 z M 101.9375,52 A 8,8 0 0 1 94,59 h -8 v 2 h 8 a 8,8 0 0 0 8,-8 8,8 0 0 0 -0.0625,-1 z M 42,71 A 8,8 0 0 1 34,79 8,8 0 0 1 26.0625,72 8,8 0 0 0 26,73 a 8,8 0 0 0 8,8 8,8 0 0 0 8,-8 z m 24.044922,1 C 66.014718,72.278361 66,72.561167 66,72.847656 v 0.304688 C 66,77.500626 69.568,81 74,81 h 20 c 4.432,0 8,-3.499374 8,-7.847656 V 72.847656 C 102,72.561167 101.98528,72.278362 101.95508,72 101.52686,75.946553 98.139995,79 94,79 H 74 c -4.139994,0 -7.526859,-3.053447 -7.955078,-7 z M 46,91 v 2 c 0,4.432 3.551804,8 7.964844,8 h 0.07031 C 58.448116,101 62,97.432 62,93 v -2 c 0,4.432 -3.551882,8 -7.964844,8 h -0.07031 C 49.551804,99 46,95.432 46,91 Z m 20,0 v 2 a 8,8 0 0 0 8,8 8,8 0 0 0 8,-8 A 8,8 0 0 0 81.9375,92 8,8 0 0 1 74,99 8,8 0 0 1 66,91 Z" /><path
     id="path4"
     style="fill:#000000;fill-opacity:1;stroke:none;stroke-width:4;stroke-linecap:round;stroke-linejoin:round;stroke-opacity:1;opacity:0.15"
     d="M 46.015625 32.5 A 8 8 0 0 0 46 33 A 8 8 0 0 0 54 41 L 62 41 L 62 40 L 54 40 A 8 8 0 0 1 46.015625 32.5 z M 66 52 L 66 53 C 66 57.431996 69.506155 61 73.859375 61 L 74.140625 61 C 78.493845 61 82 57.431996 82 53 L 82 52 C 82 56.431996 78.493845 60 74.140625 60 L 73.859375 60 C 69.506155 60 66 56.431996 66 52 z M 26.015625 52.5 C 26.005524 52.665328 26 52.832043 26 53 C 26 57.431996 29.568 61 34 61 L 54 61 C 58.432 61 62 57.431996 62 53 C 62 52.832043 61.994476 52.665328 61.984375 52.5 C 61.727931 56.697301 58.264043 60 54 60 L 34 60 C 29.735957 60 26.272069 56.697301 26.015625 52.5 z M 101.98438 52.5 A 8 8 0 0 1 94 60 L 86 60 L 86 61 L 94 61 A 8 8 0 0 0 102 53 A 8 8 0 0 0 101.98438 52.5 z M 42 72 A 8 8 0 0 1 34 80 A 8 8 0 0 1 26.015625 72.5 A 8 8 0 0 0 26 73 A 8 8 0 0 0 34 81 A 8 8 0 0 0 42 73 L 42 72 z M 66.007812 72.5 C 66.002741 72.615242 66 72.731145 66 72.847656 L 66 73.152344 C 66 77.500626 69.568 81 74 81 L 94 81 C 98.432 81 102 77.500626 102 73.152344 L 102 72.847656 C 102 72.731144 101.99726 72.615242 101.99219 72.5 C 101.80799 76.685645 98.313245 80 94 80 L 74 80 C 69.686755 80 66.192008 76.685644 66.007812 72.5 z M 46 92 L 46 93 C 46 97.432 49.551804 101 53.964844 101 L 54.035156 101 C 58.448116 101 62 97.432 62 93 L 62 92 C 62 96.432 58.448118 100 54.035156 100 L 53.964844 100 C 49.551804 100 46 96.432 46 92 z M 66 92 L 66 93 A 8 8 0 0 0 74 101 A 8 8 0 0 0 82 93 A 8 8 0 0 0 81.984375 92.5 A 8 8 0 0 1 74 100 A 8 8 0 0 1 66 92 z " /></svg>
