<?xml version="1.0" encoding="UTF-8" standalone="no"?>
<svg
   version="1.1"
   width="16"
   height="16"
   id="svg4372"
   xml:space="preserve"
   sodipodi:docname="discord.svg"
   inkscape:version="1.4.2 (ebf0e940d0, 2025-05-08)"
   xmlns:inkscape="http://www.inkscape.org/namespaces/inkscape"
   xmlns:sodipodi="http://sodipodi.sourceforge.net/DTD/sodipodi-0.dtd"
   xmlns:xlink="http://www.w3.org/1999/xlink"
   xmlns="http://www.w3.org/2000/svg"
   xmlns:svg="http://www.w3.org/2000/svg"
   xmlns:rdf="http://www.w3.org/1999/02/22-rdf-syntax-ns#"
   xmlns:cc="http://creativecommons.org/ns#"
   xmlns:dc="http://purl.org/dc/elements/1.1/"><sodipodi:namedview
     id="namedview1"
     pagecolor="#ffffff"
     bordercolor="#000000"
     borderopacity="0.25"
     inkscape:showpageshadow="2"
     inkscape:pageopacity="0.0"
     inkscape:pagecheckerboard="0"
     inkscape:deskcolor="#d1d1d1"
     inkscape:current-layer="svg4372"
     showgrid="false"><inkscape:page
       x="0"
       y="0"
       width="16"
       height="16"
       id="page1"
       margin="0"
       bleed="0" /><inkscape:grid
       id="grid2"
       units="px"
       originx="0"
       originy="0"
       spacingx="0.5"
       spacingy="0.5"
       empcolor="#0099e5"
       empopacity="0.30196078"
       color="#0099e5"
       opacity="0.0784314"
       empspacing="2"
       enabled="true"
       visible="false" /></sodipodi:namedview><defs
     id="defs4374"><linearGradient
       id="linearGradient10"><stop
         offset="0"
         style="stop-color:#ffffff;stop-opacity:1"
         id="stop7" /><stop
         offset="0.20833333"
         style="stop-color:#ffffff;stop-opacity:0.23529412"
         id="stop8" /><stop
         offset="0.80000335"
         style="stop-color:#ffffff;stop-opacity:0.15686275"
         id="stop9" /><stop
         offset="1"
         style="stop-color:#ffffff;stop-opacity:0.39215687"
         id="stop10" /></linearGradient><style
       id="style1">.g{fill:#000;}.g,.h,.i{stroke-width:0px;}.h{fill:url(#e);}.i{fill:#fff;}</style><style
       id="style1-7">.g{fill:#000;}.g,.h,.i{stroke-width:0px;}.h{fill:url(#e);}.i{fill:#fff;}</style><style
       id="style1-5">.g{fill:#000;}.g,.h,.i{stroke-width:0px;}.h{fill:url(#e);}.i{fill:#fff;}</style><style
       id="style1-53">.g{fill:#000;}.g,.h,.i{stroke-width:0px;}.h{fill:url(#e);}.i{fill:#fff;}</style><style
       id="style1-6">.cls-1{fill:#fff;}</style><style
       id="style1-67">.cls-1{fill:#fff;}</style><linearGradient
       id="linearGradient2"><stop
         style="stop-color:#5865f2;stop-opacity:1;"
         offset="0"
         id="stop3-3" /><stop
         style="stop-color:#1f30f4;stop-opacity:1;"
         offset="1"
         id="stop4-5" /></linearGradient><style
       id="style1-675">.g{fill:#000;}.g,.h,.i{stroke-width:0px;}.h{fill:url(#e);}.i{fill:#fff;}</style><style
       id="style1-6-3">.cls-1{fill:#fff;}</style><linearGradient
       xlink:href="#linearGradient10"
       id="linearGradient7"
       x1="8"
       y1="2"
       x2="8"
       y2="14"
       gradientUnits="userSpaceOnUse"
       gradientTransform="translate(0,-17)" /><linearGradient
       xlink:href="#linearGradient2"
       id="linearGradient12"
       x1="8"
       y1="1"
       x2="8"
       y2="15"
       gradientUnits="userSpaceOnUse"
       gradientTransform="translate(0,-17)" /><inkscape:path-effect
       effect="offset"
       id="path-effect2"
       is_visible="true"
       lpeversion="1.3"
       linejoin_type="miter"
       unit="px"
       offset="-0.5"
       miter_limit="4"
       attempt_force_join="false"
       update_on_knot_move="true" /><linearGradient
       x1="23.999985"
       y1="7.1818104"
       x2="23.999985"
       y2="40.818172"
       id="linearGradient3304"
       xlink:href="#linearGradient3924-4-8"
       gradientUnits="userSpaceOnUse"
       gradientTransform="matrix(0.2972973,0,0,0.2972973,0.86486906,0.8648672)" /><linearGradient
       id="linearGradient3924-4-8"><stop
         id="stop3926-0-4"
         style="stop-color:#ffffff;stop-opacity:1"
         offset="0" /><stop
         id="stop3928-6-8"
         style="stop-color:#ffffff;stop-opacity:0.23529412"
         offset="0.0469543" /><stop
         id="stop3930-2-1"
         style="stop-color:#ffffff;stop-opacity:0.15686275"
         offset="0.95000005" /><stop
         id="stop3932-9-0"
         style="stop-color:#ffffff;stop-opacity:0.39215687"
         offset="1" /></linearGradient><linearGradient
       xlink:href="#linearGradient4-6"
       id="linearGradient867"
       x1="8"
       y1="2"
       x2="8"
       y2="14"
       gradientUnits="userSpaceOnUse" /><style
       id="style1-8">.g{fill:#000;}.g,.h,.i{stroke-width:0px;}.h{fill:url(#e);}.i{fill:#fff;}</style><style
       id="style1-7-7">.g{fill:#000;}.g,.h,.i{stroke-width:0px;}.h{fill:url(#e);}.i{fill:#fff;}</style><style
       id="style1-5-9">.g{fill:#000;}.g,.h,.i{stroke-width:0px;}.h{fill:url(#e);}.i{fill:#fff;}</style><linearGradient
       id="linearGradient4-6"><stop
         style="stop-color:#fafafa;stop-opacity:1;"
         offset="0"
         id="stop4-7" /><stop
         style="stop-color:#d4d4d4;stop-opacity:1;"
         offset="1"
         id="stop5" /></linearGradient><style
       id="style1-53-2">.g{fill:#000;}.g,.h,.i{stroke-width:0px;}.h{fill:url(#e);}.i{fill:#fff;}</style><style
       id="style1-6-0">.cls-1{fill:#fff;}</style><style
       id="style1-67-23">.cls-1{fill:#fff;}</style><style
       id="style1-535">.g{fill:#000;}.g,.h,.i{stroke-width:0px;}.h{fill:url(#e);}.i{fill:#fff;}</style><style
       id="style1-7-6">.g{fill:#000;}.g,.h,.i{stroke-width:0px;}.h{fill:url(#e);}.i{fill:#fff;}</style><style
       id="style1-5-2">.g{fill:#000;}.g,.h,.i{stroke-width:0px;}.h{fill:url(#e);}.i{fill:#fff;}</style><style
       id="style1-53-9">.g{fill:#000;}.g,.h,.i{stroke-width:0px;}.h{fill:url(#e);}.i{fill:#fff;}</style><style
       id="style1-6-1">.cls-1{fill:#fff;}</style><style
       id="style1-67-2">.cls-1{fill:#fff;}</style><style
       id="style1-675-9">.g{fill:#000;}.g,.h,.i{stroke-width:0px;}.h{fill:url(#e);}.i{fill:#fff;}</style><style
       id="style1-6-3-7">.cls-1{fill:#fff;}</style><linearGradient
       xlink:href="#linearGradient10"
       id="linearGradient7-3"
       x1="8"
       y1="2"
       x2="8"
       y2="14"
       gradientUnits="userSpaceOnUse"
       gradientTransform="translate(0,-18)" /><linearGradient
       xlink:href="#linearGradient4-6"
       id="linearGradient12-6"
       x1="8"
       y1="1"
       x2="8"
       y2="15"
       gradientUnits="userSpaceOnUse"
       gradientTransform="translate(0,-18)" /><linearGradient
       id="linearGradient877"><stop
         id="stop869"
         style="stop-color:#cd9ef7;stop-opacity:1"
         offset="0" /><stop
         id="stop875"
         style="stop-color:#a56de2;stop-opacity:1"
         offset="1" /></linearGradient><linearGradient
       x1="23.999985"
       y1="7.1818104"
       x2="23.999985"
       y2="37.454536"
       id="linearGradient3304-8"
       xlink:href="#linearGradient3924-4-8-7"
       gradientUnits="userSpaceOnUse"
       gradientTransform="matrix(0.2972973,0,0,0.2972973,0.864869,0.8648672)" /><linearGradient
       id="linearGradient3924-4-8-7"><stop
         id="stop3926-0-4-9"
         style="stop-color:#ffffff;stop-opacity:1"
         offset="0" /><stop
         id="stop3928-6-8-2"
         style="stop-color:#ffffff;stop-opacity:0.23529412"
         offset="0.05555555" /><stop
         id="stop3930-2-1-0"
         style="stop-color:#ffffff;stop-opacity:0.15686275"
         offset="0.94444448" /><stop
         id="stop3932-9-0-2"
         style="stop-color:#ffffff;stop-opacity:0.39215687"
         offset="1" /></linearGradient><linearGradient
       xlink:href="#linearGradient2"
       id="linearGradient867-3"
       x1="8"
       y1="1.5"
       x2="8"
       y2="13"
       gradientUnits="userSpaceOnUse" /></defs><metadata
     id="metadata4377"><rdf:RDF><cc:Work
         rdf:about=""><dc:format>image/svg+xml</dc:format><dc:type
           rdf:resource="http://purl.org/dc/dcmitype/StillImage" /></cc:Work></rdf:RDF></metadata><path
     id="rect5505-21-2"
     style="color:#000000;display:inline;overflow:visible;visibility:visible;fill:url(#linearGradient867-3);fill-opacity:1;fill-rule:nonzero;stroke:none;stroke-width:1;marker:none;enable-background:accumulate"
     d="m 3.5,1.5 c -1.108,0 -2,0.892 -2,2 v 8 c 0,1.108 0.892,2 2,2 h 7 v 2 l 2,-2 c 1.108,0 2,-0.892 2,-2 v -8 c 0,-1.108 -0.892,-2 -2,-2 z" /><rect
     width="11"
     height="10.000003"
     x="2.5"
     y="2.4999969"
     id="rect6741-0-3-5"
     style="opacity:0.5;fill:none;stroke:url(#linearGradient3304-8);stroke-width:1;stroke-linecap:round;stroke-linejoin:round;stroke-miterlimit:4;stroke-dasharray:none;stroke-dashoffset:0;stroke-opacity:1"
     rx="1"
     ry="1" /><path
     id="rect5505-21-2-8"
     style="color:#000000;display:inline;overflow:visible;visibility:visible;opacity:0.5;fill:none;stroke:#0a0f9f;stroke-width:1;stroke-linecap:round;stroke-linejoin:round;stroke-miterlimit:4;stroke-dasharray:none;stroke-dashoffset:0;stroke-opacity:1;marker:none;enable-background:accumulate"
     d="m 3.5,1.5 c -1.108,0 -2,0.892 -2,2 v 8 c 0,1.108 0.892,2 2,2 h 7 v 2 l 2,-2 c 1.108,0 2,-0.892 2,-2 v -8 c 0,-1.108 -0.892,-2 -2,-2 z" /><path
     class="cls-1"
     d="m 11.297404,5.4766489 a 7.8568734,7.8568734 0 0 0 -1.9599231,-0.6029954 5.384368,5.384368 0 0 0 -0.25106,0.5103416 7.2987104,7.2987104 0 0 0 -2.1751172,0 A 5.4075315,5.4075315 0 0 0 6.6602424,4.8736535 7.9121667,7.9121668 0 0 0 4.6988274,5.4781434 C 3.4584649,7.3132819 3.1222216,9.1028406 3.2903412,10.866995 v 0 a 7.9002114,7.9002114 0 0 0 2.4037625,1.206737 5.8057924,5.8057924 0 0 0 0.5148262,-0.830146 5.112385,5.112385 0 0 1 -0.8107187,-0.387052 c 0.067995,-0.04932 0.1344975,-0.100126 0.1987562,-0.149442 a 5.6466375,5.6466375 0 0 0 4.8060316,0 c 0.06501,0.05305 0.131507,0.103862 0.198755,0.149442 a 5.1318121,5.1318121 0 0 1 -0.8122131,0.3878 5.7534879,5.7534879 0 0 0 0.5148271,0.829399 7.8643454,7.8643454 0 0 0 2.405257,-1.205991 v 0 C 12.906886,8.821891 12.372636,7.0487708 11.297404,5.4766489 Z M 6.4218837,9.782051 c -0.4684988,0 -0.8555513,-0.4251602 -0.8555513,-0.9482046 0,-0.5230441 0.3736038,-0.9519408 0.8540563,-0.9519408 0.4804537,0 0.8645192,0.4288967 0.8562992,0.9519408 -0.0082,0.5230444 -0.3773405,0.9482046 -0.8548042,0.9482046 z m 3.1561972,0 c -0.469243,0 -0.854802,-0.4251602 -0.854802,-0.9482046 0,-0.5230441 0.373602,-0.9519408 0.854802,-0.9519408 0.4812021,0 0.8622781,0.4288967 0.8540581,0.9519408 -0.0082,0.5230444 -0.376591,0.9482046 -0.8540581,0.9482046 z"
     id="path3"
     style="opacity:0.15;fill:#000000;stroke:#000000;stroke-width:2;stroke-dasharray:none;stroke-opacity:1" /><path
     class="cls-1"
     d="m 11.297404,5.4766489 a 7.8568734,7.8568734 0 0 0 -1.9599231,-0.6029954 5.384368,5.384368 0 0 0 -0.25106,0.5103416 7.2987104,7.2987104 0 0 0 -2.1751172,0 A 5.4075315,5.4075315 0 0 0 6.6602424,4.8736535 7.9121667,7.9121668 0 0 0 4.6988274,5.4781434 C 3.4584649,7.3132819 3.1222216,9.1028406 3.2903412,10.866995 v 0 a 7.9002114,7.9002114 0 0 0 2.4037625,1.206737 5.8057924,5.8057924 0 0 0 0.5148262,-0.830146 5.112385,5.112385 0 0 1 -0.8107187,-0.387052 c 0.067995,-0.04932 0.1344975,-0.100126 0.1987562,-0.149442 a 5.6466375,5.6466375 0 0 0 4.8060316,0 c 0.06501,0.05305 0.131507,0.103862 0.198755,0.149442 a 5.1318121,5.1318121 0 0 1 -0.8122131,0.3878 5.7534879,5.7534879 0 0 0 0.5148271,0.829399 7.8643454,7.8643454 0 0 0 2.405257,-1.205991 v 0 C 12.906886,8.821891 12.372636,7.0487708 11.297404,5.4766489 Z M 6.4218837,9.782051 c -0.4684988,0 -0.8555513,-0.4251602 -0.8555513,-0.9482046 0,-0.5230441 0.3736038,-0.9519408 0.8540563,-0.9519408 0.4804537,0 0.8645192,0.4288967 0.8562992,0.9519408 -0.0082,0.5230444 -0.3773405,0.9482046 -0.8548042,0.9482046 z m 3.1561972,0 c -0.469243,0 -0.854802,-0.4251602 -0.854802,-0.9482046 0,-0.5230441 0.373602,-0.9519408 0.854802,-0.9519408 0.4812021,0 0.8622781,0.4288967 0.8540581,0.9519408 -0.0082,0.5230444 -0.376591,0.9482046 -0.8540581,0.9482046 z"
     id="path2"
     style="opacity:0.15;fill:#000000;stroke-width:0.0747205" /><path
     class="cls-1"
     d="m 11.297404,4.4766489 a 7.8568734,7.8568734 0 0 0 -1.9599231,-0.6029954 5.384368,5.384368 0 0 0 -0.25106,0.5103416 7.2987104,7.2987104 0 0 0 -2.1751172,0 A 5.4075315,5.4075315 0 0 0 6.6602424,3.8736535 7.9121667,7.9121668 0 0 0 4.6988274,4.4781434 C 3.4584649,6.3132819 3.1222216,8.1028406 3.2903412,9.866995 v 0 A 7.9002114,7.9002114 0 0 0 5.6941037,11.073732 5.8057924,5.8057924 0 0 0 6.2089299,10.243586 5.112385,5.112385 0 0 1 5.3982112,9.856534 C 5.4662062,9.807214 5.5327087,9.756408 5.5969674,9.707092 a 5.6466375,5.6466375 0 0 0 4.8060316,0 c 0.06501,0.05305 0.131507,0.103862 0.198755,0.149442 a 5.1318121,5.1318121 0 0 1 -0.8122131,0.3878 5.7534879,5.7534879 0 0 0 0.5148271,0.829399 7.8643454,7.8643454 0 0 0 2.405257,-1.205991 v 0 C 12.906886,7.821891 12.372636,6.0487708 11.297404,4.4766489 Z M 6.4218837,8.782051 c -0.4684988,0 -0.8555513,-0.4251602 -0.8555513,-0.9482046 0,-0.5230441 0.3736038,-0.9519408 0.8540563,-0.9519408 0.4804537,0 0.8645192,0.4288967 0.8562992,0.9519408 -0.0082,0.5230444 -0.3773405,0.9482046 -0.8548042,0.9482046 z m 3.1561972,0 c -0.469243,0 -0.854802,-0.4251602 -0.854802,-0.9482046 0,-0.5230441 0.373602,-0.9519408 0.854802,-0.9519408 0.4812021,0 0.8622781,0.4288967 0.8540581,0.9519408 -0.0082,0.5230444 -0.376591,0.9482046 -0.8540581,0.9482046 z"
     id="path1-5-2"
     style="fill:#d4d4d4;stroke-width:0.0747205" /><path
     id="path1"
     style="fill:#ffffff;stroke-width:0.0747205"
     class="cls-1"
     d="M 6.6601562,3.8740836 C 5.9830872,3.989295 5.3239007,4.1921721 4.6992188,4.4775992 3.7693972,5.8532869 3.3476994,7.2032339 3.265625,8.536193 c 3.81e-5,6.498e-4 -3.82e-5,0.0013 0,0.00195 0.00646,0.1098121 0.014945,0.218514 0.025391,0.328125 0.7259358,0.5366465 1.5384804,0.944901 2.4023438,1.207031 0.00983,-0.01493 0.0196,-0.0299 0.029297,-0.04492 C 5.6125613,9.974987 5.5044187,9.917658 5.3984375,9.856505 L 5.5976562,8.708068 c 1.52168,0.7153655 3.2830078,0.7153655 4.8046878,0 l 0.199218,1.148437 c -0.106601,0.06184 -0.215395,0.119821 -0.326171,0.173829 0.0097,0.01437 0.01947,0.02869 0.0293,0.04297 0.864681,-0.2606616 1.678003,-0.6683138 2.404296,-1.2050774 0.01005,-0.1042481 0.01716,-0.2077055 0.02344,-0.3105468 C 12.642487,7.0526649 12.135627,5.7039534 11.29688,4.4776012 10.673037,4.1917425 10.014439,3.9888443 9.3378906,3.8740836 9.2449861,4.0394491 9.1608844,4.2096081 9.0859375,4.3838492 8.3653907,4.2753364 7.6326562,4.2753364 6.9121094,4.3838492 6.8371234,4.2096262 6.7530228,4.0394691 6.6601562,3.8740836 Z M 6.4199219,5.8818961 c 0.4804537,0 0.8656418,0.4281278 0.8574219,0.9511719 -0.00283,0.180424 -0.048597,0.3504444 -0.1269532,0.4941406 0.082707,0.1469671 0.129871,0.3201935 0.1269532,0.5058594 -0.0082,0.5230444 -0.3780051,0.9492187 -0.8554688,0.9492188 -0.4684988,0 -0.8554688,-0.4261744 -0.8554688,-0.9492188 0,-0.1840791 0.046032,-0.3557884 0.1269532,-0.5019531 C 5.612488,7.1865942 5.5664062,7.015092 5.5664062,6.833068 c 0,-0.5230441 0.3730632,-0.9511719 0.8535157,-0.9511719 z m 3.1582031,0 c 0.481202,0 0.861736,0.4281278 0.853516,0.9511719 -0.0028,0.1799647 -0.04908,0.3487298 -0.126953,0.4921875 0.08305,0.1474452 0.129886,0.3211915 0.126953,0.5078125 -0.0082,0.5230444 -0.376049,0.9492187 -0.853516,0.9492188 -0.469243,0 -0.8554688,-0.4261744 -0.8554688,-0.9492188 0,-0.1841979 0.047856,-0.355728 0.1289063,-0.5019531 C 8.7706137,7.1864177 8.7226562,7.0154371 8.7226562,6.833068 c 0,-0.5230441 0.3742688,-0.9511719 0.8554688,-0.9511719 z" /></svg>
