<svg height="16" viewBox="0 0 16 16" width="16" xmlns="http://www.w3.org/2000/svg" xmlns:xlink="http://www.w3.org/1999/xlink"><linearGradient id="a" x1="48.9045%" x2="48.9045%" y1=".395456%" y2="99.929117%"><stop offset="0" stop-color="#321d59"/><stop offset="1" stop-color="#1d1134"/></linearGradient><linearGradient id="b" x1="49.999998%" x2="49.999998%" y1="4.545483%" y2="95.454569%"><stop offset="0" stop-color="#fff"/><stop offset=".05" stop-color="#fff" stop-opacity=".235294"/><stop offset=".95010006" stop-color="#fff" stop-opacity=".156863"/><stop offset="1" stop-color="#fff" stop-opacity=".392157"/></linearGradient><linearGradient id="c" x1="96.813572%" x2="23.066513%" y1="0%" y2="84.181055%"><stop offset="0" stop-color="#ffea48"/><stop offset="1" stop-color="#ff3648"/></linearGradient><g fill="none" fill-rule="evenodd"><g transform="translate(1.499999 1.499999)"><rect fill="url(#a)" fill-rule="nonzero" height="13.000003" rx="2" width="13.000003"/><g stroke-linecap="round" stroke-linejoin="round"><rect height="11" opacity=".3" rx="1" stroke="url(#b)" width="11" x="1" y="1"/><rect height="13.000003" opacity=".5" rx="2" stroke="#1d1134" width="13.000003"/></g></g><g fill-rule="nonzero" transform="translate(4.022996 3.772753)"><path d="m7.70971384 2.77223788c-.17395218-.41871822-.52652192-.87076062-.80327917-1.0135547.2252714.4417119.35556892.88475677.40538856 1.21533256 0 0 0 .00233269.0008331.00666484-.45270888-1.12868971-1.2204978-1.58389791-1.8474921-2.57479216-.03182459-.04998626-.06348255-.09997252-.09447403-.15345782-.01749519-.03015837-.03165796-.05748419-.04398791-.08331043-.02597619-.05010289-.046054-.103055-.05981689-.15778995.00021661-.00536519-.00368232-.0100639-.00899752-.01083036-.00244933-.00066648-.00504862-.00066648-.00749794 0-.00066649.00029992-.00128298.00069981-.00183283.00116635-.00099973 0-.00199945.00116634-.00299918.00149959l.00166621-.00216607c-1.00589013.58917136-1.34712966 1.67903841-1.37845438 2.22438848-.40190618.02747578-.78633383.17553508-1.10286347.42471658-.03309091-.02797564-.0676814-.05411846-.10363818-.07831181-.09122492-.31934554-.09507386-.65738594-.0111636-.97873093-.4113869.18744847-.73129895.48320049-.96390168.74496187h-.00183283c-.15878968-.20111138-.14762608-.86442903-.13862855-1.00289096-.00183283-.00866429-.11830081.06048337-.13329669.07098048-.14011148.09995586-.27109214.21214168-.3913924.33524117-.1368957.13879518-.26196132.28877062-.37389721.44837674-.2575292.36494967-.44016233.77736962-.53735228 1.21333311-.00183283.00866428-.00349904.01766181-.00533186.02649271-.00749794.03515701-.03465714.2116085-.03948915.24993129v.00883091c-.03540693.18231655-.05745087.36698245-.06598186.55251477v.02049437c0 2.21139206 1.79284046 4.00423252 4.00423252 4.00423252 1.98062217 0 3.62500344-1.43793803 3.94708157-3.3267521.00666483-.05115261.01216332-.10280507.01816167-.15445754.07964477-.68681119-.0088309-1.40861275-.25976192-2.01211351zm-4.61539784 3.13447163c.03209169.03045977.06246419.06436781.09541547.09425287l.00458453.00574713c-.03295129-.03218391-.06647564-.06551724-.09971347-.1zm4.26034253-2.87119336v-.026z" fill="url(#c)"/><path d="m4.01173046 3.49137351c-.00649821.09997252-.35840147.44321149-.48153429.44321149-1.13868696 0-1.32346949.68881064-1.32346949.68881064.04998626.58017384.45420846 1.05787584.94324069 1.31063969.02232719.01149684.04482101.02182733.06664834.03215783.03915591.01666208.07847843.03332417.11763433.04815342.1677039.05915041.34333895.09285781.52102343.09997252 1.99578467.09364092 2.38267831-2.38634397.94224097-3.10647932.36873196-.06414904.7516267.08431015.96540127.23443555-.34990381-.61166518-1.00389069-1.02455168-1.75451767-1.02455168-.04748694 0-.09397416.00399891-.140628.0071647-.40160626.02782569-.78566735.17603494-1.10186375.42521644.06114985.05181909.13013089.12080012.27525766.26376082.27225848.26859283.96906692.54501683.97056651.5775079z" fill="#692fb4"/></g></g></svg>