<?xml version="1.0" encoding="UTF-8" standalone="no"?>
<svg
   version="1.1"
   width="16"
   height="16"
   id="svg4372"
   xml:space="preserve"
   sodipodi:docname="slack.svg"
   inkscape:version="1.4.2 (ebf0e940d0, 2025-05-08)"
   xmlns:inkscape="http://www.inkscape.org/namespaces/inkscape"
   xmlns:sodipodi="http://sodipodi.sourceforge.net/DTD/sodipodi-0.dtd"
   xmlns:xlink="http://www.w3.org/1999/xlink"
   xmlns="http://www.w3.org/2000/svg"
   xmlns:svg="http://www.w3.org/2000/svg"
   xmlns:rdf="http://www.w3.org/1999/02/22-rdf-syntax-ns#"
   xmlns:cc="http://creativecommons.org/ns#"
   xmlns:dc="http://purl.org/dc/elements/1.1/"><sodipodi:namedview
     id="namedview1"
     pagecolor="#ffffff"
     bordercolor="#000000"
     borderopacity="0.25"
     inkscape:showpageshadow="2"
     inkscape:pageopacity="0.0"
     inkscape:pagecheckerboard="0"
     inkscape:deskcolor="#d1d1d1"
     showgrid="false"
     inkscape:zoom="2.185"
     inkscape:cx="-7.3226545"
     inkscape:cy="7.5514874"
     inkscape:current-layer="svg4372"><inkscape:page
       x="0"
       y="0"
       width="16"
       height="16"
       id="page2"
       margin="0"
       bleed="0" /><inkscape:grid
       id="grid2"
       units="px"
       originx="-26"
       originy="0"
       spacingx="0.5"
       spacingy="0.5"
       empcolor="#0099e5"
       empopacity="0.30196078"
       color="#0099e5"
       opacity="0.0784314"
       empspacing="2"
       enabled="true"
       visible="false" /></sodipodi:namedview><defs
     id="defs4374"><inkscape:path-effect
       effect="offset"
       id="path-effect1"
       is_visible="true"
       lpeversion="1.3"
       linejoin_type="miter"
       unit="px"
       offset="-0.5"
       miter_limit="4"
       attempt_force_join="false"
       update_on_knot_move="true" /><inkscape:path-effect
       effect="offset"
       id="path-effect2"
       is_visible="true"
       lpeversion="1.3"
       linejoin_type="miter"
       unit="px"
       offset="-0.5"
       miter_limit="4"
       attempt_force_join="false"
       update_on_knot_move="true" /><linearGradient
       x1="23.999985"
       y1="7.1818104"
       x2="23.999985"
       y2="40.818172"
       id="linearGradient3304"
       xlink:href="#linearGradient3924-4-8"
       gradientUnits="userSpaceOnUse"
       gradientTransform="matrix(0.2972973,0,0,0.2972973,0.86486906,0.8648672)" /><linearGradient
       id="linearGradient3924-4-8"><stop
         id="stop3926-0-4"
         style="stop-color:#ffffff;stop-opacity:1"
         offset="0" /><stop
         id="stop3928-6-8"
         style="stop-color:#ffffff;stop-opacity:0.23529412"
         offset="0.0469543" /><stop
         id="stop3930-2-1"
         style="stop-color:#ffffff;stop-opacity:0.15686275"
         offset="0.95000005" /><stop
         id="stop3932-9-0"
         style="stop-color:#ffffff;stop-opacity:0.39215687"
         offset="1" /></linearGradient><linearGradient
       xlink:href="#linearGradient4-6"
       id="linearGradient867"
       x1="8"
       y1="2"
       x2="8"
       y2="14"
       gradientUnits="userSpaceOnUse" /><style
       id="style1">.g{fill:#000;}.g,.h,.i{stroke-width:0px;}.h{fill:url(#e);}.i{fill:#fff;}</style><style
       id="style1-7">.g{fill:#000;}.g,.h,.i{stroke-width:0px;}.h{fill:url(#e);}.i{fill:#fff;}</style><style
       id="style1-5">.g{fill:#000;}.g,.h,.i{stroke-width:0px;}.h{fill:url(#e);}.i{fill:#fff;}</style><linearGradient
       id="linearGradient4-6"><stop
         style="stop-color:#fafafa;stop-opacity:1;"
         offset="0"
         id="stop4-7" /><stop
         style="stop-color:#d4d4d4;stop-opacity:1;"
         offset="1"
         id="stop5" /></linearGradient><style
       id="style1-53">.g{fill:#000;}.g,.h,.i{stroke-width:0px;}.h{fill:url(#e);}.i{fill:#fff;}</style><style
       id="style1-6">.cls-1{fill:#fff;}</style><style
       id="style1-67">.cls-1{fill:#fff;}</style><linearGradient
       id="linearGradient10"><stop
         offset="0"
         style="stop-color:#ffffff;stop-opacity:1"
         id="stop7" /><stop
         offset="0.20833333"
         style="stop-color:#ffffff;stop-opacity:0.23529412"
         id="stop8" /><stop
         offset="0.80000335"
         style="stop-color:#ffffff;stop-opacity:0.15686275"
         id="stop9" /><stop
         offset="1"
         style="stop-color:#ffffff;stop-opacity:0.39215687"
         id="stop10" /></linearGradient><style
       id="style1-535">.g{fill:#000;}.g,.h,.i{stroke-width:0px;}.h{fill:url(#e);}.i{fill:#fff;}</style><style
       id="style1-7-6">.g{fill:#000;}.g,.h,.i{stroke-width:0px;}.h{fill:url(#e);}.i{fill:#fff;}</style><style
       id="style1-5-2">.g{fill:#000;}.g,.h,.i{stroke-width:0px;}.h{fill:url(#e);}.i{fill:#fff;}</style><style
       id="style1-53-9">.g{fill:#000;}.g,.h,.i{stroke-width:0px;}.h{fill:url(#e);}.i{fill:#fff;}</style><style
       id="style1-6-1">.cls-1{fill:#fff;}</style><style
       id="style1-67-2">.cls-1{fill:#fff;}</style><linearGradient
       id="linearGradient2"><stop
         style="stop-color:#5865f2;stop-opacity:1;"
         offset="0"
         id="stop3-3" /><stop
         style="stop-color:#1f30f4;stop-opacity:1;"
         offset="1"
         id="stop4-5" /></linearGradient><style
       id="style1-675">.g{fill:#000;}.g,.h,.i{stroke-width:0px;}.h{fill:url(#e);}.i{fill:#fff;}</style><style
       id="style1-6-3">.cls-1{fill:#fff;}</style><linearGradient
       xlink:href="#linearGradient10"
       id="linearGradient7"
       x1="8"
       y1="2"
       x2="8"
       y2="14"
       gradientUnits="userSpaceOnUse"
       gradientTransform="translate(0,-18)" /><linearGradient
       xlink:href="#linearGradient4-6"
       id="linearGradient12"
       x1="8"
       y1="1"
       x2="8"
       y2="15"
       gradientUnits="userSpaceOnUse"
       gradientTransform="translate(0,-18)" /><linearGradient
       id="linearGradient877"><stop
         id="stop869"
         style="stop-color:#cd9ef7;stop-opacity:1"
         offset="0" /><stop
         id="stop875"
         style="stop-color:#a56de2;stop-opacity:1"
         offset="1" /></linearGradient><linearGradient
       x1="23.999985"
       y1="7.1818104"
       x2="23.999985"
       y2="37.454536"
       id="linearGradient3304-8"
       xlink:href="#linearGradient3924-4-8-7"
       gradientUnits="userSpaceOnUse"
       gradientTransform="matrix(0.2972973,0,0,0.2972973,0.86486906,0.8648672)" /><linearGradient
       id="linearGradient3924-4-8-7"><stop
         id="stop3926-0-4-9"
         style="stop-color:#ffffff;stop-opacity:1"
         offset="0" /><stop
         id="stop3928-6-8-2"
         style="stop-color:#ffffff;stop-opacity:0.23529412"
         offset="0.05555555" /><stop
         id="stop3930-2-1-0"
         style="stop-color:#ffffff;stop-opacity:0.15686275"
         offset="0.94444448" /><stop
         id="stop3932-9-0-2"
         style="stop-color:#ffffff;stop-opacity:0.39215687"
         offset="1" /></linearGradient><linearGradient
       xlink:href="#linearGradient4-6"
       id="linearGradient867-3"
       x1="8"
       y1="1.5"
       x2="8"
       y2="13"
       gradientUnits="userSpaceOnUse" /></defs><metadata
     id="metadata4377"><rdf:RDF><cc:Work
         rdf:about=""><dc:format>image/svg+xml</dc:format><dc:type
           rdf:resource="http://purl.org/dc/dcmitype/StillImage" /></cc:Work></rdf:RDF></metadata><path
     id="rect5505-21-2"
     style="color:#000000;display:inline;overflow:visible;visibility:visible;fill:url(#linearGradient867-3);fill-opacity:1;fill-rule:nonzero;stroke:none;stroke-width:1;marker:none;enable-background:accumulate"
     d="M 3.5,2.0097656 C 2.6657184,2.0097656 2.0097656,2.6657184 2.0097656,3.5 v 8 c 0,0.834282 0.6559528,1.490234 1.4902344,1.490234 h 7.509766 v 1.277344 l 1.279297,-1.277344 H 12.5 c 0.834282,0 1.490234,-0.655952 1.490234,-1.490234 v -8 c 0,-0.8342816 -0.655952,-1.4902344 -1.490234,-1.4902344 z" /><rect
     width="11"
     height="10.000003"
     x="2.5"
     y="2.4999969"
     id="rect6741-0-3-5"
     style="opacity:1;fill:none;stroke:url(#linearGradient3304-8);stroke-width:1;stroke-linecap:round;stroke-linejoin:round;stroke-miterlimit:4;stroke-dasharray:none;stroke-dashoffset:0;stroke-opacity:1"
     rx="1"
     ry="1" /><path
     id="rect5505-21-2-8"
     style="color:#000000;display:inline;overflow:visible;visibility:visible;opacity:0.5;fill:none;stroke:#555761;stroke-width:1;stroke-linecap:round;stroke-linejoin:round;stroke-miterlimit:4;stroke-dasharray:none;stroke-dashoffset:0;stroke-opacity:1;marker:none;enable-background:accumulate"
     d="M 3.5 1.5 C 2.392 1.5 1.5 2.392 1.5 3.5 L 1.5 11.5 C 1.5 12.608 2.392 13.5 3.5 13.5 L 10.5 13.5 L 10.5 15.5 L 12.5 13.5 C 13.608 13.5 14.5 12.608 14.5 11.5 L 14.5 3.5 C 14.5 2.392 13.608 1.5 12.5 1.5 L 3.5 1.5 z " /><path
     id="path28-9"
     style="opacity:0.15;fill:#000000;fill-opacity:1;stroke:none;stroke-width:2;stroke-linejoin:round"
     d="m 6,3.5 c -0.552285,0 -1,0.447715 -1,1 0,0.552285 0.447715,1 1,1 h 1 v -1 C 7,3.947715 6.552285,3.5 6,3.5 Z m 3,0 c -0.552285,0 -1,0.4477153 -1,1 v 2 c 0,0.5522847 0.447715,1 1,1 0.552285,0 1,-0.4477153 1,-1 v -2 c 0,-0.5522847 -0.447715,-1 -1,-1 z m 3,2 c -0.552285,0 -1,0.4477153 -1,1 v 1 h 1 c 0.552285,0 1,-0.4477153 1,-1 0,-0.5522847 -0.447715,-1 -1,-1 z m -8,1 c -0.552285,0 -1,0.447715 -1,1 0,0.552285 0.447715,1 1,1 h 2 c 0.552285,0 1,-0.447715 1,-1 0,-0.552285 -0.447715,-1 -1,-1 z m 6,2 c -0.552285,0 -1,0.4477153 -1,1 0,0.552285 0.447715,1 1,1 h 2 c 0.552285,0 1,-0.447715 1,-1 0,-0.5522847 -0.447715,-1 -1,-1 z m -6,1 c -0.552285,0 -1,0.447715 -1,1 0,0.552285 0.447715,1 1,1 0.552285,0 1,-0.447715 1,-1 v -1 z m 3,0 c -0.552285,0 -1,0.447715 -1,1 v 2 c 0,0.552285 0.447715,1 1,1 0.552285,0 1,-0.447715 1,-1 v -2 C 8,9.947715 7.552285,9.5 7,9.5 Z m 2,2 v 1 c 0,0.552285 0.447715,1 1,1 0.552285,0 1,-0.447715 1,-1 0,-0.552285 -0.447715,-1 -1,-1 z" /><path
     id="path18-3"
     style="fill:#41b658;fill-opacity:1;stroke:none;stroke-width:2;stroke-linejoin:round"
     d="m 9,2.5 c -0.552285,0 -1,0.4477153 -1,1 v 2 c 0,0.5522847 0.447715,1 1,1 0.552285,0 1,-0.4477153 1,-1 v -2 c 0,-0.5522847 -0.447715,-1 -1,-1 z m 3,2 c -0.552285,0 -1,0.4477153 -1,1 v 1 h 1 c 0.552285,0 1,-0.4477153 1,-1 0,-0.5522847 -0.447715,-1 -1,-1 z" /><path
     id="path21-6"
     style="fill:#fcc003;fill-opacity:1;stroke:none;stroke-width:2;stroke-linejoin:round"
     d="m 13,8.5 c 0,-0.5522847 -0.447715,-1 -1,-1 h -2 c -0.552285,0 -1,0.4477153 -1,1 0,0.5522847 0.447715,1 1,1 h 2 c 0.552285,0 1,-0.4477153 1,-1 z m -2,3 c 0,-0.552285 -0.447715,-1 -1,-1 H 9 v 1 c 0,0.552285 0.447715,1 1,1 0.552285,0 1,-0.447715 1,-1 z" /><path
     id="path22-0"
     style="fill:#e3066a;fill-opacity:1;stroke:none;stroke-width:2;stroke-linejoin:round"
     d="m 7,12.5 c 0.552285,0 1,-0.447715 1,-1 v -2 c 0,-0.5522847 -0.447715,-1 -1,-1 -0.552285,0 -1,0.4477153 -1,1 v 2 c 0,0.552285 0.447715,1 1,1 z m -3,-2 c 0.552285,0 1,-0.447715 1,-1 v -1 H 4 c -0.552285,0 -1,0.4477153 -1,1 0,0.552285 0.447715,1 1,1 z" /><path
     id="path23-6"
     style="fill:#1ab9ff;fill-opacity:1;stroke:none;stroke-width:2;stroke-linejoin:round"
     d="m 3,6.5 c 0,0.552285 0.447715,1 1,1 h 2 c 0.552285,0 1,-0.447715 1,-1 0,-0.552285 -0.447715,-1 -1,-1 H 4 c -0.552285,0 -1,0.447715 -1,1 z m 2,-3 c 0,0.552285 0.447715,1 1,1 h 1 v -1 c 0,-0.552285 -0.447715,-1 -1,-1 -0.552285,0 -1,0.447715 -1,1 z" /><path
     id="path1"
     style="opacity:0.15;fill:#000000;fill-opacity:1;stroke:none;stroke-width:2;stroke-linejoin:round"
     d="M 6,2.5 C 5.958083,2.5000009 5.917515,2.5028 5.8769531,2.50781 5.9171959,2.5028666 5.9584107,2.5000008 6,2.5 Z M 5.8496094,2.511719 C 5.8097154,2.517769 5.7706214,2.52649 5.7324219,2.53711 5.7705119,2.526548 5.8098279,2.517726 5.8496094,2.511719 Z M 5.7324219,2.53711 C 5.6910039,2.548624 5.6503959,2.561601 5.6113281,2.578126 5.6506031,2.561495 5.6907641,2.548661 5.7324219,2.53711 Z M 5.609375,2.5800781 c -0.039761,0.016941 -0.078314,0.036848 -0.1152344,0.058594 0.037111,-0.02192 0.075246,-0.041542 0.1152344,-0.058594 z m -0.1152344,0.058594 c -0.037223,0.021925 -0.073489,0.04586 -0.1074218,0.072266 0.033836,-0.026381 0.070311,-0.050346 0.1074218,-0.072266 z m -0.1074218,0.072266 c -0.033981,0.026443 -0.065429,0.055408 -0.095703,0.085937 0.030163,-0.030434 0.061867,-0.059557 0.095703,-0.085937 z m -0.095703,0.085937 c -0.029912,0.030165 -0.058086,0.061943 -0.083984,0.095703 0.026092,-0.03408 0.053822,-0.065269 0.083984,-0.095703 z m -0.083984,0.095703 c -0.025317,0.033002 -0.049202,0.067448 -0.070312,0.1035157 0.021051,-0.035972 0.045093,-0.070575 0.070312,-0.1035157 z M 5.1347656,3 C 5.0494612,3.1472251 5,3.3176033 5,3.5 c 0,0.552285 0.447715,1 1,1 h 1 v -1 H 6 C 5.630115,3.5 5.3077576,3.2985587 5.1347656,3 Z M 8,4.5 v 1 c 0,0.5522847 0.447715,1 1,1 0.552285,0 1,-0.4477153 1,-1 v -1 c 0,0.5522847 -0.447715,1 -1,1 -0.552285,0 -1,-0.4477153 -1,-1 z m 4,0 c 0.04159,0 0.08281,0.00287 0.123047,0.00781 C 12.082485,4.5028046 12.041916,4.5 12,4.5 Z m 0.150391,0.011719 c 0.03978,0.00601 0.0791,0.01483 0.117187,0.025391 -0.0382,-0.010619 -0.07729,-0.01934 -0.117187,-0.025391 z m 0.117187,0.025391 c 0.04166,0.01155 0.08182,0.024385 0.121094,0.041016 -0.03907,-0.016525 -0.07967,-0.029502 -0.121094,-0.041016 z m 0.123047,0.042969 c 0.03999,0.017051 0.07812,0.036674 0.115234,0.058594 -0.03692,-0.021746 -0.07547,-0.041653 -0.115234,-0.058594 z m 0.115234,0.058594 c 0.03711,0.02192 0.07359,0.045884 0.107422,0.072266 -0.03393,-0.026405 -0.0702,-0.050341 -0.107422,-0.072266 z m 0.107422,0.072266 c 0.03384,0.026381 0.06554,0.055503 0.0957,0.085937 -0.03027,-0.03053 -0.06172,-0.059495 -0.0957,-0.085937 z m 0.0957,0.085937 c 0.03016,0.030435 0.05789,0.061622 0.08399,0.095703 -0.0259,-0.033761 -0.05407,-0.065538 -0.08399,-0.095703 z m 0.08399,0.095703 c 0.02522,0.032941 0.04926,0.067543 0.07031,0.1035157 -0.02111,-0.036068 -0.04499,-0.070513 -0.07031,-0.1035157 z M 12.865234,5 C 12.692242,5.2985587 12.369885,5.5 12,5.5 h -1 v 1 h 1 c 0.552285,0 1,-0.4477153 1,-1 C 13,5.3176004 12.950541,5.1472267 12.865234,5 Z M 4,5.5 C 3.958084,5.5000009 3.917514,5.5028 3.8769531,5.50781 3.9171943,5.5028669 3.9584124,5.5000008 4,5.5 Z m 2,0 C 6.041589,5.5 6.082805,5.50287 6.1230469,5.50781 6.0824852,5.5028046 6.0419163,5.5 6,5.5 Z M 3.8496094,5.511719 C 3.8097154,5.517769 3.7706214,5.52649 3.7324219,5.53711 3.7705119,5.526548 3.8098279,5.517726 3.8496094,5.511719 Z M 3.7324219,5.537109 C 3.6910033,5.5486234 3.650396,5.5616 3.6113281,5.578125 3.6506037,5.5614941 3.690764,5.54866 3.7324219,5.537109 Z M 6.1503906,5.511718 c 0.039783,0.00601 0.079096,0.01483 0.1171875,0.025391 C 6.2293771,5.52649 6.1902851,5.517769 6.1503906,5.511718 Z m 0.1171875,0.025391 c 0.041659,0.01155 0.081817,0.024385 0.1210938,0.041016 C 6.3496029,5.5616 6.3089979,5.548623 6.2675781,5.537109 Z M 3.609375,5.5800781 c -0.039762,0.016941 -0.078314,0.036848 -0.1152344,0.058594 0.037111,-0.02192 0.075246,-0.041542 0.1152344,-0.058594 z m -0.1152344,0.058594 c -0.037224,0.021924 -0.073489,0.04586 -0.1074218,0.072266 0.033836,-0.026381 0.07031,-0.050346 0.1074218,-0.072266 z m -0.1074218,0.072266 c -0.033981,0.026443 -0.065429,0.055408 -0.095703,0.085937 0.030163,-0.030435 0.061867,-0.059557 0.095703,-0.085937 z m -0.095703,0.085937 c -0.029913,0.030165 -0.058086,0.061943 -0.083984,0.095703 0.026092,-0.034081 0.053821,-0.065269 0.083984,-0.095703 z m -0.083984,0.095703 c -0.025317,0.033003 -0.049201,0.067448 -0.070312,0.1035157 0.021051,-0.035972 0.045093,-0.070575 0.070312,-0.1035157 z m 3.1835938,-0.3125 c 0.03999,0.017051 0.078122,0.036674 0.1152344,0.058594 C 6.468938,5.616926 6.4303873,5.597019 6.3906256,5.5800781 Z M 6.50586,5.6386721 c 0.037112,0.02192 0.073585,0.045884 0.1074218,0.072266 C 6.5793488,5.6845331 6.5430848,5.6605971 6.50586,5.6386721 Z m 0.1074218,0.072266 c 0.033837,0.026381 0.065539,0.055503 0.095703,0.085937 -0.030275,-0.03053 -0.061721,-0.059495 -0.095703,-0.085937 z m 0.095703,0.085937 c 0.030164,0.030435 0.057892,0.061622 0.083984,0.095703 -0.025899,-0.033761 -0.054071,-0.065538 -0.083984,-0.095703 z m 0.083984,0.095703 c 0.02522,0.032941 0.049261,0.067543 0.070312,0.1035157 -0.021111,-0.036068 -0.044995,-0.070513 -0.070312,-0.1035157 z M 3.1347656,6 C 3.0494606,6.1472255 3,6.3176027 3,6.5 c 0,0.552285 0.447715,1 1,1 H 6 C 6.552285,7.5 7,7.052285 7,6.5 7,6.3176003 6.9505414,6.1472267 6.8652344,6 6.6922424,6.2985587 6.369885,6.5 6,6.5 H 4 C 3.630115,6.5 3.3077576,6.2985587 3.1347656,6 Z M 10,7.5 C 9.958084,7.5000009 9.917514,7.5028 9.8769531,7.50781 9.9171943,7.5028669 9.9584124,7.5000008 10,7.5 Z m 2,0 c 0.04159,0 0.08281,0.00287 0.123047,0.00781 C 12.082485,7.5028046 12.041916,7.5 12,7.5 Z M 9.8496094,7.511719 C 9.8097154,7.517769 9.7706214,7.52649 9.7324219,7.53711 9.7705119,7.526548 9.8098279,7.517726 9.8496094,7.511719 Z M 9.7324219,7.537109 C 9.6910033,7.5486234 9.650396,7.5616 9.6113281,7.578125 9.6506037,7.5614941 9.690764,7.54866 9.7324219,7.537109 Z M 12.150391,7.511718 c 0.03978,0.00601 0.0791,0.01483 0.117187,0.025391 -0.0382,-0.010619 -0.07729,-0.01934 -0.117187,-0.025391 z m 0.117187,0.025391 c 0.04166,0.01155 0.08182,0.024385 0.121094,0.041016 C 12.349602,7.5616 12.309002,7.548623 12.267578,7.537109 Z M 9.609375,7.580078 C 9.569614,7.597019 9.531061,7.616926 9.4941406,7.638672 9.5312516,7.616752 9.5693866,7.59713 9.609375,7.580078 Z M 9.4941406,7.638672 C 9.4569166,7.660596 9.4206516,7.684532 9.3867188,7.710938 9.4205548,7.684557 9.4570288,7.660592 9.4941406,7.638672 Z M 9.3867188,7.710938 C 9.3527378,7.737381 9.3212898,7.766346 9.2910158,7.796875 9.3211788,7.76644 9.3528828,7.737318 9.3867188,7.710938 Z M 9.2910158,7.796875 C 9.2611028,7.82704 9.2329308,7.858818 9.2070318,7.892578 9.2331238,7.858497 9.2608528,7.827309 9.2910158,7.796875 Z m -0.083984,0.095703 c -0.025317,0.033003 -0.049201,0.067448 -0.070312,0.1035157 0.021051,-0.035972 0.045093,-0.070575 0.070312,-0.1035157 z m 3.1835942,-0.3125 c 0.03999,0.017051 0.07812,0.036674 0.115234,0.058594 C 12.46894,7.616926 12.43039,7.597019 12.390626,7.580078 Z m 0.115234,0.058594 c 0.03711,0.02192 0.07359,0.045884 0.107422,0.072266 -0.03393,-0.026405 -0.0702,-0.050341 -0.107422,-0.072266 z m 0.107422,0.072266 c 0.03384,0.026381 0.06554,0.055503 0.0957,0.085937 -0.03027,-0.03053 -0.06172,-0.059495 -0.0957,-0.085937 z m 0.0957,0.085937 c 0.03016,0.030435 0.05789,0.061622 0.08399,0.095703 -0.0259,-0.033761 -0.05407,-0.065538 -0.08399,-0.095703 z m 0.08399,0.095703 c 0.02522,0.032941 0.04926,0.067543 0.07031,0.1035157 -0.02111,-0.036068 -0.04499,-0.070513 -0.07031,-0.1035157 z M 9.1347656,8 C 9.0494606,8.1472255 9,8.3176028 9,8.5 c 0,0.5522847 0.447715,1 1,1 h 2 c 0.552285,0 1,-0.4477153 1,-1 C 13,8.3176004 12.950541,8.1472267 12.865234,8 12.692242,8.2985587 12.369885,8.5 12,8.5 H 10 C 9.630115,8.5 9.3077576,8.2985587 9.1347656,8 Z M 4,8.5 C 3.958083,8.5000009 3.917515,8.5028 3.8769531,8.50781 3.9171959,8.5028666 3.9584107,8.5000008 4,8.5 Z m 1,0 C 5,9.052285 4.552285,9.5 4,9.5 3.630115,9.5 3.3077576,9.2985587 3.1347656,9 3.0494612,9.1472251 3,9.3176034 3,9.5 c 0,0.552285 0.447715,1 1,1 0.552285,0 1,-0.447715 1,-1 z M 3.8496094,8.511719 C 3.8097154,8.517769 3.7706214,8.52649 3.7324219,8.53711 3.7705119,8.526548 3.8098279,8.517726 3.8496094,8.511719 Z M 3.7324219,8.53711 C 3.6910039,8.548624 3.6503959,8.5616 3.6113281,8.578126 3.6506031,8.561495 3.6907641,8.548661 3.7324219,8.53711 Z M 3.609375,8.5800781 c -0.039761,0.016941 -0.078314,0.036848 -0.1152344,0.058594 0.037111,-0.02192 0.075246,-0.041542 0.1152344,-0.058594 z m -0.1152344,0.058594 c -0.037223,0.021925 -0.073489,0.04586 -0.1074218,0.072266 0.033836,-0.026381 0.070311,-0.050346 0.1074218,-0.072266 z m -0.1074218,0.072266 c -0.033981,0.026443 -0.065429,0.055408 -0.095703,0.085937 0.030163,-0.030434 0.061867,-0.059557 0.095703,-0.085937 z m -0.095703,0.085937 c -0.029912,0.030165 -0.058086,0.061943 -0.083984,0.095703 0.026092,-0.03408 0.053822,-0.065269 0.083984,-0.095703 z m -0.083984,0.095703 c -0.025317,0.033002 -0.049201,0.067448 -0.070312,0.1035157 0.021051,-0.035972 0.045093,-0.070575 0.070312,-0.1035157 z M 6,10.5 v 1 c 0,0.552285 0.447715,1 1,1 0.552285,0 1,-0.447715 1,-1 v -1 c 0,0.552285 -0.447715,1 -1,1 -0.552285,0 -1,-0.447715 -1,-1 z m 3,0 v 1 c 0,0.552285 0.447715,1 1,1 0.552285,0 1,-0.447715 1,-1 C 11,11.3176 10.95054,11.147227 10.865234,11 10.692242,11.298559 10.369885,11.5 10,11.5 c -0.552285,0 -1,-0.447715 -1,-1 z m 1,0 c 0.04159,0 0.08281,0.0029 0.123047,0.0078 C 10.082485,10.502805 10.041916,10.5 10,10.5 Z m 0.150391,0.01172 c 0.03978,0.006 0.0791,0.01483 0.117187,0.02539 -0.0382,-0.01062 -0.07729,-0.01934 -0.117187,-0.02539 z m 0.117187,0.02539 c 0.04166,0.01155 0.08182,0.02439 0.121094,0.04102 -0.03907,-0.01652 -0.07967,-0.0295 -0.121094,-0.04102 z m 0.123047,0.04297 c 0.03999,0.01705 0.07812,0.03667 0.115234,0.05859 -0.03692,-0.02175 -0.07547,-0.04165 -0.115234,-0.05859 z m 0.115234,0.05859 c 0.03711,0.02192 0.07359,0.04588 0.107422,0.07227 -0.03393,-0.02641 -0.0702,-0.05034 -0.107422,-0.07227 z m 0.107422,0.07227 c 0.03384,0.02638 0.06554,0.0555 0.0957,0.08594 -0.03027,-0.03053 -0.06172,-0.0595 -0.0957,-0.08594 z m 0.0957,0.08594 c 0.03016,0.03044 0.05789,0.06162 0.08399,0.0957 -0.0259,-0.03376 -0.05407,-0.06554 -0.08399,-0.0957 z m 0.08399,0.0957 c 0.02522,0.03294 0.04926,0.06754 0.07031,0.103516 -0.02111,-0.03607 -0.04499,-0.07051 -0.07031,-0.103516 z" /></svg>
