<?xml version="1.0" encoding="UTF-8" standalone="no"?>
<!-- Created with Inkscape (http://www.inkscape.org/) -->

<svg
   width="16"
   height="16"
   viewBox="0 0 16 16"
   version="1.1"
   id="svg1"
   xmlns:xlink="http://www.w3.org/1999/xlink"
   xmlns="http://www.w3.org/2000/svg"
   xmlns:svg="http://www.w3.org/2000/svg">
  <defs
     id="defs1">
    <linearGradient
       id="linearGradient26">
      <stop
         style="stop-color:#00a633;stop-opacity:1;"
         offset="0"
         id="stop25" />
      <stop
         style="stop-color:#155e28;stop-opacity:1;"
         offset="1"
         id="stop26" />
    </linearGradient>
    <linearGradient
       id="linearGradient10">
      <stop
         style="stop-color:#24f276;stop-opacity:1;"
         offset="0"
         id="stop10" />
      <stop
         style="stop-color:#00a637;stop-opacity:1;"
         offset="1"
         id="stop11" />
    </linearGradient>
    <linearGradient
       id="linearGradient3">
      <stop
         style="stop-color:#ffffff;stop-opacity:1;"
         offset="0"
         id="stop3" />
      <stop
         style="stop-color:#ffffff;stop-opacity:0.25;"
         offset="0.10338421"
         id="stop5" />
      <stop
         style="stop-color:#ffffff;stop-opacity:0.24705882;"
         offset="0.90118366"
         id="stop6" />
      <stop
         style="stop-color:#ffffff;stop-opacity:1;"
         offset="1"
         id="stop4" />
    </linearGradient>
    <linearGradient
       id="linearGradient1">
      <stop
         style="stop-color:#00a134;stop-opacity:1;"
         offset="0.15352076"
         id="stop1" />
      <stop
         style="stop-color:#146025;stop-opacity:1;"
         offset="0.85281307"
         id="stop2" />
    </linearGradient>
    <linearGradient
       xlink:href="#linearGradient26"
       id="linearGradient2"
       x1="64"
       y1="5"
       x2="64"
       y2="123"
       gradientUnits="userSpaceOnUse"
       gradientTransform="matrix(0.35593219,0,0,0.35593219,0.7203409,0.7203409)" />
    <linearGradient
       xlink:href="#linearGradient3"
       id="linearGradient4"
       x1="64"
       y1="5"
       x2="64"
       y2="123"
       gradientUnits="userSpaceOnUse"
       gradientTransform="matrix(0.10256419,0,0,0.10256419,0.9358926,0.9358925)" />
    <linearGradient
       xlink:href="#linearGradient10"
       id="linearGradient11"
       x1="23.500004"
       y1="2.500001"
       x2="23.500004"
       y2="44.500004"
       gradientUnits="userSpaceOnUse"
       gradientTransform="matrix(0.33333334,0,0,0.33333334,-0.33333205,-0.33333205)" />
    <clipPath
       clipPathUnits="userSpaceOnUse"
       id="clipPath16">
      <path
         id="path17"
         style="display:inline;fill:none;stroke:none;stroke-width:2.14478"
         d="m 17.703127,14.181643 c -2.348652,0.06982 -4.687097,0.339295 -7,0.808593 -1.0844721,0.220733 -1.7871401,1.278842 -1.5664063,2.365235 0.220733,1.084473 1.2788413,1.787139 2.3652343,1.566406 4.176661,-0.848386 8.451607,-0.973893 12.703125,-0.376953 4.251518,0.59694 8.324208,1.895874 12.105469,3.863281 0.209217,0.107487 0.425751,0.176321 0.646484,0.207031 0.817148,0.115091 1.657168,-0.28608 2.060547,-1.060547 0.509312,-0.982456 0.126739,-2.192838 -0.855469,-2.703125 -4.188178,-2.178543 -8.693935,-3.619015 -13.398437,-4.279296 -2.352251,-0.330141 -4.711895,-0.460444 -7.060547,-0.390625 z m -0.05664,7.273437 c -2.029068,0.07702 -4.047696,0.334849 -6.041015,0.773438 -0.879095,0.193861 -1.436049,1.064264 -1.242188,1.943359 0.149715,0.685234 0.710713,1.173495 1.365235,1.265625 0.188104,0.02687 0.382344,0.01879 0.578125,-0.02344 C 15.913238,24.62134 19.60967,24.481757 23.296878,25 c 3.687209,0.518244 7.20351,1.671463 10.451172,3.427734 0.790801,0.428031 1.780954,0.132598 2.208984,-0.658203 v -0.002 c 0.428032,-0.792722 0.134519,-1.780952 -0.658203,-2.208984 -3.589318,-1.942455 -7.475782,-3.217075 -11.546875,-3.789063 -2.036506,-0.285993 -4.0764,-0.39147 -6.105469,-0.314453 z m 2.570313,6.509766 c -2.625409,-0.121194 -5.237327,0.13006 -7.796875,0.751953 -0.673717,0.16315 -1.086979,0.839956 -0.923828,1.513672 0.163151,0.673717 0.839956,1.086978 1.513672,0.923828 3.103705,-0.754332 6.29625,-0.910083 9.486328,-0.460938 3.190079,0.449144 6.214752,1.47891 8.990234,3.058594 0.142038,0.08061 0.293678,0.129271 0.445313,0.150391 0.49521,0.0691 1.004583,-0.160433 1.265625,-0.621094 h 0.002 c 0.341658,-0.602698 0.130075,-1.367361 -0.470703,-1.710938 -3.0538,-1.737077 -6.37795,-2.866084 -9.882813,-3.359375 -0.876216,-0.123322 -1.75377,-0.205696 -2.628906,-0.246093 z" />
    </clipPath>
    <linearGradient
       xlink:href="#linearGradient1"
       id="linearGradient7"
       gradientUnits="userSpaceOnUse"
       gradientTransform="matrix(0.35593219,0,0,0.35593219,0.72034092,0.72034092)"
       x1="64"
       y1="5"
       x2="64"
       y2="123" />
    <linearGradient
       xlink:href="#linearGradient1"
       id="linearGradient8"
       gradientUnits="userSpaceOnUse"
       gradientTransform="matrix(0.35593219,0,0,0.35593219,0.72034092,0.72034092)"
       x1="64"
       y1="5"
       x2="64"
       y2="123" />
    <linearGradient
       xlink:href="#linearGradient1"
       id="linearGradient13"
       gradientUnits="userSpaceOnUse"
       gradientTransform="matrix(0.35593218,0,0,0.35593218,0.72034093,0.72034093)"
       x1="64"
       y1="5"
       x2="64"
       y2="123" />
    <linearGradient
       xlink:href="#linearGradient1"
       id="linearGradient15"
       gradientUnits="userSpaceOnUse"
       gradientTransform="matrix(0.35593218,0,0,0.35593218,0.72034093,0.72034093)"
       x1="64"
       y1="5"
       x2="64"
       y2="123" />
    <clipPath
       clipPathUnits="userSpaceOnUse"
       id="clipPath3">
      <path
         id="path4"
         style="display:inline;fill:#ffffff;fill-opacity:1;stroke-width:2.14477"
         d="m 17.703127,14.181643 c -2.348652,0.06982 -4.687097,0.339294 -7,0.808593 -1.0844721,0.220733 -1.7871399,1.278842 -1.5664062,2.365235 0.2207331,1.084473 1.2788412,1.787139 2.3652342,1.566406 4.176661,-0.848386 8.451607,-0.973893 12.703125,-0.376953 4.251517,0.59694 8.324208,1.895874 12.105468,3.86328 0.20922,0.10749 0.425751,0.176322 0.646485,0.207033 0.817149,0.115095 1.657167,-0.28608 2.060547,-1.060547 0.509313,-0.982457 0.126735,-2.192839 -0.855468,-2.703127 -4.18818,-2.178543 -8.693936,-3.619014 -13.398438,-4.279296 -2.352251,-0.33014 -4.711895,-0.460443 -7.060547,-0.390624 z m -0.05664,7.273437 c -2.029068,0.07703 -4.047696,0.334848 -6.041015,0.773438 -0.879095,0.193861 -1.436049,1.064263 -1.242188,1.943359 0.149715,0.685233 0.710713,1.173495 1.365235,1.265625 0.188103,0.02688 0.382344,0.01881 0.578125,-0.02343 3.606593,-0.792721 7.303025,-0.932305 10.990234,-0.414061 3.687208,0.518244 7.20351,1.671462 10.451172,3.427734 0.7908,0.428031 1.780953,0.1326 2.208984,-0.658203 v -0.002 c 0.428031,-0.792722 0.13452,-1.780952 -0.658203,-2.208984 -3.58932,-1.942455 -7.475783,-3.217074 -11.546876,-3.789063 -2.036505,-0.285993 -4.0764,-0.39147 -6.105468,-0.314453 z m 2.570313,6.509766 c -2.625409,-0.1212 -5.237328,0.130065 -7.796875,0.751953 -0.673717,0.163149 -1.086979,0.839954 -0.923828,1.51367 0.163152,0.673719 0.839956,1.086978 1.513672,0.923829 3.103705,-0.754332 6.296249,-0.910083 9.486328,-0.460938 3.190078,0.449145 6.214752,1.47891 8.990232,3.058596 0.14202,0.08061 0.29367,0.12927 0.445314,0.15039 0.49521,0.06912 1.004583,-0.16044 1.265625,-0.621093 h 0.002 c 0.341658,-0.6027 0.13008,-1.367364 -0.470703,-1.710939 -3.053799,-1.737078 -6.377953,-2.866085 -9.882816,-3.359375 -0.876216,-0.12333 -1.75377,-0.205695 -2.628906,-0.246093 z" />
    </clipPath>
    <clipPath
       clipPathUnits="userSpaceOnUse"
       id="clipPath4">
      <path
         id="path5"
         style="display:inline;fill:#ffffff;fill-opacity:1;stroke-width:2.14477"
         d="m 17.703127,14.181643 c -2.348652,0.06982 -4.687097,0.339294 -7,0.808593 -1.0844721,0.220733 -1.7871399,1.278842 -1.5664062,2.365235 0.2207331,1.084473 1.2788412,1.787139 2.3652342,1.566406 4.176661,-0.848386 8.451607,-0.973893 12.703125,-0.376953 4.251517,0.59694 8.324208,1.895874 12.105468,3.86328 0.20922,0.10749 0.425751,0.176322 0.646485,0.207033 0.817149,0.115095 1.657167,-0.28608 2.060547,-1.060547 0.509313,-0.982457 0.126735,-2.192839 -0.855468,-2.703127 -4.18818,-2.178543 -8.693936,-3.619014 -13.398438,-4.279296 -2.352251,-0.33014 -4.711895,-0.460443 -7.060547,-0.390624 z m -0.05664,7.273437 c -2.029068,0.07703 -4.047696,0.334848 -6.041015,0.773438 -0.879095,0.193861 -1.436049,1.064263 -1.242188,1.943359 0.149715,0.685233 0.710713,1.173495 1.365235,1.265625 0.188103,0.02688 0.382344,0.01881 0.578125,-0.02343 3.606593,-0.792721 7.303025,-0.932305 10.990234,-0.414061 3.687208,0.518244 7.20351,1.671462 10.451172,3.427734 0.7908,0.428031 1.780953,0.1326 2.208984,-0.658203 v -0.002 c 0.428031,-0.792722 0.13452,-1.780952 -0.658203,-2.208984 -3.58932,-1.942455 -7.475783,-3.217074 -11.546876,-3.789063 -2.036505,-0.285993 -4.0764,-0.39147 -6.105468,-0.314453 z m 2.570313,6.509766 c -2.625409,-0.1212 -5.237328,0.130065 -7.796875,0.751953 -0.673717,0.163149 -1.086979,0.839954 -0.923828,1.51367 0.163152,0.673719 0.839956,1.086978 1.513672,0.923829 3.103705,-0.754332 6.296249,-0.910083 9.486328,-0.460938 3.190078,0.449145 6.214752,1.47891 8.990232,3.058596 0.14202,0.08061 0.29367,0.12927 0.445314,0.15039 0.49521,0.06912 1.004583,-0.16044 1.265625,-0.621093 h 0.002 c 0.341658,-0.6027 0.13008,-1.367364 -0.470703,-1.710939 -3.053799,-1.737078 -6.377952,-2.866085 -9.882815,-3.359375 -0.876216,-0.12333 -1.75377,-0.205695 -2.628906,-0.246093 z" />
    </clipPath>
  </defs>
  <g
     id="g1"
     transform="translate(0.49999809,0.49999809)">
    <circle
       style="display:inline;opacity:1;fill:url(#linearGradient11);stroke:none;stroke-width:1;stroke-opacity:1"
       id="path10"
       cx="7.5000019"
       cy="7.5000019"
       r="7" />
    <circle
       style="display:inline;opacity:0.5;fill:none;stroke:#1c8a42;stroke-width:1;stroke-dasharray:none;stroke-opacity:1"
       id="path1-5"
       cx="7.5000019"
       cy="7.5000019"
       r="7" />
    <circle
       style="display:inline;opacity:0.3;fill:none;stroke:url(#linearGradient4);stroke-width:0.999988;stroke-dasharray:none;stroke-opacity:1"
       id="path1-7"
       cx="7.5000019"
       cy="7.5000019"
       r="6.0000057" />
    <g
       id="g13"
       transform="matrix(0.33333333,0,0,0.33333333,-0.33333206,-0.33333206)"
       style="stroke-width:3">
      <path
         id="path2"
         style="display:inline;opacity:0.15;fill:none;stroke:#ffffff;stroke-width:1.8;stroke-dasharray:none;stroke-opacity:1"
         d="m 17.703127,15.082271 c -2.348652,0.06982 -4.687097,0.339295 -7,0.808593 -1.0844719,0.220733 -1.7871401,1.278842 -1.5664063,2.365235 0.220733,1.084473 1.2788413,1.787139 2.3652343,1.566406 4.176661,-0.848386 8.451607,-0.973893 12.703125,-0.376953 4.251518,0.59694 8.324208,1.895874 12.105469,3.863281 0.209217,0.107487 0.425751,0.176321 0.646484,0.207031 0.817148,0.115091 1.657168,-0.28608 2.060547,-1.060547 0.509312,-0.982456 0.126739,-2.192838 -0.855469,-2.703125 -4.188178,-2.178543 -8.693935,-3.619015 -13.398437,-4.279296 -2.352251,-0.330141 -4.711895,-0.460444 -7.060547,-0.390625 z m -0.05664,7.273437 c -2.029068,0.07702 -4.047696,0.334849 -6.041015,0.773438 -0.879095,0.193861 -1.436049,1.064264 -1.242188,1.943359 0.149715,0.685234 0.710713,1.173495 1.365235,1.265625 0.188104,0.02687 0.382344,0.01879 0.578125,-0.02344 3.606594,-0.792722 7.303026,-0.932305 10.990234,-0.414062 3.687209,0.518244 7.20351,1.671463 10.451172,3.427734 0.790801,0.428031 1.780954,0.132598 2.208984,-0.658203 v -0.002 c 0.428032,-0.792722 0.134519,-1.780952 -0.658203,-2.208984 -3.589318,-1.942455 -7.475782,-3.217075 -11.546875,-3.789063 -2.036506,-0.285993 -4.0764,-0.39147 -6.105469,-0.314453 z m 2.570313,6.509766 c -2.625409,-0.121194 -5.237327,0.13006 -7.796875,0.751953 -0.673717,0.16315 -1.086979,0.839956 -0.923828,1.513672 0.163151,0.673717 0.839956,1.086978 1.513672,0.923828 3.103705,-0.754332 6.29625,-0.910083 9.486328,-0.460938 3.190079,0.449144 6.214752,1.47891 8.990234,3.058594 0.142038,0.08061 0.293678,0.129271 0.445313,0.150391 0.49521,0.0691 1.004583,-0.160433 1.265625,-0.621094 0.06588,0 0.501821,-1.155908 -0.468703,-1.710938 -3.0538,-1.737077 -6.37795,-2.866084 -9.882813,-3.359375 -0.876216,-0.123322 -1.75377,-0.205696 -2.628906,-0.246093 z" />
      <path
         id="path14"
         style="display:inline;opacity:0.15;fill:none;stroke:#ffffff;stroke-width:0.9;stroke-dasharray:none;stroke-opacity:1"
         d="m 17.703127,14.632272 c -2.348652,0.06982 -4.687097,0.339295 -7,0.808593 -1.0844719,0.220733 -1.7871401,1.278842 -1.5664063,2.365235 0.220733,1.084473 1.2788413,1.787139 2.3652343,1.566406 4.176661,-0.848386 8.451607,-0.973893 12.703125,-0.376953 4.251518,0.59694 8.324208,1.895874 12.105469,3.863281 0.209217,0.107487 0.425751,0.176321 0.646484,0.207031 0.817148,0.115091 1.657168,-0.28608 2.060547,-1.060547 0.509312,-0.982456 0.126739,-2.192838 -0.855469,-2.703125 -4.188178,-2.178543 -8.693935,-3.619015 -13.398437,-4.279296 -2.352251,-0.330141 -4.711895,-0.460444 -7.060547,-0.390625 z m -0.05664,7.273437 c -2.029068,0.07702 -4.047696,0.334849 -6.041015,0.773438 -0.879095,0.193861 -1.436049,1.064264 -1.242188,1.943359 0.149715,0.685234 0.710713,1.173495 1.365235,1.265625 0.188104,0.02687 0.382344,0.01879 0.578125,-0.02344 3.606594,-0.792722 7.303026,-0.932305 10.990234,-0.414062 3.687209,0.518244 7.20351,1.671463 10.451172,3.427734 0.790801,0.428031 1.780954,0.132598 2.208984,-0.658203 v -0.002 c 0.428032,-0.792722 0.134519,-1.780952 -0.658203,-2.208984 -3.589318,-1.942455 -7.475782,-3.217075 -11.546875,-3.789063 -2.036506,-0.285993 -4.0764,-0.39147 -6.105469,-0.314453 z m 2.570313,6.509766 c -2.625409,-0.121194 -5.237327,0.13006 -7.796875,0.751953 -0.673717,0.16315 -1.086979,0.839956 -0.923828,1.513672 0.163151,0.673717 0.839956,1.086978 1.513672,0.923828 3.103705,-0.754332 6.29625,-0.910083 9.486328,-0.460938 3.190079,0.449144 6.214752,1.47891 8.990234,3.058594 0.142038,0.08061 0.293678,0.129271 0.445313,0.150391 0.49521,0.0691 1.004583,-0.160433 1.265625,-0.621094 0.06588,0 0.501821,-1.155908 -0.468703,-1.710938 -3.0538,-1.737077 -6.37795,-2.866084 -9.882813,-3.359375 -0.876216,-0.123322 -1.75377,-0.205696 -2.628906,-0.246093 z" />
      <path
         id="path1"
         style="display:inline;fill:url(#linearGradient2);stroke-width:6.43434"
         d="m 17.703127,14.181643 c -2.348652,0.06982 -4.687097,0.339295 -7,0.808593 -1.0844719,0.220733 -1.7871401,1.278842 -1.5664063,2.365235 0.220733,1.084473 1.2788413,1.787139 2.3652343,1.566406 4.176661,-0.848386 8.451607,-0.973893 12.703125,-0.376953 4.251518,0.59694 8.324208,1.895874 12.105469,3.863281 0.209217,0.107487 0.425751,0.176321 0.646484,0.207031 0.817148,0.115091 1.657168,-0.28608 2.060547,-1.060547 0.509312,-0.982456 0.126739,-2.192838 -0.855469,-2.703125 -4.188178,-2.178543 -8.693935,-3.619015 -13.398437,-4.279296 -2.352251,-0.330141 -4.711895,-0.460444 -7.060547,-0.390625 z m -0.05664,7.273437 c -2.029068,0.07702 -4.047696,0.334849 -6.041015,0.773438 -0.879095,0.193861 -1.436049,1.064264 -1.242188,1.943359 0.149715,0.685234 0.710713,1.173495 1.365235,1.265625 0.188104,0.02687 0.382344,0.01879 0.578125,-0.02344 C 15.913238,24.62134 19.60967,24.481757 23.296878,25 c 3.687209,0.518244 7.20351,1.671463 10.451172,3.427734 0.790801,0.428031 1.780954,0.132598 2.208984,-0.658203 v -0.002 c 0.428032,-0.792722 0.134519,-1.780952 -0.658203,-2.208984 -3.589318,-1.942455 -7.475782,-3.217075 -11.546875,-3.789063 -2.036506,-0.285993 -4.0764,-0.39147 -6.105469,-0.314453 z m 2.570313,6.509766 c -2.625409,-0.121194 -5.237327,0.13006 -7.796875,0.751953 -0.673717,0.16315 -1.086979,0.839956 -0.923828,1.513672 0.163151,0.673717 0.839956,1.086978 1.513672,0.923828 3.103705,-0.754332 6.29625,-0.910083 9.486328,-0.460938 3.190079,0.449144 6.214752,1.47891 8.990234,3.058594 0.142038,0.08061 0.293678,0.129271 0.445313,0.150391 0.49521,0.0691 1.004583,-0.160433 1.265625,-0.621094 h 0.002 c 0.341658,-0.602698 0.130075,-1.367361 -0.470703,-1.710938 -3.0538,-1.737077 -6.37795,-2.866084 -9.882813,-3.359375 -0.876216,-0.123322 -1.75377,-0.205696 -2.628906,-0.246093 z" />
      <path
         id="path18"
         style="display:inline;opacity:0.15;fill:none;fill-opacity:1;stroke:#000000;stroke-width:0.9;stroke-dasharray:none;stroke-opacity:1"
         d="m 17.703499,14.632272 c -2.348652,0.06982 -4.687097,0.339295 -7,0.808593 -1.0844719,0.220733 -1.7871401,1.278842 -1.5664063,2.365235 0.220733,1.084473 1.2788413,1.787139 2.3652343,1.566406 4.176661,-0.848386 8.451607,-0.973893 12.703125,-0.376953 4.251518,0.59694 8.27328,1.921338 12.054541,3.888745 0.209217,0.107487 0.425751,0.176321 0.646484,0.207031 0.817148,0.115091 1.708096,-0.311544 2.111475,-1.086011 0.509312,-0.982456 0.126739,-2.192838 -0.855469,-2.703125 -4.188178,-2.178543 -8.693935,-3.619015 -13.398437,-4.279296 -2.352251,-0.330141 -4.711895,-0.460444 -7.060547,-0.390625 z m -0.05664,7.273437 c -2.029068,0.07702 -4.047696,0.334849 -6.041015,0.773438 -0.879095,0.193861 -1.436049,1.064264 -1.242188,1.943359 0.149715,0.685234 0.710713,1.173495 1.365235,1.265625 0.188104,0.02687 0.382344,0.01879 0.578125,-0.02344 3.606594,-0.792722 7.303026,-0.932305 10.990234,-0.414062 3.687209,0.518244 7.152582,1.722391 10.400244,3.478662 0.790801,0.428031 1.831882,0.08167 2.259912,-0.709131 v -0.002 c 0.428032,-0.792722 0.134519,-1.780952 -0.658203,-2.208984 -3.589318,-1.942455 -7.475782,-3.217075 -11.546875,-3.789063 -2.036506,-0.285993 -4.0764,-0.39147 -6.105469,-0.314453 z m 2.570313,6.509766 c -2.625409,-0.121194 -5.237327,0.13006 -7.796875,0.751953 -0.673717,0.16315 -1.086979,0.839956 -0.923828,1.513672 0.163151,0.673717 0.839956,1.086978 1.513672,0.923828 3.103705,-0.754332 6.29625,-0.910083 9.486328,-0.460938 3.190079,0.449144 6.138359,1.47891 8.913841,3.058594 0.142038,0.08061 0.293678,0.129271 0.445313,0.150391 0.49521,0.0691 1.080976,-0.160433 1.342018,-0.621094 h 0.002 c 0.341658,-0.602698 0.130075,-1.367361 -0.470703,-1.710938 -3.0538,-1.737077 -6.37795,-2.866084 -9.882813,-3.359375 -0.876216,-0.123322 -1.75377,-0.205696 -2.628906,-0.246093 z"
         clip-path="url(#clipPath3)" />
      <path
         id="path21"
         style="display:inline;opacity:0.15;fill:none;stroke:#000000;stroke-width:1.8;stroke-dasharray:none;stroke-opacity:1"
         d="m 17.703127,15.082271 c -2.348652,0.06982 -4.687097,0.339295 -7,0.808593 -1.0844719,0.220733 -1.7871401,1.278842 -1.5664063,2.365235 0.220733,1.084473 1.2788413,1.787139 2.3652343,1.566406 4.176661,-0.848386 8.451607,-0.973893 12.703125,-0.376953 4.251518,0.59694 8.247815,1.946802 12.029076,3.914209 0.209217,0.107487 0.425751,0.176321 0.646484,0.207031 0.817148,0.115091 1.733561,-0.337008 2.13694,-1.111475 0.509312,-0.982456 0.126739,-2.192838 -0.855469,-2.703125 -4.188178,-2.178543 -8.693935,-3.619015 -13.398437,-4.279296 -2.352251,-0.330141 -4.711895,-0.460444 -7.060547,-0.390625 z m -0.05664,7.273437 c -2.029068,0.07702 -4.047696,0.334849 -6.041015,0.773438 -0.879095,0.193861 -1.436049,1.064264 -1.242188,1.943359 0.149715,0.685234 0.710713,1.173495 1.365235,1.265625 0.188104,0.02687 0.382344,0.01879 0.578125,-0.02344 3.606594,-0.792722 7.303026,-0.932305 10.990234,-0.414062 3.687209,0.518244 7.101653,1.722391 10.349315,3.478662 0.790801,0.428031 1.882811,0.08167 2.310841,-0.709131 v -0.002 c 0.428032,-0.792722 0.134519,-1.780952 -0.658203,-2.208984 -3.589318,-1.942455 -7.475782,-3.217075 -11.546875,-3.789063 -2.036506,-0.285993 -4.0764,-0.39147 -6.105469,-0.314453 z m 2.570313,6.509766 c -2.625409,-0.121194 -5.237327,0.13006 -7.796875,0.751953 -0.673717,0.16315 -1.086979,0.839956 -0.923828,1.513672 0.163151,0.673717 0.839956,1.086978 1.513672,0.923828 3.103705,-0.754332 6.29625,-0.910083 9.486328,-0.460938 3.190079,0.449144 6.112895,1.504374 8.888377,3.084058 0.142038,0.08061 0.293678,0.129271 0.445313,0.150391 0.49521,0.0691 1.10644,-0.185897 1.367482,-0.646558 h 0.002 c 0.341658,-0.602698 0.130075,-1.367361 -0.470703,-1.710938 -3.0538,-1.737077 -6.37795,-2.866084 -9.882813,-3.359375 -0.876216,-0.123322 -1.75377,-0.205696 -2.628906,-0.246093 z"
         clip-path="url(#clipPath4)" />
      <rect
         style="opacity:0.3;fill:none;fill-opacity:1;stroke:none;stroke-width:3;stroke-opacity:1"
         id="rect12"
         width="48"
         height="48"
         x="-0.49999809"
         y="-0.49999809" />
    </g>
  </g>
</svg>
